<svg xmlns="http://www.w3.org/2000/svg" xmlns:xlink="http://www.w3.org/1999/xlink" width="1080" zoomAndPan="magnify" viewBox="0 0 810 1012.49997" height="1350" preserveAspectRatio="xMidYMid meet" version="1.0"><defs><g/><clipPath id="145045c243"><path d="M 0.199219 0 L 809.800781 0 L 809.800781 1012 L 0.199219 1012 Z M 0.199219 0 " clip-rule="nonzero"/></clipPath><clipPath id="8c30a7b13a"><path d="M 0.199219 0 L 809.800781 0 L 809.800781 427.289062 L 0.199219 427.289062 Z M 0.199219 0 " clip-rule="nonzero"/></clipPath><clipPath id="c756cda9b6"><path d="M 0.199219 435 L 401.25 435 L 401.25 1012 L 0.199219 1012 Z M 0.199219 435 " clip-rule="nonzero"/></clipPath><clipPath id="fc4cf9bca2"><path d="M 409 434.785156 L 809.800781 434.785156 L 809.800781 719.644531 L 409 719.644531 Z M 409 434.785156 " clip-rule="nonzero"/></clipPath><clipPath id="0b432ab2b6"><path d="M 408.75 727.140625 L 809.800781 727.140625 L 809.800781 1012 L 408.75 1012 Z M 408.75 727.140625 " clip-rule="nonzero"/></clipPath><clipPath id="2d7ec43e16"><path d="M 405 0 L 809.800781 0 L 809.800781 57.375 L 405 57.375 Z M 405 0 " clip-rule="nonzero"/></clipPath><clipPath id="05e47f84db"><path d="M 0 0 L 404.800781 0 L 404.800781 57.375 L 0 57.375 Z M 0 0 " clip-rule="nonzero"/></clipPath><clipPath id="fdb72a5031"><rect x="0" width="405" y="0" height="58"/></clipPath><clipPath id="ffe6b80539"><path d="M 414 13 L 809.800781 13 L 809.800781 45 L 414 45 Z M 414 13 " clip-rule="nonzero"/></clipPath><clipPath id="2a4be64518"><rect x="0" width="396" y="0" height="32"/></clipPath></defs><g clip-path="url(#145045c243)"><path fill="#ffffff" d="M 0.199219 0 L 809.800781 0 L 809.800781 1012 L 0.199219 1012 Z M 0.199219 0 " fill-opacity="1" fill-rule="nonzero"/><path fill="#ffffff" d="M 0.199219 0 L 809.800781 0 L 809.800781 1012 L 0.199219 1012 Z M 0.199219 0 " fill-opacity="1" fill-rule="nonzero"/></g><g clip-path="url(#8c30a7b13a)"><g transform="matrix(0.199901, 0, 0, 0.199814, 0.199913, -14.224231)"><image x="0" y="0" width="4050" xlink:href="@@PHOTO0@@" height="2281" preserveAspectRatio="xMidYMid meet"/></g></g><g clip-path="url(#c756cda9b6)"><g transform="matrix(0.213096, 0, 0, 0.213073, -313.651092, 434.785308)"><image x="0" y="0" width="3852" xlink:href="@@PHOTO1@@" height="2709" preserveAspectRatio="xMidYMid meet"/></g></g><g clip-path="url(#fc4cf9bca2)"><g transform="matrix(0.177065, 0, 0, 0.177116, 408.748132, 279.035033)"><image x="0" y="0" width="2265" xlink:href="@@PHOTO2@@" height="3369" preserveAspectRatio="xMidYMid meet"/></g></g><g clip-path="url(#0b432ab2b6)"><g transform="matrix(0.158962, 0, 0, 0.158962, 395.496026, 727.140866)"><image x="0" y="0" width="2688" xlink:href="@@PHOTO3@@" height="1792" preserveAspectRatio="xMidYMid meet"/></g></g><g clip-path="url(#2d7ec43e16)"><g transform="matrix(1, 0, 0, 1, 405, 0)"><g clip-path="url(#fdb72a5031)"><g clip-path="url(#05e47f84db)"><path fill="#ffffff" d="M 0 0 L 404.777344 0 L 404.777344 57.375 L 0 57.375 Z M 0 0 " fill-opacity="1" fill-rule="nonzero"/></g></g></g></g><g clip-path="url(#ffe6b80539)"><g transform="matrix(1, 0, 0, 1, 414, 13)"><g clip-path="url(#2a4be64518)"><g fill="#342722" fill-opacity="1"><g transform="translate(1.244276, 24.359568)"><g></g></g></g><g fill="#342722" fill-opacity="1"><g transform="translate(30.513487, 24.359568)"><g></g></g></g><g fill="#342722" fill-opacity="1"><g transform="translate(43.210466, 24.359568)"><g></g></g></g><g fill="#342722" fill-opacity="1"><g transform="translate(68.409303, 24.359568)"><g></g></g></g><g fill="#342722" fill-opacity="1"><g transform="translate(81.106281, 24.359568)"><g></g></g></g><g fill="#342722" fill-opacity="1"><g transform="translate(110.375492, 24.359568)"><g></g></g></g><g fill="#342722" fill-opacity="1"><g transform="translate(133.611831, 24.359568)"><g></g></g></g><g fill="#342722" fill-opacity="1"><g transform="translate(153.940759, 24.359568)"><g></g></g></g><g fill="#342722" fill-opacity="1"><g transform="translate(166.637738, 24.359568)"><g></g></g></g><g fill="#342722" fill-opacity="1"><g transform="translate(188.892836, 24.359568)"><g></g></g></g><g fill="#342722" fill-opacity="1"><g transform="translate(211.256948, 24.359568)"><g/></g></g><g fill="#342722" fill-opacity="1"><g transform="translate(224.390022, 24.359568)"><g></g></g></g><g fill="#342722" fill-opacity="1"><g transform="translate(237.087009, 24.359568)"><g></g></g></g><g fill="#342722" fill-opacity="1"><g transform="translate(262.285846, 24.359568)"><g></g></g></g><g fill="#342722" fill-opacity="1"><g transform="translate(284.649957, 24.359568)"><g></g></g></g><g fill="#342722" fill-opacity="1"><g transform="translate(305.887442, 24.359568)"><g></g></g></g><g fill="#342722" fill-opacity="1"><g transform="translate(328.178878, 24.359568)"><g></g></g></g><g fill="#342722" fill-opacity="1"><g transform="translate(340.875829, 24.359568)"><g></g></g></g><g fill="#342722" fill-opacity="1"><g transform="translate(366.292728, 24.359568)"><g></g></g></g><g fill="#342722" fill-opacity="1"><g transform="translate(388.590331, 24.359568)"><g/></g></g></g></g></g></svg>