<svg xmlns="http://www.w3.org/2000/svg" xmlns:xlink="http://www.w3.org/1999/xlink" width="1080" zoomAndPan="magnify" viewBox="0 0 810 1012.49997" height="1350" preserveAspectRatio="xMidYMid meet" version="1.0"><defs><g/><clipPath id="145045c243"><path d="M 0.199219 0 L 809.800781 0 L 809.800781 1012 L 0.199219 1012 Z M 0.199219 0 " clip-rule="nonzero"/></clipPath><clipPath id="8c30a7b13a"><path d="M 0.199219 0 L 809.800781 0 L 809.800781 427.289062 L 0.199219 427.289062 Z M 0.199219 0 " clip-rule="nonzero"/></clipPath><clipPath id="c756cda9b6"><path d="M 0.199219 435 L 401.25 435 L 401.25 1012 L 0.199219 1012 Z M 0.199219 435 " clip-rule="nonzero"/></clipPath><clipPath id="fc4cf9bca2"><path d="M 409 434.785156 L 809.800781 434.785156 L 809.800781 719.644531 L 409 719.644531 Z M 409 434.785156 " clip-rule="nonzero"/></clipPath><clipPath id="0b432ab2b6"><path d="M 408.75 727.140625 L 809.800781 727.140625 L 809.800781 1012 L 408.75 1012 Z M 408.75 727.140625 " clip-rule="nonzero"/></clipPath><clipPath id="2d7ec43e16"><path d="M 405 0 L 809.800781 0 L 809.800781 57.375 L 405 57.375 Z M 405 0 " clip-rule="nonzero"/></clipPath><clipPath id="05e47f84db"><path d="M 0 0 L 404.800781 0 L 404.800781 57.375 L 0 57.375 Z M 0 0 " clip-rule="nonzero"/></clipPath><clipPath id="fdb72a5031"><rect x="0" width="405" y="0" height="58"/></clipPath><clipPath id="ffe6b80539"><path d="M 414 13 L 809.800781 13 L 809.800781 45 L 414 45 Z M 414 13 " clip-rule="nonzero"/></clipPath><clipPath id="2a4be64518"><rect x="0" width="396" y="0" height="32"/></clipPath></defs><g clip-path="url(#145045c243)"><path fill="#ffffff" d="M 0.199219 0 L 809.800781 0 L 809.800781 1012 L 0.199219 1012 Z M 0.199219 0 " fill-opacity="1" fill-rule="nonzero"/><path fill="#ffffff" d="M 0.199219 0 L 809.800781 0 L 809.800781 1012 L 0.199219 1012 Z M 0.199219 0 " fill-opacity="1" fill-rule="nonzero"/></g><g clip-path="url(#8c30a7b13a)"><g transform="matrix(0.199901, 0, 0, 0.199814, 0.199913, -14.224231)"><image x="0" y="0" width="4050" xlink:href="@@PHOTO0@@" height="2281" preserveAspectRatio="xMidYMid meet"/></g></g><g clip-path="url(#c756cda9b6)"><g transform="matrix(0.213096, 0, 0, 0.213073, -313.651092, 434.785308)"><image x="0" y="0" width="3852" xlink:href="@@PHOTO1@@" height="2709" preserveAspectRatio="xMidYMid meet"/></g></g><g clip-path="url(#fc4cf9bca2)"><g transform="matrix(0.177065, 0, 0, 0.177116, 408.748132, 279.035033)"><image x="0" y="0" width="2265" xlink:href="@@PHOTO2@@" height="3369" preserveAspectRatio="xMidYMid meet"/></g></g><g clip-path="url(#0b432ab2b6)"><g transform="matrix(0.158962, 0, 0, 0.158962, 395.496026, 727.140866)"><image x="0" y="0" width="2688" xlink:href="@@PHOTO3@@" height="1792" preserveAspectRatio="xMidYMid meet"/></g></g><g clip-path="url(#2d7ec43e16)"><g transform="matrix(1, 0, 0, 1, 405, 0)"><g clip-path="url(#fdb72a5031)"><g clip-path="url(#05e47f84db)"><path fill="#ffffff" d="M 0 0 L 404.777344 0 L 404.777344 57.375 L 0 57.375 Z M 0 0 " fill-opacity="1" fill-rule="nonzero"/></g></g></g></g><g clip-path="url(#ffe6b80539)"><g transform="matrix(1, 0, 0, 1, 414, 13)"><g clip-path="url(#2a4be64518)"><g fill="#342722" fill-opacity="1"><g transform="translate(1.244276, 24.359568)"><g><path d="M 2.25 -18.609375 L 4.9375 -18.609375 L 11.265625 -3.15625 L 11.484375 -3.15625 L 17.8125 -18.609375 L 20.5 -18.609375 L 20.5 0 L 18.390625 0 L 18.390625 -14.140625 L 18.21875 -14.140625 L 12.390625 0 L 10.359375 0 L 4.546875 -14.140625 L 4.359375 -14.140625 L 4.359375 0 L 2.25 0 Z M 2.25 -18.609375 "/></g></g></g><g fill="#342722" fill-opacity="1"><g transform="translate(30.513487, 24.359568)"><g><path d="M 4.515625 -18.609375 L 4.515625 0 L 2.25 0 L 2.25 -18.609375 Z M 4.515625 -18.609375 "/></g></g></g><g fill="#342722" fill-opacity="1"><g transform="translate(43.210466, 24.359568)"><g><path d="M 17.015625 -18.609375 L 17.015625 0 L 14.828125 0 L 4.6875 -14.609375 L 4.515625 -14.609375 L 4.515625 0 L 2.25 0 L 2.25 -18.609375 L 4.4375 -18.609375 L 14.609375 -3.96875 L 14.796875 -3.96875 L 14.796875 -18.609375 Z M 17.015625 -18.609375 "/></g></g></g><g fill="#342722" fill-opacity="1"><g transform="translate(68.409303, 24.359568)"><g><path d="M 4.515625 -18.609375 L 4.515625 0 L 2.25 0 L 2.25 -18.609375 Z M 4.515625 -18.609375 "/></g></g></g><g fill="#342722" fill-opacity="1"><g transform="translate(81.106281, 24.359568)"><g><path d="M 2.25 -18.609375 L 4.9375 -18.609375 L 11.265625 -3.15625 L 11.484375 -3.15625 L 17.8125 -18.609375 L 20.5 -18.609375 L 20.5 0 L 18.390625 0 L 18.390625 -14.140625 L 18.21875 -14.140625 L 12.390625 0 L 10.359375 0 L 4.546875 -14.140625 L 4.359375 -14.140625 L 4.359375 0 L 2.25 0 Z M 2.25 -18.609375 "/></g></g></g><g fill="#342722" fill-opacity="1"><g transform="translate(110.375492, 24.359568)"><g><path d="M 3.015625 0 L 0.65625 0 L 7.484375 -18.609375 L 9.8125 -18.609375 L 16.65625 0 L 14.28125 0 L 12.421875 -5.265625 L 4.890625 -5.265625 Z M 5.59375 -7.265625 L 11.703125 -7.265625 L 8.71875 -15.671875 L 8.578125 -15.671875 Z M 5.59375 -7.265625 "/></g></g></g><g fill="#342722" fill-opacity="1"><g transform="translate(133.611831, 24.359568)"><g><path d="M 2.25 0 L 2.25 -18.609375 L 4.515625 -18.609375 L 4.515625 -2 L 13.15625 -2 L 13.15625 0 Z M 2.25 0 "/></g></g></g><g fill="#342722" fill-opacity="1"><g transform="translate(153.940759, 24.359568)"><g><path d="M 4.515625 -18.609375 L 4.515625 0 L 2.25 0 L 2.25 -18.609375 Z M 4.515625 -18.609375 "/></g></g></g><g fill="#342722" fill-opacity="1"><g transform="translate(166.637738, 24.359568)"><g><path d="M 12.4375 -13.953125 C 12.320312 -14.878906 11.875 -15.597656 11.09375 -16.109375 C 10.320312 -16.617188 9.375 -16.875 8.25 -16.875 C 7.019531 -16.875 6.023438 -16.578125 5.265625 -15.984375 C 4.515625 -15.398438 4.140625 -14.664062 4.140625 -13.78125 C 4.140625 -13.113281 4.34375 -12.570312 4.75 -12.15625 C 5.164062 -11.75 5.648438 -11.429688 6.203125 -11.203125 C 6.765625 -10.984375 7.28125 -10.8125 7.75 -10.6875 L 9.640625 -10.171875 C 10.117188 -10.046875 10.65625 -9.867188 11.25 -9.640625 C 11.851562 -9.421875 12.425781 -9.117188 12.96875 -8.734375 C 13.519531 -8.347656 13.972656 -7.851562 14.328125 -7.25 C 14.691406 -6.65625 14.875 -5.921875 14.875 -5.046875 C 14.875 -4.046875 14.609375 -3.140625 14.078125 -2.328125 C 13.554688 -1.515625 12.789062 -0.867188 11.78125 -0.390625 C 10.78125 0.0859375 9.566406 0.328125 8.140625 0.328125 C 6.140625 0.328125 4.550781 -0.144531 3.375 -1.09375 C 2.207031 -2.039062 1.566406 -3.273438 1.453125 -4.796875 L 3.78125 -4.796875 C 3.84375 -4.097656 4.078125 -3.519531 4.484375 -3.0625 C 4.898438 -2.601562 5.425781 -2.257812 6.0625 -2.03125 C 6.707031 -1.8125 7.398438 -1.703125 8.140625 -1.703125 C 9.003906 -1.703125 9.773438 -1.84375 10.453125 -2.125 C 11.140625 -2.40625 11.679688 -2.800781 12.078125 -3.3125 C 12.484375 -3.820312 12.6875 -4.414062 12.6875 -5.09375 C 12.6875 -5.707031 12.515625 -6.207031 12.171875 -6.59375 C 11.828125 -6.988281 11.375 -7.304688 10.8125 -7.546875 C 10.25 -7.785156 9.640625 -8 8.984375 -8.1875 L 6.6875 -8.828125 C 5.238281 -9.253906 4.085938 -9.851562 3.234375 -10.625 C 2.390625 -11.394531 1.96875 -12.410156 1.96875 -13.671875 C 1.96875 -14.710938 2.25 -15.617188 2.8125 -16.390625 C 3.375 -17.171875 4.132812 -17.78125 5.09375 -18.21875 C 6.0625 -18.65625 7.140625 -18.875 8.328125 -18.875 C 9.523438 -18.875 10.585938 -18.660156 11.515625 -18.234375 C 12.453125 -17.804688 13.191406 -17.222656 13.734375 -16.484375 C 14.285156 -15.742188 14.578125 -14.898438 14.609375 -13.953125 Z M 12.4375 -13.953125 "/></g></g></g><g fill="#342722" fill-opacity="1"><g transform="translate(188.892836, 24.359568)"><g><path d="M 1.234375 -16.609375 L 1.234375 -18.609375 L 15.203125 -18.609375 L 15.203125 -16.609375 L 9.34375 -16.609375 L 9.34375 0 L 7.09375 0 L 7.09375 -16.609375 Z M 1.234375 -16.609375 "/></g></g></g><g fill="#342722" fill-opacity="1"><g transform="translate(211.256948, 24.359568)"><g/></g></g><g fill="#342722" fill-opacity="1"><g transform="translate(224.390022, 24.359568)"><g><path d="M 4.515625 -18.609375 L 4.515625 0 L 2.25 0 L 2.25 -18.609375 Z M 4.515625 -18.609375 "/></g></g></g><g fill="#342722" fill-opacity="1"><g transform="translate(237.087009, 24.359568)"><g><path d="M 17.015625 -18.609375 L 17.015625 0 L 14.828125 0 L 4.6875 -14.609375 L 4.515625 -14.609375 L 4.515625 0 L 2.25 0 L 2.25 -18.609375 L 4.4375 -18.609375 L 14.609375 -3.96875 L 14.796875 -3.96875 L 14.796875 -18.609375 Z M 17.015625 -18.609375 "/></g></g></g><g fill="#342722" fill-opacity="1"><g transform="translate(262.285846, 24.359568)"><g><path d="M 1.234375 -16.609375 L 1.234375 -18.609375 L 15.203125 -18.609375 L 15.203125 -16.609375 L 9.34375 -16.609375 L 9.34375 0 L 7.09375 0 L 7.09375 -16.609375 Z M 1.234375 -16.609375 "/></g></g></g><g fill="#342722" fill-opacity="1"><g transform="translate(284.649957, 24.359568)"><g><path d="M 2.25 0 L 2.25 -18.609375 L 13.484375 -18.609375 L 13.484375 -16.609375 L 4.515625 -16.609375 L 4.515625 -10.328125 L 12.90625 -10.328125 L 12.90625 -8.328125 L 4.515625 -8.328125 L 4.515625 -2 L 13.640625 -2 L 13.640625 0 Z M 2.25 0 "/></g></g></g><g fill="#342722" fill-opacity="1"><g transform="translate(305.887442, 24.359568)"><g><path d="M 2.25 0 L 2.25 -18.609375 L 8.546875 -18.609375 C 9.992188 -18.609375 11.1875 -18.359375 12.125 -17.859375 C 13.0625 -17.367188 13.753906 -16.691406 14.203125 -15.828125 C 14.648438 -14.972656 14.875 -14 14.875 -12.90625 C 14.875 -11.664062 14.585938 -10.585938 14.015625 -9.671875 C 13.453125 -8.753906 12.578125 -8.09375 11.390625 -7.6875 L 15.59375 0 L 12.984375 0 L 9.046875 -7.28125 C 8.898438 -7.269531 8.742188 -7.265625 8.578125 -7.265625 L 4.515625 -7.265625 L 4.515625 0 Z M 4.515625 -9.3125 L 8.5 -9.3125 C 10 -9.3125 11.066406 -9.628906 11.703125 -10.265625 C 12.335938 -10.910156 12.65625 -11.789062 12.65625 -12.90625 C 12.65625 -14.03125 12.332031 -14.925781 11.6875 -15.59375 C 11.050781 -16.269531 9.976562 -16.609375 8.46875 -16.609375 L 4.515625 -16.609375 Z M 4.515625 -9.3125 "/></g></g></g><g fill="#342722" fill-opacity="1"><g transform="translate(328.178878, 24.359568)"><g><path d="M 4.515625 -18.609375 L 4.515625 0 L 2.25 0 L 2.25 -18.609375 Z M 4.515625 -18.609375 "/></g></g></g><g fill="#342722" fill-opacity="1"><g transform="translate(340.875829, 24.359568)"><g><path d="M 17.953125 -9.3125 C 17.953125 -7.34375 17.597656 -5.644531 16.890625 -4.21875 C 16.179688 -2.789062 15.207031 -1.6875 13.96875 -0.90625 C 12.738281 -0.132812 11.332031 0.25 9.75 0.25 C 8.15625 0.25 6.738281 -0.132812 5.5 -0.90625 C 4.269531 -1.6875 3.300781 -2.789062 2.59375 -4.21875 C 1.882812 -5.644531 1.53125 -7.34375 1.53125 -9.3125 C 1.53125 -11.269531 1.882812 -12.960938 2.59375 -14.390625 C 3.300781 -15.828125 4.269531 -16.929688 5.5 -17.703125 C 6.738281 -18.484375 8.15625 -18.875 9.75 -18.875 C 11.332031 -18.875 12.738281 -18.484375 13.96875 -17.703125 C 15.207031 -16.929688 16.179688 -15.828125 16.890625 -14.390625 C 17.597656 -12.960938 17.953125 -11.269531 17.953125 -9.3125 Z M 15.78125 -9.3125 C 15.78125 -10.914062 15.507812 -12.269531 14.96875 -13.375 C 14.4375 -14.488281 13.710938 -15.332031 12.796875 -15.90625 C 11.890625 -16.476562 10.875 -16.765625 9.75 -16.765625 C 8.613281 -16.765625 7.585938 -16.476562 6.671875 -15.90625 C 5.765625 -15.332031 5.039062 -14.488281 4.5 -13.375 C 3.96875 -12.269531 3.703125 -10.914062 3.703125 -9.3125 C 3.703125 -7.695312 3.96875 -6.332031 4.5 -5.21875 C 5.039062 -4.113281 5.765625 -3.273438 6.671875 -2.703125 C 7.585938 -2.140625 8.613281 -1.859375 9.75 -1.859375 C 10.875 -1.859375 11.890625 -2.140625 12.796875 -2.703125 C 13.710938 -3.273438 14.4375 -4.113281 14.96875 -5.21875 C 15.507812 -6.332031 15.78125 -7.695312 15.78125 -9.3125 Z M 15.78125 -9.3125 "/></g></g></g><g fill="#342722" fill-opacity="1"><g transform="translate(366.292728, 24.359568)"><g><path d="M 2.25 0 L 2.25 -18.609375 L 8.546875 -18.609375 C 9.992188 -18.609375 11.1875 -18.359375 12.125 -17.859375 C 13.0625 -17.367188 13.753906 -16.691406 14.203125 -15.828125 C 14.648438 -14.972656 14.875 -14 14.875 -12.90625 C 14.875 -11.664062 14.585938 -10.585938 14.015625 -9.671875 C 13.453125 -8.753906 12.578125 -8.09375 11.390625 -7.6875 L 15.59375 0 L 12.984375 0 L 9.046875 -7.28125 C 8.898438 -7.269531 8.742188 -7.265625 8.578125 -7.265625 L 4.515625 -7.265625 L 4.515625 0 Z M 4.515625 -9.3125 L 8.5 -9.3125 C 10 -9.3125 11.066406 -9.628906 11.703125 -10.265625 C 12.335938 -10.910156 12.65625 -11.789062 12.65625 -12.90625 C 12.65625 -14.03125 12.332031 -14.925781 11.6875 -15.59375 C 11.050781 -16.269531 9.976562 -16.609375 8.46875 -16.609375 L 4.515625 -16.609375 Z M 4.515625 -9.3125 "/></g></g></g><g fill="#342722" fill-opacity="1"><g transform="translate(388.590331, 24.359568)"><g/></g></g></g></g></g></svg>