<svg xmlns="http://www.w3.org/2000/svg" xmlns:xlink="http://www.w3.org/1999/xlink" width="1080" zoomAndPan="magnify" viewBox="0 0 810 1012.49997" height="1350" preserveAspectRatio="xMidYMid meet" version="1.0"><defs><g/><clipPath id="20f412e80e"><path d="M 0.199219 0 L 809.800781 0 L 809.800781 1012 L 0.199219 1012 Z M 0.199219 0 " clip-rule="nonzero"/></clipPath><clipPath id="f778b0ff53"><path d="M 148 245 L 661 245 L 661 963.949219 L 148 963.949219 Z M 148 245 " clip-rule="nonzero"/></clipPath><clipPath id="af128d95b3"><path d="M 482.914062 874.460938 C 473.945312 931.125 436.480469 966.019531 393.566406 962.546875 C 355.226562 957.597656 323.214844 909.84375 321.984375 854.664062 C 321.457031 824.476562 316.707031 796.515625 303.519531 772.269531 C 285.578125 739.113281 261.484375 722.285156 231.757812 721.296875 C 192.011719 719.8125 161.582031 686.40625 151.734375 632.714844 C 150.152344 624.054688 149.800781 614.898438 148.917969 605.988281 C 149.449219 543.636719 184.976562 492.167969 228.59375 491.179688 C 272.210938 490.1875 311.609375 539.429688 313.015625 603.515625 C 314.421875 667.601562 336.230469 708.183594 375.277344 726.738281 C 384.773438 731.195312 395.328125 732.429688 405.351562 733.171875 C 457.765625 736.636719 494.171875 802.703125 482.914062 874.460938 Z M 407.8125 475.34375 C 437.539062 476.332031 461.632812 493.160156 479.75 526.316406 C 492.765625 550.5625 497.511719 578.523438 498.214844 608.710938 C 499.445312 663.890625 531.457031 711.644531 569.621094 716.59375 C 612.539062 722.285156 650 685.171875 658.96875 628.507812 C 668.59375 556.75 633.820312 490.683594 581.582031 487.21875 C 571.382812 486.476562 560.828125 485.242188 551.332031 480.785156 C 512.285156 462.230469 490.652344 421.648438 489.246094 357.5625 C 487.839844 293.476562 450.90625 244.660156 404.648438 245.226562 C 361.207031 246.214844 325.679688 297.929688 324.976562 360.035156 C 326.03125 368.945312 326.207031 378.097656 327.789062 386.761719 C 337.636719 440.453125 368.066406 473.859375 407.8125 475.34375 Z M 581.582031 733.171875 C 571.382812 732.429688 560.828125 731.195312 551.332031 726.738281 C 512.285156 708.183594 490.652344 667.601562 489.246094 603.515625 C 488.367188 562.6875 473.066406 527.800781 450.023438 508.253906 C 437.539062 496.128906 422.234375 488.457031 405.351562 487.21875 C 395.328125 486.476562 384.773438 485.242188 375.277344 480.785156 C 336.230469 462.230469 314.421875 421.648438 313.015625 357.5625 C 311.609375 293.476562 272.210938 244.660156 228.59375 245.226562 C 184.976562 246.214844 149.449219 297.929688 148.917969 360.035156 C 149.800781 368.945312 150.152344 378.097656 151.734375 386.761719 C 161.582031 440.453125 192.011719 473.859375 231.757812 475.34375 C 261.484375 476.332031 285.578125 493.160156 303.519531 526.316406 C 316.707031 550.5625 321.457031 578.523438 321.984375 608.710938 C 322.863281 647.3125 338.871094 682.449219 361.558594 701.5 C 374.574219 713.625 390.226562 720.554688 407.8125 721.296875 C 437.539062 722.285156 461.632812 739.113281 479.75 772.269531 C 492.765625 796.515625 497.511719 824.476562 498.214844 854.664062 C 499.445312 909.84375 531.457031 957.597656 569.621094 962.546875 C 612.539062 966.019531 650 931.125 658.96875 874.460938 C 668.59375 802.703125 633.820312 736.636719 581.582031 733.171875 Z M 578.066406 475.34375 C 578.242188 475.34375 578.242188 475.34375 578.417969 475.34375 C 623.617188 474.601562 659.847656 422.144531 659.320312 358.550781 C 658.96875 295.949219 621.859375 245.082031 576.832031 245.226562 C 532.160156 245.71875 495.402344 296.691406 495.578125 360.285156 C 495.753906 423.875 533.214844 476.085938 578.066406 475.34375 Z M 230.175781 733.171875 C 185.503906 733.421875 148.777344 784.144531 148.917969 847.984375 C 149.09375 911.824219 186.382812 963.46875 231.40625 963.183594 C 276.785156 962.546875 313.191406 910.339844 312.664062 846.5 C 312.3125 783.652344 275.199219 732.679688 230.175781 733.171875 Z M 230.175781 733.171875 " clip-rule="nonzero"/></clipPath><clipPath id="e345c44f53"><path d="M 0.917969 0.226562 L 513 0.226562 L 513 717.53125 L 0.917969 717.53125 Z M 0.917969 0.226562 " clip-rule="nonzero"/></clipPath><clipPath id="544600fa73"><path d="M 334.914062 629.460938 C 325.945312 686.125 288.480469 721.019531 245.566406 717.546875 C 207.226562 712.597656 175.214844 664.84375 173.984375 609.664062 C 173.457031 579.476562 168.707031 551.515625 155.519531 527.269531 C 137.578125 494.113281 113.484375 477.285156 83.757812 476.296875 C 44.011719 474.8125 13.582031 441.40625 3.734375 387.714844 C 2.152344 379.054688 1.800781 369.898438 0.917969 360.988281 C 1.449219 298.636719 36.976562 247.167969 80.59375 246.179688 C 124.210938 245.1875 163.609375 294.429688 165.015625 358.515625 C 166.421875 422.601562 188.230469 463.183594 227.277344 481.738281 C 236.773438 486.195312 247.328125 487.429688 257.351562 488.171875 C 309.765625 491.636719 346.171875 557.703125 334.914062 629.460938 Z M 259.8125 230.34375 C 289.539062 231.332031 313.632812 248.160156 331.75 281.316406 C 344.765625 305.5625 349.511719 333.523438 350.214844 363.710938 C 351.445312 418.890625 383.457031 466.644531 421.621094 471.59375 C 464.539062 477.285156 502 440.171875 510.96875 383.507812 C 520.59375 311.75 485.820312 245.683594 433.582031 242.21875 C 423.382812 241.476562 412.828125 240.242188 403.332031 235.785156 C 364.285156 217.230469 342.652344 176.648438 341.246094 112.5625 C 339.839844 48.476562 302.90625 -0.339844 256.648438 0.226562 C 213.207031 1.214844 177.679688 52.929688 176.976562 115.035156 C 178.03125 123.945312 178.207031 133.097656 179.789062 141.761719 C 189.636719 195.453125 220.066406 228.859375 259.8125 230.34375 Z M 433.582031 488.171875 C 423.382812 487.429688 412.828125 486.195312 403.332031 481.738281 C 364.285156 463.183594 342.652344 422.601562 341.246094 358.515625 C 340.367188 317.6875 325.066406 282.800781 302.023438 263.253906 C 289.539062 251.128906 274.234375 243.457031 257.351562 242.21875 C 247.328125 241.476562 236.773438 240.242188 227.277344 235.785156 C 188.230469 217.230469 166.421875 176.648438 165.015625 112.5625 C 163.609375 48.476562 124.210938 -0.339844 80.59375 0.226562 C 36.976562 1.214844 1.449219 52.929688 0.917969 115.035156 C 1.800781 123.945312 2.152344 133.097656 3.734375 141.761719 C 13.582031 195.453125 44.011719 228.859375 83.757812 230.34375 C 113.484375 231.332031 137.578125 248.160156 155.519531 281.316406 C 168.707031 305.5625 173.457031 333.523438 173.984375 363.710938 C 174.863281 402.3125 190.871094 437.449219 213.558594 456.5 C 226.574219 468.625 242.226562 475.554688 259.8125 476.296875 C 289.539062 477.285156 313.632812 494.113281 331.75 527.269531 C 344.765625 551.515625 349.511719 579.476562 350.214844 609.664062 C 351.445312 664.84375 383.457031 712.597656 421.621094 717.546875 C 464.539062 721.019531 502 686.125 510.96875 629.460938 C 520.59375 557.703125 485.820312 491.636719 433.582031 488.171875 Z M 430.066406 230.34375 C 430.242188 230.34375 430.242188 230.34375 430.417969 230.34375 C 475.617188 229.601562 511.847656 177.144531 511.320312 113.550781 C 510.96875 50.949219 473.859375 0.0820312 428.832031 0.226562 C 384.160156 0.71875 347.402344 51.691406 347.578125 115.285156 C 347.753906 178.875 385.214844 231.085938 430.066406 230.34375 Z M 82.175781 488.171875 C 37.503906 488.421875 0.777344 539.144531 0.917969 602.984375 C 1.09375 666.824219 38.382812 718.46875 83.40625 718.183594 C 128.785156 717.546875 165.191406 665.339844 164.664062 601.5 C 164.3125 538.652344 127.199219 487.679688 82.175781 488.171875 Z M 82.175781 488.171875 " clip-rule="nonzero"/></clipPath><clipPath id="75cdaf6a7d"><rect x="0" width="513" y="0" height="719"/></clipPath></defs><g clip-path="url(#20f412e80e)"><path fill="#ffffff" d="M 0.199219 0 L 809.800781 0 L 809.800781 1012 L 0.199219 1012 Z M 0.199219 0 " fill-opacity="1" fill-rule="nonzero"/><path fill="#252634" d="M 0.199219 0 L 809.800781 0 L 809.800781 1012 L 0.199219 1012 Z M 0.199219 0 " fill-opacity="1" fill-rule="nonzero"/></g><g clip-path="url(#f778b0ff53)"><g clip-path="url(#af128d95b3)"><g transform="matrix(1, 0, 0, 1, 148, 245)"><g clip-path="url(#75cdaf6a7d)"><g clip-path="url(#e345c44f53)"><g clip-path="url(#544600fa73)"><g transform="matrix(0.193502, 0, 0, 0.19324, -219.780707, 0.22047)"><image x="0" y="0" width="4928" xlink:href="@@PHOTO0@@" height="3712" preserveAspectRatio="xMidYMid meet"/></g></g></g></g></g></g></g><g fill="#fffcfc" fill-opacity="1"><g transform="translate(39.60191, 157.994907)"><g></g></g></g><g fill="#fffcfc" fill-opacity="1"><g transform="translate(136.641938, 157.994907)"><g></g></g></g><g fill="#fffcfc" fill-opacity="1"><g transform="translate(205.637558, 157.994907)"><g></g></g></g><g fill="#fffcfc" fill-opacity="1"><g transform="translate(39.60191, 302.67345)"><g></g></g></g><g fill="#fffcfc" fill-opacity="1"><g transform="translate(121.823012, 302.67345)"><g></g></g></g><g fill="#fffcfc" fill-opacity="1"><g transform="translate(185.71965, 302.67345)"><g></g></g></g><g fill="#fffcfc" fill-opacity="1"><g transform="translate(260.610964, 302.67345)"><g></g></g></g><g fill="#fffcfc" fill-opacity="1"><g transform="translate(299.968745, 302.67345)"><g></g></g></g><g fill="#fffcfc" fill-opacity="1"><g transform="translate(337.89242, 302.67345)"><g></g></g></g><g fill="#fffcfc" fill-opacity="1"><g transform="translate(412.783746, 302.67345)"><g></g></g></g><g fill="#fffcfc" fill-opacity="1"><g transform="translate(487.834386, 302.67345)"><g></g></g></g><g fill="#fffcfc" fill-opacity="1"><g transform="translate(525.758084, 302.67345)"><g></g></g></g><g fill="#ffffff" fill-opacity="1"><g transform="translate(652.675305, 203.988144)"><g></g></g></g><g fill="#ffffff" fill-opacity="1"><g transform="translate(652.675305, 190.084774)"><g/></g></g><g fill="#ffffff" fill-opacity="1"><g transform="translate(652.675305, 184.982622)"><g></g></g></g><g fill="#ffffff" fill-opacity="1"><g transform="translate(652.675305, 168.655733)"><g></g></g></g><g fill="#ffffff" fill-opacity="1"><g transform="translate(652.675305, 153.221717)"><g></g></g></g><g fill="#ffffff" fill-opacity="1"><g transform="translate(652.675305, 135.899912)"><g></g></g></g><g fill="#ffffff" fill-opacity="1"><g transform="translate(652.675305, 119.700607)"><g></g></g></g><g fill="#ffffff" fill-opacity="1"><g transform="translate(652.675305, 100.822635)"><g></g></g></g><g fill="#ffffff" fill-opacity="1"><g transform="translate(652.675305, 81.944664)"><g></g></g></g><g fill="#ffffff" fill-opacity="1"><g transform="translate(652.675305, 61.178904)"><g></g></g></g><g fill="#ffffff" fill-opacity="1"><g transform="translate(687.907903, 218.324813)"><g></g></g></g><g fill="#ffffff" fill-opacity="1"><g transform="translate(687.907903, 204.421443)"><g/></g></g><g fill="#ffffff" fill-opacity="1"><g transform="translate(687.907903, 199.319292)"><g></g></g></g><g fill="#ffffff" fill-opacity="1"><g transform="translate(687.907903, 183.068959)"><g></g></g></g><g fill="#ffffff" fill-opacity="1"><g transform="translate(687.907903, 168.63043)"><g></g></g></g><g fill="#ffffff" fill-opacity="1"><g transform="translate(687.907903, 153.170907)"><g></g></g></g><g fill="#ffffff" fill-opacity="1"><g transform="translate(687.907903, 135.900117)"><g></g></g></g><g fill="#ffffff" fill-opacity="1"><g transform="translate(687.907903, 119.700812)"><g></g></g></g><g fill="#ffffff" fill-opacity="1"><g transform="translate(687.907903, 100.822841)"><g></g></g></g><g fill="#ffffff" fill-opacity="1"><g transform="translate(687.907903, 81.94487)"><g></g></g></g><g fill="#ffffff" fill-opacity="1"><g transform="translate(687.907903, 61.17911)"><g></g></g></g><g fill="#ffffff" fill-opacity="1"><g transform="translate(723.140502, 383.430767)"><g></g></g></g><g fill="#ffffff" fill-opacity="1"><g transform="translate(723.140502, 374.399957)"><g></g></g></g><g fill="#ffffff" fill-opacity="1"><g transform="translate(723.140502, 360.496587)"><g></g></g></g><g fill="#ffffff" fill-opacity="1"><g transform="translate(723.140502, 346.15954)"><g/></g></g><g fill="#ffffff" fill-opacity="1"><g transform="translate(723.140502, 341.057389)"><g></g></g></g><g fill="#ffffff" fill-opacity="1"><g transform="translate(723.140502, 324.44988)"><g></g></g></g><g fill="#ffffff" fill-opacity="1"><g transform="translate(723.140502, 306.975005)"><g></g></g></g><g fill="#ffffff" fill-opacity="1"><g transform="translate(723.140502, 290.775563)"><g></g></g></g><g fill="#ffffff" fill-opacity="1"><g transform="translate(723.140502, 267.713833)"><g></g></g></g><g fill="#ffffff" fill-opacity="1"><g transform="translate(723.140502, 250.443044)"><g></g></g></g><g fill="#ffffff" fill-opacity="1"><g transform="translate(723.140502, 235.009027)"><g></g></g></g><g fill="#ffffff" fill-opacity="1"><g transform="translate(723.140502, 218.733165)"><g></g></g></g><g fill="#ffffff" fill-opacity="1"><g transform="translate(723.140502, 203.299149)"><g/></g></g><g fill="#ffffff" fill-opacity="1"><g transform="translate(723.140502, 198.196997)"><g></g></g></g><g fill="#ffffff" fill-opacity="1"><g transform="translate(723.140502, 183.324437)"><g></g></g></g><g fill="#ffffff" fill-opacity="1"><g transform="translate(723.140502, 169.982844)"><g></g></g></g><g fill="#ffffff" fill-opacity="1"><g transform="translate(723.140502, 165.135827)"><g></g></g></g><g fill="#ffffff" fill-opacity="1"><g transform="translate(723.140502, 160.390818)"><g/></g></g><g fill="#ffffff" fill-opacity="1"><g transform="translate(723.140502, 155.288655)"><g></g></g></g><g fill="#ffffff" fill-opacity="1"><g transform="translate(723.140502, 138.681158)"><g></g></g></g><g fill="#ffffff" fill-opacity="1"><g transform="translate(723.140502, 121.206284)"><g></g></g></g><g fill="#ffffff" fill-opacity="1"><g transform="translate(723.140502, 105.389594)"><g/></g></g><g fill="#ffffff" fill-opacity="1"><g transform="translate(723.140502, 100.287454)"><g></g></g></g><g fill="#ffffff" fill-opacity="1"><g transform="translate(723.140502, 82.787072)"><g></g></g></g><g fill="#ffffff" fill-opacity="1"><g transform="translate(723.140502, 77.072655)"><g></g></g></g><g fill="#ffffff" fill-opacity="1"><g transform="translate(723.140502, 61.281405)"><g></g></g></g></svg>