<svg xmlns="http://www.w3.org/2000/svg" xmlns:xlink="http://www.w3.org/1999/xlink" width="1080" zoomAndPan="magnify" viewBox="0 0 810 1012.49997" height="1350" preserveAspectRatio="xMidYMid meet" version="1.0"><defs><g/><clipPath id="20f412e80e"><path d="M 0.199219 0 L 809.800781 0 L 809.800781 1012 L 0.199219 1012 Z M 0.199219 0 " clip-rule="nonzero"/></clipPath><clipPath id="f778b0ff53"><path d="M 148 245 L 661 245 L 661 963.949219 L 148 963.949219 Z M 148 245 " clip-rule="nonzero"/></clipPath><clipPath id="af128d95b3"><path d="M 482.914062 874.460938 C 473.945312 931.125 436.480469 966.019531 393.566406 962.546875 C 355.226562 957.597656 323.214844 909.84375 321.984375 854.664062 C 321.457031 824.476562 316.707031 796.515625 303.519531 772.269531 C 285.578125 739.113281 261.484375 722.285156 231.757812 721.296875 C 192.011719 719.8125 161.582031 686.40625 151.734375 632.714844 C 150.152344 624.054688 149.800781 614.898438 148.917969 605.988281 C 149.449219 543.636719 184.976562 492.167969 228.59375 491.179688 C 272.210938 490.1875 311.609375 539.429688 313.015625 603.515625 C 314.421875 667.601562 336.230469 708.183594 375.277344 726.738281 C 384.773438 731.195312 395.328125 732.429688 405.351562 733.171875 C 457.765625 736.636719 494.171875 802.703125 482.914062 874.460938 Z M 407.8125 475.34375 C 437.539062 476.332031 461.632812 493.160156 479.75 526.316406 C 492.765625 550.5625 497.511719 578.523438 498.214844 608.710938 C 499.445312 663.890625 531.457031 711.644531 569.621094 716.59375 C 612.539062 722.285156 650 685.171875 658.96875 628.507812 C 668.59375 556.75 633.820312 490.683594 581.582031 487.21875 C 571.382812 486.476562 560.828125 485.242188 551.332031 480.785156 C 512.285156 462.230469 490.652344 421.648438 489.246094 357.5625 C 487.839844 293.476562 450.90625 244.660156 404.648438 245.226562 C 361.207031 246.214844 325.679688 297.929688 324.976562 360.035156 C 326.03125 368.945312 326.207031 378.097656 327.789062 386.761719 C 337.636719 440.453125 368.066406 473.859375 407.8125 475.34375 Z M 581.582031 733.171875 C 571.382812 732.429688 560.828125 731.195312 551.332031 726.738281 C 512.285156 708.183594 490.652344 667.601562 489.246094 603.515625 C 488.367188 562.6875 473.066406 527.800781 450.023438 508.253906 C 437.539062 496.128906 422.234375 488.457031 405.351562 487.21875 C 395.328125 486.476562 384.773438 485.242188 375.277344 480.785156 C 336.230469 462.230469 314.421875 421.648438 313.015625 357.5625 C 311.609375 293.476562 272.210938 244.660156 228.59375 245.226562 C 184.976562 246.214844 149.449219 297.929688 148.917969 360.035156 C 149.800781 368.945312 150.152344 378.097656 151.734375 386.761719 C 161.582031 440.453125 192.011719 473.859375 231.757812 475.34375 C 261.484375 476.332031 285.578125 493.160156 303.519531 526.316406 C 316.707031 550.5625 321.457031 578.523438 321.984375 608.710938 C 322.863281 647.3125 338.871094 682.449219 361.558594 701.5 C 374.574219 713.625 390.226562 720.554688 407.8125 721.296875 C 437.539062 722.285156 461.632812 739.113281 479.75 772.269531 C 492.765625 796.515625 497.511719 824.476562 498.214844 854.664062 C 499.445312 909.84375 531.457031 957.597656 569.621094 962.546875 C 612.539062 966.019531 650 931.125 658.96875 874.460938 C 668.59375 802.703125 633.820312 736.636719 581.582031 733.171875 Z M 578.066406 475.34375 C 578.242188 475.34375 578.242188 475.34375 578.417969 475.34375 C 623.617188 474.601562 659.847656 422.144531 659.320312 358.550781 C 658.96875 295.949219 621.859375 245.082031 576.832031 245.226562 C 532.160156 245.71875 495.402344 296.691406 495.578125 360.285156 C 495.753906 423.875 533.214844 476.085938 578.066406 475.34375 Z M 230.175781 733.171875 C 185.503906 733.421875 148.777344 784.144531 148.917969 847.984375 C 149.09375 911.824219 186.382812 963.46875 231.40625 963.183594 C 276.785156 962.546875 313.191406 910.339844 312.664062 846.5 C 312.3125 783.652344 275.199219 732.679688 230.175781 733.171875 Z M 230.175781 733.171875 " clip-rule="nonzero"/></clipPath><clipPath id="e345c44f53"><path d="M 0.917969 0.226562 L 513 0.226562 L 513 717.53125 L 0.917969 717.53125 Z M 0.917969 0.226562 " clip-rule="nonzero"/></clipPath><clipPath id="544600fa73"><path d="M 334.914062 629.460938 C 325.945312 686.125 288.480469 721.019531 245.566406 717.546875 C 207.226562 712.597656 175.214844 664.84375 173.984375 609.664062 C 173.457031 579.476562 168.707031 551.515625 155.519531 527.269531 C 137.578125 494.113281 113.484375 477.285156 83.757812 476.296875 C 44.011719 474.8125 13.582031 441.40625 3.734375 387.714844 C 2.152344 379.054688 1.800781 369.898438 0.917969 360.988281 C 1.449219 298.636719 36.976562 247.167969 80.59375 246.179688 C 124.210938 245.1875 163.609375 294.429688 165.015625 358.515625 C 166.421875 422.601562 188.230469 463.183594 227.277344 481.738281 C 236.773438 486.195312 247.328125 487.429688 257.351562 488.171875 C 309.765625 491.636719 346.171875 557.703125 334.914062 629.460938 Z M 259.8125 230.34375 C 289.539062 231.332031 313.632812 248.160156 331.75 281.316406 C 344.765625 305.5625 349.511719 333.523438 350.214844 363.710938 C 351.445312 418.890625 383.457031 466.644531 421.621094 471.59375 C 464.539062 477.285156 502 440.171875 510.96875 383.507812 C 520.59375 311.75 485.820312 245.683594 433.582031 242.21875 C 423.382812 241.476562 412.828125 240.242188 403.332031 235.785156 C 364.285156 217.230469 342.652344 176.648438 341.246094 112.5625 C 339.839844 48.476562 302.90625 -0.339844 256.648438 0.226562 C 213.207031 1.214844 177.679688 52.929688 176.976562 115.035156 C 178.03125 123.945312 178.207031 133.097656 179.789062 141.761719 C 189.636719 195.453125 220.066406 228.859375 259.8125 230.34375 Z M 433.582031 488.171875 C 423.382812 487.429688 412.828125 486.195312 403.332031 481.738281 C 364.285156 463.183594 342.652344 422.601562 341.246094 358.515625 C 340.367188 317.6875 325.066406 282.800781 302.023438 263.253906 C 289.539062 251.128906 274.234375 243.457031 257.351562 242.21875 C 247.328125 241.476562 236.773438 240.242188 227.277344 235.785156 C 188.230469 217.230469 166.421875 176.648438 165.015625 112.5625 C 163.609375 48.476562 124.210938 -0.339844 80.59375 0.226562 C 36.976562 1.214844 1.449219 52.929688 0.917969 115.035156 C 1.800781 123.945312 2.152344 133.097656 3.734375 141.761719 C 13.582031 195.453125 44.011719 228.859375 83.757812 230.34375 C 113.484375 231.332031 137.578125 248.160156 155.519531 281.316406 C 168.707031 305.5625 173.457031 333.523438 173.984375 363.710938 C 174.863281 402.3125 190.871094 437.449219 213.558594 456.5 C 226.574219 468.625 242.226562 475.554688 259.8125 476.296875 C 289.539062 477.285156 313.632812 494.113281 331.75 527.269531 C 344.765625 551.515625 349.511719 579.476562 350.214844 609.664062 C 351.445312 664.84375 383.457031 712.597656 421.621094 717.546875 C 464.539062 721.019531 502 686.125 510.96875 629.460938 C 520.59375 557.703125 485.820312 491.636719 433.582031 488.171875 Z M 430.066406 230.34375 C 430.242188 230.34375 430.242188 230.34375 430.417969 230.34375 C 475.617188 229.601562 511.847656 177.144531 511.320312 113.550781 C 510.96875 50.949219 473.859375 0.0820312 428.832031 0.226562 C 384.160156 0.71875 347.402344 51.691406 347.578125 115.285156 C 347.753906 178.875 385.214844 231.085938 430.066406 230.34375 Z M 82.175781 488.171875 C 37.503906 488.421875 0.777344 539.144531 0.917969 602.984375 C 1.09375 666.824219 38.382812 718.46875 83.40625 718.183594 C 128.785156 717.546875 165.191406 665.339844 164.664062 601.5 C 164.3125 538.652344 127.199219 487.679688 82.175781 488.171875 Z M 82.175781 488.171875 " clip-rule="nonzero"/></clipPath><clipPath id="75cdaf6a7d"><rect x="0" width="513" y="0" height="719"/></clipPath></defs><g clip-path="url(#20f412e80e)"><path fill="#ffffff" d="M 0.199219 0 L 809.800781 0 L 809.800781 1012 L 0.199219 1012 Z M 0.199219 0 " fill-opacity="1" fill-rule="nonzero"/><path fill="#252634" d="M 0.199219 0 L 809.800781 0 L 809.800781 1012 L 0.199219 1012 Z M 0.199219 0 " fill-opacity="1" fill-rule="nonzero"/></g><g clip-path="url(#f778b0ff53)"><g clip-path="url(#af128d95b3)"><g transform="matrix(1, 0, 0, 1, 148, 245)"><g clip-path="url(#75cdaf6a7d)"><g clip-path="url(#e345c44f53)"><g clip-path="url(#544600fa73)"><g transform="matrix(0.193502, 0, 0, 0.19324, -219.780707, 0.22047)"><image x="0" y="0" width="4928" xlink:href="@@PHOTO0@@" height="3712" preserveAspectRatio="xMidYMid meet"/></g></g></g></g></g></g></g><g fill="#fffcfc" fill-opacity="1"><g transform="translate(39.60191, 157.994907)"><g><path d="M 59.109375 -106.4375 L 59.109375 -107.5625 L 82.703125 -107.5625 L 82.703125 1.59375 L 81.75 1.59375 L 19.28125 -93.53125 L 18.484375 -93.53125 L 18.484375 -30.109375 C 18.484375 -24.273438 18.722656 -19.679688 19.203125 -16.328125 C 19.679688 -12.984375 20.632812 -10.4375 22.0625 -8.6875 C 23.5 -6.9375 25.546875 -5.554688 28.203125 -4.546875 C 30.859375 -3.535156 34.363281 -2.390625 38.71875 -1.109375 L 38.71875 0 L 14.984375 0 L 14.984375 -99.90625 L 9.234375 -106.59375 L 9.234375 -107.5625 L 21.515625 -107.5625 L 78.390625 -21.359375 L 79.1875 -21.359375 L 79.1875 -77.4375 C 79.1875 -83.382812 78.945312 -88.003906 78.46875 -91.296875 C 78 -94.597656 77.070312 -97.125 75.6875 -98.875 C 74.300781 -100.625 72.28125 -102.003906 69.625 -103.015625 C 66.976562 -104.023438 63.472656 -105.164062 59.109375 -106.4375 Z M 59.109375 -106.4375 "/></g></g></g><g fill="#fffcfc" fill-opacity="1"><g transform="translate(136.641938, 157.994907)"><g><path d="M 35.375 1.59375 C 29.851562 1.59375 24.675781 0.210938 19.84375 -2.546875 C 15.007812 -5.304688 11.078125 -9.582031 8.046875 -15.375 C 5.015625 -21.164062 3.5 -28.578125 3.5 -37.609375 C 3.5 -46.523438 4.691406 -54.007812 7.078125 -60.0625 C 9.472656 -66.125 12.367188 -70.929688 15.765625 -74.484375 C 19.171875 -78.046875 22.519531 -80.625 25.8125 -82.21875 C 29.101562 -83.8125 31.707031 -84.609375 33.625 -84.609375 C 39.144531 -84.609375 44.320312 -83.226562 49.15625 -80.46875 C 53.988281 -77.707031 57.914062 -73.429688 60.9375 -67.640625 C 63.96875 -61.847656 65.484375 -54.4375 65.484375 -45.40625 C 65.484375 -36.488281 64.285156 -29 61.890625 -22.9375 C 59.503906 -16.882812 56.613281 -12.078125 53.21875 -8.515625 C 49.820312 -4.960938 46.476562 -2.390625 43.1875 -0.796875 C 39.894531 0.796875 37.289062 1.59375 35.375 1.59375 Z M 39.359375 -5.734375 C 41.160156 -5.734375 43.203125 -6.15625 45.484375 -7 C 47.773438 -7.851562 49.957031 -9.367188 52.03125 -11.546875 C 54.101562 -13.722656 55.828125 -16.800781 57.203125 -20.78125 C 58.585938 -24.769531 59.28125 -29.847656 59.28125 -36.015625 C 59.28125 -44.085938 58.003906 -51.226562 55.453125 -57.4375 C 52.898438 -63.65625 49.421875 -68.515625 45.015625 -72.015625 C 40.609375 -75.523438 35.484375 -77.28125 29.640625 -77.28125 C 27.828125 -77.28125 25.78125 -76.851562 23.5 -76 C 21.21875 -75.15625 19.039062 -73.644531 16.96875 -71.46875 C 14.894531 -69.289062 13.164062 -66.234375 11.78125 -62.296875 C 10.40625 -58.367188 9.71875 -53.269531 9.71875 -47 C 9.71875 -38.925781 10.992188 -31.78125 13.546875 -25.5625 C 16.097656 -19.351562 19.601562 -14.492188 24.0625 -10.984375 C 28.519531 -7.484375 33.617188 -5.734375 39.359375 -5.734375 Z M 39.359375 -5.734375 "/></g></g></g><g fill="#fffcfc" fill-opacity="1"><g transform="translate(205.637558, 157.994907)"><g><path d="M 80.78125 -82.21875 L 80.78125 -83.171875 L 103.09375 -83.171875 L 103.09375 -82.21875 L 74.578125 4.46875 L 73.9375 4.46875 L 52.265625 -62.296875 L 51.3125 -62.296875 L 29.3125 4.46875 L 28.6875 4.46875 L 0.3125 -82.21875 L 0.3125 -83.171875 L 25.171875 -83.171875 L 25.171875 -82.21875 L 11 -78.078125 L 31.703125 -14.984375 L 32.671875 -14.984375 L 43.984375 -50.03125 C 46.109375 -56.613281 47.617188 -62.082031 48.515625 -66.4375 C 49.421875 -70.800781 48.992188 -74.226562 47.234375 -76.71875 C 45.484375 -79.21875 41.691406 -81.050781 35.859375 -82.21875 L 35.859375 -83.171875 L 70.4375 -83.171875 L 70.4375 -82.21875 L 56.5625 -78.078125 L 56.40625 -77.765625 L 76.96875 -14.984375 L 77.921875 -14.984375 L 89.546875 -50.03125 C 91.460938 -55.976562 92.894531 -60.757812 93.84375 -64.375 C 94.800781 -67.988281 95.015625 -70.859375 94.484375 -72.984375 C 93.953125 -75.109375 92.597656 -76.859375 90.421875 -78.234375 C 88.242188 -79.617188 85.03125 -80.945312 80.78125 -82.21875 Z M 80.78125 -82.21875 "/></g></g></g><g fill="#fffcfc" fill-opacity="1"><g transform="translate(39.60191, 302.67345)"><g><path d="M 34.265625 -107.5625 L 45.25 -107.5625 L 79.984375 -0.953125 L 79.984375 0 L 54.5 0 L 54.5 -0.953125 L 68.203125 -6.21875 L 57.6875 -37.921875 L 18.796875 -37.921875 L 16.734375 -32.03125 C 14.710938 -26.289062 13.273438 -21.691406 12.421875 -18.234375 C 11.578125 -14.785156 11.421875 -12.078125 11.953125 -10.109375 C 12.484375 -8.148438 13.835938 -6.503906 16.015625 -5.171875 C 18.191406 -3.847656 21.296875 -2.441406 25.328125 -0.953125 L 25.328125 0 L 1.75 0 L 1.75 -0.953125 L 36.65625 -99.265625 L 34.265625 -106.59375 Z M 38.5625 -94.015625 L 19.765625 -40.796875 L 56.71875 -40.796875 L 39.203125 -94.015625 Z M 38.5625 -94.015625 "/></g></g></g><g fill="#fffcfc" fill-opacity="1"><g transform="translate(121.823012, 302.67345)"><g><path d="M 40.796875 -82.21875 L 40.796875 -83.171875 L 63.578125 -83.171875 L 63.578125 -82.21875 L 31.875 4.625 L 31.234375 4.625 L 0.3125 -82.21875 L 0.3125 -83.171875 L 25.171875 -83.171875 L 25.171875 -82.21875 L 11 -78.078125 L 34.265625 -12.90625 L 35.21875 -12.90625 L 48.59375 -50.03125 C 51.039062 -56.613281 52.6875 -61.789062 53.53125 -65.5625 C 54.382812 -69.34375 54.519531 -72.210938 53.9375 -74.171875 C 53.351562 -76.140625 51.972656 -77.679688 49.796875 -78.796875 C 47.617188 -79.910156 44.617188 -81.050781 40.796875 -82.21875 Z M 40.796875 -82.21875 "/></g></g></g><g fill="#fffcfc" fill-opacity="1"><g transform="translate(185.71965, 302.67345)"><g><path d="M 58.484375 -6.53125 L 77.125 -16.890625 L 77.59375 -16.09375 C 75.363281 -14.289062 73 -12.003906 70.5 -9.234375 C 68.007812 -6.472656 65.648438 -4.054688 63.421875 -1.984375 C 61.191406 0.078125 59.222656 1.109375 57.515625 1.109375 C 56.773438 1.109375 55.976562 0.816406 55.125 0.234375 C 54.28125 -0.347656 53.40625 -1.882812 52.5 -4.375 C 51.601562 -6.875 50.625 -10.992188 49.5625 -16.734375 C 44.988281 -10.253906 40.679688 -5.550781 36.640625 -2.625 C 32.609375 0.289062 27.882812 1.75 22.46875 1.75 C 17.15625 1.75 13.222656 0.53125 10.671875 -1.90625 C 8.128906 -4.351562 6.859375 -7.382812 6.859375 -11 C 6.859375 -15.25 8.421875 -19.414062 11.546875 -23.5 C 14.679688 -27.59375 18.742188 -31.628906 23.734375 -35.609375 C 28.734375 -39.597656 33.941406 -43.453125 39.359375 -47.171875 L 49.875 -54.34375 C 49.875 -58.375 49.609375 -62.222656 49.078125 -65.890625 C 48.546875 -69.554688 47.242188 -72.554688 45.171875 -74.890625 C 43.097656 -77.222656 39.78125 -78.390625 35.21875 -78.390625 C 28.738281 -78.390625 23.847656 -76 20.546875 -71.21875 C 17.253906 -66.445312 15.820312 -60.445312 16.25 -53.21875 L 4.46875 -46.6875 L 3.984375 -47 C 7.273438 -56.132812 11.148438 -63.515625 15.609375 -69.140625 C 20.078125 -74.773438 24.40625 -78.894531 28.59375 -81.5 C 32.789062 -84.101562 36.0625 -85.40625 38.40625 -85.40625 C 44.132812 -85.40625 48.539062 -84.179688 51.625 -81.734375 C 54.707031 -79.296875 56.832031 -76.296875 58 -72.734375 C 59.164062 -69.179688 59.695312 -65.703125 59.59375 -62.296875 L 58.484375 -17.046875 Z M 27.40625 -4.140625 C 30.488281 -4.140625 33.941406 -5.441406 37.765625 -8.046875 C 41.585938 -10.648438 45.519531 -14.765625 49.5625 -20.390625 L 49.875 -50.515625 C 38.71875 -43.710938 30.5625 -37.492188 25.40625 -31.859375 C 20.257812 -26.234375 17.6875 -20.660156 17.6875 -15.140625 C 17.6875 -11.734375 18.585938 -9.046875 20.390625 -7.078125 C 22.203125 -5.117188 24.539062 -4.140625 27.40625 -4.140625 Z M 27.40625 -4.140625 "/></g></g></g><g fill="#fffcfc" fill-opacity="1"><g transform="translate(260.610964, 302.67345)"><g><path d="M 20.234375 -100.546875 C 18.210938 -100.546875 16.484375 -101.257812 15.046875 -102.6875 C 13.617188 -104.125 12.90625 -105.851562 12.90625 -107.875 C 12.90625 -109.789062 13.617188 -111.460938 15.046875 -112.890625 C 16.484375 -114.328125 18.210938 -115.046875 20.234375 -115.046875 C 22.253906 -115.046875 23.953125 -114.328125 25.328125 -112.890625 C 26.710938 -111.460938 27.40625 -109.789062 27.40625 -107.875 C 27.40625 -105.851562 26.710938 -104.125 25.328125 -102.6875 C 23.953125 -101.257812 22.253906 -100.546875 20.234375 -100.546875 Z M 16.40625 -4.78125 L 16.40625 -78.078125 L 2.078125 -82.21875 L 2.078125 -83.171875 L 25.328125 -83.171875 L 25.328125 -4.78125 L 39.671875 -0.953125 L 39.671875 0 L 2.078125 0 L 2.078125 -0.953125 Z M 16.40625 -4.78125 "/></g></g></g><g fill="#fffcfc" fill-opacity="1"><g transform="translate(299.968745, 302.67345)"><g><path d="M 23.421875 -4.78125 L 37.765625 -0.953125 L 37.765625 0 L 0.15625 0 L 0.15625 -0.953125 L 14.5 -4.78125 L 14.5 -114.5625 L -1.4375 -114.40625 L -1.4375 -115.359375 L 22.46875 -120.625 L 23.421875 -120.625 Z M 23.421875 -4.78125 "/></g></g></g><g fill="#fffcfc" fill-opacity="1"><g transform="translate(337.89242, 302.67345)"><g><path d="M 58.484375 -6.53125 L 77.125 -16.890625 L 77.59375 -16.09375 C 75.363281 -14.289062 73 -12.003906 70.5 -9.234375 C 68.007812 -6.472656 65.648438 -4.054688 63.421875 -1.984375 C 61.191406 0.078125 59.222656 1.109375 57.515625 1.109375 C 56.773438 1.109375 55.976562 0.816406 55.125 0.234375 C 54.28125 -0.347656 53.40625 -1.882812 52.5 -4.375 C 51.601562 -6.875 50.625 -10.992188 49.5625 -16.734375 C 44.988281 -10.253906 40.679688 -5.550781 36.640625 -2.625 C 32.609375 0.289062 27.882812 1.75 22.46875 1.75 C 17.15625 1.75 13.222656 0.53125 10.671875 -1.90625 C 8.128906 -4.351562 6.859375 -7.382812 6.859375 -11 C 6.859375 -15.25 8.421875 -19.414062 11.546875 -23.5 C 14.679688 -27.59375 18.742188 -31.628906 23.734375 -35.609375 C 28.734375 -39.597656 33.941406 -43.453125 39.359375 -47.171875 L 49.875 -54.34375 C 49.875 -58.375 49.609375 -62.222656 49.078125 -65.890625 C 48.546875 -69.554688 47.242188 -72.554688 45.171875 -74.890625 C 43.097656 -77.222656 39.78125 -78.390625 35.21875 -78.390625 C 28.738281 -78.390625 23.847656 -76 20.546875 -71.21875 C 17.253906 -66.445312 15.820312 -60.445312 16.25 -53.21875 L 4.46875 -46.6875 L 3.984375 -47 C 7.273438 -56.132812 11.148438 -63.515625 15.609375 -69.140625 C 20.078125 -74.773438 24.40625 -78.894531 28.59375 -81.5 C 32.789062 -84.101562 36.0625 -85.40625 38.40625 -85.40625 C 44.132812 -85.40625 48.539062 -84.179688 51.625 -81.734375 C 54.707031 -79.296875 56.832031 -76.296875 58 -72.734375 C 59.164062 -69.179688 59.695312 -65.703125 59.59375 -62.296875 L 58.484375 -17.046875 Z M 27.40625 -4.140625 C 30.488281 -4.140625 33.941406 -5.441406 37.765625 -8.046875 C 41.585938 -10.648438 45.519531 -14.765625 49.5625 -20.390625 L 49.875 -50.515625 C 38.71875 -43.710938 30.5625 -37.492188 25.40625 -31.859375 C 20.257812 -26.234375 17.6875 -20.660156 17.6875 -15.140625 C 17.6875 -11.734375 18.585938 -9.046875 20.390625 -7.078125 C 22.203125 -5.117188 24.539062 -4.140625 27.40625 -4.140625 Z M 27.40625 -4.140625 "/></g></g></g><g fill="#fffcfc" fill-opacity="1"><g transform="translate(412.783746, 302.67345)"><g><path d="M 39.203125 -84.765625 C 45.046875 -84.765625 50.4375 -83.300781 55.375 -80.375 C 60.3125 -77.457031 64.289062 -72.972656 67.3125 -66.921875 C 70.34375 -60.867188 71.859375 -53.007812 71.859375 -43.34375 C 71.859375 -36.96875 71.007812 -31.3125 69.3125 -26.375 C 67.613281 -21.4375 65.460938 -17.210938 62.859375 -13.703125 C 60.253906 -10.191406 57.519531 -7.320312 54.65625 -5.09375 C 51.789062 -2.863281 49.132812 -1.21875 46.6875 -0.15625 C 44.238281 0.90625 42.378906 1.4375 41.109375 1.4375 C 34.953125 1.4375 29.957031 0.1875 26.125 -2.3125 C 22.300781 -4.8125 19.539062 -8.023438 17.84375 -11.953125 L 17.375 -11.953125 L 12.75 1.59375 L 11.796875 1.59375 L 12.109375 -114.5625 L -3.671875 -114.40625 L -3.671875 -115.359375 L 20.234375 -120.625 L 21.1875 -120.625 L 21.1875 -74.578125 C 25.226562 -77.648438 28.972656 -80.113281 32.421875 -81.96875 C 35.878906 -83.832031 38.140625 -84.765625 39.203125 -84.765625 Z M 43.65625 -4.625 C 45.675781 -4.625 47.851562 -5.019531 50.1875 -5.8125 C 52.53125 -6.613281 54.765625 -8.179688 56.890625 -10.515625 C 59.015625 -12.847656 60.738281 -16.269531 62.0625 -20.78125 C 63.394531 -25.300781 64.0625 -31.28125 64.0625 -38.71875 C 64.0625 -45.945312 62.890625 -52.507812 60.546875 -58.40625 C 58.210938 -64.300781 54.972656 -69 50.828125 -72.5 C 46.679688 -76.007812 41.898438 -77.765625 36.484375 -77.765625 C 32.984375 -77.765625 29.984375 -77.097656 27.484375 -75.765625 C 24.992188 -74.441406 22.84375 -73.035156 21.03125 -71.546875 L 21.03125 -32.5 C 21.03125 -24.113281 23.046875 -17.367188 27.078125 -12.265625 C 31.117188 -7.171875 36.644531 -4.625 43.65625 -4.625 Z M 43.65625 -4.625 "/></g></g></g><g fill="#fffcfc" fill-opacity="1"><g transform="translate(487.834386, 302.67345)"><g><path d="M 23.421875 -4.78125 L 37.765625 -0.953125 L 37.765625 0 L 0.15625 0 L 0.15625 -0.953125 L 14.5 -4.78125 L 14.5 -114.5625 L -1.4375 -114.40625 L -1.4375 -115.359375 L 22.46875 -120.625 L 23.421875 -120.625 Z M 23.421875 -4.78125 "/></g></g></g><g fill="#fffcfc" fill-opacity="1"><g transform="translate(525.758084, 302.67345)"><g><path d="M 59.75 -11.46875 L 60.390625 -10.359375 C 55.828125 -6.847656 51.601562 -3.976562 47.71875 -1.75 C 43.84375 0.476562 40.738281 1.59375 38.40625 1.59375 C 32.03125 1.59375 26.210938 0.109375 20.953125 -2.859375 C 15.691406 -5.835938 11.46875 -10.300781 8.28125 -16.25 C 5.09375 -22.195312 3.5 -29.6875 3.5 -38.71875 C 3.5 -45.726562 4.398438 -51.804688 6.203125 -56.953125 C 8.015625 -62.109375 10.328125 -66.492188 13.140625 -70.109375 C 15.960938 -73.722656 18.910156 -76.617188 21.984375 -78.796875 C 25.066406 -80.972656 27.910156 -82.566406 30.515625 -83.578125 C 33.117188 -84.585938 35.109375 -85.09375 36.484375 -85.09375 C 45.085938 -85.09375 51.035156 -82.648438 54.328125 -77.765625 C 57.628906 -72.878906 59.28125 -66.503906 59.28125 -58.640625 C 59.28125 -57.785156 58.484375 -56.640625 56.890625 -55.203125 C 55.296875 -53.773438 53.617188 -52.503906 51.859375 -51.390625 C 50.109375 -50.273438 48.863281 -49.71875 48.125 -49.71875 L 11.15625 -49.71875 L 11.15625 -46.84375 C 11.15625 -33.675781 14.15625 -23.476562 20.15625 -16.25 C 26.15625 -9.03125 34.039062 -5.421875 43.8125 -5.421875 C 47.320312 -5.421875 50.269531 -6.054688 52.65625 -7.328125 C 55.050781 -8.597656 57.414062 -9.976562 59.75 -11.46875 Z M 33.78125 -78.234375 C 30.914062 -78.234375 27.863281 -77.59375 24.625 -76.3125 C 21.382812 -75.039062 18.515625 -72.570312 16.015625 -68.90625 C 13.515625 -65.25 11.945312 -59.804688 11.3125 -52.578125 L 50.671875 -52.578125 C 51.203125 -58.742188 50.695312 -63.6875 49.15625 -67.40625 C 47.613281 -71.125 45.488281 -73.859375 42.78125 -75.609375 C 40.070312 -77.359375 37.070312 -78.234375 33.78125 -78.234375 Z M 33.78125 -78.234375 "/></g></g></g><g fill="#ffffff" fill-opacity="1"><g transform="translate(652.675305, 203.988144)"><g><path d="M 0 -0.6875 C -1.601562 -0.6875 -2.929688 -1.078125 -3.984375 -1.859375 C -5.035156 -2.640625 -5.925781 -3.601562 -6.65625 -4.75 C -7.375 -5.78125 -8.019531 -6.734375 -8.59375 -7.609375 C -9.175781 -8.492188 -9.785156 -9.203125 -10.421875 -9.734375 C -11.054688 -10.265625 -11.8125 -10.53125 -12.6875 -10.53125 C -13.582031 -10.53125 -14.335938 -10.25 -14.953125 -9.6875 C -15.566406 -9.132812 -15.875 -8.347656 -15.875 -7.328125 C -15.875 -6.171875 -15.5 -5.238281 -14.75 -4.53125 C -14 -3.820312 -12.988281 -3.46875 -11.71875 -3.46875 L -11.71875 -1.015625 C -12.882812 -1.015625 -13.941406 -1.25 -14.890625 -1.71875 C -15.847656 -2.1875 -16.601562 -2.890625 -17.15625 -3.828125 C -17.707031 -4.773438 -17.984375 -5.957031 -17.984375 -7.375 C -17.984375 -8.507812 -17.773438 -9.503906 -17.359375 -10.359375 C -16.941406 -11.222656 -16.347656 -11.894531 -15.578125 -12.375 C -14.816406 -12.863281 -13.898438 -13.109375 -12.828125 -13.109375 C -11.910156 -13.109375 -11.113281 -12.925781 -10.4375 -12.5625 C -9.757812 -12.195312 -9.15625 -11.71875 -8.625 -11.125 C -8.09375 -10.53125 -7.597656 -9.882812 -7.140625 -9.1875 C -6.679688 -8.488281 -6.210938 -7.800781 -5.734375 -7.125 C -5.265625 -6.457031 -4.742188 -5.859375 -4.171875 -5.328125 C -3.597656 -4.804688 -2.929688 -4.414062 -2.171875 -4.15625 L -2.125 -4.15625 L -2.125 -13.109375 L 0 -13.109375 Z M 0 -0.6875 "/></g></g></g><g fill="#ffffff" fill-opacity="1"><g transform="translate(652.675305, 190.084774)"><g/></g></g><g fill="#ffffff" fill-opacity="1"><g transform="translate(652.675305, 184.982622)"><g><path d="M 0 -1.453125 L -18.25 -1.453125 L -18.25 -9.4375 C -18.25 -11.207031 -17.863281 -12.570312 -17.09375 -13.53125 C -16.332031 -14.5 -15.191406 -14.984375 -13.671875 -14.984375 C -12.617188 -14.984375 -11.769531 -14.707031 -11.125 -14.15625 C -10.476562 -13.613281 -10.007812 -12.910156 -9.71875 -12.046875 L -9.671875 -12.046875 C -9.453125 -13.097656 -8.972656 -13.972656 -8.234375 -14.671875 C -7.503906 -15.367188 -6.503906 -15.71875 -5.234375 -15.71875 C -3.992188 -15.71875 -2.984375 -15.46875 -2.203125 -14.96875 C -1.429688 -14.46875 -0.867188 -13.769531 -0.515625 -12.875 C -0.171875 -11.976562 0 -10.9375 0 -9.75 Z M -10.40625 -4.15625 L -10.40625 -9.15625 C -10.40625 -10.0625 -10.632812 -10.804688 -11.09375 -11.390625 C -11.550781 -11.972656 -12.25 -12.265625 -13.1875 -12.265625 C -14.144531 -12.265625 -14.859375 -11.960938 -15.328125 -11.359375 C -15.796875 -10.765625 -16.03125 -9.9375 -16.03125 -8.875 L -16.03125 -4.15625 Z M -2.25 -4.15625 L -2.25 -9.109375 C -2.25 -10.296875 -2.488281 -11.242188 -2.96875 -11.953125 C -3.457031 -12.660156 -4.296875 -13.015625 -5.484375 -13.015625 C -6.535156 -13.015625 -7.328125 -12.679688 -7.859375 -12.015625 C -8.390625 -11.347656 -8.65625 -10.4375 -8.65625 -9.28125 L -8.65625 -4.15625 Z M -2.25 -4.15625 "/></g></g></g><g fill="#ffffff" fill-opacity="1"><g transform="translate(652.675305, 168.655733)"><g><path d="M 0 -1.453125 L -18.25 -1.453125 L -18.25 -14.359375 L -16.03125 -14.359375 L -16.03125 -4.15625 L -10.671875 -4.15625 L -10.671875 -13.296875 L -8.421875 -13.296875 L -8.421875 -4.15625 L -2.25 -4.15625 L -2.25 -14.5625 L 0 -14.5625 Z M 0 -1.453125 "/></g></g></g><g fill="#ffffff" fill-opacity="1"><g transform="translate(652.675305, 153.221717)"><g><path d="M 0 -1.453125 L -18.25 -1.453125 L -18.25 -8.78125 C -18.25 -10.507812 -17.863281 -11.953125 -17.09375 -13.109375 C -16.332031 -14.265625 -15.257812 -15.132812 -13.875 -15.71875 C -12.5 -16.3125 -10.898438 -16.609375 -9.078125 -16.609375 C -7.242188 -16.609375 -5.644531 -16.316406 -4.28125 -15.734375 C -2.925781 -15.160156 -1.875 -14.296875 -1.125 -13.140625 C -0.375 -11.984375 0 -10.535156 0 -8.796875 Z M -2.25 -4.140625 L -2.25 -8.453125 C -2.25 -10.265625 -2.859375 -11.625 -4.078125 -12.53125 C -5.304688 -13.445312 -6.972656 -13.90625 -9.078125 -13.90625 C -11.203125 -13.90625 -12.890625 -13.460938 -14.140625 -12.578125 C -15.398438 -11.691406 -16.03125 -10.335938 -16.03125 -8.515625 L -16.03125 -4.140625 Z M -2.25 -4.140625 "/></g></g></g><g fill="#ffffff" fill-opacity="1"><g transform="translate(652.675305, 135.899912)"><g><path d="M 0 -1.453125 L -18.25 -1.453125 L -18.25 -9.34375 C -18.25 -11.175781 -17.8125 -12.628906 -16.9375 -13.703125 C -16.070312 -14.785156 -14.769531 -15.328125 -13.03125 -15.328125 C -11.78125 -15.328125 -10.757812 -14.976562 -9.96875 -14.28125 C -9.1875 -13.59375 -8.679688 -12.648438 -8.453125 -11.453125 L -8.390625 -11.453125 C -8.285156 -12.222656 -8.019531 -12.835938 -7.59375 -13.296875 C -7.175781 -13.753906 -6.664062 -14.101562 -6.0625 -14.34375 C -5.457031 -14.59375 -4.828125 -14.769531 -4.171875 -14.875 C -3.515625 -14.976562 -2.890625 -15.054688 -2.296875 -15.109375 C -1.710938 -15.160156 -1.226562 -15.21875 -0.84375 -15.28125 C -0.46875 -15.351562 -0.253906 -15.472656 -0.203125 -15.640625 L 0 -15.640625 L 0 -12.8125 C -0.132812 -12.65625 -0.394531 -12.550781 -0.78125 -12.5 C -1.175781 -12.445312 -1.644531 -12.40625 -2.1875 -12.375 C -2.738281 -12.34375 -3.300781 -12.28125 -3.875 -12.1875 C -4.457031 -12.09375 -5 -11.925781 -5.5 -11.6875 C -6 -11.445312 -6.40625 -11.101562 -6.71875 -10.65625 C -7.039062 -10.207031 -7.203125 -9.597656 -7.203125 -8.828125 L -7.203125 -4.15625 L 0 -4.15625 Z M -9.4375 -4.15625 L -9.4375 -8.65625 C -9.4375 -9.863281 -9.707031 -10.828125 -10.25 -11.546875 C -10.800781 -12.265625 -11.628906 -12.625 -12.734375 -12.625 C -13.890625 -12.625 -14.726562 -12.285156 -15.25 -11.609375 C -15.769531 -10.941406 -16.03125 -9.957031 -16.03125 -8.65625 L -16.03125 -4.15625 Z M -9.4375 -4.15625 "/></g></g></g><g fill="#ffffff" fill-opacity="1"><g transform="translate(652.675305, 119.700607)"><g><path d="M 0.359375 -9.4375 C 0.359375 -7.632812 -0.046875 -6.082031 -0.859375 -4.78125 C -1.679688 -3.476562 -2.804688 -2.476562 -4.234375 -1.78125 C -5.660156 -1.082031 -7.296875 -0.734375 -9.140625 -0.734375 C -10.972656 -0.734375 -12.597656 -1.082031 -14.015625 -1.78125 C -15.441406 -2.476562 -16.5625 -3.476562 -17.375 -4.78125 C -18.1875 -6.082031 -18.59375 -7.632812 -18.59375 -9.4375 C -18.59375 -11.238281 -18.1875 -12.789062 -17.375 -14.09375 C -16.5625 -15.394531 -15.441406 -16.398438 -14.015625 -17.109375 C -12.597656 -17.816406 -10.972656 -18.171875 -9.140625 -18.171875 C -7.296875 -18.171875 -5.660156 -17.816406 -4.234375 -17.109375 C -2.804688 -16.398438 -1.679688 -15.394531 -0.859375 -14.09375 C -0.046875 -12.789062 0.359375 -11.238281 0.359375 -9.4375 Z M -1.890625 -9.4375 C -1.890625 -10.71875 -2.203125 -11.804688 -2.828125 -12.703125 C -3.460938 -13.609375 -4.320312 -14.296875 -5.40625 -14.765625 C -6.5 -15.234375 -7.742188 -15.46875 -9.140625 -15.46875 C -10.535156 -15.46875 -11.773438 -15.234375 -12.859375 -14.765625 C -13.953125 -14.296875 -14.804688 -13.609375 -15.421875 -12.703125 C -16.046875 -11.804688 -16.359375 -10.71875 -16.359375 -9.4375 C -16.359375 -8.164062 -16.046875 -7.082031 -15.421875 -6.1875 C -14.804688 -5.289062 -13.953125 -4.609375 -12.859375 -4.140625 C -11.773438 -3.671875 -10.535156 -3.4375 -9.140625 -3.4375 C -7.742188 -3.4375 -6.5 -3.671875 -5.40625 -4.140625 C -4.320312 -4.609375 -3.460938 -5.289062 -2.828125 -6.1875 C -2.203125 -7.082031 -1.890625 -8.164062 -1.890625 -9.4375 Z M -1.890625 -9.4375 "/></g></g></g><g fill="#ffffff" fill-opacity="1"><g transform="translate(652.675305, 100.822635)"><g><path d="M 0.359375 -9.4375 C 0.359375 -7.632812 -0.046875 -6.082031 -0.859375 -4.78125 C -1.679688 -3.476562 -2.804688 -2.476562 -4.234375 -1.78125 C -5.660156 -1.082031 -7.296875 -0.734375 -9.140625 -0.734375 C -10.972656 -0.734375 -12.597656 -1.082031 -14.015625 -1.78125 C -15.441406 -2.476562 -16.5625 -3.476562 -17.375 -4.78125 C -18.1875 -6.082031 -18.59375 -7.632812 -18.59375 -9.4375 C -18.59375 -11.238281 -18.1875 -12.789062 -17.375 -14.09375 C -16.5625 -15.394531 -15.441406 -16.398438 -14.015625 -17.109375 C -12.597656 -17.816406 -10.972656 -18.171875 -9.140625 -18.171875 C -7.296875 -18.171875 -5.660156 -17.816406 -4.234375 -17.109375 C -2.804688 -16.398438 -1.679688 -15.394531 -0.859375 -14.09375 C -0.046875 -12.789062 0.359375 -11.238281 0.359375 -9.4375 Z M -1.890625 -9.4375 C -1.890625 -10.71875 -2.203125 -11.804688 -2.828125 -12.703125 C -3.460938 -13.609375 -4.320312 -14.296875 -5.40625 -14.765625 C -6.5 -15.234375 -7.742188 -15.46875 -9.140625 -15.46875 C -10.535156 -15.46875 -11.773438 -15.234375 -12.859375 -14.765625 C -13.953125 -14.296875 -14.804688 -13.609375 -15.421875 -12.703125 C -16.046875 -11.804688 -16.359375 -10.71875 -16.359375 -9.4375 C -16.359375 -8.164062 -16.046875 -7.082031 -15.421875 -6.1875 C -14.804688 -5.289062 -13.953125 -4.609375 -12.859375 -4.140625 C -11.773438 -3.671875 -10.535156 -3.4375 -9.140625 -3.4375 C -7.742188 -3.4375 -6.5 -3.671875 -5.40625 -4.140625 C -4.320312 -4.609375 -3.460938 -5.289062 -2.828125 -6.1875 C -2.203125 -7.082031 -1.890625 -8.164062 -1.890625 -9.4375 Z M -1.890625 -9.4375 "/></g></g></g><g fill="#ffffff" fill-opacity="1"><g transform="translate(652.675305, 81.944664)"><g><path d="M 0 -1.453125 L -18.25 -1.453125 L -18.25 -4.875 L -3.859375 -10.359375 L -3.859375 -10.40625 L -18.25 -15.890625 L -18.25 -19.3125 L 0 -19.3125 L 0 -16.734375 L -14.21875 -16.734375 L -14.21875 -16.6875 L 0 -11.40625 L 0 -9.359375 L -14.21875 -4.078125 L -14.21875 -4.03125 L 0 -4.03125 Z M 0 -1.453125 "/></g></g></g><g fill="#ffffff" fill-opacity="1"><g transform="translate(652.675305, 61.178904)"><g><path d="M 0.359375 -8.3125 C 0.359375 -6.851562 0.117188 -5.539062 -0.359375 -4.375 C -0.835938 -3.207031 -1.546875 -2.273438 -2.484375 -1.578125 C -3.429688 -0.878906 -4.582031 -0.515625 -5.9375 -0.484375 L -5.9375 -3.1875 C -4.582031 -3.238281 -3.566406 -3.738281 -2.890625 -4.6875 C -2.222656 -5.644531 -1.890625 -6.851562 -1.890625 -8.3125 C -1.890625 -9.625 -2.179688 -10.609375 -2.765625 -11.265625 C -3.359375 -11.929688 -4.050781 -12.265625 -4.84375 -12.265625 C -5.613281 -12.285156 -6.210938 -12.070312 -6.640625 -11.625 C -7.078125 -11.1875 -7.425781 -10.554688 -7.6875 -9.734375 C -7.957031 -8.921875 -8.210938 -7.945312 -8.453125 -6.8125 C -8.703125 -5.707031 -9.023438 -4.722656 -9.421875 -3.859375 C -9.828125 -3.003906 -10.363281 -2.328125 -11.03125 -1.828125 C -11.707031 -1.335938 -12.570312 -1.09375 -13.625 -1.09375 C -14.78125 -1.09375 -15.722656 -1.378906 -16.453125 -1.953125 C -17.191406 -2.523438 -17.734375 -3.296875 -18.078125 -4.265625 C -18.421875 -5.234375 -18.59375 -6.320312 -18.59375 -7.53125 C -18.59375 -8.832031 -18.375 -10 -17.9375 -11.03125 C -17.5 -12.0625 -16.863281 -12.882812 -16.03125 -13.5 C -15.207031 -14.125 -14.207031 -14.460938 -13.03125 -14.515625 L -13.03125 -11.8125 C -14.050781 -11.695312 -14.859375 -11.28125 -15.453125 -10.5625 C -16.054688 -9.84375 -16.359375 -8.832031 -16.359375 -7.53125 C -16.359375 -6.4375 -16.132812 -5.539062 -15.6875 -4.84375 C -15.25 -4.144531 -14.617188 -3.796875 -13.796875 -3.796875 C -13.117188 -3.796875 -12.59375 -3.972656 -12.21875 -4.328125 C -11.84375 -4.691406 -11.546875 -5.210938 -11.328125 -5.890625 C -11.109375 -6.578125 -10.890625 -7.394531 -10.671875 -8.34375 C -10.390625 -9.613281 -10.039062 -10.75 -9.625 -11.75 C -9.207031 -12.75 -8.640625 -13.535156 -7.921875 -14.109375 C -7.210938 -14.691406 -6.265625 -14.984375 -5.078125 -14.984375 C -4.035156 -14.984375 -3.101562 -14.722656 -2.28125 -14.203125 C -1.457031 -13.679688 -0.8125 -12.921875 -0.34375 -11.921875 C 0.125 -10.929688 0.359375 -9.726562 0.359375 -8.3125 Z M 0.359375 -8.3125 "/></g></g></g><g fill="#ffffff" fill-opacity="1"><g transform="translate(687.907903, 218.324813)"><g><path d="M 0 -0.6875 C -1.601562 -0.6875 -2.929688 -1.078125 -3.984375 -1.859375 C -5.035156 -2.640625 -5.925781 -3.601562 -6.65625 -4.75 C -7.375 -5.78125 -8.019531 -6.734375 -8.59375 -7.609375 C -9.175781 -8.492188 -9.785156 -9.203125 -10.421875 -9.734375 C -11.054688 -10.265625 -11.8125 -10.53125 -12.6875 -10.53125 C -13.582031 -10.53125 -14.335938 -10.25 -14.953125 -9.6875 C -15.566406 -9.132812 -15.875 -8.347656 -15.875 -7.328125 C -15.875 -6.171875 -15.5 -5.238281 -14.75 -4.53125 C -14 -3.820312 -12.988281 -3.46875 -11.71875 -3.46875 L -11.71875 -1.015625 C -12.882812 -1.015625 -13.941406 -1.25 -14.890625 -1.71875 C -15.847656 -2.1875 -16.601562 -2.890625 -17.15625 -3.828125 C -17.707031 -4.773438 -17.984375 -5.957031 -17.984375 -7.375 C -17.984375 -8.507812 -17.773438 -9.503906 -17.359375 -10.359375 C -16.941406 -11.222656 -16.347656 -11.894531 -15.578125 -12.375 C -14.816406 -12.863281 -13.898438 -13.109375 -12.828125 -13.109375 C -11.910156 -13.109375 -11.113281 -12.925781 -10.4375 -12.5625 C -9.757812 -12.195312 -9.15625 -11.71875 -8.625 -11.125 C -8.09375 -10.53125 -7.597656 -9.882812 -7.140625 -9.1875 C -6.679688 -8.488281 -6.210938 -7.800781 -5.734375 -7.125 C -5.265625 -6.457031 -4.742188 -5.859375 -4.171875 -5.328125 C -3.597656 -4.804688 -2.929688 -4.414062 -2.171875 -4.15625 L -2.125 -4.15625 L -2.125 -13.109375 L 0 -13.109375 Z M 0 -0.6875 "/></g></g></g><g fill="#ffffff" fill-opacity="1"><g transform="translate(687.907903, 204.421443)"><g/></g></g><g fill="#ffffff" fill-opacity="1"><g transform="translate(687.907903, 199.319292)"><g><path d="M 0 -1.453125 L -18.25 -1.453125 L -18.25 -9.4375 C -18.25 -11.207031 -17.863281 -12.570312 -17.09375 -13.53125 C -16.332031 -14.5 -15.191406 -14.984375 -13.671875 -14.984375 C -12.617188 -14.984375 -11.769531 -14.707031 -11.125 -14.15625 C -10.476562 -13.613281 -10.007812 -12.910156 -9.71875 -12.046875 L -9.671875 -12.046875 C -9.453125 -13.097656 -8.972656 -13.972656 -8.234375 -14.671875 C -7.503906 -15.367188 -6.503906 -15.71875 -5.234375 -15.71875 C -3.992188 -15.71875 -2.984375 -15.46875 -2.203125 -14.96875 C -1.429688 -14.46875 -0.867188 -13.769531 -0.515625 -12.875 C -0.171875 -11.976562 0 -10.9375 0 -9.75 Z M -10.40625 -4.15625 L -10.40625 -9.15625 C -10.40625 -10.0625 -10.632812 -10.804688 -11.09375 -11.390625 C -11.550781 -11.972656 -12.25 -12.265625 -13.1875 -12.265625 C -14.144531 -12.265625 -14.859375 -11.960938 -15.328125 -11.359375 C -15.796875 -10.765625 -16.03125 -9.9375 -16.03125 -8.875 L -16.03125 -4.15625 Z M -2.25 -4.15625 L -2.25 -9.109375 C -2.25 -10.296875 -2.488281 -11.242188 -2.96875 -11.953125 C -3.457031 -12.660156 -4.296875 -13.015625 -5.484375 -13.015625 C -6.535156 -13.015625 -7.328125 -12.679688 -7.859375 -12.015625 C -8.390625 -11.347656 -8.65625 -10.4375 -8.65625 -9.28125 L -8.65625 -4.15625 Z M -2.25 -4.15625 "/></g></g></g><g fill="#ffffff" fill-opacity="1"><g transform="translate(687.907903, 183.068959)"><g><path d="M 0 -0.109375 L -18.25 -6.890625 L -18.25 -9.671875 L 0 -16.484375 L 0 -13.78125 L -5 -12 L -5 -4.59375 L 0 -2.8125 Z M -7.125 -5.234375 L -7.125 -11.359375 L -15.671875 -8.3125 L -15.671875 -8.265625 Z M -7.125 -5.234375 "/></g></g></g><g fill="#ffffff" fill-opacity="1"><g transform="translate(687.907903, 168.63043)"><g><path d="M 0 -6.375 L -16.03125 -6.375 L -16.03125 -0.484375 L -18.25 -0.484375 L -18.25 -14.984375 L -16.03125 -14.984375 L -16.03125 -9.078125 L 0 -9.078125 Z M 0 -6.375 "/></g></g></g><g fill="#ffffff" fill-opacity="1"><g transform="translate(687.907903, 153.170907)"><g><path d="M 0 -1.453125 L -18.25 -1.453125 L -18.25 -4.15625 L -10.59375 -4.15625 L -10.59375 -13.109375 L -18.25 -13.109375 L -18.25 -15.8125 L 0 -15.8125 L 0 -13.109375 L -8.34375 -13.109375 L -8.34375 -4.15625 L 0 -4.15625 Z M 0 -1.453125 "/></g></g></g><g fill="#ffffff" fill-opacity="1"><g transform="translate(687.907903, 135.900117)"><g><path d="M 0 -1.453125 L -18.25 -1.453125 L -18.25 -9.34375 C -18.25 -11.175781 -17.8125 -12.628906 -16.9375 -13.703125 C -16.070312 -14.785156 -14.769531 -15.328125 -13.03125 -15.328125 C -11.78125 -15.328125 -10.757812 -14.976562 -9.96875 -14.28125 C -9.1875 -13.59375 -8.679688 -12.648438 -8.453125 -11.453125 L -8.390625 -11.453125 C -8.285156 -12.222656 -8.019531 -12.835938 -7.59375 -13.296875 C -7.175781 -13.753906 -6.664062 -14.101562 -6.0625 -14.34375 C -5.457031 -14.59375 -4.828125 -14.769531 -4.171875 -14.875 C -3.515625 -14.976562 -2.890625 -15.054688 -2.296875 -15.109375 C -1.710938 -15.160156 -1.226562 -15.21875 -0.84375 -15.28125 C -0.46875 -15.351562 -0.253906 -15.472656 -0.203125 -15.640625 L 0 -15.640625 L 0 -12.8125 C -0.132812 -12.65625 -0.394531 -12.550781 -0.78125 -12.5 C -1.175781 -12.445312 -1.644531 -12.40625 -2.1875 -12.375 C -2.738281 -12.34375 -3.300781 -12.28125 -3.875 -12.1875 C -4.457031 -12.09375 -5 -11.925781 -5.5 -11.6875 C -6 -11.445312 -6.40625 -11.101562 -6.71875 -10.65625 C -7.039062 -10.207031 -7.203125 -9.597656 -7.203125 -8.828125 L -7.203125 -4.15625 L 0 -4.15625 Z M -9.4375 -4.15625 L -9.4375 -8.65625 C -9.4375 -9.863281 -9.707031 -10.828125 -10.25 -11.546875 C -10.800781 -12.265625 -11.628906 -12.625 -12.734375 -12.625 C -13.890625 -12.625 -14.726562 -12.285156 -15.25 -11.609375 C -15.769531 -10.941406 -16.03125 -9.957031 -16.03125 -8.65625 L -16.03125 -4.15625 Z M -9.4375 -4.15625 "/></g></g></g><g fill="#ffffff" fill-opacity="1"><g transform="translate(687.907903, 119.700812)"><g><path d="M 0.359375 -9.4375 C 0.359375 -7.632812 -0.046875 -6.082031 -0.859375 -4.78125 C -1.679688 -3.476562 -2.804688 -2.476562 -4.234375 -1.78125 C -5.660156 -1.082031 -7.296875 -0.734375 -9.140625 -0.734375 C -10.972656 -0.734375 -12.597656 -1.082031 -14.015625 -1.78125 C -15.441406 -2.476562 -16.5625 -3.476562 -17.375 -4.78125 C -18.1875 -6.082031 -18.59375 -7.632812 -18.59375 -9.4375 C -18.59375 -11.238281 -18.1875 -12.789062 -17.375 -14.09375 C -16.5625 -15.394531 -15.441406 -16.398438 -14.015625 -17.109375 C -12.597656 -17.816406 -10.972656 -18.171875 -9.140625 -18.171875 C -7.296875 -18.171875 -5.660156 -17.816406 -4.234375 -17.109375 C -2.804688 -16.398438 -1.679688 -15.394531 -0.859375 -14.09375 C -0.046875 -12.789062 0.359375 -11.238281 0.359375 -9.4375 Z M -1.890625 -9.4375 C -1.890625 -10.71875 -2.203125 -11.804688 -2.828125 -12.703125 C -3.460938 -13.609375 -4.320312 -14.296875 -5.40625 -14.765625 C -6.5 -15.234375 -7.742188 -15.46875 -9.140625 -15.46875 C -10.535156 -15.46875 -11.773438 -15.234375 -12.859375 -14.765625 C -13.953125 -14.296875 -14.804688 -13.609375 -15.421875 -12.703125 C -16.046875 -11.804688 -16.359375 -10.71875 -16.359375 -9.4375 C -16.359375 -8.164062 -16.046875 -7.082031 -15.421875 -6.1875 C -14.804688 -5.289062 -13.953125 -4.609375 -12.859375 -4.140625 C -11.773438 -3.671875 -10.535156 -3.4375 -9.140625 -3.4375 C -7.742188 -3.4375 -6.5 -3.671875 -5.40625 -4.140625 C -4.320312 -4.609375 -3.460938 -5.289062 -2.828125 -6.1875 C -2.203125 -7.082031 -1.890625 -8.164062 -1.890625 -9.4375 Z M -1.890625 -9.4375 "/></g></g></g><g fill="#ffffff" fill-opacity="1"><g transform="translate(687.907903, 100.822841)"><g><path d="M 0.359375 -9.4375 C 0.359375 -7.632812 -0.046875 -6.082031 -0.859375 -4.78125 C -1.679688 -3.476562 -2.804688 -2.476562 -4.234375 -1.78125 C -5.660156 -1.082031 -7.296875 -0.734375 -9.140625 -0.734375 C -10.972656 -0.734375 -12.597656 -1.082031 -14.015625 -1.78125 C -15.441406 -2.476562 -16.5625 -3.476562 -17.375 -4.78125 C -18.1875 -6.082031 -18.59375 -7.632812 -18.59375 -9.4375 C -18.59375 -11.238281 -18.1875 -12.789062 -17.375 -14.09375 C -16.5625 -15.394531 -15.441406 -16.398438 -14.015625 -17.109375 C -12.597656 -17.816406 -10.972656 -18.171875 -9.140625 -18.171875 C -7.296875 -18.171875 -5.660156 -17.816406 -4.234375 -17.109375 C -2.804688 -16.398438 -1.679688 -15.394531 -0.859375 -14.09375 C -0.046875 -12.789062 0.359375 -11.238281 0.359375 -9.4375 Z M -1.890625 -9.4375 C -1.890625 -10.71875 -2.203125 -11.804688 -2.828125 -12.703125 C -3.460938 -13.609375 -4.320312 -14.296875 -5.40625 -14.765625 C -6.5 -15.234375 -7.742188 -15.46875 -9.140625 -15.46875 C -10.535156 -15.46875 -11.773438 -15.234375 -12.859375 -14.765625 C -13.953125 -14.296875 -14.804688 -13.609375 -15.421875 -12.703125 C -16.046875 -11.804688 -16.359375 -10.71875 -16.359375 -9.4375 C -16.359375 -8.164062 -16.046875 -7.082031 -15.421875 -6.1875 C -14.804688 -5.289062 -13.953125 -4.609375 -12.859375 -4.140625 C -11.773438 -3.671875 -10.535156 -3.4375 -9.140625 -3.4375 C -7.742188 -3.4375 -6.5 -3.671875 -5.40625 -4.140625 C -4.320312 -4.609375 -3.460938 -5.289062 -2.828125 -6.1875 C -2.203125 -7.082031 -1.890625 -8.164062 -1.890625 -9.4375 Z M -1.890625 -9.4375 "/></g></g></g><g fill="#ffffff" fill-opacity="1"><g transform="translate(687.907903, 81.94487)"><g><path d="M 0 -1.453125 L -18.25 -1.453125 L -18.25 -4.875 L -3.859375 -10.359375 L -3.859375 -10.40625 L -18.25 -15.890625 L -18.25 -19.3125 L 0 -19.3125 L 0 -16.734375 L -14.21875 -16.734375 L -14.21875 -16.6875 L 0 -11.40625 L 0 -9.359375 L -14.21875 -4.078125 L -14.21875 -4.03125 L 0 -4.03125 Z M 0 -1.453125 "/></g></g></g><g fill="#ffffff" fill-opacity="1"><g transform="translate(687.907903, 61.17911)"><g><path d="M 0.359375 -8.3125 C 0.359375 -6.851562 0.117188 -5.539062 -0.359375 -4.375 C -0.835938 -3.207031 -1.546875 -2.273438 -2.484375 -1.578125 C -3.429688 -0.878906 -4.582031 -0.515625 -5.9375 -0.484375 L -5.9375 -3.1875 C -4.582031 -3.238281 -3.566406 -3.738281 -2.890625 -4.6875 C -2.222656 -5.644531 -1.890625 -6.851562 -1.890625 -8.3125 C -1.890625 -9.625 -2.179688 -10.609375 -2.765625 -11.265625 C -3.359375 -11.929688 -4.050781 -12.265625 -4.84375 -12.265625 C -5.613281 -12.285156 -6.210938 -12.070312 -6.640625 -11.625 C -7.078125 -11.1875 -7.425781 -10.554688 -7.6875 -9.734375 C -7.957031 -8.921875 -8.210938 -7.945312 -8.453125 -6.8125 C -8.703125 -5.707031 -9.023438 -4.722656 -9.421875 -3.859375 C -9.828125 -3.003906 -10.363281 -2.328125 -11.03125 -1.828125 C -11.707031 -1.335938 -12.570312 -1.09375 -13.625 -1.09375 C -14.78125 -1.09375 -15.722656 -1.378906 -16.453125 -1.953125 C -17.191406 -2.523438 -17.734375 -3.296875 -18.078125 -4.265625 C -18.421875 -5.234375 -18.59375 -6.320312 -18.59375 -7.53125 C -18.59375 -8.832031 -18.375 -10 -17.9375 -11.03125 C -17.5 -12.0625 -16.863281 -12.882812 -16.03125 -13.5 C -15.207031 -14.125 -14.207031 -14.460938 -13.03125 -14.515625 L -13.03125 -11.8125 C -14.050781 -11.695312 -14.859375 -11.28125 -15.453125 -10.5625 C -16.054688 -9.84375 -16.359375 -8.832031 -16.359375 -7.53125 C -16.359375 -6.4375 -16.132812 -5.539062 -15.6875 -4.84375 C -15.25 -4.144531 -14.617188 -3.796875 -13.796875 -3.796875 C -13.117188 -3.796875 -12.59375 -3.972656 -12.21875 -4.328125 C -11.84375 -4.691406 -11.546875 -5.210938 -11.328125 -5.890625 C -11.109375 -6.578125 -10.890625 -7.394531 -10.671875 -8.34375 C -10.390625 -9.613281 -10.039062 -10.75 -9.625 -11.75 C -9.207031 -12.75 -8.640625 -13.535156 -7.921875 -14.109375 C -7.210938 -14.691406 -6.265625 -14.984375 -5.078125 -14.984375 C -4.035156 -14.984375 -3.101562 -14.722656 -2.28125 -14.203125 C -1.457031 -13.679688 -0.8125 -12.921875 -0.34375 -11.921875 C 0.125 -10.929688 0.359375 -9.726562 0.359375 -8.3125 Z M 0.359375 -8.3125 "/></g></g></g><g fill="#ffffff" fill-opacity="1"><g transform="translate(723.140502, 383.430767)"><g><path d="M 0 -4.5625 L -13.390625 -4.5625 C -12.960938 -4.28125 -12.648438 -3.921875 -12.453125 -3.484375 C -12.265625 -3.046875 -12.140625 -2.585938 -12.078125 -2.109375 C -12.023438 -1.640625 -12 -1.191406 -12 -0.765625 L -13.875 -0.765625 C -13.875 -2.242188 -14.226562 -3.3125 -14.9375 -3.96875 C -15.644531 -4.625 -16.539062 -4.953125 -17.625 -4.953125 L -17.625 -7.140625 L 0 -7.140625 Z M 0 -4.5625 "/></g></g></g><g fill="#ffffff" fill-opacity="1"><g transform="translate(723.140502, 374.399957)"><g><path d="M 0 -0.6875 C -1.601562 -0.6875 -2.929688 -1.078125 -3.984375 -1.859375 C -5.035156 -2.640625 -5.925781 -3.601562 -6.65625 -4.75 C -7.375 -5.78125 -8.019531 -6.734375 -8.59375 -7.609375 C -9.175781 -8.492188 -9.785156 -9.203125 -10.421875 -9.734375 C -11.054688 -10.265625 -11.8125 -10.53125 -12.6875 -10.53125 C -13.582031 -10.53125 -14.335938 -10.25 -14.953125 -9.6875 C -15.566406 -9.132812 -15.875 -8.347656 -15.875 -7.328125 C -15.875 -6.171875 -15.5 -5.238281 -14.75 -4.53125 C -14 -3.820312 -12.988281 -3.46875 -11.71875 -3.46875 L -11.71875 -1.015625 C -12.882812 -1.015625 -13.941406 -1.25 -14.890625 -1.71875 C -15.847656 -2.1875 -16.601562 -2.890625 -17.15625 -3.828125 C -17.707031 -4.773438 -17.984375 -5.957031 -17.984375 -7.375 C -17.984375 -8.507812 -17.773438 -9.503906 -17.359375 -10.359375 C -16.941406 -11.222656 -16.347656 -11.894531 -15.578125 -12.375 C -14.816406 -12.863281 -13.898438 -13.109375 -12.828125 -13.109375 C -11.910156 -13.109375 -11.113281 -12.925781 -10.4375 -12.5625 C -9.757812 -12.195312 -9.15625 -11.71875 -8.625 -11.125 C -8.09375 -10.53125 -7.597656 -9.882812 -7.140625 -9.1875 C -6.679688 -8.488281 -6.210938 -7.800781 -5.734375 -7.125 C -5.265625 -6.457031 -4.742188 -5.859375 -4.171875 -5.328125 C -3.597656 -4.804688 -2.929688 -4.414062 -2.171875 -4.15625 L -2.125 -4.15625 L -2.125 -13.109375 L 0 -13.109375 Z M 0 -0.6875 "/></g></g></g><g fill="#ffffff" fill-opacity="1"><g transform="translate(723.140502, 360.496587)"><g><path d="M 0.359375 -7.421875 C 0.359375 -5.234375 -0.195312 -3.523438 -1.3125 -2.296875 C -2.425781 -1.066406 -3.976562 -0.453125 -5.96875 -0.453125 L -5.96875 -2.90625 C -4.695312 -2.90625 -3.675781 -3.269531 -2.90625 -4 C -2.144531 -4.738281 -1.765625 -5.828125 -1.765625 -7.265625 C -1.765625 -8.492188 -2.046875 -9.4375 -2.609375 -10.09375 C -3.179688 -10.75 -3.960938 -11.078125 -4.953125 -11.078125 C -5.703125 -11.078125 -6.316406 -10.894531 -6.796875 -10.53125 C -7.285156 -10.175781 -7.644531 -9.710938 -7.875 -9.140625 C -8.101562 -8.578125 -8.21875 -7.953125 -8.21875 -7.265625 L -8.21875 -5.875 L -10.046875 -5.875 L -10.046875 -7.171875 C -10.046875 -8.171875 -10.300781 -8.972656 -10.8125 -9.578125 C -11.320312 -10.179688 -12.03125 -10.484375 -12.9375 -10.484375 C -13.789062 -10.484375 -14.492188 -10.207031 -15.046875 -9.65625 C -15.597656 -9.101562 -15.875 -8.289062 -15.875 -7.21875 C -15.875 -5.945312 -15.546875 -5 -14.890625 -4.375 C -14.234375 -3.75 -13.410156 -3.4375 -12.421875 -3.4375 L -12.421875 -1 C -13.484375 -1 -14.429688 -1.242188 -15.265625 -1.734375 C -16.109375 -2.222656 -16.769531 -2.941406 -17.25 -3.890625 C -17.738281 -4.847656 -17.984375 -6.019531 -17.984375 -7.40625 C -17.984375 -8.382812 -17.800781 -9.300781 -17.4375 -10.15625 C -17.070312 -11.019531 -16.539062 -11.71875 -15.84375 -12.25 C -15.144531 -12.789062 -14.296875 -13.0625 -13.296875 -13.0625 C -12.253906 -13.0625 -11.414062 -12.804688 -10.78125 -12.296875 C -10.15625 -11.785156 -9.65625 -11.140625 -9.28125 -10.359375 L -9.234375 -10.359375 C -8.890625 -11.484375 -8.335938 -12.3125 -7.578125 -12.84375 C -6.828125 -13.382812 -5.910156 -13.65625 -4.828125 -13.65625 C -3.710938 -13.65625 -2.769531 -13.390625 -2 -12.859375 C -1.226562 -12.328125 -0.640625 -11.59375 -0.234375 -10.65625 C 0.160156 -9.726562 0.359375 -8.648438 0.359375 -7.421875 Z M 0.359375 -7.421875 "/></g></g></g><g fill="#ffffff" fill-opacity="1"><g transform="translate(723.140502, 346.15954)"><g/></g></g><g fill="#ffffff" fill-opacity="1"><g transform="translate(723.140502, 341.057389)"><g><path d="M 0 -0.109375 L -18.25 -6.890625 L -18.25 -9.671875 L 0 -16.484375 L 0 -13.78125 L -5 -12 L -5 -4.59375 L 0 -2.8125 Z M -7.125 -5.234375 L -7.125 -11.359375 L -15.671875 -8.3125 L -15.671875 -8.265625 Z M -7.125 -5.234375 "/></g></g></g><g fill="#ffffff" fill-opacity="1"><g transform="translate(723.140502, 324.44988)"><g><path d="M 0 -1.453125 L -18.25 -1.453125 L -18.25 -4.265625 L -4.28125 -13.265625 L -4.28125 -13.3125 L -18.25 -13.3125 L -18.25 -16.03125 L 0 -16.03125 L 0 -13.21875 L -13.953125 -4.203125 L -13.953125 -4.15625 L 0 -4.15625 Z M 0 -1.453125 "/></g></g></g><g fill="#ffffff" fill-opacity="1"><g transform="translate(723.140502, 306.975005)"><g><path d="M 0 -6.53125 L -7.125 -6.53125 L -18.25 -0.125 L -18.25 -3.015625 L -9.5625 -7.859375 L -9.5625 -7.90625 L -18.25 -12.8125 L -18.25 -15.6875 L -7.125 -9.234375 L 0 -9.234375 Z M 0 -6.53125 "/></g></g></g><g fill="#ffffff" fill-opacity="1"><g transform="translate(723.140502, 290.775563)"><g><path d="M 0 -4.921875 L -18.25 -0.171875 L -18.25 -2.890625 L -3.59375 -6.296875 L -3.59375 -6.359375 L -18.25 -10.203125 L -18.25 -12.890625 L -3.59375 -16.734375 L -3.59375 -16.765625 L -18.25 -20.1875 L -18.25 -22.90625 L 0 -18.171875 L 0 -15.390625 L -14.15625 -11.5625 L -14.15625 -11.5 L 0 -7.6875 Z M 0 -4.921875 "/></g></g></g><g fill="#ffffff" fill-opacity="1"><g transform="translate(723.140502, 267.713833)"><g><path d="M 0 -1.453125 L -18.25 -1.453125 L -18.25 -4.15625 L -10.59375 -4.15625 L -10.59375 -13.109375 L -18.25 -13.109375 L -18.25 -15.8125 L 0 -15.8125 L 0 -13.109375 L -8.34375 -13.109375 L -8.34375 -4.15625 L 0 -4.15625 Z M 0 -1.453125 "/></g></g></g><g fill="#ffffff" fill-opacity="1"><g transform="translate(723.140502, 250.443044)"><g><path d="M 0 -1.453125 L -18.25 -1.453125 L -18.25 -14.359375 L -16.03125 -14.359375 L -16.03125 -4.15625 L -10.671875 -4.15625 L -10.671875 -13.296875 L -8.421875 -13.296875 L -8.421875 -4.15625 L -2.25 -4.15625 L -2.25 -14.5625 L 0 -14.5625 Z M 0 -1.453125 "/></g></g></g><g fill="#ffffff" fill-opacity="1"><g transform="translate(723.140502, 235.009027)"><g><path d="M 0 -1.453125 L -18.25 -1.453125 L -18.25 -9.34375 C -18.25 -11.175781 -17.8125 -12.628906 -16.9375 -13.703125 C -16.070312 -14.785156 -14.769531 -15.328125 -13.03125 -15.328125 C -11.78125 -15.328125 -10.757812 -14.976562 -9.96875 -14.28125 C -9.1875 -13.59375 -8.679688 -12.648438 -8.453125 -11.453125 L -8.390625 -11.453125 C -8.285156 -12.222656 -8.019531 -12.835938 -7.59375 -13.296875 C -7.175781 -13.753906 -6.664062 -14.101562 -6.0625 -14.34375 C -5.457031 -14.59375 -4.828125 -14.769531 -4.171875 -14.875 C -3.515625 -14.976562 -2.890625 -15.054688 -2.296875 -15.109375 C -1.710938 -15.160156 -1.226562 -15.21875 -0.84375 -15.28125 C -0.46875 -15.351562 -0.253906 -15.472656 -0.203125 -15.640625 L 0 -15.640625 L 0 -12.8125 C -0.132812 -12.65625 -0.394531 -12.550781 -0.78125 -12.5 C -1.175781 -12.445312 -1.644531 -12.40625 -2.1875 -12.375 C -2.738281 -12.34375 -3.300781 -12.28125 -3.875 -12.1875 C -4.457031 -12.09375 -5 -11.925781 -5.5 -11.6875 C -6 -11.445312 -6.40625 -11.101562 -6.71875 -10.65625 C -7.039062 -10.207031 -7.203125 -9.597656 -7.203125 -8.828125 L -7.203125 -4.15625 L 0 -4.15625 Z M -9.4375 -4.15625 L -9.4375 -8.65625 C -9.4375 -9.863281 -9.707031 -10.828125 -10.25 -11.546875 C -10.800781 -12.265625 -11.628906 -12.625 -12.734375 -12.625 C -13.890625 -12.625 -14.726562 -12.285156 -15.25 -11.609375 C -15.769531 -10.941406 -16.03125 -9.957031 -16.03125 -8.65625 L -16.03125 -4.15625 Z M -9.4375 -4.15625 "/></g></g></g><g fill="#ffffff" fill-opacity="1"><g transform="translate(723.140502, 218.733165)"><g><path d="M 0 -1.453125 L -18.25 -1.453125 L -18.25 -14.359375 L -16.03125 -14.359375 L -16.03125 -4.15625 L -10.671875 -4.15625 L -10.671875 -13.296875 L -8.421875 -13.296875 L -8.421875 -4.15625 L -2.25 -4.15625 L -2.25 -14.5625 L 0 -14.5625 Z M 0 -1.453125 "/></g></g></g><g fill="#ffffff" fill-opacity="1"><g transform="translate(723.140502, 203.299149)"><g/></g></g><g fill="#ffffff" fill-opacity="1"><g transform="translate(723.140502, 198.196997)"><g><path d="M 0.359375 -8.3125 C 0.359375 -6.851562 0.117188 -5.539062 -0.359375 -4.375 C -0.835938 -3.207031 -1.546875 -2.273438 -2.484375 -1.578125 C -3.429688 -0.878906 -4.582031 -0.515625 -5.9375 -0.484375 L -5.9375 -3.1875 C -4.582031 -3.238281 -3.566406 -3.738281 -2.890625 -4.6875 C -2.222656 -5.644531 -1.890625 -6.851562 -1.890625 -8.3125 C -1.890625 -9.625 -2.179688 -10.609375 -2.765625 -11.265625 C -3.359375 -11.929688 -4.050781 -12.265625 -4.84375 -12.265625 C -5.613281 -12.285156 -6.210938 -12.070312 -6.640625 -11.625 C -7.078125 -11.1875 -7.425781 -10.554688 -7.6875 -9.734375 C -7.957031 -8.921875 -8.210938 -7.945312 -8.453125 -6.8125 C -8.703125 -5.707031 -9.023438 -4.722656 -9.421875 -3.859375 C -9.828125 -3.003906 -10.363281 -2.328125 -11.03125 -1.828125 C -11.707031 -1.335938 -12.570312 -1.09375 -13.625 -1.09375 C -14.78125 -1.09375 -15.722656 -1.378906 -16.453125 -1.953125 C -17.191406 -2.523438 -17.734375 -3.296875 -18.078125 -4.265625 C -18.421875 -5.234375 -18.59375 -6.320312 -18.59375 -7.53125 C -18.59375 -8.832031 -18.375 -10 -17.9375 -11.03125 C -17.5 -12.0625 -16.863281 -12.882812 -16.03125 -13.5 C -15.207031 -14.125 -14.207031 -14.460938 -13.03125 -14.515625 L -13.03125 -11.8125 C -14.050781 -11.695312 -14.859375 -11.28125 -15.453125 -10.5625 C -16.054688 -9.84375 -16.359375 -8.832031 -16.359375 -7.53125 C -16.359375 -6.4375 -16.132812 -5.539062 -15.6875 -4.84375 C -15.25 -4.144531 -14.617188 -3.796875 -13.796875 -3.796875 C -13.117188 -3.796875 -12.59375 -3.972656 -12.21875 -4.328125 C -11.84375 -4.691406 -11.546875 -5.210938 -11.328125 -5.890625 C -11.109375 -6.578125 -10.890625 -7.394531 -10.671875 -8.34375 C -10.390625 -9.613281 -10.039062 -10.75 -9.625 -11.75 C -9.207031 -12.75 -8.640625 -13.535156 -7.921875 -14.109375 C -7.210938 -14.691406 -6.265625 -14.984375 -5.078125 -14.984375 C -4.035156 -14.984375 -3.101562 -14.722656 -2.28125 -14.203125 C -1.457031 -13.679688 -0.8125 -12.921875 -0.34375 -11.921875 C 0.125 -10.929688 0.359375 -9.726562 0.359375 -8.3125 Z M 0.359375 -8.3125 "/></g></g></g><g fill="#ffffff" fill-opacity="1"><g transform="translate(723.140502, 183.324437)"><g><path d="M 0 -6.375 L -16.03125 -6.375 L -16.03125 -0.484375 L -18.25 -0.484375 L -18.25 -14.984375 L -16.03125 -14.984375 L -16.03125 -9.078125 L 0 -9.078125 Z M 0 -6.375 "/></g></g></g><g fill="#ffffff" fill-opacity="1"><g transform="translate(723.140502, 169.982844)"><g><path d="M 0.171875 -2.421875 C 0.171875 -2.035156 0.0390625 -1.695312 -0.21875 -1.40625 C -0.476562 -1.113281 -0.835938 -0.96875 -1.296875 -0.96875 C -1.753906 -0.96875 -2.113281 -1.113281 -2.375 -1.40625 C -2.644531 -1.695312 -2.78125 -2.035156 -2.78125 -2.421875 C -2.78125 -2.816406 -2.644531 -3.160156 -2.375 -3.453125 C -2.113281 -3.753906 -1.753906 -3.90625 -1.296875 -3.90625 C -0.835938 -3.90625 -0.476562 -3.753906 -0.21875 -3.453125 C 0.0390625 -3.160156 0.171875 -2.816406 0.171875 -2.421875 Z M 0.171875 -2.421875 "/></g></g></g><g fill="#ffffff" fill-opacity="1"><g transform="translate(723.140502, 165.135827)"><g><path d="M 3.421875 -0.921875 L 2.171875 -0.921875 C 2.035156 -1.410156 1.753906 -1.769531 1.328125 -2 C 0.898438 -2.226562 0.515625 -2.34375 0.171875 -2.34375 C 0.210938 -1.882812 0.109375 -1.5 -0.140625 -1.1875 C -0.398438 -0.875 -0.785156 -0.71875 -1.296875 -0.71875 C -1.773438 -0.71875 -2.140625 -0.859375 -2.390625 -1.140625 C -2.648438 -1.429688 -2.78125 -1.789062 -2.78125 -2.21875 C -2.78125 -3.257812 -2.039062 -3.78125 -0.5625 -3.78125 C 0.0195312 -3.78125 0.585938 -3.679688 1.140625 -3.484375 C 1.703125 -3.285156 2.1875 -2.976562 2.59375 -2.5625 C 3.007812 -2.144531 3.285156 -1.597656 3.421875 -0.921875 Z M 3.421875 -0.921875 "/></g></g></g><g fill="#ffffff" fill-opacity="1"><g transform="translate(723.140502, 160.390818)"><g/></g></g><g fill="#ffffff" fill-opacity="1"><g transform="translate(723.140502, 155.288655)"><g><path d="M 0 -0.109375 L -18.25 -6.890625 L -18.25 -9.671875 L 0 -16.484375 L 0 -13.78125 L -5 -12 L -5 -4.59375 L 0 -2.8125 Z M -7.125 -5.234375 L -7.125 -11.359375 L -15.671875 -8.3125 L -15.671875 -8.265625 Z M -7.125 -5.234375 "/></g></g></g><g fill="#ffffff" fill-opacity="1"><g transform="translate(723.140502, 138.681158)"><g><path d="M 0 -1.453125 L -18.25 -1.453125 L -18.25 -4.265625 L -4.28125 -13.265625 L -4.28125 -13.3125 L -18.25 -13.3125 L -18.25 -16.03125 L 0 -16.03125 L 0 -13.21875 L -13.953125 -4.203125 L -13.953125 -4.15625 L 0 -4.15625 Z M 0 -1.453125 "/></g></g></g><g fill="#ffffff" fill-opacity="1"><g transform="translate(723.140502, 121.206284)"><g><path d="M 0 -6.53125 L -7.125 -6.53125 L -18.25 -0.125 L -18.25 -3.015625 L -9.5625 -7.859375 L -9.5625 -7.90625 L -18.25 -12.8125 L -18.25 -15.6875 L -7.125 -9.234375 L 0 -9.234375 Z M 0 -6.53125 "/></g></g></g><g fill="#ffffff" fill-opacity="1"><g transform="translate(723.140502, 105.389594)"><g/></g></g><g fill="#ffffff" fill-opacity="1"><g transform="translate(723.140502, 100.287454)"><g><path d="M 0.359375 -9.28125 C 0.359375 -7.5 -0.0390625 -5.96875 -0.84375 -4.6875 C -1.65625 -3.414062 -2.773438 -2.4375 -4.203125 -1.75 C -5.640625 -1.070312 -7.285156 -0.734375 -9.140625 -0.734375 C -10.972656 -0.734375 -12.597656 -1.070312 -14.015625 -1.75 C -15.441406 -2.4375 -16.5625 -3.421875 -17.375 -4.703125 C -18.1875 -5.992188 -18.59375 -7.539062 -18.59375 -9.34375 C -18.59375 -10.78125 -18.320312 -12.023438 -17.78125 -13.078125 C -17.238281 -14.140625 -16.484375 -14.984375 -15.515625 -15.609375 C -14.546875 -16.242188 -13.429688 -16.640625 -12.171875 -16.796875 L -12.171875 -14.078125 C -13.359375 -13.890625 -14.351562 -13.390625 -15.15625 -12.578125 C -15.957031 -11.773438 -16.359375 -10.660156 -16.359375 -9.234375 C -16.359375 -7.921875 -16.046875 -6.832031 -15.421875 -5.96875 C -14.804688 -5.113281 -13.953125 -4.476562 -12.859375 -4.0625 C -11.773438 -3.644531 -10.535156 -3.4375 -9.140625 -3.4375 C -7.722656 -3.4375 -6.460938 -3.648438 -5.359375 -4.078125 C -4.265625 -4.503906 -3.410156 -5.140625 -2.796875 -5.984375 C -2.191406 -6.835938 -1.890625 -7.90625 -1.890625 -9.1875 C -1.890625 -10.207031 -2.097656 -11.066406 -2.515625 -11.765625 C -2.941406 -12.472656 -3.507812 -13.03125 -4.21875 -13.4375 C -4.925781 -13.851562 -5.707031 -14.117188 -6.5625 -14.234375 L -6.5625 -16.9375 C -5.21875 -16.789062 -4.019531 -16.394531 -2.96875 -15.75 C -1.925781 -15.101562 -1.109375 -14.234375 -0.515625 -13.140625 C 0.0664062 -12.046875 0.359375 -10.757812 0.359375 -9.28125 Z M 0.359375 -9.28125 "/></g></g></g><g fill="#ffffff" fill-opacity="1"><g transform="translate(723.140502, 82.787072)"><g><path d="M 0 -1.5 L -18.25 -1.5 L -18.25 -4.203125 L 0 -4.203125 Z M 0 -1.5 "/></g></g></g><g fill="#ffffff" fill-opacity="1"><g transform="translate(723.140502, 77.072655)"><g><path d="M 0 -6.375 L -16.03125 -6.375 L -16.03125 -0.484375 L -18.25 -0.484375 L -18.25 -14.984375 L -16.03125 -14.984375 L -16.03125 -9.078125 L 0 -9.078125 Z M 0 -6.375 "/></g></g></g><g fill="#ffffff" fill-opacity="1"><g transform="translate(723.140502, 61.281405)"><g><path d="M 0 -6.53125 L -7.125 -6.53125 L -18.25 -0.125 L -18.25 -3.015625 L -9.5625 -7.859375 L -9.5625 -7.90625 L -18.25 -12.8125 L -18.25 -15.6875 L -7.125 -9.234375 L 0 -9.234375 Z M 0 -6.53125 "/></g></g></g></svg>