<svg xmlns="http://www.w3.org/2000/svg" xmlns:xlink="http://www.w3.org/1999/xlink" width="1080" height="1350" viewBox="0 0 1080 1350">
  <!-- Template 49 "Claridad" - CC-authored 3-photo (2026-07-15). The light professional: a photo
       sandwich - two portraits on top, an ivory editorial band in the middle, a full-width landscape
       closing the page. Zero dead zones. All art colours are live @@COLOUR@@ tokens. -->

  <image x="0" y="0" width="536" height="500" xlink:href="@@PHOTO1@@" preserveAspectRatio="xMidYMid slice"/>
  <image x="544" y="0" width="536" height="500" xlink:href="@@PHOTO2@@" preserveAspectRatio="xMidYMid slice"/>
  <rect x="16" y="16" width="504" height="468" fill="none" stroke="@@COLOUR:accent@@" stroke-width="1.5"/>
  <rect x="560" y="16" width="504" height="468" fill="none" stroke="@@COLOUR:accent@@" stroke-width="1.5"/>

  <image x="0" y="850" width="1080" height="500" xlink:href="@@PHOTO0@@" preserveAspectRatio="xMidYMid slice"/>
  <rect x="16" y="866" width="1048" height="468" fill="none" stroke="@@COLOUR:accent@@" stroke-width="1.5"/>

  <!-- band rules -->
  <rect x="64" y="716" width="952" height="2" fill="@@COLOUR:accent@@"/>

  <!-- per-fact line icons on the band -->
  <g stroke="@@COLOUR:icon@@" stroke-width="2.5" fill="none">
    <path d="M70 776 L70 752 L114 752"/>
    <path d="M64 780 L120 780 L120 768 A8 8 0 0 0 112 760 L82 760"/>
    <path d="M66 780 L66 788 M118 780 L118 788"/>
    <circle cx="75" cy="757" r="4"/>
  </g>
  <g stroke="@@COLOUR:icon@@" stroke-width="2.5" fill="none">
    <path d="M240 766 L284 766 A4 4 0 0 1 288 770 A16 16 0 0 1 272 784 L252 784 A16 16 0 0 1 236 770 A4 4 0 0 1 240 766 Z"/>
    <path d="M244 766 L244 752 A7 7 0 0 1 258 752"/>
    <path d="M248 784 L246 790 M276 784 L278 790"/>
  </g>
  <g stroke="@@COLOUR:icon@@" stroke-width="2.5" fill="none">
    <rect x="404" y="752" width="40" height="36" stroke-dasharray="6 4"/>
    <path d="M412 780 L436 760 M412 768 L412 780 L424 780 M436 772 L436 760 L424 760"/>
  </g>
</svg>