<svg xmlns="http://www.w3.org/2000/svg" xmlns:xlink="http://www.w3.org/1999/xlink" width="1080" height="1350" viewBox="0 0 1080 1350">
  <!-- Template 51 "Faro" - CC-authored 3-photo (2026-07-15). The coastal professional for three photos:
       an L-grid (hero + two stacked squares) over a marine editorial band. Zero dead zones. All art
       colours are live @@COLOUR@@ tokens. -->

  <image x="0" y="64" width="712" height="836" xlink:href="@@PHOTO0@@" preserveAspectRatio="xMidYMid slice"/>
  <image x="720" y="64" width="360" height="414" xlink:href="@@PHOTO1@@" preserveAspectRatio="xMidYMid slice"/>
  <image x="720" y="486" width="360" height="414" xlink:href="@@PHOTO2@@" preserveAspectRatio="xMidYMid slice"/>
  <rect x="16" y="80" width="680" height="804" fill="none" stroke="@@COLOUR:accent@@" stroke-width="1.5"/>
  <rect x="732" y="76" width="336" height="390" fill="none" stroke="@@COLOUR:accent@@" stroke-width="1.5"/>
  <rect x="732" y="498" width="336" height="390" fill="none" stroke="@@COLOUR:accent@@" stroke-width="1.5"/>

  <rect x="0" y="62" width="1080" height="2" fill="@@COLOUR:accent@@"/>

  <rect x="64" y="1130" width="952" height="2" fill="@@COLOUR:accent@@"/>
  <rect x="64" y="1306" width="952" height="1" fill="@@COLOUR:accent@@" fill-opacity="0.5"/>
  <path d="M 540 1326 l 7 7 l -7 7 l -7 -7 Z" fill="@@COLOUR:accent@@"/>

  <g stroke="@@COLOUR:icon@@" stroke-width="2.5" fill="none">
    <path d="M70 1188 L70 1164 L114 1164"/>
    <path d="M64 1192 L120 1192 L120 1180 A8 8 0 0 0 112 1172 L82 1172"/>
    <path d="M66 1192 L66 1200 M118 1192 L118 1200"/>
    <circle cx="75" cy="1169" r="4"/>
  </g>
  <g stroke="@@COLOUR:icon@@" stroke-width="2.5" fill="none">
    <path d="M240 1178 L284 1178 A4 4 0 0 1 288 1182 A16 16 0 0 1 272 1196 L252 1196 A16 16 0 0 1 236 1182 A4 4 0 0 1 240 1178 Z"/>
    <path d="M244 1178 L244 1164 A7 7 0 0 1 258 1164"/>
    <path d="M248 1196 L246 1202 M276 1196 L278 1202"/>
  </g>
  <g stroke="@@COLOUR:icon@@" stroke-width="2.5" fill="none">
    <rect x="404" y="1164" width="40" height="36" stroke-dasharray="6 4"/>
    <path d="M412 1192 L436 1172 M412 1180 L412 1192 L424 1192 M436 1184 L436 1172 L424 1172"/>
  </g>
</svg>