<svg xmlns="http://www.w3.org/2000/svg" xmlns:xlink="http://www.w3.org/1999/xlink" width="1080" zoomAndPan="magnify" viewBox="0 0 810 1012.49997" height="1350" preserveAspectRatio="xMidYMid meet" version="1.0"><defs><g/><clipPath id="041fd141b8"><path d="M 0.199219 0 L 809.800781 0 L 809.800781 1012 L 0.199219 1012 Z M 0.199219 0 " clip-rule="nonzero"/></clipPath><clipPath id="bb38789988"><path d="M 0.199219 415.0625 L 809.800781 415.0625 L 809.800781 942.875 L 0.199219 942.875 Z M 0.199219 415.0625 " clip-rule="nonzero"/></clipPath><clipPath id="c01ce985db"><path d="M 0.199219 0.0625 L 809.800781 0.0625 L 809.800781 527.875 L 0.199219 527.875 Z M 0.199219 0.0625 " clip-rule="nonzero"/></clipPath><clipPath id="79495eee59"><rect x="0" width="810" y="0" height="528"/></clipPath><clipPath id="1968391f86"><path d="M 0.199219 0 L 809.800781 0 L 809.800781 469.171875 L 0.199219 469.171875 Z M 0.199219 0 " clip-rule="nonzero"/></clipPath><clipPath id="a8e454fa46"><path d="M 549.269531 737.550781 L 808.902344 737.550781 L 808.902344 923.390625 L 549.269531 923.390625 Z M 549.269531 737.550781 " clip-rule="nonzero"/></clipPath><clipPath id="8cd2c8d42a"><path d="M 0.269531 0.550781 L 259.902344 0.550781 L 259.902344 186.390625 L 0.269531 186.390625 Z M 0.269531 0.550781 " clip-rule="nonzero"/></clipPath><clipPath id="9af657429e"><rect x="0" width="260" y="0" height="187"/></clipPath><clipPath id="7f3d1d52eb"><path d="M 548.367188 736.652344 L 809.789062 736.652344 L 809.789062 924.058594 L 548.367188 924.058594 Z M 548.367188 736.652344 " clip-rule="nonzero"/></clipPath><clipPath id="80510bfe32"><path d="M 549.621094 535.511719 L 809.253906 535.511719 L 809.253906 720.730469 L 549.621094 720.730469 Z M 549.621094 535.511719 " clip-rule="nonzero"/></clipPath><clipPath id="87de52f73b"><path d="M 548.722656 534.613281 L 809.800781 534.613281 L 809.800781 721.273438 L 548.722656 721.273438 Z M 548.722656 534.613281 " clip-rule="nonzero"/></clipPath><clipPath id="c5d0cfe5ed"><path d="M 549.269531 333.015625 L 808.902344 333.015625 L 808.902344 518.230469 L 549.269531 518.230469 Z M 549.269531 333.015625 " clip-rule="nonzero"/></clipPath><clipPath id="ae41582968"><path d="M 548.367188 332.113281 L 809.789062 332.113281 L 809.789062 518.773438 L 548.367188 518.773438 Z M 548.367188 332.113281 " clip-rule="nonzero"/></clipPath><clipPath id="479f5021b1"><path d="M 133.605469 842.613281 L 160.59375 842.613281 L 160.59375 868.097656 L 133.605469 868.097656 Z M 133.605469 842.613281 " clip-rule="nonzero"/></clipPath><clipPath id="d95a61e7f6"><path d="M 183.800781 842.636719 L 210.785156 842.636719 L 210.785156 868.125 L 183.800781 868.125 Z M 183.800781 842.636719 " clip-rule="nonzero"/></clipPath><clipPath id="b436547903"><path d="M 83.414062 846.199219 L 110.402344 846.199219 L 110.402344 864.9375 L 83.414062 864.9375 Z M 83.414062 846.199219 " clip-rule="nonzero"/></clipPath><clipPath id="cabfc7ddee"><path d="M 33.222656 859 L 60 859 L 60 865 L 33.222656 865 Z M 33.222656 859 " clip-rule="nonzero"/></clipPath><clipPath id="f2efb5bc16"><path d="M 33.222656 864 L 60 864 L 60 869.253906 L 33.222656 869.253906 Z M 33.222656 864 " clip-rule="nonzero"/></clipPath><clipPath id="8ef9699762"><path d="M 35 841.515625 L 44 841.515625 L 44 862 L 35 862 Z M 35 841.515625 " clip-rule="nonzero"/></clipPath><clipPath id="78c7f196fd"><path d="M 46 841.515625 L 56 841.515625 L 56 862 L 46 862 Z M 46 841.515625 " clip-rule="nonzero"/></clipPath><clipPath id="c76877cff3"><path d="M 234 842.1875 L 261.726562 842.1875 L 261.726562 868.421875 L 234 868.421875 Z M 234 842.1875 " clip-rule="nonzero"/></clipPath><clipPath id="349cd70416"><rect x="0" width="69" y="0" height="21"/></clipPath><clipPath id="001b1bebb4"><path d="M 565.667969 954.800781 L 792.5 954.800781 L 792.5 988.277344 L 565.667969 988.277344 Z M 565.667969 954.800781 " clip-rule="nonzero"/></clipPath><clipPath id="148a14e018"><path d="M 0.667969 0.800781 L 227.5 0.800781 L 227.5 34.277344 L 0.667969 34.277344 Z M 0.667969 0.800781 " clip-rule="nonzero"/></clipPath><clipPath id="1e55e8b015"><rect x="0" width="228" y="0" height="35"/></clipPath><clipPath id="51d884f155"><path d="M 604.1875 65.230469 L 754.691406 65.230469 L 754.691406 98.707031 L 604.1875 98.707031 Z M 604.1875 65.230469 " clip-rule="nonzero"/></clipPath><clipPath id="7cef747d2b"><path d="M 0.1875 0.230469 L 150.691406 0.230469 L 150.691406 33.707031 L 0.1875 33.707031 Z M 0.1875 0.230469 " clip-rule="nonzero"/></clipPath><clipPath id="48ff014542"><rect x="0" width="151" y="0" height="34"/></clipPath><clipPath id="8ca7fb7784"><rect x="0" width="84" y="0" height="16"/></clipPath><clipPath id="6b4d4aab99"><path d="M 56 6 L 64 6 L 64 15.957031 L 56 15.957031 Z M 56 6 " clip-rule="nonzero"/></clipPath><clipPath id="154ff1f558"><path d="M 63 6 L 70 6 L 70 15.957031 L 63 15.957031 Z M 63 6 " clip-rule="nonzero"/></clipPath><clipPath id="83f59c507d"><rect x="0" width="138" y="0" height="16"/></clipPath></defs><g clip-path="url(#041fd141b8)"><path fill="#ffffff" d="M 0.199219 0 L 809.800781 0 L 809.800781 1012 L 0.199219 1012 Z M 0.199219 0 " fill-opacity="1" fill-rule="nonzero"/><path fill="#ffffff" d="M 0.199219 0 L 809.800781 0 L 809.800781 1012 L 0.199219 1012 Z M 0.199219 0 " fill-opacity="1" fill-rule="nonzero"/></g><g clip-path="url(#bb38789988)"><g transform="matrix(1, 0, 0, 1, 0.000000000000000028, 415)"><g clip-path="url(#79495eee59)"><g clip-path="url(#c01ce985db)"><path fill="#493532" d="M -67.421875 0.0625 L 895.425781 0.0625 L 895.425781 527.875 L -67.421875 527.875 Z M -67.421875 0.0625 " fill-opacity="1" fill-rule="nonzero"/></g></g></g></g><g clip-path="url(#1968391f86)"><g transform="matrix(0.195472, 0, 0, 0.195527, -54.057056, -57.069781)"><image x="0" y="0" width="5089" xlink:href="@@PHOTO0@@" height="3393" preserveAspectRatio="xMidYMid meet"/></g></g><g clip-path="url(#a8e454fa46)"><g transform="matrix(1, 0, 0, 1, 549, 737)"><g clip-path="url(#9af657429e)"><g clip-path="url(#8cd2c8d42a)"><g transform="matrix(-0.140556, 0, 0, 0.140485, 270.675488, -0.348558)"><image x="0" y="0" width="2000" xlink:href="@@PHOTO1@@" height="1334" preserveAspectRatio="xMidYMid meet"/></g></g></g></g></g><g clip-path="url(#7f3d1d52eb)"><path stroke-linecap="butt" transform="matrix(0.74963, 0, 0, 0.74963, 548.36803, 736.651449)" fill="none" stroke-linejoin="miter" d="M -0.00112372 0.00119364 L -0.00112372 250.296628 L 348.733553 250.296628 L 348.733553 0.00119364 L -0.00112372 0.00119364 " stroke="#ffffff" stroke-width="18" stroke-opacity="1" stroke-miterlimit="4"/></g><g clip-path="url(#80510bfe32)"><g transform="matrix(0.128891, 0, 0, 0.128978, 538.836122, 509.959126)"><image x="0" y="0" width="2181" xlink:href="@@PHOTO2@@" height="1639" preserveAspectRatio="xMidYMid meet"/></g></g><g clip-path="url(#87de52f73b)"><path stroke-linecap="butt" transform="matrix(0.74963, 0, 0, 0.74963, 548.721999, 534.613923)" fill="none" stroke-linejoin="miter" d="M 0.000876704 -0.000856075 L 0.000876704 249.471239 L 348.735554 249.471239 L 348.735554 -0.000856075 L 0.000876704 -0.000856075 " stroke="#ffffff" stroke-width="18" stroke-opacity="1" stroke-miterlimit="4"/></g><g clip-path="url(#c5d0cfe5ed)"><g transform="matrix(0.175694, 0, 0, 0.175766, 538.482152, 332.114673)"><image x="0" y="0" width="1600" xlink:href="@@PHOTO3@@" height="1143" preserveAspectRatio="xMidYMid meet"/></g></g><g clip-path="url(#ae41582968)"><path stroke-linecap="butt" transform="matrix(0.74963, 0, 0, 0.74963, 548.36803, 332.11468)" fill="none" stroke-linejoin="miter" d="M -0.00112372 -0.00186627 L -0.00112372 249.470229 L 348.733553 249.470229 L 348.733553 -0.00186627 L -0.00112372 -0.00186627 " stroke="#ffffff" stroke-width="18" stroke-opacity="1" stroke-miterlimit="4"/></g><g clip-path="url(#479f5021b1)"><path fill="#d7d0cf" d="M 160.25 856.695312 C 160.25 857.152344 159.949219 857.542969 159.535156 857.675781 L 158.210938 862.105469 C 157.878906 863.222656 157.167969 864.144531 156.246094 864.757812 L 156.246094 867.65625 C 156.246094 868.03125 155.941406 868.335938 155.566406 868.335938 C 155.226562 868.335938 154.9375 868.085938 154.890625 867.746094 L 154.597656 865.519531 L 154.589844 865.460938 C 154.257812 865.53125 153.914062 865.570312 153.5625 865.570312 L 140.296875 865.570312 C 139.949219 865.570312 139.605469 865.53125 139.269531 865.460938 L 139.265625 865.519531 L 138.96875 867.746094 C 138.925781 868.085938 138.636719 868.335938 138.292969 868.335938 C 137.917969 868.335938 137.613281 868.03125 137.613281 867.65625 L 137.613281 864.757812 C 136.691406 864.144531 135.984375 863.222656 135.648438 862.105469 L 134.324219 857.671875 C 133.910156 857.542969 133.609375 857.152344 133.609375 856.695312 C 133.609375 856.125 134.070312 855.667969 134.636719 855.667969 L 135.894531 855.667969 L 135.894531 846.238281 C 135.894531 845.96875 135.894531 845.695312 135.894531 845.421875 C 135.902344 844.488281 136.402344 843.582031 137.261719 843.167969 C 138.421875 842.613281 139.863281 843.015625 140.507812 844.152344 C 140.902344 844.84375 140.832031 845.625 140.832031 846.390625 C 140.832031 846.835938 140.464844 847.171875 140.03125 847.1875 C 139.601562 847.207031 139.230469 846.808594 139.230469 846.390625 L 139.230469 845.488281 C 139.230469 845.449219 139.234375 845.414062 139.230469 845.375 C 139.230469 845.339844 139.210938 845.175781 139.226562 845.25 C 139.21875 845.21875 139.210938 845.1875 139.203125 845.15625 C 139.195312 845.117188 139.179688 845.078125 139.167969 845.039062 C 139.144531 844.992188 139.113281 844.945312 139.089844 844.898438 C 139.082031 844.882812 139.078125 844.871094 139.074219 844.863281 C 139.066406 844.855469 139.058594 844.847656 139.050781 844.839844 C 139.007812 844.796875 138.96875 844.757812 138.929688 844.714844 C 138.917969 844.707031 138.90625 844.695312 138.894531 844.6875 C 138.886719 844.683594 138.871094 844.671875 138.84375 844.652344 C 138.800781 844.632812 138.757812 844.605469 138.722656 844.582031 C 138.707031 844.574219 138.699219 844.570312 138.691406 844.5625 C 138.683594 844.5625 138.667969 844.558594 138.652344 844.554688 C 138.597656 844.542969 138.542969 844.527344 138.488281 844.515625 C 138.53125 844.527344 138.339844 844.511719 138.289062 844.511719 C 138.273438 844.511719 138.257812 844.511719 138.246094 844.515625 C 138.226562 844.519531 138.203125 844.523438 138.179688 844.527344 C 138.140625 844.539062 138.101562 844.550781 138.058594 844.5625 C 138.105469 844.550781 137.96875 844.601562 137.945312 844.617188 C 137.949219 844.613281 137.890625 844.652344 137.855469 844.671875 C 137.820312 844.703125 137.738281 844.773438 137.726562 844.789062 C 137.707031 844.808594 137.691406 844.828125 137.671875 844.847656 C 137.691406 844.832031 137.601562 844.964844 137.585938 844.988281 C 137.578125 845.003906 137.5625 845.039062 137.554688 845.0625 C 137.539062 845.117188 137.523438 845.171875 137.507812 845.226562 C 137.503906 845.234375 137.503906 845.242188 137.5 845.25 C 137.5 845.253906 137.5 845.257812 137.5 845.265625 C 137.472656 845.878906 137.496094 846.5 137.496094 847.113281 L 137.496094 855.667969 L 159.222656 855.667969 C 159.792969 855.667969 160.25 856.125 160.25 856.695312 Z M 160.25 856.695312 " fill-opacity="1" fill-rule="nonzero"/></g><g clip-path="url(#d95a61e7f6)"><path fill="#d7d0cf" d="M 210.371094 843.757812 L 210.371094 867 C 210.378906 867.269531 210.300781 867.507812 210.140625 867.71875 C 209.980469 867.933594 209.773438 868.074219 209.515625 868.140625 C 209.109375 868.234375 208.757812 868.132812 208.464844 867.839844 C 208.246094 867.625 208.136719 867.359375 208.136719 867.054688 L 208.136719 844.867188 L 186.117188 844.867188 L 186.117188 866.910156 C 186.128906 867.191406 186.054688 867.441406 185.894531 867.671875 C 185.734375 867.898438 185.519531 868.054688 185.253906 868.136719 C 184.839844 868.238281 184.492188 868.132812 184.210938 867.816406 C 183.988281 867.578125 183.878906 867.292969 183.882812 866.96875 L 183.882812 843.507812 C 183.925781 843.296875 184.027344 843.117188 184.179688 842.964844 C 184.398438 842.746094 184.660156 842.636719 184.96875 842.636719 L 209.253906 842.636719 C 209.402344 842.636719 209.542969 842.664062 209.679688 842.722656 C 209.816406 842.777344 209.9375 842.859375 210.042969 842.964844 C 210.148438 843.070312 210.230469 843.191406 210.289062 843.328125 C 210.34375 843.464844 210.371094 843.609375 210.371094 843.757812 Z M 206.539062 845.550781 L 187.714844 845.550781 C 187.507812 845.550781 187.328125 845.625 187.179688 845.769531 C 187.035156 845.917969 186.960938 846.097656 186.960938 846.304688 C 186.960938 846.511719 187.035156 846.691406 187.179688 846.839844 C 187.328125 846.984375 187.507812 847.058594 187.714844 847.058594 L 206.539062 847.058594 C 206.75 847.058594 206.925781 846.984375 207.074219 846.839844 C 207.222656 846.691406 207.296875 846.511719 207.296875 846.304688 C 207.296875 846.097656 207.222656 845.917969 207.074219 845.769531 C 206.925781 845.625 206.75 845.550781 206.539062 845.550781 Z M 206.539062 847.882812 L 187.714844 847.882812 C 187.511719 847.886719 187.335938 847.964844 187.191406 848.109375 C 187.050781 848.257812 186.976562 848.433594 186.976562 848.636719 C 186.976562 848.84375 187.050781 849.019531 187.191406 849.164062 C 187.335938 849.3125 187.511719 849.386719 187.714844 849.390625 L 206.539062 849.390625 C 206.753906 849.398438 206.933594 849.328125 207.085938 849.179688 C 207.238281 849.03125 207.3125 848.851562 207.3125 848.636719 C 207.3125 848.425781 207.238281 848.246094 207.085938 848.097656 C 206.933594 847.949219 206.753906 847.878906 206.539062 847.882812 Z M 206.539062 850.117188 L 187.714844 850.117188 C 187.511719 850.121094 187.335938 850.195312 187.191406 850.34375 C 187.050781 850.492188 186.976562 850.667969 186.976562 850.871094 C 186.976562 851.074219 187.050781 851.25 187.191406 851.398438 C 187.335938 851.542969 187.511719 851.621094 187.714844 851.625 L 206.539062 851.625 C 206.753906 851.632812 206.933594 851.558594 207.085938 851.410156 C 207.238281 851.261719 207.3125 851.082031 207.3125 850.871094 C 207.3125 850.660156 207.238281 850.476562 207.085938 850.332031 C 206.933594 850.183594 206.753906 850.109375 206.539062 850.117188 Z M 205.769531 860.996094 C 205.851562 861.148438 205.894531 861.3125 205.894531 861.488281 L 205.894531 865.121094 C 205.894531 865.257812 205.867188 865.390625 205.816406 865.515625 C 205.761719 865.640625 205.6875 865.753906 205.589844 865.851562 C 205.496094 865.945312 205.382812 866.019531 205.257812 866.074219 C 205.132812 866.125 205 866.152344 204.863281 866.152344 L 203.867188 866.152344 L 203.867188 867.140625 C 203.867188 867.296875 203.835938 867.441406 203.777344 867.582031 C 203.71875 867.722656 203.636719 867.847656 203.527344 867.957031 C 203.421875 868.066406 203.296875 868.148438 203.15625 868.207031 C 203.011719 868.265625 202.867188 868.292969 202.714844 868.292969 C 202.558594 868.292969 202.414062 868.265625 202.273438 868.207031 C 202.128906 868.148438 202.007812 868.066406 201.898438 867.957031 C 201.789062 867.847656 201.707031 867.722656 201.648438 867.582031 C 201.589844 867.441406 201.558594 867.296875 201.558594 867.140625 L 201.558594 866.152344 L 192.789062 866.152344 L 192.789062 867.140625 C 192.789062 867.296875 192.761719 867.441406 192.703125 867.582031 C 192.644531 867.726562 192.558594 867.851562 192.453125 867.957031 C 192.34375 868.066406 192.21875 868.148438 192.078125 868.207031 C 191.9375 868.265625 191.789062 868.296875 191.636719 868.296875 C 191.484375 868.296875 191.335938 868.265625 191.195312 868.207031 C 191.054688 868.148438 190.929688 868.066406 190.820312 867.957031 C 190.710938 867.851562 190.628906 867.726562 190.570312 867.582031 C 190.511719 867.441406 190.484375 867.296875 190.484375 867.140625 L 190.484375 866.152344 L 189.394531 866.152344 C 189.257812 866.152344 189.125 866.125 189 866.074219 C 188.875 866.019531 188.761719 865.945312 188.664062 865.851562 C 188.570312 865.753906 188.492188 865.640625 188.441406 865.515625 C 188.386719 865.390625 188.363281 865.257812 188.359375 865.121094 L 188.359375 861.464844 C 188.371094 861.050781 188.5625 860.753906 188.929688 860.566406 C 190.074219 858.765625 191.21875 856.960938 192.363281 855.152344 C 192.496094 854.949219 192.621094 854.746094 192.75 854.542969 C 193.035156 854.097656 193.4375 853.875 193.964844 853.875 L 200.460938 853.875 C 200.988281 853.875 201.394531 854.097656 201.679688 854.542969 C 201.804688 854.746094 201.9375 854.949219 202.066406 855.152344 C 203.28125 857.074219 204.5 858.992188 205.71875 860.914062 C 205.734375 860.941406 205.753906 860.96875 205.769531 860.996094 Z M 190.511719 860.457031 L 203.917969 860.457031 C 202.9375 858.910156 201.957031 857.367188 200.976562 855.820312 C 200.695312 855.375 200.289062 855.152344 199.761719 855.152344 L 194.671875 855.152344 C 194.140625 855.152344 193.738281 855.375 193.453125 855.820312 C 192.472656 857.367188 191.492188 858.910156 190.511719 860.457031 Z M 193.296875 863.304688 C 193.296875 863.117188 193.261719 862.9375 193.191406 862.765625 C 193.121094 862.59375 193.019531 862.441406 192.886719 862.308594 C 192.753906 862.175781 192.601562 862.074219 192.429688 862.003906 C 192.257812 861.933594 192.078125 861.894531 191.890625 861.894531 C 191.703125 861.894531 191.523438 861.933594 191.351562 862.003906 C 191.179688 862.074219 191.027344 862.175781 190.894531 862.308594 C 190.761719 862.441406 190.660156 862.59375 190.589844 862.765625 C 190.519531 862.9375 190.484375 863.117188 190.484375 863.304688 C 190.484375 863.492188 190.519531 863.671875 190.589844 863.84375 C 190.660156 864.015625 190.761719 864.167969 190.894531 864.300781 C 191.027344 864.429688 191.179688 864.53125 191.351562 864.605469 C 191.523438 864.675781 191.703125 864.710938 191.890625 864.710938 C 192.078125 864.710938 192.257812 864.675781 192.429688 864.605469 C 192.601562 864.53125 192.753906 864.429688 192.886719 864.296875 C 193.019531 864.167969 193.121094 864.015625 193.191406 863.839844 C 193.261719 863.667969 193.296875 863.488281 193.296875 863.304688 Z M 204.117188 863.304688 C 204.117188 863.117188 204.082031 862.9375 204.011719 862.765625 C 203.941406 862.59375 203.839844 862.441406 203.707031 862.308594 C 203.574219 862.175781 203.421875 862.074219 203.25 862.003906 C 203.078125 861.933594 202.898438 861.894531 202.710938 861.894531 C 202.523438 861.894531 202.34375 861.933594 202.171875 862.003906 C 202 862.074219 201.847656 862.175781 201.714844 862.308594 C 201.582031 862.441406 201.480469 862.59375 201.410156 862.765625 C 201.339844 862.9375 201.304688 863.117188 201.304688 863.304688 C 201.304688 863.492188 201.339844 863.671875 201.410156 863.84375 C 201.480469 864.015625 201.582031 864.167969 201.714844 864.300781 C 201.847656 864.429688 202 864.53125 202.171875 864.605469 C 202.34375 864.675781 202.523438 864.710938 202.710938 864.710938 C 202.898438 864.710938 203.078125 864.675781 203.25 864.605469 C 203.421875 864.53125 203.574219 864.429688 203.707031 864.296875 C 203.839844 864.167969 203.941406 864.015625 204.011719 863.839844 C 204.082031 863.667969 204.121094 863.488281 204.121094 863.304688 Z M 204.117188 863.304688 " fill-opacity="1" fill-rule="nonzero"/></g><g clip-path="url(#b436547903)"><path fill="#d7d0cf" d="M 110.050781 859.128906 L 110.050781 863.382812 C 110.050781 864.140625 109.4375 864.753906 108.679688 864.753906 L 84.796875 864.753906 C 84.039062 864.753906 83.425781 864.140625 83.425781 863.382812 L 83.425781 859.128906 C 83.425781 857.175781 84.761719 855.535156 86.570312 855.070312 L 104.53125 855.070312 C 105.242188 855.070312 105.957031 855.09375 106.667969 855.082031 C 106.753906 855.078125 106.839844 855.078125 106.925781 855.074219 C 108.722656 855.546875 110.050781 857.183594 110.050781 859.128906 Z M 88.75 854.269531 L 88.75 852.503906 C 88.75 851.726562 89.378906 851.097656 90.15625 851.097656 L 94.800781 851.097656 C 95.574219 851.097656 96.203125 851.726562 96.203125 852.503906 L 96.203125 854.269531 L 97.273438 854.269531 L 97.273438 852.503906 C 97.273438 851.726562 97.902344 851.097656 98.675781 851.097656 L 103.320312 851.097656 C 104.097656 851.097656 104.726562 851.726562 104.726562 852.503906 L 104.726562 854.269531 L 106.667969 854.269531 L 106.667969 848.054688 C 106.667969 847.027344 105.839844 846.199219 104.8125 846.199219 L 88.664062 846.199219 C 87.636719 846.199219 86.804688 847.027344 86.804688 848.054688 L 86.804688 854.253906 C 87.347656 854.253906 87.894531 854.269531 88.433594 854.269531 Z M 88.75 854.269531 " fill-opacity="1" fill-rule="nonzero"/></g><g clip-path="url(#cabfc7ddee)"><path fill="#d7d0cf" d="M 59.878906 861.488281 L 58.828125 862.539062 C 57.5625 863.804688 55.578125 864 54.089844 863.007812 L 53.433594 862.570312 C 53.011719 862.289062 52.464844 862.289062 52.042969 862.570312 L 51.066406 863.21875 C 49.808594 864.058594 48.164062 864.058594 46.902344 863.21875 L 45.925781 862.570312 C 45.507812 862.289062 44.957031 862.289062 44.539062 862.570312 L 43.5625 863.21875 C 42.300781 864.058594 40.660156 864.058594 39.398438 863.21875 L 38.421875 862.570312 C 38 862.289062 37.453125 862.289062 37.03125 862.570312 L 34.667969 864.144531 L 33.28125 862.0625 L 35.644531 860.488281 C 36.90625 859.644531 38.546875 859.644531 39.808594 860.488281 L 40.785156 861.136719 C 41.207031 861.417969 41.753906 861.417969 42.171875 861.136719 L 43.152344 860.488281 C 44.410156 859.644531 46.054688 859.644531 47.316406 860.488281 L 48.292969 861.136719 C 48.710938 861.417969 49.257812 861.417969 49.679688 861.136719 L 50.65625 860.488281 C 51.917969 859.644531 53.558594 859.644531 54.820312 860.488281 L 55.480469 860.925781 C 55.976562 861.257812 56.636719 861.191406 57.058594 860.769531 L 58.109375 859.71875 Z M 59.878906 861.488281 " fill-opacity="1" fill-rule="evenodd"/></g><g clip-path="url(#f2efb5bc16)"><path fill="#d7d0cf" d="M 59.878906 866.492188 L 58.828125 867.542969 C 57.5625 868.808594 55.578125 869.003906 54.089844 868.011719 L 53.433594 867.574219 C 53.011719 867.292969 52.464844 867.292969 52.042969 867.574219 L 51.066406 868.222656 C 49.808594 869.066406 48.164062 869.066406 46.902344 868.222656 L 45.925781 867.574219 C 45.507812 867.292969 44.957031 867.292969 44.539062 867.574219 L 43.5625 868.222656 C 42.300781 869.066406 40.660156 869.066406 39.398438 868.222656 L 38.421875 867.574219 C 38 867.292969 37.453125 867.292969 37.03125 867.574219 L 34.667969 869.148438 L 33.28125 867.066406 L 35.644531 865.492188 C 36.90625 864.648438 38.546875 864.648438 39.808594 865.492188 L 40.785156 866.140625 C 41.207031 866.421875 41.753906 866.421875 42.171875 866.140625 L 43.152344 865.492188 C 44.410156 864.648438 46.054688 864.648438 47.316406 865.492188 L 48.292969 866.140625 C 48.710938 866.421875 49.257812 866.421875 49.679688 866.140625 L 50.65625 865.492188 C 51.917969 864.648438 53.558594 864.648438 54.820312 865.492188 L 55.480469 865.929688 C 55.976562 866.261719 56.636719 866.195312 57.058594 865.773438 L 58.109375 864.722656 Z M 59.878906 866.492188 " fill-opacity="1" fill-rule="evenodd"/></g><g clip-path="url(#8ef9699762)"><path fill="#d7d0cf" d="M 38.976562 844.339844 C 38.285156 844.339844 37.726562 844.898438 37.726562 845.589844 L 37.726562 846.839844 L 35.222656 846.839844 L 35.222656 845.589844 C 35.222656 843.515625 36.90625 841.835938 38.976562 841.835938 L 40.230469 841.835938 C 42.300781 841.835938 43.980469 843.515625 43.980469 845.589844 L 43.980469 861.851562 L 41.480469 861.851562 L 41.480469 845.589844 C 41.480469 844.898438 40.917969 844.339844 40.230469 844.339844 Z M 38.976562 844.339844 " fill-opacity="1" fill-rule="evenodd"/></g><g clip-path="url(#78c7f196fd)"><path fill="#d7d0cf" d="M 50.238281 844.339844 C 49.546875 844.339844 48.984375 844.898438 48.984375 845.589844 L 48.984375 846.839844 L 46.484375 846.839844 L 46.484375 845.589844 C 46.484375 843.515625 48.164062 841.835938 50.238281 841.835938 L 51.488281 841.835938 C 53.5625 841.835938 55.242188 843.515625 55.242188 845.589844 L 55.242188 861.226562 L 52.738281 861.226562 L 52.738281 845.589844 C 52.738281 844.898438 52.179688 844.339844 51.488281 844.339844 Z M 50.238281 844.339844 " fill-opacity="1" fill-rule="evenodd"/></g><path fill="#d7d0cf" d="M 42.730469 849.34375 L 53.988281 849.34375 L 53.988281 851.84375 L 42.730469 851.84375 Z M 42.730469 849.34375 " fill-opacity="1" fill-rule="evenodd"/><path fill="#d7d0cf" d="M 42.730469 854.347656 L 53.988281 854.347656 L 53.988281 856.847656 L 42.730469 856.847656 Z M 42.730469 854.347656 " fill-opacity="1" fill-rule="evenodd"/><g clip-path="url(#c76877cff3)"><path fill="#d7d0cf" d="M 254.085938 855.460938 L 254.085938 854.597656 L 253.574219 854.597656 C 253.316406 854.597656 253.109375 854.386719 253.109375 854.125 C 253.109375 853.863281 253.316406 853.652344 253.574219 853.652344 L 254.085938 853.652344 L 254.085938 853.316406 C 254.085938 853.054688 254.296875 852.839844 254.558594 852.839844 L 258.425781 852.839844 C 258.6875 852.839844 258.898438 853.054688 258.898438 853.316406 L 258.898438 853.652344 L 259.410156 853.652344 C 259.664062 853.652344 259.871094 853.863281 259.871094 854.125 C 259.871094 854.386719 259.664062 854.597656 259.410156 854.597656 L 258.898438 854.597656 L 258.898438 856.53125 C 258.898438 856.796875 258.6875 857.007812 258.425781 857.007812 L 254.558594 857.007812 C 254.296875 857.007812 254.085938 856.792969 254.085938 856.53125 Z M 248.269531 846.945312 L 248.261719 847.613281 L 248.273438 849.992188 C 248.273438 850.023438 248.277344 850.054688 248.292969 850.085938 L 249.582031 852.761719 C 249.695312 852.996094 249.597656 853.28125 249.363281 853.394531 C 249.296875 853.425781 249.226562 853.441406 249.15625 853.441406 L 246.441406 853.441406 C 246.179688 853.441406 245.964844 853.230469 245.964844 852.96875 C 245.964844 852.882812 245.988281 852.800781 246.027344 852.730469 L 247.289062 850.113281 C 247.3125 850.066406 247.324219 850.011719 247.324219 849.960938 L 247.324219 846.898438 C 247.324219 846.703125 247.484375 846.542969 247.679688 846.542969 L 247.871094 846.542969 C 248.09375 846.542969 248.269531 846.722656 248.269531 846.945312 Z M 247.957031 851.570312 C 247.894531 851.433594 247.703125 851.433594 247.636719 851.570312 L 247.34375 852.179688 C 247.273438 852.324219 247.378906 852.496094 247.542969 852.496094 L 248.097656 852.496094 C 248.238281 852.496094 248.332031 852.347656 248.269531 852.21875 Z M 244.214844 842.816406 L 244.214844 851.570312 C 244.214844 851.917969 243.933594 852.199219 243.585938 852.199219 L 234.640625 852.199219 C 234.292969 852.199219 234.011719 851.917969 234.011719 851.570312 L 234.011719 842.816406 C 234.011719 842.46875 234.292969 842.1875 234.640625 842.1875 L 243.585938 842.1875 C 243.933594 842.1875 244.214844 842.46875 244.214844 842.816406 Z M 242.792969 846.089844 C 242.792969 845.847656 242.617188 845.628906 242.375 845.601562 C 242.089844 845.566406 241.84375 845.789062 241.84375 846.070312 L 241.84375 848.3125 C 241.84375 848.59375 242.089844 848.820312 242.375 848.785156 C 242.617188 848.757812 242.792969 848.539062 242.792969 848.292969 C 242.792969 847.78125 242.792969 846.605469 242.792969 846.089844 Z M 245.164062 845.144531 L 245.164062 842.757812 C 245.164062 842.441406 245.417969 842.1875 245.734375 842.1875 L 252.332031 842.1875 C 252.652344 842.1875 252.90625 842.441406 252.90625 842.757812 L 252.90625 845.144531 C 252.90625 845.460938 252.648438 845.71875 252.332031 845.71875 L 245.734375 845.71875 C 245.417969 845.71875 245.164062 845.460938 245.164062 845.144531 Z M 248.5625 843.957031 C 248.5625 844.195312 248.734375 844.414062 248.972656 844.441406 C 249.261719 844.480469 249.511719 844.253906 249.511719 843.972656 L 249.511719 843.933594 C 249.511719 843.648438 249.261719 843.425781 248.972656 843.460938 C 248.734375 843.492188 248.5625 843.707031 248.5625 843.949219 Z M 261.601562 842.59375 L 261.601562 845.3125 C 261.601562 845.535156 261.421875 845.71875 261.195312 845.71875 L 254.253906 845.71875 C 254.035156 845.71875 253.855469 845.539062 253.855469 845.320312 L 253.855469 842.1875 L 261.195312 842.1875 C 261.421875 842.1875 261.601562 842.367188 261.601562 842.59375 Z M 258.203125 843.929688 C 258.203125 843.648438 257.957031 843.425781 257.667969 843.460938 C 257.425781 843.492188 257.253906 843.707031 257.253906 843.949219 L 257.253906 843.957031 C 257.253906 844.199219 257.425781 844.414062 257.667969 844.445312 C 257.957031 844.480469 258.203125 844.253906 258.203125 843.972656 Z M 244.214844 853.769531 L 244.214844 868.050781 C 244.214844 868.445312 243.894531 868.765625 243.5 868.765625 L 234.726562 868.765625 C 234.332031 868.765625 234.011719 868.445312 234.011719 868.050781 L 234.011719 853.84375 C 234.011719 853.457031 234.324219 853.148438 234.707031 853.148438 L 243.589844 853.148438 C 243.933594 853.148438 244.214844 853.425781 244.214844 853.769531 Z M 242.792969 855.671875 C 242.792969 855.429688 242.617188 855.210938 242.375 855.183594 C 242.089844 855.148438 241.84375 855.371094 241.84375 855.652344 L 241.84375 866.261719 C 241.84375 866.539062 242.089844 866.765625 242.375 866.730469 C 242.617188 866.703125 242.792969 866.484375 242.792969 866.238281 Z M 250.433594 860.042969 C 250.433594 860.046875 250.433594 860.050781 250.433594 860.054688 L 250.433594 862.230469 C 250.433594 862.59375 250.140625 862.886719 249.777344 862.886719 L 245.816406 862.886719 C 245.457031 862.886719 245.164062 862.59375 245.164062 862.230469 L 245.164062 858.609375 C 245.164062 858.25 245.457031 857.957031 245.816406 857.957031 L 249.777344 857.957031 C 250.140625 857.957031 250.433594 858.25 250.433594 858.609375 Z M 248.273438 860.402344 C 248.273438 860.132812 248.050781 859.917969 247.785156 859.925781 C 247.523438 859.933594 247.324219 860.160156 247.324219 860.421875 C 247.324219 860.679688 247.523438 860.90625 247.785156 860.914062 C 248.050781 860.925781 248.273438 860.707031 248.273438 860.441406 Z M 250.433594 864.488281 L 250.433594 868.109375 C 250.433594 868.472656 250.140625 868.765625 249.777344 868.765625 L 245.816406 868.765625 C 245.457031 868.765625 245.164062 868.472656 245.164062 868.109375 L 245.164062 864.488281 C 245.164062 864.128906 245.457031 863.832031 245.816406 863.832031 L 249.777344 863.832031 C 250.140625 863.835938 250.433594 864.128906 250.433594 864.488281 Z M 248.273438 866.28125 C 248.273438 866.011719 248.050781 865.796875 247.785156 865.804688 C 247.523438 865.8125 247.324219 866.039062 247.324219 866.300781 C 247.324219 866.558594 247.523438 866.785156 247.785156 866.792969 C 248.050781 866.804688 248.273438 866.585938 248.273438 866.320312 Z M 261.601562 861.230469 L 261.601562 868.050781 C 261.601562 868.445312 261.28125 868.765625 260.886719 868.765625 L 252.097656 868.765625 C 251.703125 868.765625 251.382812 868.445312 251.382812 868.050781 L 251.382812 861.230469 C 251.382812 860.835938 251.703125 860.515625 252.097656 860.515625 L 260.886719 860.515625 C 261.28125 860.515625 261.601562 860.835938 261.601562 861.230469 Z M 259.535156 863.003906 C 259.535156 862.347656 259.003906 861.816406 258.34375 861.816406 L 254.636719 861.816406 C 253.980469 861.816406 253.449219 862.347656 253.449219 863.003906 L 253.449219 866.277344 C 253.449219 866.933594 253.980469 867.464844 254.636719 867.464844 L 258.34375 867.464844 C 259.003906 867.464844 259.535156 866.933594 259.535156 866.277344 Z M 251.832031 859.566406 L 252.320312 859.566406 C 252.40625 859.566406 252.476562 859.496094 252.476562 859.410156 C 252.476562 859.148438 252.679688 858.921875 252.9375 858.914062 C 253.207031 858.90625 253.425781 859.125 253.425781 859.386719 C 253.425781 859.480469 253.5 859.554688 253.59375 859.558594 L 253.980469 859.566406 L 254.679688 859.570312 C 254.765625 859.570312 254.835938 859.5 254.835938 859.410156 L 254.835938 859.40625 C 254.835938 859.179688 254.988281 858.972656 255.207031 858.925781 C 255.515625 858.863281 255.785156 859.09375 255.785156 859.390625 L 255.785156 859.410156 C 255.785156 859.5 255.855469 859.570312 255.941406 859.570312 L 257.039062 859.570312 C 257.125 859.570312 257.195312 859.5 257.195312 859.410156 L 257.195312 859.40625 C 257.195312 859.179688 257.347656 858.972656 257.566406 858.925781 C 257.875 858.863281 258.144531 859.09375 258.144531 859.390625 L 258.144531 859.410156 C 258.144531 859.5 258.214844 859.570312 258.300781 859.570312 L 259.398438 859.570312 C 259.488281 859.570312 259.558594 859.5 259.558594 859.410156 C 259.558594 859.152344 259.757812 858.921875 260.019531 858.917969 C 260.285156 858.910156 260.503906 859.125 260.503906 859.390625 L 260.503906 859.410156 C 260.503906 859.5 260.574219 859.570312 260.660156 859.570312 L 261.148438 859.570312 C 261.398438 859.570312 261.601562 859.367188 261.601562 859.117188 L 261.601562 858.40625 C 261.601562 858.15625 261.398438 857.957031 261.148438 857.957031 L 251.832031 857.957031 C 251.582031 857.957031 251.378906 858.15625 251.378906 858.40625 L 251.378906 859.117188 C 251.382812 859.367188 251.582031 859.566406 251.832031 859.566406 Z M 258.027344 862.761719 L 254.953125 862.761719 C 254.644531 862.761719 254.398438 863.011719 254.398438 863.320312 L 254.398438 865.960938 C 254.398438 866.269531 254.644531 866.515625 254.953125 866.515625 L 258.027344 866.515625 C 258.335938 866.515625 258.585938 866.269531 258.585938 865.960938 L 258.585938 863.320312 C 258.585938 863.011719 258.335938 862.761719 258.027344 862.761719 Z M 257.671875 847.625 C 257.828125 847.625 257.957031 847.5 257.957031 847.34375 L 257.957031 846.828125 C 257.957031 846.671875 257.828125 846.542969 257.671875 846.542969 L 255.3125 846.542969 C 255.152344 846.542969 255.027344 846.671875 255.027344 846.828125 L 255.027344 847.34375 C 255.027344 847.5 255.15625 847.625 255.3125 847.625 Z M 252.703125 848.492188 L 252.160156 849.28125 C 251.921875 849.625 252.167969 850.097656 252.589844 850.097656 L 260.394531 850.097656 C 260.816406 850.097656 261.0625 849.625 260.824219 849.28125 L 260.28125 848.492188 C 260.183594 848.351562 260.023438 848.269531 259.851562 848.269531 L 253.132812 848.269531 C 252.960938 848.269531 252.800781 848.351562 252.703125 848.492188 Z M 252.703125 848.492188 " fill-opacity="1" fill-rule="evenodd"/></g><g fill="#ffffff" fill-opacity="1"><g transform="translate(42.314077, 888.660652)"><g></g></g></g><g fill="#ffffff" fill-opacity="1"><g transform="translate(92.506218, 888.660652)"><g></g></g></g><g fill="#ffffff" fill-opacity="1"><g transform="translate(142.698351, 888.660652)"><g></g></g></g><g fill="#ffffff" fill-opacity="1"><g transform="translate(192.890501, 888.660652)"><g></g></g></g><g fill="#ffffff" fill-opacity="1"><g transform="translate(243.082635, 888.660652)"><g></g></g></g><g transform="matrix(1, 0, 0, 1, 33, 811)"><g clip-path="url(#349cd70416)"><g fill="#ffffff" fill-opacity="1"><g transform="translate(0.222737, 16.540598)"><g></g></g></g><g fill="#ffffff" fill-opacity="1"><g transform="translate(8.449565, 16.540598)"><g></g></g></g><g fill="#ffffff" fill-opacity="1"><g transform="translate(16.825064, 16.540598)"><g></g></g></g><g fill="#ffffff" fill-opacity="1"><g transform="translate(24.779731, 16.540598)"><g></g></g></g><g fill="#ffffff" fill-opacity="1"><g transform="translate(28.971612, 16.540598)"><g></g></g></g><g fill="#ffffff" fill-opacity="1"><g transform="translate(33.072722, 16.540598)"><g></g></g></g><g fill="#ffffff" fill-opacity="1"><g transform="translate(37.264602, 16.540598)"><g></g></g></g><g fill="#ffffff" fill-opacity="1"><g transform="translate(43.403886, 16.540598)"><g></g></g></g><g fill="#ffffff" fill-opacity="1"><g transform="translate(47.595767, 16.540598)"><g></g></g></g><g fill="#ffffff" fill-opacity="1"><g transform="translate(56.408614, 16.540598)"><g></g></g></g><g fill="#ffffff" fill-opacity="1"><g transform="translate(63.661878, 16.540598)"><g></g></g></g></g></g><g clip-path="url(#001b1bebb4)"><g transform="matrix(1, 0, 0, 1, 565, 954)"><g clip-path="url(#1e55e8b015)"><g clip-path="url(#148a14e018)"><path fill="#493532" d="M 0.667969 0.800781 L 227.550781 0.800781 L 227.550781 34.277344 L 0.667969 34.277344 Z M 0.667969 0.800781 " fill-opacity="1" fill-rule="nonzero"/></g></g></g></g><g fill="#ffffff" fill-opacity="1"><g transform="translate(596.5872, 976.412671)"><g></g></g></g><g fill="#ffffff" fill-opacity="1"><g transform="translate(608.051082, 976.412671)"><g></g></g></g><g fill="#ffffff" fill-opacity="1"><g transform="translate(619.514963, 976.412671)"><g></g></g></g><g fill="#ffffff" fill-opacity="1"><g transform="translate(630.664882, 976.412671)"><g></g></g></g><g fill="#ffffff" fill-opacity="1"><g transform="translate(634.109157, 976.412671)"><g></g></g></g><g fill="#ffffff" fill-opacity="1"><g transform="translate(639.122158, 976.412671)"><g></g></g></g><g fill="#ffffff" fill-opacity="1"><g transform="translate(646.827996, 976.412671)"><g></g></g></g><g fill="#ffffff" fill-opacity="1"><g transform="translate(654.081398, 976.412671)"><g></g></g></g><g fill="#ffffff" fill-opacity="1"><g transform="translate(657.525674, 976.412671)"><g></g></g></g><g fill="#ffffff" fill-opacity="1"><g transform="translate(660.969949, 976.412671)"><g></g></g></g><g fill="#ffffff" fill-opacity="1"><g transform="translate(668.332725, 976.412671)"><g></g></g></g><g fill="#ffffff" fill-opacity="1"><g transform="translate(675.9218, 976.412671)"><g></g></g></g><g fill="#ffffff" fill-opacity="1"><g transform="translate(680.9348, 976.412671)"><g></g></g></g><g fill="#ffffff" fill-opacity="1"><g transform="translate(688.640639, 976.412671)"><g></g></g></g><g fill="#ffffff" fill-opacity="1"><g transform="translate(695.799125, 976.412671)"><g></g></g></g><g fill="#ffffff" fill-opacity="1"><g transform="translate(701.031206, 976.412671)"><g></g></g></g><g fill="#ffffff" fill-opacity="1"><g transform="translate(707.350568, 976.412671)"><g></g></g></g><g fill="#ffffff" fill-opacity="1"><g transform="translate(710.853225, 976.412671)"><g></g></g></g><g fill="#ffffff" fill-opacity="1"><g transform="translate(716.048794, 976.412671)"><g></g></g></g><g fill="#ffffff" fill-opacity="1"><g transform="translate(723.754632, 976.412671)"><g></g></g></g><g fill="#ffffff" fill-opacity="1"><g transform="translate(727.198907, 976.412671)"><g></g></g></g><g fill="#ffffff" fill-opacity="1"><g transform="translate(734.036294, 976.412671)"><g></g></g></g><g fill="#ffffff" fill-opacity="1"><g transform="translate(742.311309, 976.412671)"><g></g></g></g><g clip-path="url(#51d884f155)"><g transform="matrix(1, 0, 0, 1, 604, 65)"><g clip-path="url(#48ff014542)"><g clip-path="url(#7cef747d2b)"><path fill="#493532" d="M 0.1875 0.230469 L 150.699219 0.230469 L 150.699219 33.707031 L 0.1875 33.707031 Z M 0.1875 0.230469 " fill-opacity="1" fill-rule="nonzero"/></g></g></g></g><g fill="#ffffff" fill-opacity="1"><g transform="translate(624.878934, 86.841328)"><g></g></g></g><g fill="#ffffff" fill-opacity="1"><g transform="translate(637.087137, 86.841328)"><g></g></g></g><g fill="#ffffff" fill-opacity="1"><g transform="translate(642.100138, 86.841328)"><g></g></g></g><g fill="#ffffff" fill-opacity="1"><g transform="translate(649.805976, 86.841328)"><g></g></g></g><g fill="#ffffff" fill-opacity="1"><g transform="translate(657.059378, 86.841328)"><g></g></g></g><g fill="#ffffff" fill-opacity="1"><g transform="translate(660.503653, 86.841328)"><g></g></g></g><g fill="#ffffff" fill-opacity="1"><g transform="translate(663.947929, 86.841328)"><g></g></g></g><g fill="#ffffff" fill-opacity="1"><g transform="translate(671.310705, 86.841328)"><g></g></g></g><g fill="#ffffff" fill-opacity="1"><g transform="translate(678.89978, 86.841328)"><g></g></g></g><g fill="#ffffff" fill-opacity="1"><g transform="translate(683.91278, 86.841328)"><g></g></g></g><g fill="#ffffff" fill-opacity="1"><g transform="translate(691.618619, 86.841328)"><g></g></g></g><g fill="#ffffff" fill-opacity="1"><g transform="translate(698.777105, 86.841328)"><g></g></g></g><g fill="#ffffff" fill-opacity="1"><g transform="translate(704.009186, 86.841328)"><g></g></g></g><g fill="#ffffff" fill-opacity="1"><g transform="translate(710.328547, 86.841328)"><g></g></g></g><g fill="#ffffff" fill-opacity="1"><g transform="translate(713.831204, 86.841328)"><g></g></g></g><g fill="#ffffff" fill-opacity="1"><g transform="translate(719.026774, 86.841328)"><g></g></g></g><g fill="#ffffff" fill-opacity="1"><g transform="translate(29.523684, 598.738308)"><g></g></g></g><g fill="#ffffff" fill-opacity="1"><g transform="translate(123.342565, 598.738308)"><g></g></g></g><g fill="#ffffff" fill-opacity="1"><g transform="translate(203.560201, 598.738308)"><g></g></g></g><g fill="#ffffff" fill-opacity="1"><g transform="translate(279.062065, 598.738308)"><g></g></g></g><g fill="#ffffff" fill-opacity="1"><g transform="translate(336.147648, 598.738308)"><g></g></g></g><g fill="#ffffff" fill-opacity="1"><g transform="translate(399.984177, 598.738308)"><g></g></g></g><g fill="#ffffff" fill-opacity="1"><g transform="translate(29.523684, 705.935364)"><g></g></g></g><g fill="#ffffff" fill-opacity="1"><g transform="translate(106.018347, 705.935364)"><g></g></g></g><g fill="#ffffff" fill-opacity="1"><g transform="translate(186.235983, 705.935364)"><g></g></g></g><g fill="#ffffff" fill-opacity="1"><g transform="translate(259.950831, 705.935364)"><g></g></g></g><g fill="#ffffff" fill-opacity="1"><g transform="translate(314.40548, 705.935364)"><g></g></g></g><g fill="#ffffff" fill-opacity="1"><g transform="translate(29.523684, 757.022524)"><g></g></g></g><g fill="#ffffff" fill-opacity="1"><g transform="translate(38.894502, 757.022524)"><g></g></g></g><g fill="#ffffff" fill-opacity="1"><g transform="translate(41.891179, 757.022524)"><g></g></g></g><g fill="#ffffff" fill-opacity="1"><g transform="translate(47.297673, 757.022524)"><g></g></g></g><g fill="#ffffff" fill-opacity="1"><g transform="translate(53.147407, 757.022524)"><g></g></g></g><g fill="#ffffff" fill-opacity="1"><g transform="translate(60.0522, 757.022524)"><g></g></g></g><g fill="#ffffff" fill-opacity="1"><g transform="translate(66.320192, 757.022524)"><g></g></g></g><g fill="#ffffff" fill-opacity="1"><g transform="translate(72.912875, 757.022524)"><g></g></g></g><g fill="#ffffff" fill-opacity="1"><g transform="translate(77.195565, 757.022524)"><g/></g></g><g fill="#ffffff" fill-opacity="1"><g transform="translate(80.392015, 757.022524)"><g></g></g></g><g fill="#ffffff" fill-opacity="1"><g transform="translate(86.597622, 757.022524)"><g/></g></g><g fill="#ffffff" fill-opacity="1"><g transform="translate(89.794072, 757.022524)"><g></g></g></g><g fill="#ffffff" fill-opacity="1"><g transform="translate(94.270346, 757.022524)"><g></g></g></g><g fill="#ffffff" fill-opacity="1"><g transform="translate(101.237604, 757.022524)"><g></g></g></g><g fill="#ffffff" fill-opacity="1"><g transform="translate(108.317245, 757.022524)"><g></g></g></g><g fill="#ffffff" fill-opacity="1"><g transform="translate(115.278269, 757.022524)"><g></g></g></g><g fill="#ffffff" fill-opacity="1"><g transform="translate(121.771061, 757.022524)"><g></g></g></g><g fill="#ffffff" fill-opacity="1"><g transform="translate(128.650895, 757.022524)"><g></g></g></g><g fill="#ffffff" fill-opacity="1"><g transform="translate(133.127169, 757.022524)"><g></g></g></g><g fill="#ffffff" fill-opacity="1"><g transform="translate(137.503563, 757.022524)"><g></g></g></g><g fill="#ffffff" fill-opacity="1"><g transform="translate(144.464587, 757.022524)"><g></g></g></g><g fill="#ffffff" fill-opacity="1"><g transform="translate(147.411313, 757.022524)"><g></g></g></g><g fill="#ffffff" fill-opacity="1"><g transform="translate(150.358039, 757.022524)"><g></g></g></g><g fill="#ffffff" fill-opacity="1"><g transform="translate(156.488667, 757.022524)"><g/></g></g><g fill="#ffffff" fill-opacity="1"><g transform="translate(159.685116, 757.022524)"><g></g></g></g><g fill="#ffffff" fill-opacity="1"><g transform="translate(166.677356, 757.022524)"><g></g></g></g><g fill="#ffffff" fill-opacity="1"><g transform="translate(173.27004, 757.022524)"><g></g></g></g><g fill="#ffffff" fill-opacity="1"><g transform="translate(178.676534, 757.022524)"><g></g></g></g><g fill="#ffffff" fill-opacity="1"><g transform="translate(181.673211, 757.022524)"><g></g></g></g><g fill="#ffffff" fill-opacity="1"><g transform="translate(188.166003, 757.022524)"><g></g></g></g><g fill="#ffffff" fill-opacity="1"><g transform="translate(195.133261, 757.022524)"><g></g></g></g><g fill="#ffffff" fill-opacity="1"><g transform="translate(201.725945, 757.022524)"><g></g></g></g><g fill="#ffffff" fill-opacity="1"><g transform="translate(208.718184, 757.022524)"><g/></g></g><g fill="#ffffff" fill-opacity="1"><g transform="translate(211.914634, 757.022524)"><g></g></g></g><g fill="#ffffff" fill-opacity="1"><g transform="translate(222.184479, 757.022524)"><g></g></g></g><g fill="#ffffff" fill-opacity="1"><g transform="translate(229.26412, 757.022524)"><g></g></g></g><g fill="#ffffff" fill-opacity="1"><g transform="translate(236.256371, 757.022524)"><g></g></g></g><g fill="#ffffff" fill-opacity="1"><g transform="translate(242.849032, 757.022524)"><g></g></g></g><g fill="#ffffff" fill-opacity="1"><g transform="translate(247.393983, 757.022524)"><g></g></g></g><g fill="#ffffff" fill-opacity="1"><g transform="translate(254.361252, 757.022524)"><g/></g></g><g fill="#ffffff" fill-opacity="1"><g transform="translate(257.557702, 757.022524)"><g></g></g></g><g fill="#ffffff" fill-opacity="1"><g transform="translate(264.524972, 757.022524)"><g></g></g></g><g fill="#ffffff" fill-opacity="1"><g transform="translate(271.60459, 757.022524)"><g></g></g></g><g fill="#ffffff" fill-opacity="1"><g transform="translate(281.874435, 757.022524)"><g></g></g></g><g fill="#ffffff" fill-opacity="1"><g transform="translate(288.467142, 757.022524)"><g/></g></g><g fill="#ffffff" fill-opacity="1"><g transform="translate(291.407553, 757.022524)"><g></g></g></g><g fill="#ffffff" fill-opacity="1"><g transform="translate(301.215423, 757.022524)"><g></g></g></g><g fill="#ffffff" fill-opacity="1"><g transform="translate(304.212112, 757.022524)"><g></g></g></g><g fill="#ffffff" fill-opacity="1"><g transform="translate(308.688386, 757.022524)"><g></g></g></g><g fill="#ffffff" fill-opacity="1"><g transform="translate(315.655633, 757.022524)"><g/></g></g><g fill="#ffffff" fill-opacity="1"><g transform="translate(318.852083, 757.022524)"><g></g></g></g><g fill="#ffffff" fill-opacity="1"><g transform="translate(324.814211, 757.022524)"><g></g></g></g><g fill="#ffffff" fill-opacity="1"><g transform="translate(327.760936, 757.022524)"><g></g></g></g><g fill="#ffffff" fill-opacity="1"><g transform="translate(334.35362, 757.022524)"><g></g></g></g><g fill="#ffffff" fill-opacity="1"><g transform="translate(340.559227, 757.022524)"><g></g></g></g><g fill="#ffffff" fill-opacity="1"><g transform="translate(347.526473, 757.022524)"><g/></g></g><g fill="#ffffff" fill-opacity="1"><g transform="translate(350.722923, 757.022524)"><g></g></g></g><g fill="#ffffff" fill-opacity="1"><g transform="translate(353.669649, 757.022524)"><g></g></g></g><g fill="#ffffff" fill-opacity="1"><g transform="translate(356.666338, 757.022524)"><g></g></g></g><g fill="#ffffff" fill-opacity="1"><g transform="translate(363.633585, 757.022524)"><g></g></g></g><g fill="#ffffff" fill-opacity="1"><g transform="translate(370.226291, 757.022524)"><g></g></g></g><g fill="#ffffff" fill-opacity="1"><g transform="translate(375.632785, 757.022524)"><g></g></g></g><g fill="#ffffff" fill-opacity="1"><g transform="translate(29.523684, 774.264008)"><g></g></g></g><g fill="#ffffff" fill-opacity="1"><g transform="translate(36.603324, 774.264008)"><g></g></g></g><g fill="#ffffff" fill-opacity="1"><g transform="translate(43.601798, 774.264008)"><g></g></g></g><g fill="#ffffff" fill-opacity="1"><g transform="translate(50.194482, 774.264008)"><g></g></g></g><g fill="#ffffff" fill-opacity="1"><g transform="translate(57.16174, 774.264008)"><g/></g></g><g fill="#ffffff" fill-opacity="1"><g transform="translate(60.35819, 774.264008)"><g></g></g></g><g fill="#ffffff" fill-opacity="1"><g transform="translate(65.764684, 774.264008)"><g></g></g></g><g fill="#ffffff" fill-opacity="1"><g transform="translate(72.763158, 774.264008)"><g></g></g></g><g fill="#ffffff" fill-opacity="1"><g transform="translate(78.968764, 774.264008)"><g></g></g></g><g fill="#ffffff" fill-opacity="1"><g transform="translate(84.818498, 774.264008)"><g></g></g></g><g fill="#ffffff" fill-opacity="1"><g transform="translate(91.411182, 774.264008)"><g></g></g></g><g fill="#ffffff" fill-opacity="1"><g transform="translate(96.817676, 774.264008)"><g></g></g></g><g fill="#ffffff" fill-opacity="1"><g transform="translate(99.65203, 774.264008)"><g/></g></g><g fill="#ffffff" fill-opacity="1"><g transform="translate(102.84848, 774.264008)"><g></g></g></g><g fill="#ffffff" fill-opacity="1"><g transform="translate(109.054087, 774.264008)"><g></g></g></g><g fill="#ffffff" fill-opacity="1"><g transform="translate(116.021345, 774.264008)"><g></g></g></g><g fill="#ffffff" fill-opacity="1"><g transform="translate(123.013585, 774.264008)"><g/></g></g><g fill="#ffffff" fill-opacity="1"><g transform="translate(126.210034, 774.264008)"><g></g></g></g><g fill="#ffffff" fill-opacity="1"><g transform="translate(130.686309, 774.264008)"><g></g></g></g><g fill="#ffffff" fill-opacity="1"><g transform="translate(133.682986, 774.264008)"><g></g></g></g><g fill="#ffffff" fill-opacity="1"><g transform="translate(143.952832, 774.264008)"><g></g></g></g><g fill="#ffffff" fill-opacity="1"><g transform="translate(150.545515, 774.264008)"><g></g></g></g><g fill="#ffffff" fill-opacity="1"><g transform="translate(153.492241, 774.264008)"><g></g></g></g><g fill="#ffffff" fill-opacity="1"><g transform="translate(160.084924, 774.264008)"><g></g></g></g><g fill="#ffffff" fill-opacity="1"><g transform="translate(165.491418, 774.264008)"><g></g></g></g><g fill="#ffffff" fill-opacity="1"><g transform="translate(170.897913, 774.264008)"><g/></g></g><g fill="#ffffff" fill-opacity="1"><g transform="translate(174.094362, 774.264008)"><g></g></g></g><g fill="#ffffff" fill-opacity="1"><g transform="translate(179.944096, 774.264008)"><g></g></g></g><g fill="#ffffff" fill-opacity="1"><g transform="translate(187.023737, 774.264008)"><g></g></g></g><g fill="#ffffff" fill-opacity="1"><g transform="translate(197.193668, 774.264008)"><g></g></g></g><g fill="#ffffff" fill-opacity="1"><g transform="translate(201.363998, 774.264008)"><g></g></g></g><g fill="#ffffff" fill-opacity="1"><g transform="translate(208.443639, 774.264008)"><g></g></g></g><g fill="#ffffff" fill-opacity="1"><g transform="translate(212.988589, 774.264008)"><g></g></g></g><g fill="#ffffff" fill-opacity="1"><g transform="translate(217.464864, 774.264008)"><g></g></g></g><g fill="#ffffff" fill-opacity="1"><g transform="translate(220.411589, 774.264008)"><g/></g></g><g fill="#ffffff" fill-opacity="1"><g transform="translate(223.608039, 774.264008)"><g></g></g></g><g fill="#ffffff" fill-opacity="1"><g transform="translate(231.549178, 774.264008)"><g></g></g></g><g fill="#ffffff" fill-opacity="1"><g transform="translate(238.510202, 774.264008)"><g></g></g></g><g fill="#ffffff" fill-opacity="1"><g transform="translate(241.506891, 774.264008)"><g></g></g></g><g fill="#ffffff" fill-opacity="1"><g transform="translate(244.453617, 774.264008)"><g></g></g></g><g fill="#ffffff" fill-opacity="1"><g transform="translate(248.929891, 774.264008)"><g/></g></g><g fill="#ffffff" fill-opacity="1"><g transform="translate(252.126341, 774.264008)"><g></g></g></g><g fill="#ffffff" fill-opacity="1"><g transform="translate(256.29666, 774.264008)"><g></g></g></g><g fill="#ffffff" fill-opacity="1"><g transform="translate(263.376324, 774.264008)"><g></g></g></g><g fill="#ffffff" fill-opacity="1"><g transform="translate(267.659014, 774.264008)"><g/></g></g><g fill="#ffffff" fill-opacity="1"><g transform="translate(270.855464, 774.264008)"><g></g></g></g><g fill="#ffffff" fill-opacity="1"><g transform="translate(275.300488, 774.264008)"><g></g></g></g><g fill="#ffffff" fill-opacity="1"><g transform="translate(282.380152, 774.264008)"><g></g></g></g><g fill="#ffffff" fill-opacity="1"><g transform="translate(289.37238, 774.264008)"><g></g></g></g><g fill="#ffffff" fill-opacity="1"><g transform="translate(295.42812, 774.264008)"><g></g></g></g><g fill="#ffffff" fill-opacity="1"><g transform="translate(301.864715, 774.264008)"><g></g></g></g><g fill="#ffffff" fill-opacity="1"><g transform="translate(304.249516, 774.264008)"><g></g></g></g><g fill="#ffffff" fill-opacity="1"><g transform="translate(309.65601, 774.264008)"><g/></g></g><g fill="#ffffff" fill-opacity="1"><g transform="translate(312.85246, 774.264008)"><g></g></g></g><g fill="#ffffff" fill-opacity="1"><g transform="translate(315.799185, 774.264008)"><g></g></g></g><g fill="#ffffff" fill-opacity="1"><g transform="translate(318.795851, 774.264008)"><g></g></g></g><g fill="#ffffff" fill-opacity="1"><g transform="translate(322.966193, 774.264008)"><g></g></g></g><g fill="#ffffff" fill-opacity="1"><g transform="translate(329.558877, 774.264008)"><g></g></g></g><g fill="#ffffff" fill-opacity="1"><g transform="translate(334.965371, 774.264008)"><g></g></g></g><g fill="#ffffff" fill-opacity="1"><g transform="translate(339.441645, 774.264008)"><g></g></g></g><g fill="#ffffff" fill-opacity="1"><g transform="translate(345.87824, 774.264008)"><g></g></g></g><g fill="#ffffff" fill-opacity="1"><g transform="translate(348.824965, 774.264008)"><g></g></g></g><g fill="#ffffff" fill-opacity="1"><g transform="translate(355.417672, 774.264008)"><g/></g></g><g fill="#ffffff" fill-opacity="1"><g transform="translate(358.614122, 774.264008)"><g></g></g></g><g fill="#ffffff" fill-opacity="1"><g transform="translate(364.819705, 774.264008)"><g></g></g></g><g fill="#ffffff" fill-opacity="1"><g transform="translate(371.786975, 774.264008)"><g></g></g></g><g fill="#ffffff" fill-opacity="1"><g transform="translate(29.523684, 791.505493)"><g></g></g></g><g fill="#ffffff" fill-opacity="1"><g transform="translate(33.968731, 791.505493)"><g></g></g></g><g fill="#ffffff" fill-opacity="1"><g transform="translate(41.048372, 791.505493)"><g></g></g></g><g fill="#ffffff" fill-opacity="1"><g transform="translate(51.318217, 791.505493)"><g></g></g></g><g fill="#ffffff" fill-opacity="1"><g transform="translate(58.397858, 791.505493)"><g></g></g></g><g fill="#ffffff" fill-opacity="1"><g transform="translate(62.942809, 791.505493)"><g></g></g></g><g fill="#ffffff" fill-opacity="1"><g transform="translate(67.231744, 791.505493)"><g></g></g></g><g fill="#ffffff" fill-opacity="1"><g transform="translate(74.217716, 791.505493)"><g></g></g></g><g fill="#ffffff" fill-opacity="1"><g transform="translate(84.025574, 791.505493)"><g></g></g></g><g fill="#ffffff" fill-opacity="1"><g transform="translate(86.410363, 791.505493)"><g></g></g></g><g fill="#ffffff" fill-opacity="1"><g transform="translate(91.816857, 791.505493)"><g/></g></g><g fill="#ffffff" fill-opacity="1"><g transform="translate(95.013307, 791.505493)"><g></g></g></g><g fill="#ffffff" fill-opacity="1"><g transform="translate(102.005547, 791.505493)"><g></g></g></g><g fill="#ffffff" fill-opacity="1"><g transform="translate(106.294482, 791.505493)"><g></g></g></g><g fill="#ffffff" fill-opacity="1"><g transform="translate(112.887166, 791.505493)"><g></g></g></g><g fill="#ffffff" fill-opacity="1"><g transform="translate(119.092772, 791.505493)"><g></g></g></g><g fill="#ffffff" fill-opacity="1"><g transform="translate(129.362618, 791.505493)"><g></g></g></g><g fill="#ffffff" fill-opacity="1"><g transform="translate(134.769112, 791.505493)"><g></g></g></g><g transform="matrix(1, 0, 0, 1, 194, 963)"><g clip-path="url(#8ca7fb7784)"><g fill="#000000" fill-opacity="1"><g transform="translate(0.704707, 12.860161)"><g></g></g></g><g fill="#000000" fill-opacity="1"><g transform="translate(7.94873, 12.860161)"><g></g></g></g><g fill="#000000" fill-opacity="1"><g transform="translate(15.192754, 12.860161)"><g></g></g></g><g fill="#000000" fill-opacity="1"><g transform="translate(22.436777, 12.860161)"><g></g></g></g><g fill="#000000" fill-opacity="1"><g transform="translate(29.6808, 12.860161)"><g></g></g></g><g fill="#000000" fill-opacity="1"><g transform="translate(34.320722, 12.860161)"><g></g></g></g><g fill="#000000" fill-opacity="1"><g transform="translate(41.564745, 12.860161)"><g></g></g></g><g fill="#000000" fill-opacity="1"><g transform="translate(48.808768, 12.860161)"><g></g></g></g><g fill="#000000" fill-opacity="1"><g transform="translate(56.052792, 12.860161)"><g></g></g></g><g fill="#000000" fill-opacity="1"><g transform="translate(60.692713, 12.860161)"><g></g></g></g><g fill="#000000" fill-opacity="1"><g transform="translate(67.936736, 12.860161)"><g></g></g></g><g fill="#000000" fill-opacity="1"><g transform="translate(75.18076, 12.860161)"><g></g></g></g></g></g><g transform="matrix(1, 0, 0, 1, 35, 963)"><g clip-path="url(#83f59c507d)"><g fill="#000000" fill-opacity="1"><g transform="translate(0.890815, 12.864846)"><g></g></g></g><g fill="#000000" fill-opacity="1"><g transform="translate(11.163586, 12.864846)"><g></g></g></g><g fill="#000000" fill-opacity="1"><g transform="translate(17.370964, 12.864846)"><g></g></g></g><g fill="#000000" fill-opacity="1"><g transform="translate(20.368489, 12.864846)"><g></g></g></g><g fill="#000000" fill-opacity="1"><g transform="translate(23.31606, 12.864846)"><g></g></g></g><g fill="#000000" fill-opacity="1"><g transform="translate(33.763679, 12.864846)"><g></g></g></g><g fill="#000000" fill-opacity="1"><g transform="translate(38.053862, 12.864846)"><g></g></g></g><g fill="#000000" fill-opacity="1"><g transform="translate(44.648416, 12.864846)"><g></g></g></g><g fill="#000000" fill-opacity="1"><g transform="translate(50.855794, 12.864846)"><g></g></g></g><g fill="#000000" fill-opacity="1"><g transform="translate(53.803365, 12.864846)"><g></g></g></g><g clip-path="url(#6b4d4aab99)"><g fill="#000000" fill-opacity="1"><g transform="translate(56.750936, 12.864846)"><g></g></g></g></g><g clip-path="url(#154ff1f558)"><g fill="#000000" fill-opacity="1"><g transform="translate(63.051974, 12.864846)"><g></g></g></g></g><g fill="#000000" fill-opacity="1"><g transform="translate(69.54661, 12.864846)"><g></g></g></g><g fill="#000000" fill-opacity="1"><g transform="translate(73.836793, 12.864846)"><g></g></g></g><g fill="#000000" fill-opacity="1"><g transform="translate(80.431347, 12.864846)"><g></g></g></g><g fill="#000000" fill-opacity="1"><g transform="translate(86.557538, 12.864846)"><g></g></g></g><g fill="#000000" fill-opacity="1"><g transform="translate(91.035095, 12.864846)"><g></g></g></g><g fill="#000000" fill-opacity="1"><g transform="translate(96.443133, 12.864846)"><g></g></g></g><g fill="#000000" fill-opacity="1"><g transform="translate(99.440657, 12.864846)"><g></g></g></g><g fill="#000000" fill-opacity="1"><g transform="translate(103.886991, 12.864846)"><g></g></g></g><g fill="#000000" fill-opacity="1"><g transform="translate(110.481545, 12.864846)"><g></g></g></g><g fill="#000000" fill-opacity="1"><g transform="translate(113.429116, 12.864846)"><g></g></g></g><g fill="#000000" fill-opacity="1"><g transform="translate(119.28052, 12.864846)"><g></g></g></g><g fill="#000000" fill-opacity="1"><g transform="translate(126.362167, 12.864846)"><g></g></g></g></g></g></svg>