<svg xmlns="http://www.w3.org/2000/svg" xmlns:xlink="http://www.w3.org/1999/xlink" width="1080" zoomAndPan="magnify" viewBox="0 0 810 1012.49997" height="1350" preserveAspectRatio="xMidYMid meet" version="1.0"><defs><g/><clipPath id="95705771e4"><path d="M 0.199219 0 L 809.800781 0 L 809.800781 1012 L 0.199219 1012 Z M 0.199219 0 " clip-rule="nonzero"/></clipPath><clipPath id="919473c4b6"><path d="M 81.175781 721.035156 L 728.839844 721.035156 L 728.839844 892.699219 L 81.175781 892.699219 Z M 81.175781 721.035156 " clip-rule="nonzero"/></clipPath><clipPath id="9f19d52f65"><path d="M 114.15625 721.035156 L 695.84375 721.035156 C 704.589844 721.035156 712.980469 724.507812 719.164062 730.695312 C 725.351562 736.878906 728.824219 745.269531 728.824219 754.015625 L 728.824219 859.730469 C 728.824219 868.476562 725.351562 876.867188 719.164062 883.050781 C 712.980469 889.238281 704.589844 892.710938 695.84375 892.710938 L 114.15625 892.710938 C 105.410156 892.710938 97.019531 889.238281 90.835938 883.050781 C 84.648438 876.867188 81.175781 868.476562 81.175781 859.730469 L 81.175781 754.015625 C 81.175781 745.269531 84.648438 736.878906 90.835938 730.695312 C 97.019531 724.507812 105.410156 721.035156 114.15625 721.035156 Z M 114.15625 721.035156 " clip-rule="nonzero"/></clipPath><clipPath id="d1bf9933ca"><path d="M 374.261719 751.476562 L 435.730469 751.476562 L 435.730469 797.203125 L 374.261719 797.203125 Z M 374.261719 751.476562 " clip-rule="nonzero"/></clipPath><clipPath id="53b3e97a1a"><path d="M 184 741.707031 L 236.285156 741.707031 L 236.285156 765 L 184 765 Z M 184 741.707031 " clip-rule="nonzero"/></clipPath><clipPath id="ea61597742"><path d="M 176.316406 744 L 187 744 L 187 754 L 176.316406 754 Z M 176.316406 744 " clip-rule="nonzero"/></clipPath><clipPath id="5c688d526b"><path d="M 176.316406 782 L 187 782 L 187 792 L 176.316406 792 Z M 176.316406 782 " clip-rule="nonzero"/></clipPath><clipPath id="a88de3cad7"><path d="M 224 796 L 235 796 L 235 806.925781 L 224 806.925781 Z M 224 796 " clip-rule="nonzero"/></clipPath><clipPath id="d8e990f383"><path d="M 186 796 L 197 796 L 197 806.925781 L 186 806.925781 Z M 186 796 " clip-rule="nonzero"/></clipPath><clipPath id="57275f09c9"><path d="M 569.757812 771 L 638.726562 771 L 638.726562 778 L 569.757812 778 Z M 569.757812 771 " clip-rule="nonzero"/></clipPath><clipPath id="ea351f2bf8"><path d="M 579 741.707031 L 601 741.707031 L 601 774 L 579 774 Z M 579 741.707031 " clip-rule="nonzero"/></clipPath><clipPath id="737efcced7"><path d="M 586 796 L 595 796 L 595 805.425781 L 586 805.425781 Z M 586 796 " clip-rule="nonzero"/></clipPath><clipPath id="9bcf9e73e7"><path d="M 613 796 L 622 796 L 622 805.425781 L 613 805.425781 Z M 613 796 " clip-rule="nonzero"/></clipPath><clipPath id="3a75e30f08"><path d="M 348 27 L 423.921875 27 L 423.921875 112 L 348 112 Z M 348 27 " clip-rule="nonzero"/></clipPath><clipPath id="59117fefeb"><rect x="0" width="424" y="0" height="142"/></clipPath><clipPath id="c310b3489d"><path d="M 191 81 L 262.839844 81 L 262.839844 131 L 191 131 Z M 191 81 " clip-rule="nonzero"/></clipPath><clipPath id="62f469d41d"><rect x="0" width="263" y="0" height="195"/></clipPath><clipPath id="51acf92d57"><rect x="0" width="142" y="0" height="32"/></clipPath><clipPath id="25d08d61e7"><rect x="0" width="314" y="0" height="32"/></clipPath><clipPath id="af6e8c39fd"><rect x="0" width="138" y="0" height="32"/></clipPath><clipPath id="2e87a28a88"><rect x="0" width="81" y="0" height="32"/></clipPath></defs><g clip-path="url(#95705771e4)"><path fill="#ffffff" d="M 0.199219 0 L 809.800781 0 L 809.800781 1012 L 0.199219 1012 Z M 0.199219 0 " fill-opacity="1" fill-rule="nonzero"/><path fill="#000000" d="M 0.199219 0 L 809.800781 0 L 809.800781 1012 L 0.199219 1012 Z M 0.199219 0 " fill-opacity="1" fill-rule="nonzero"/><g transform="matrix(0.2024, 0, 0, 0.202275, 0.199913, -201.297036)"><image x="0" y="0" width="4000" xlink:href="@@PHOTO0@@" height="6000" preserveAspectRatio="xMidYMid meet"/></g></g><g clip-path="url(#919473c4b6)"><g clip-path="url(#9f19d52f65)"><path stroke-linecap="butt" transform="matrix(0.74963, 0, 0, 0.74963, 81.159927, 721.034322)" fill="none" stroke-linejoin="miter" d="M 44.016826 0.00111257 L 819.983219 0.00111257 C 831.650437 0.00111257 842.843462 4.633608 851.092326 12.887682 C 859.346401 21.136546 863.978896 32.329572 863.978896 43.99679 L 863.978896 185.019531 C 863.978896 196.686749 859.346401 207.879775 851.092326 216.128638 C 842.843462 224.382713 831.650437 229.015208 819.983219 229.015208 L 44.016826 229.015208 C 32.349608 229.015208 21.156583 224.382713 12.907719 216.128638 C 4.653644 207.879775 0.0211491 196.686749 0.0211491 185.019531 L 0.0211491 43.99679 C 0.0211491 32.329572 4.653644 21.136546 12.907719 12.887682 C 21.156583 4.633608 32.349608 0.00111257 44.016826 0.00111257 Z M 44.016826 0.00111257 " stroke="#ffffff" stroke-width="6" stroke-opacity="1" stroke-miterlimit="4"/></g></g><g clip-path="url(#d1bf9933ca)"><path fill="#ffffff" d="M 386.359375 751.480469 C 382.671875 751.480469 379.652344 754.5 379.652344 758.1875 L 379.652344 768.921875 C 379.648438 769.101562 379.679688 769.273438 379.746094 769.441406 C 379.816406 769.609375 379.910156 769.753906 380.039062 769.882812 C 380.164062 770.011719 380.308594 770.109375 380.476562 770.179688 C 380.640625 770.25 380.8125 770.28125 380.992188 770.28125 C 381.171875 770.28125 381.34375 770.25 381.511719 770.179688 C 381.675781 770.109375 381.824219 770.011719 381.949219 769.882812 C 382.074219 769.753906 382.171875 769.609375 382.238281 769.441406 C 382.304688 769.273438 382.335938 769.101562 382.335938 768.921875 L 382.335938 758.1875 C 382.335938 755.949219 384.121094 754.164062 386.359375 754.164062 L 423.925781 754.164062 C 426.164062 754.164062 427.953125 755.949219 427.953125 758.1875 L 427.953125 768.921875 C 427.949219 769.101562 427.980469 769.273438 428.050781 769.441406 C 428.117188 769.609375 428.210938 769.753906 428.339844 769.882812 C 428.464844 770.011719 428.609375 770.109375 428.777344 770.179688 C 428.941406 770.25 429.113281 770.28125 429.292969 770.28125 C 429.472656 770.28125 429.644531 770.25 429.8125 770.179688 C 429.976562 770.109375 430.125 770.011719 430.25 769.882812 C 430.375 769.753906 430.472656 769.609375 430.539062 769.441406 C 430.605469 769.273438 430.636719 769.101562 430.636719 768.921875 L 430.636719 758.1875 C 430.636719 754.5 427.617188 751.480469 423.925781 751.480469 Z M 394.410156 763.554688 C 390.117188 763.554688 387.621094 764.769531 386.308594 766.367188 C 385 767.964844 385.019531 769.800781 385.019531 770.265625 L 385.019531 771.886719 C 384.597656 771.972656 384.167969 772.050781 383.769531 772.140625 C 381.054688 772.742188 378.851562 773.472656 377.207031 774.398438 C 375.5625 775.324219 374.285156 776.605469 374.285156 778.3125 L 374.285156 795.757812 C 374.285156 795.933594 374.320312 796.105469 374.386719 796.269531 C 374.453125 796.433594 374.550781 796.578125 374.675781 796.703125 C 374.804688 796.832031 374.949219 796.925781 375.113281 796.996094 C 375.277344 797.0625 375.449219 797.097656 375.625 797.097656 L 379.652344 797.097656 C 379.90625 797.097656 380.140625 797.03125 380.355469 796.898438 C 380.574219 796.765625 380.738281 796.582031 380.851562 796.355469 L 382.421875 793.214844 C 382.875 792.304688 383.804688 791.730469 384.820312 791.730469 L 425.464844 791.730469 C 426.484375 791.730469 427.410156 792.304688 427.867188 793.214844 L 429.433594 796.355469 C 429.550781 796.582031 429.714844 796.765625 429.929688 796.898438 C 430.144531 797.03125 430.382812 797.097656 430.636719 797.097656 L 434.660156 797.097656 C 434.839844 797.097656 435.011719 797.0625 435.175781 796.996094 C 435.339844 796.925781 435.484375 796.832031 435.609375 796.703125 C 435.734375 796.578125 435.832031 796.433594 435.898438 796.269531 C 435.96875 796.105469 436.003906 795.933594 436.003906 795.757812 L 436.003906 778.3125 C 436.003906 776.605469 434.722656 775.324219 433.082031 774.398438 C 431.4375 773.472656 429.230469 772.742188 426.519531 772.140625 C 426.121094 772.050781 425.6875 771.972656 425.269531 771.886719 L 425.269531 770.265625 C 425.269531 769.800781 425.285156 767.964844 423.976562 766.367188 C 422.667969 764.769531 420.167969 763.554688 415.878906 763.554688 C 411.566406 763.554688 409.066406 764.761719 407.757812 766.363281 C 406.453125 767.964844 406.484375 769.816406 406.484375 770.265625 L 406.484375 770.289062 C 406.027344 770.285156 405.605469 770.265625 405.144531 770.265625 C 404.679688 770.265625 404.257812 770.285156 403.800781 770.289062 L 403.800781 770.265625 C 403.800781 769.816406 403.835938 767.964844 402.527344 766.363281 C 401.222656 764.761719 398.722656 763.554688 394.410156 763.554688 Z M 394.410156 766.238281 C 398.242188 766.238281 399.765625 767.222656 400.449219 768.058594 C 401.132812 768.898438 401.117188 769.730469 401.117188 770.265625 L 401.117188 770.34375 C 396.125 770.476562 391.554688 770.828125 387.703125 771.417969 L 387.703125 770.265625 C 387.703125 769.757812 387.695312 768.910156 388.386719 768.066406 C 389.078125 767.222656 390.605469 766.238281 394.410156 766.238281 Z M 415.878906 766.238281 C 419.683594 766.238281 421.210938 767.222656 421.902344 768.066406 C 422.59375 768.910156 422.585938 769.757812 422.585938 770.265625 L 422.585938 771.417969 C 418.730469 770.828125 414.160156 770.476562 409.167969 770.34375 L 409.167969 770.265625 C 409.167969 769.730469 409.152344 768.898438 409.835938 768.058594 C 410.519531 767.222656 412.046875 766.238281 415.878906 766.238281 Z M 405.144531 772.945312 C 413.503906 772.945312 420.816406 773.621094 425.933594 774.761719 C 428.492188 775.332031 430.507812 776.027344 431.761719 776.734375 C 433.019531 777.445312 433.320312 778.011719 433.320312 778.3125 L 433.320312 794.414062 L 431.464844 794.414062 L 430.261719 792.015625 C 429.355469 790.199219 427.496094 789.046875 425.464844 789.046875 L 384.820312 789.046875 C 382.792969 789.046875 380.929688 790.199219 380.023438 792.015625 L 378.824219 794.414062 L 376.96875 794.414062 L 376.96875 778.3125 C 376.96875 778.011719 377.269531 777.445312 378.523438 776.734375 C 379.78125 776.027344 381.792969 775.332031 384.351562 774.761719 C 389.46875 773.621094 396.78125 772.945312 405.144531 772.945312 Z M 405.144531 772.945312 " fill-opacity="1" fill-rule="nonzero"/></g><path stroke-linecap="butt" transform="matrix(0, 0.74963, -0.74963, 0, 499.394706, 746.587845)" fill="none" stroke-linejoin="miter" d="M -0.00254511 1.500974 L 110.37486 1.500974 " stroke="#ffffff" stroke-width="3" stroke-opacity="1" stroke-miterlimit="4"/><path stroke-linecap="butt" transform="matrix(0, 0.74963, -0.74963, 0, 313.137248, 746.587845)" fill="none" stroke-linejoin="miter" d="M -0.00254511 1.501447 L 110.37486 1.501447 " stroke="#ffffff" stroke-width="3" stroke-opacity="1" stroke-miterlimit="4"/><path fill="#ffffff" d="M 230.394531 794.632812 L 190.699219 794.632812 C 190.117188 794.632812 189.632812 794.164062 189.632812 793.566406 L 189.632812 763.394531 C 189.632812 762.8125 190.101562 762.328125 190.699219 762.328125 C 191.292969 762.328125 191.761719 762.800781 191.761719 763.394531 L 191.761719 792.519531 L 229.332031 792.519531 L 229.332031 763.394531 C 229.332031 762.8125 229.800781 762.328125 230.394531 762.328125 C 230.988281 762.328125 231.460938 762.800781 231.460938 763.394531 L 231.460938 793.582031 C 231.445312 794.164062 230.976562 794.632812 230.394531 794.632812 Z M 230.394531 794.632812 " fill-opacity="1" fill-rule="nonzero"/><g clip-path="url(#53b3e97a1a)"><path fill="#ffffff" d="M 235.027344 764.457031 L 186.054688 764.457031 C 185.609375 764.457031 185.210938 764.183594 185.058594 763.765625 C 184.90625 763.351562 185.03125 762.882812 185.375 762.59375 L 209.855469 741.957031 C 210.257812 741.625 210.824219 741.625 211.222656 741.957031 L 235.703125 762.578125 C 236.050781 762.867188 236.171875 763.339844 236.023438 763.753906 C 235.871094 764.183594 235.484375 764.457031 235.027344 764.457031 Z M 188.96875 762.328125 L 232.125 762.328125 L 210.546875 744.152344 Z M 188.96875 762.328125 " fill-opacity="1" fill-rule="nonzero"/></g><path fill="#ffffff" d="M 210.546875 758.707031 C 207.628906 758.707031 205.253906 756.332031 205.253906 753.414062 C 205.253906 750.496094 207.628906 748.121094 210.546875 748.121094 C 213.464844 748.121094 215.839844 750.496094 215.839844 753.414062 C 215.839844 756.332031 213.464844 758.707031 210.546875 758.707031 Z M 210.546875 750.234375 C 208.792969 750.234375 207.382812 751.660156 207.382812 753.398438 C 207.382812 755.140625 208.804688 756.566406 210.546875 756.566406 C 212.300781 756.566406 213.710938 755.140625 213.710938 753.398438 C 213.710938 751.660156 212.289062 750.234375 210.546875 750.234375 Z M 210.546875 750.234375 " fill-opacity="1" fill-rule="nonzero"/><path fill="#ffffff" d="M 227.933594 758.472656 C 227.355469 758.472656 226.871094 758.003906 226.871094 757.410156 L 226.871094 746.28125 L 221.894531 746.28125 L 221.894531 751.4375 C 221.894531 752.019531 221.425781 752.5 220.832031 752.5 C 220.234375 752.5 219.765625 752.03125 219.765625 751.4375 L 219.765625 745.21875 C 219.765625 744.636719 220.234375 744.152344 220.832031 744.152344 L 227.933594 744.152344 C 228.515625 744.152344 229 744.621094 229 745.21875 L 229 757.410156 C 228.984375 758.003906 228.515625 758.472656 227.933594 758.472656 Z M 227.933594 758.472656 " fill-opacity="1" fill-rule="nonzero"/><path fill="#ffffff" d="M 216.421875 794.632812 C 215.839844 794.632812 215.355469 794.164062 215.355469 793.566406 L 215.355469 779.550781 L 205.722656 779.550781 L 205.722656 793.582031 C 205.722656 794.164062 205.253906 794.644531 204.660156 794.644531 C 204.0625 794.644531 203.59375 794.175781 203.59375 793.582031 L 203.59375 778.488281 C 203.59375 777.90625 204.0625 777.421875 204.660156 777.421875 L 216.421875 777.421875 C 217 777.421875 217.484375 777.894531 217.484375 778.488281 L 217.484375 793.582031 C 217.484375 794.164062 217.015625 794.632812 216.421875 794.632812 Z M 216.421875 794.632812 " fill-opacity="1" fill-rule="nonzero"/><path fill="#ffffff" d="M 181.519531 784.679688 C 180.9375 784.679688 180.457031 784.210938 180.457031 783.617188 L 180.457031 752.738281 C 180.457031 752.15625 180.925781 751.671875 181.519531 751.671875 C 182.113281 751.671875 182.582031 752.140625 182.582031 752.738281 L 182.582031 783.617188 C 182.582031 784.195312 182.101562 784.679688 181.519531 784.679688 Z M 181.519531 784.679688 " fill-opacity="1" fill-rule="nonzero"/><g clip-path="url(#ea61597742)"><path fill="#ffffff" d="M 185.652344 753.800781 L 177.386719 753.800781 C 177.011719 753.800781 176.652344 753.59375 176.460938 753.277344 C 176.265625 752.945312 176.265625 752.542969 176.460938 752.210938 L 180.59375 745.050781 C 180.785156 744.71875 181.132812 744.527344 181.519531 744.527344 C 181.90625 744.527344 182.253906 744.734375 182.445312 745.050781 L 186.578125 752.210938 C 186.773438 752.542969 186.773438 752.945312 186.578125 753.277344 C 186.386719 753.59375 186.039062 753.800781 185.652344 753.800781 Z M 179.226562 751.671875 L 183.8125 751.671875 L 181.519531 747.691406 Z M 179.226562 751.671875 " fill-opacity="1" fill-rule="nonzero"/></g><g clip-path="url(#5c688d526b)"><path fill="#ffffff" d="M 181.519531 791.839844 C 181.144531 791.839844 180.785156 791.632812 180.59375 791.316406 L 176.460938 784.15625 C 176.265625 783.824219 176.265625 783.421875 176.460938 783.089844 C 176.652344 782.757812 177 782.566406 177.386719 782.566406 L 185.652344 782.566406 C 186.027344 782.566406 186.386719 782.773438 186.578125 783.089844 C 186.773438 783.421875 186.773438 783.824219 186.578125 784.15625 L 182.433594 791.300781 C 182.253906 791.632812 181.894531 791.839844 181.519531 791.839844 Z M 179.226562 784.679688 L 181.519531 788.660156 L 183.8125 784.679688 Z M 179.226562 784.679688 " fill-opacity="1" fill-rule="nonzero"/></g><path fill="#ffffff" d="M 225.988281 802.734375 L 195.105469 802.734375 C 194.527344 802.734375 194.042969 802.261719 194.042969 801.667969 C 194.042969 801.074219 194.511719 800.605469 195.105469 800.605469 L 225.988281 800.605469 C 226.566406 800.605469 227.050781 801.074219 227.050781 801.667969 C 227.050781 802.261719 226.566406 802.734375 225.988281 802.734375 Z M 225.988281 802.734375 " fill-opacity="1" fill-rule="nonzero"/><g clip-path="url(#a88de3cad7)"><path fill="#ffffff" d="M 225.988281 806.867188 C 225.808594 806.867188 225.613281 806.824219 225.460938 806.726562 C 225.128906 806.535156 224.9375 806.1875 224.9375 805.800781 L 224.9375 797.535156 C 224.9375 797.164062 225.144531 796.804688 225.460938 796.609375 C 225.792969 796.414062 226.195312 796.414062 226.527344 796.609375 L 233.683594 800.742188 C 234.015625 800.9375 234.210938 801.28125 234.210938 801.667969 C 234.210938 802.042969 234.003906 802.402344 233.683594 802.59375 L 226.527344 806.726562 C 226.347656 806.808594 226.167969 806.867188 225.988281 806.867188 Z M 227.050781 799.375 L 227.050781 803.960938 L 231.03125 801.667969 Z M 227.050781 799.375 " fill-opacity="1" fill-rule="nonzero"/></g><g clip-path="url(#d8e990f383)"><path fill="#ffffff" d="M 195.105469 806.867188 C 194.925781 806.867188 194.734375 806.824219 194.582031 806.726562 L 187.40625 802.582031 C 187.074219 802.386719 186.882812 802.042969 186.882812 801.65625 C 186.882812 801.265625 187.089844 800.921875 187.40625 800.726562 L 194.566406 796.59375 C 194.898438 796.402344 195.300781 796.402344 195.632812 796.59375 C 195.964844 796.789062 196.15625 797.132812 196.15625 797.523438 L 196.15625 805.800781 C 196.15625 806.175781 195.949219 806.535156 195.632812 806.726562 C 195.480469 806.808594 195.285156 806.867188 195.105469 806.867188 Z M 190.0625 801.667969 L 194.042969 803.960938 L 194.042969 799.375 Z M 190.0625 801.667969 " fill-opacity="1" fill-rule="nonzero"/></g><path fill="#ffffff" d="M 618.691406 798.691406 L 589.597656 798.691406 C 576.058594 798.691406 574.585938 783.007812 574.585938 776.304688 C 574.585938 775.769531 575.121094 775.367188 575.65625 775.367188 L 632.632812 775.367188 C 633.167969 775.367188 633.570312 775.769531 633.570312 776.304688 C 633.570312 783.007812 632.097656 798.691406 618.691406 798.691406 Z M 576.597656 777.242188 C 576.730469 784.886719 578.742188 796.683594 589.597656 796.683594 L 618.691406 796.683594 C 629.816406 796.683594 631.558594 783.8125 631.558594 777.242188 Z M 576.597656 777.242188 " fill-opacity="1" fill-rule="evenodd"/><g clip-path="url(#57275f09c9)"><path fill="#ffffff" d="M 635.3125 777.242188 L 572.84375 777.242188 C 571.097656 777.242188 569.757812 775.902344 569.757812 774.160156 C 569.757812 772.417969 571.097656 771.078125 572.84375 771.078125 L 635.3125 771.078125 C 637.054688 771.078125 638.398438 772.417969 638.398438 774.160156 C 638.398438 775.902344 637.054688 777.242188 635.3125 777.242188 Z M 572.84375 773.089844 C 572.304688 773.089844 571.636719 773.625 571.636719 774.160156 C 571.636719 774.832031 572.171875 775.367188 572.84375 775.367188 L 635.3125 775.367188 C 635.984375 775.367188 636.519531 774.832031 636.519531 774.160156 C 636.519531 773.625 635.984375 773.089844 635.3125 773.089844 Z M 572.84375 773.089844 " fill-opacity="1" fill-rule="evenodd"/></g><g clip-path="url(#ea351f2bf8)"><path fill="#ffffff" d="M 580.617188 773.089844 C 579.949219 773.089844 579.546875 772.6875 579.546875 772.148438 L 579.546875 752.039062 C 579.546875 746.277344 584.238281 741.71875 589.867188 741.71875 C 595.5 741.71875 600.191406 746.277344 600.191406 752.039062 C 600.191406 752.578125 599.652344 752.980469 599.117188 752.980469 C 598.582031 752.980469 598.179688 752.441406 598.179688 752.039062 C 598.179688 747.484375 594.425781 743.730469 589.734375 743.730469 C 585.308594 743.730469 581.554688 747.484375 581.554688 752.039062 L 581.554688 772.148438 C 581.554688 772.6875 581.019531 773.089844 580.617188 773.089844 Z M 580.617188 773.089844 " fill-opacity="1" fill-rule="evenodd"/></g><path fill="#ffffff" d="M 593.21875 760.21875 C 592.949219 760.21875 592.816406 760.21875 592.683594 760.085938 C 592.414062 760.085938 592.28125 759.816406 592.28125 759.546875 L 591.476562 756.867188 C 591.207031 755.929688 591.34375 754.855469 591.878906 754.050781 C 592.414062 753.113281 593.21875 752.578125 594.15625 752.308594 L 603.273438 749.894531 C 604.210938 749.628906 605.285156 749.761719 606.089844 750.164062 C 607.027344 750.699219 607.5625 751.503906 607.964844 752.441406 L 608.636719 755.125 C 608.636719 755.390625 608.636719 755.660156 608.5 755.792969 C 608.367188 756.195312 608.234375 756.195312 607.964844 756.332031 L 593.488281 760.21875 C 593.351562 760.21875 593.21875 760.21875 593.21875 760.21875 Z M 604.347656 751.636719 C 604.210938 751.636719 604.078125 751.636719 603.945312 751.773438 L 594.695312 754.1875 C 594.292969 754.320312 593.890625 754.585938 593.621094 754.988281 C 593.351562 755.390625 593.21875 755.929688 593.351562 756.332031 L 593.890625 758.074219 L 606.492188 754.722656 L 606.089844 752.980469 C 605.953125 752.441406 605.550781 752.039062 605.285156 751.773438 C 604.882812 751.773438 604.613281 751.636719 604.347656 751.636719 Z M 604.347656 751.636719 " fill-opacity="1" fill-rule="evenodd"/><g clip-path="url(#737efcced7)"><path fill="#ffffff" d="M 591.207031 805.53125 L 587.1875 805.53125 C 586.785156 805.53125 586.515625 805.394531 586.382812 805.128906 C 586.246094 804.726562 586.113281 804.457031 586.246094 804.191406 L 588.929688 797.351562 C 589.199219 796.816406 589.734375 796.546875 590.269531 796.816406 C 590.671875 796.949219 590.941406 797.488281 590.804688 798.023438 L 588.660156 803.519531 L 590.539062 803.519531 L 592.949219 797.351562 C 593.21875 796.816406 593.753906 796.546875 594.292969 796.816406 C 594.828125 796.949219 594.960938 797.488281 594.828125 798.023438 L 592.148438 804.859375 C 592.011719 805.261719 591.609375 805.53125 591.207031 805.53125 Z M 591.207031 805.53125 " fill-opacity="1" fill-rule="evenodd"/></g><g clip-path="url(#9bcf9e73e7)"><path fill="#ffffff" d="M 620.96875 805.53125 L 616.949219 805.53125 C 616.546875 805.53125 616.144531 805.261719 616.007812 804.859375 L 613.328125 798.023438 C 613.195312 797.488281 613.460938 796.949219 613.863281 796.816406 C 614.398438 796.546875 614.9375 796.816406 615.203125 797.351562 L 617.617188 803.519531 L 619.496094 803.519531 L 617.347656 798.023438 C 617.214844 797.488281 617.484375 796.949219 617.886719 796.816406 C 618.421875 796.546875 618.957031 796.816406 619.226562 797.351562 L 621.90625 804.191406 C 622.042969 804.457031 621.90625 804.726562 621.773438 805.128906 C 621.640625 805.394531 621.238281 805.53125 620.96875 805.53125 Z M 620.96875 805.53125 " fill-opacity="1" fill-rule="evenodd"/></g><g transform="matrix(1, 0, 0, 1, 57, 55)"><g clip-path="url(#59117fefeb)"><g fill="#ffffff" fill-opacity="1"><g transform="translate(0.940471, 111.664428)"><g><path d="M 20.796875 -10.109375 L 63.75 -10.109375 L 63.75 0 L 9.53125 0 L 9.53125 -84.421875 L 20.796875 -84.421875 Z M 20.796875 -10.109375 "/></g></g></g><g fill="#ffffff" fill-opacity="1"><g transform="translate(57.048698, 111.664428)"><g><path d="M 75.40625 -84.421875 L 75.40625 -29.640625 C 75.40625 -20.296875 72.445312 -12.644531 66.53125 -6.6875 C 60.613281 -0.738281 52.238281 2.234375 41.40625 2.234375 C 31.300781 2.234375 23.363281 -0.507812 17.59375 -6 C 11.832031 -11.5 8.953125 -18.859375 8.953125 -28.078125 L 8.953125 -84.421875 L 20.21875 -84.421875 L 20.21875 -31.296875 C 20.21875 -23.523438 22.160156 -17.675781 26.046875 -13.75 C 29.929688 -9.832031 35.128906 -7.875 41.640625 -7.875 C 48.609375 -7.875 54.050781 -9.832031 57.96875 -13.75 C 61.894531 -17.675781 63.859375 -23.453125 63.859375 -31.078125 L 63.859375 -84.421875 Z M 75.40625 -84.421875 "/></g></g></g><g fill="#ffffff" fill-opacity="1"><g transform="translate(131.707995, 111.664428)"><g><path d="M 75.640625 0 L 61.515625 0 L 38.828125 -34.6875 L 15.390625 0 L 1.671875 0 L 31.875 -43.3125 L 3.5 -84.421875 L 17.859375 -84.421875 L 39.28125 -52.09375 L 60.703125 -84.421875 L 74.3125 -84.421875 L 46 -43.3125 Z M 75.640625 0 "/></g></g></g><g fill="#ffffff" fill-opacity="1"><g transform="translate(199.934729, 111.664428)"><g><path d="M 75.40625 -84.421875 L 75.40625 -29.640625 C 75.40625 -20.296875 72.445312 -12.644531 66.53125 -6.6875 C 60.613281 -0.738281 52.238281 2.234375 41.40625 2.234375 C 31.300781 2.234375 23.363281 -0.507812 17.59375 -6 C 11.832031 -11.5 8.953125 -18.859375 8.953125 -28.078125 L 8.953125 -84.421875 L 20.21875 -84.421875 L 20.21875 -31.296875 C 20.21875 -23.523438 22.160156 -17.675781 26.046875 -13.75 C 29.929688 -9.832031 35.128906 -7.875 41.640625 -7.875 C 48.609375 -7.875 54.050781 -9.832031 57.96875 -13.75 C 61.894531 -17.675781 63.859375 -23.453125 63.859375 -31.078125 L 63.859375 -84.421875 Z M 75.40625 -84.421875 "/></g></g></g><g fill="#ffffff" fill-opacity="1"><g transform="translate(276.604227, 111.664428)"><g><path d="M 20.96875 -46 L 47.390625 -46 C 53.515625 -46 57.90625 -47.253906 60.5625 -49.765625 C 63.226562 -52.273438 64.5625 -55.882812 64.5625 -60.59375 C 64.5625 -64.882812 63.410156 -68.300781 61.109375 -70.84375 C 58.804688 -73.394531 54.863281 -74.671875 49.28125 -74.671875 L 20.96875 -74.671875 Z M 20.96875 0 L 9.53125 0 L 9.53125 -84.421875 L 48.59375 -84.421875 C 57.664062 -84.421875 64.535156 -82.488281 69.203125 -78.625 C 73.878906 -74.757812 76.21875 -69.128906 76.21875 -61.734375 C 76.21875 -56.878906 75.28125 -52.820312 73.40625 -49.5625 C 71.53125 -46.3125 68.582031 -43.632812 64.5625 -41.53125 C 68 -40.257812 70.484375 -38.484375 72.015625 -36.203125 C 73.546875 -33.929688 74.429688 -30.398438 74.671875 -25.609375 L 75.40625 -9.875 C 75.488281 -7.269531 75.898438 -5.441406 76.640625 -4.390625 C 77.390625 -3.335938 78.4375 -2.503906 79.78125 -1.890625 L 79.78125 0 L 65.640625 0 C 64.921875 -2.101562 64.40625 -5.300781 64.09375 -9.59375 C 63.789062 -13.882812 63.640625 -17.75 63.640625 -21.1875 C 63.640625 -22.914062 63.484375 -24.675781 63.171875 -26.46875 C 62.867188 -28.269531 62.195312 -29.898438 61.15625 -31.359375 C 60.125 -32.816406 58.613281 -33.992188 56.625 -34.890625 C 54.632812 -35.785156 51.957031 -36.234375 48.59375 -36.234375 L 20.96875 -36.234375 Z M 20.96875 0 "/></g></g></g><g clip-path="url(#3a75e30f08)"><g fill="#ffffff" fill-opacity="1"><g transform="translate(347.874893, 111.664428)"><g><path d="M 43.875 0 L 32.453125 0 L 32.453125 -34 L 0.578125 -84.421875 L 13.90625 -84.421875 L 38.140625 -43.875 L 62.3125 -84.421875 L 75.75 -84.421875 L 43.875 -34 Z M 43.875 0 "/></g></g></g></g></g></g><g transform="matrix(1, 0, 0, 1, 469, 32)"><g clip-path="url(#62f469d41d)"><g fill="#ffffff" fill-opacity="1"><g transform="translate(0.888521, 129.320173)"><g></g></g></g><g fill="#ffffff" fill-opacity="1"><g transform="translate(117.721888, 129.320173)"><g></g></g></g><g fill="#ffffff" fill-opacity="1"><g transform="translate(145.193079, 129.320173)"><g></g></g></g><g fill="#ffffff" fill-opacity="1"><g transform="translate(173.149098, 129.320173)"><g></g></g></g><g clip-path="url(#c310b3489d)"><g fill="#ffffff" fill-opacity="1"><g transform="translate(200.135496, 129.320173)"><g></g></g></g></g></g></g><g transform="matrix(1, 0, 0, 1, 334, 821)"><g clip-path="url(#51acf92d57)"><g fill="#ffffff" fill-opacity="1"><g transform="translate(0.725806, 22.852485)"><g></g></g></g><g fill="#ffffff" fill-opacity="1"><g transform="translate(13.82926, 22.852485)"><g/></g></g><g fill="#ffffff" fill-opacity="1"><g transform="translate(19.769199, 22.852485)"><g></g></g></g><g fill="#ffffff" fill-opacity="1"><g transform="translate(33.406583, 22.852485)"><g></g></g></g><g fill="#ffffff" fill-opacity="1"><g transform="translate(44.819266, 22.852485)"><g></g></g></g><g fill="#ffffff" fill-opacity="1"><g transform="translate(60.547862, 22.852485)"><g></g></g></g><g fill="#ffffff" fill-opacity="1"><g transform="translate(74.074013, 22.852485)"><g></g></g></g><g fill="#ffffff" fill-opacity="1"><g transform="translate(91.560114, 22.852485)"><g></g></g></g><g fill="#ffffff" fill-opacity="1"><g transform="translate(109.046214, 22.852485)"><g></g></g></g><g fill="#ffffff" fill-opacity="1"><g transform="translate(128.200841, 22.852485)"><g></g></g></g></g></g><g transform="matrix(1, 0, 0, 1, 248, 915)"><g clip-path="url(#25d08d61e7)"><g fill="#ffffff" fill-opacity="1"><g transform="translate(1.144258, 23.101444)"><g></g></g></g><g fill="#ffffff" fill-opacity="1"><g transform="translate(22.857284, 23.101444)"><g></g></g></g><g fill="#ffffff" fill-opacity="1"><g transform="translate(44.57031, 23.101444)"><g></g></g></g><g fill="#ffffff" fill-opacity="1"><g transform="translate(66.283335, 23.101444)"><g></g></g></g><g fill="#ffffff" fill-opacity="1"><g transform="translate(70.955192, 23.101444)"><g></g></g></g><g fill="#ffffff" fill-opacity="1"><g transform="translate(84.481343, 23.101444)"><g></g></g></g><g fill="#ffffff" fill-opacity="1"><g transform="translate(95.894026, 23.101444)"><g></g></g></g><g fill="#ffffff" fill-opacity="1"><g transform="translate(110.88847, 23.101444)"><g></g></g></g><g fill="#ffffff" fill-opacity="1"><g transform="translate(120.49915, 23.101444)"><g></g></g></g><g fill="#ffffff" fill-opacity="1"><g transform="translate(130.10983, 23.101444)"><g></g></g></g><g fill="#ffffff" fill-opacity="1"><g transform="translate(143.10205, 23.101444)"><g></g></g></g><g fill="#ffffff" fill-opacity="1"><g transform="translate(160.410174, 23.101444)"><g></g></g></g><g fill="#ffffff" fill-opacity="1"><g transform="translate(173.936324, 23.101444)"><g></g></g></g><g fill="#ffffff" fill-opacity="1"><g transform="translate(185.348998, 23.101444)"><g></g></g></g><g fill="#ffffff" fill-opacity="1"><g transform="translate(200.343442, 23.101444)"><g></g></g></g><g fill="#ffffff" fill-opacity="1"><g transform="translate(212.379063, 23.101444)"><g></g></g></g><g fill="#ffffff" fill-opacity="1"><g transform="translate(225.438017, 23.101444)"><g></g></g></g><g fill="#ffffff" fill-opacity="1"><g transform="translate(230.91077, 23.101444)"><g></g></g></g><g fill="#ffffff" fill-opacity="1"><g transform="translate(242.946372, 23.101444)"><g></g></g></g><g fill="#ffffff" fill-opacity="1"><g transform="translate(254.359065, 23.101444)"><g></g></g></g><g fill="#ffffff" fill-opacity="1"><g transform="translate(259.030913, 23.101444)"><g></g></g></g><g fill="#ffffff" fill-opacity="1"><g transform="translate(276.205568, 23.101444)"><g></g></g></g><g fill="#ffffff" fill-opacity="1"><g transform="translate(293.691649, 23.101444)"><g></g></g></g></g></g><g transform="matrix(1, 0, 0, 1, 535, 821)"><g clip-path="url(#af6e8c39fd)"><g fill="#ffffff" fill-opacity="1"><g transform="translate(0.682645, 22.852485)"><g></g></g></g><g fill="#ffffff" fill-opacity="1"><g transform="translate(14.320028, 22.852485)"><g></g></g></g><g fill="#ffffff" fill-opacity="1"><g transform="translate(29.314472, 22.852485)"><g></g></g></g><g fill="#ffffff" fill-opacity="1"><g transform="translate(41.350074, 22.852485)"><g></g></g></g><g fill="#ffffff" fill-opacity="1"><g transform="translate(56.744962, 22.852485)"><g></g></g></g><g fill="#ffffff" fill-opacity="1"><g transform="translate(70.271112, 22.852485)"><g></g></g></g><g fill="#ffffff" fill-opacity="1"><g transform="translate(87.757213, 22.852485)"><g></g></g></g><g fill="#ffffff" fill-opacity="1"><g transform="translate(105.243314, 22.852485)"><g></g></g></g><g fill="#ffffff" fill-opacity="1"><g transform="translate(124.39794, 22.852485)"><g></g></g></g></g></g><g transform="matrix(1, 0, 0, 1, 166, 821)"><g clip-path="url(#2e87a28a88)"><g fill="#ffffff" fill-opacity="1"><g transform="translate(0.308892, 22.852485)"><g></g></g></g><g fill="#ffffff" fill-opacity="1"><g transform="translate(14.279974, 22.852485)"><g></g></g></g><g fill="#ffffff" fill-opacity="1"><g transform="translate(28.251057, 22.852485)"><g></g></g></g><g fill="#ffffff" fill-opacity="1"><g transform="translate(42.22214, 22.852485)"><g/></g></g><g fill="#ffffff" fill-opacity="1"><g transform="translate(48.16208, 22.852485)"><g></g></g></g><g fill="#ffffff" fill-opacity="1"><g transform="translate(67.316706, 22.852485)"><g></g></g></g></g></g><g fill="#ffffff" fill-opacity="1"><g transform="translate(81.989365, 216.604934)"><g></g></g></g><g fill="#ffffff" fill-opacity="1"><g transform="translate(94.041755, 216.604934)"><g></g></g></g><g fill="#ffffff" fill-opacity="1"><g transform="translate(109.458109, 216.604934)"><g></g></g></g><g fill="#ffffff" fill-opacity="1"><g transform="translate(114.938496, 216.604934)"><g></g></g></g><g fill="#ffffff" fill-opacity="1"><g transform="translate(128.015666, 216.604934)"><g/></g></g><g fill="#ffffff" fill-opacity="1"><g transform="translate(133.963885, 216.604934)"><g></g></g></g><g fill="#ffffff" fill-opacity="1"><g transform="translate(147.620287, 216.604934)"><g></g></g></g><g fill="#ffffff" fill-opacity="1"><g transform="translate(161.165302, 216.604934)"><g></g></g></g><g fill="#ffffff" fill-opacity="1"><g transform="translate(176.180659, 216.604934)"><g></g></g></g><g fill="#ffffff" fill-opacity="1"><g transform="translate(191.842072, 216.604934)"><g></g></g></g><g fill="#ffffff" fill-opacity="1"><g transform="translate(207.592601, 216.604934)"><g></g></g></g><g fill="#ffffff" fill-opacity="1"><g transform="translate(219.867766, 216.604934)"><g></g></g></g><g fill="#ffffff" fill-opacity="1"><g transform="translate(235.529178, 216.604934)"><g></g></g></g><g fill="#ffffff" fill-opacity="1"><g transform="translate(246.957783, 216.604934)"><g></g></g></g><g fill="#ffffff" fill-opacity="1"><g transform="translate(268.701084, 216.604934)"><g></g></g></g><g fill="#ffffff" fill-opacity="1"><g transform="translate(273.112125, 216.604934)"><g/></g></g><g fill="#ffffff" fill-opacity="1"><g transform="translate(279.060344, 216.604934)"><g></g></g></g><g fill="#ffffff" fill-opacity="1"><g transform="translate(288.684443, 216.604934)"><g></g></g></g><g fill="#ffffff" fill-opacity="1"><g transform="translate(303.72206, 216.604934)"><g></g></g></g><g fill="#ffffff" fill-opacity="1"><g transform="translate(317.556673, 216.604934)"><g></g></g></g><g fill="#ffffff" fill-opacity="1"><g transform="translate(332.594313, 216.604934)"><g></g></g></g><g fill="#ffffff" fill-opacity="1"><g transform="translate(346.139327, 216.604934)"><g></g></g></g><g fill="#ffffff" fill-opacity="1"><g transform="translate(359.149663, 216.604934)"><g/></g></g><g fill="#ffffff" fill-opacity="1"><g transform="translate(365.097882, 216.604934)"><g></g></g></g><g fill="#ffffff" fill-opacity="1"><g transform="translate(380.157804, 216.604934)"><g></g></g></g><g fill="#ffffff" fill-opacity="1"><g transform="translate(385.63819, 216.604934)"><g></g></g></g><g fill="#ffffff" fill-opacity="1"><g transform="translate(395.262267, 216.604934)"><g></g></g></g><g fill="#ffffff" fill-opacity="1"><g transform="translate(404.886343, 216.604934)"><g></g></g></g><g fill="#ffffff" fill-opacity="1"><g transform="translate(419.901724, 216.604934)"><g/></g></g><g fill="#ffffff" fill-opacity="1"><g transform="translate(425.849943, 216.604934)"><g></g></g></g><g fill="#ffffff" fill-opacity="1"><g transform="translate(431.330329, 216.604934)"><g></g></g></g><g fill="#ffffff" fill-opacity="1"><g transform="translate(444.407489, 216.604934)"><g/></g></g><g fill="#ffffff" fill-opacity="1"><g transform="translate(450.355707, 216.604934)"><g></g></g></g><g fill="#ffffff" fill-opacity="1"><g transform="translate(466.017131, 216.604934)"><g></g></g></g><g fill="#ffffff" fill-opacity="1"><g transform="translate(483.527602, 216.604934)"><g></g></g></g><g fill="#ffffff" fill-opacity="1"><g transform="translate(505.270937, 216.604934)"><g/></g></g><g fill="#ffffff" fill-opacity="1"><g transform="translate(511.219111, 216.604934)"><g></g></g></g><g fill="#ffffff" fill-opacity="1"><g transform="translate(526.234491, 216.604934)"><g></g></g></g><g fill="#ffffff" fill-opacity="1"><g transform="translate(541.294391, 216.604934)"><g></g></g></g><g fill="#ffffff" fill-opacity="1"><g transform="translate(556.309772, 216.604934)"><g></g></g></g><g fill="#ffffff" fill-opacity="1"><g transform="translate(561.790158, 216.604934)"><g></g></g></g><g fill="#ffffff" fill-opacity="1"><g transform="translate(571.414235, 216.604934)"><g></g></g></g><g fill="#ffffff" fill-opacity="1"><g transform="translate(586.429616, 216.604934)"><g></g></g></g><g fill="#ffffff" fill-opacity="1"><g transform="translate(600.086017, 216.604934)"><g></g></g></g><g fill="#ffffff" fill-opacity="1"><g transform="translate(609.710094, 216.604934)"><g></g></g></g><g fill="#ffffff" fill-opacity="1"><g transform="translate(621.138699, 216.604934)"><g/></g></g><g fill="#ffffff" fill-opacity="1"><g transform="translate(627.086918, 216.604934)"><g></g></g></g><g fill="#ffffff" fill-opacity="1"><g transform="translate(638.31503, 216.604934)"><g></g></g></g><g fill="#ffffff" fill-opacity="1"><g transform="translate(655.825502, 216.604934)"><g></g></g></g><g fill="#ffffff" fill-opacity="1"><g transform="translate(669.370493, 216.604934)"><g/></g></g><g fill="#ffffff" fill-opacity="1"><g transform="translate(675.318758, 216.604934)"><g></g></g></g><g fill="#ffffff" fill-opacity="1"><g transform="translate(688.86375, 216.604934)"><g></g></g></g><g fill="#ffffff" fill-opacity="1"><g transform="translate(700.292355, 216.604934)"><g></g></g></g><g fill="#ffffff" fill-opacity="1"><g transform="translate(715.953779, 216.604934)"><g></g></g></g><g fill="#ffffff" fill-opacity="1"><g transform="translate(135.107661, 240.593086)"><g></g></g></g><g fill="#ffffff" fill-opacity="1"><g transform="translate(150.123019, 240.593086)"><g></g></g></g><g fill="#ffffff" fill-opacity="1"><g transform="translate(165.784432, 240.593086)"><g></g></g></g><g fill="#ffffff" fill-opacity="1"><g transform="translate(181.534961, 240.593086)"><g/></g></g><g fill="#ffffff" fill-opacity="1"><g transform="translate(187.48318, 240.593086)"><g></g></g></g><g fill="#ffffff" fill-opacity="1"><g transform="translate(204.993674, 240.593086)"><g></g></g></g><g fill="#ffffff" fill-opacity="1"><g transform="translate(216.221774, 240.593086)"><g></g></g></g><g fill="#ffffff" fill-opacity="1"><g transform="translate(227.449875, 240.593086)"><g></g></g></g><g fill="#ffffff" fill-opacity="1"><g transform="translate(238.878481, 240.593086)"><g></g></g></g><g fill="#ffffff" fill-opacity="1"><g transform="translate(252.423495, 240.593086)"><g></g></g></g><g fill="#ffffff" fill-opacity="1"><g transform="translate(265.500665, 240.593086)"><g/></g></g><g fill="#ffffff" fill-opacity="1"><g transform="translate(271.448884, 240.593086)"><g></g></g></g><g fill="#ffffff" fill-opacity="1"><g transform="translate(282.877489, 240.593086)"><g></g></g></g><g fill="#ffffff" fill-opacity="1"><g transform="translate(297.9374, 240.593086)"><g></g></g></g><g fill="#ffffff" fill-opacity="1"><g transform="translate(309.366005, 240.593086)"><g></g></g></g><g fill="#ffffff" fill-opacity="1"><g transform="translate(322.91102, 240.593086)"><g></g></g></g><g fill="#ffffff" fill-opacity="1"><g transform="translate(335.921367, 240.593086)"><g></g></g></g><g fill="#ffffff" fill-opacity="1"><g transform="translate(347.973734, 240.593086)"><g></g></g></g><g fill="#ffffff" fill-opacity="1"><g transform="translate(363.390101, 240.593086)"><g></g></g></g><g fill="#ffffff" fill-opacity="1"><g transform="translate(368.870487, 240.593086)"><g></g></g></g><g fill="#ffffff" fill-opacity="1"><g transform="translate(384.531911, 240.593086)"><g></g></g></g><g fill="#ffffff" fill-opacity="1"><g transform="translate(401.864171, 240.593086)"><g/></g></g><g fill="#ffffff" fill-opacity="1"><g transform="translate(407.81239, 240.593086)"><g></g></g></g><g fill="#ffffff" fill-opacity="1"><g transform="translate(420.822703, 240.593086)"><g></g></g></g><g fill="#ffffff" fill-opacity="1"><g transform="translate(438.33322, 240.593086)"><g></g></g></g><g fill="#ffffff" fill-opacity="1"><g transform="translate(453.370837, 240.593086)"><g/></g></g><g fill="#ffffff" fill-opacity="1"><g transform="translate(459.319056, 240.593086)"><g></g></g></g><g fill="#ffffff" fill-opacity="1"><g transform="translate(474.98048, 240.593086)"><g></g></g></g><g fill="#ffffff" fill-opacity="1"><g transform="translate(486.409085, 240.593086)"><g></g></g></g><g fill="#ffffff" fill-opacity="1"><g transform="translate(497.83769, 240.593086)"><g></g></g></g><g fill="#ffffff" fill-opacity="1"><g transform="translate(513.588197, 240.593086)"><g/></g></g><g fill="#ffffff" fill-opacity="1"><g transform="translate(519.536415, 240.593086)"><g></g></g></g><g fill="#ffffff" fill-opacity="1"><g transform="translate(530.764528, 240.593086)"><g></g></g></g><g fill="#ffffff" fill-opacity="1"><g transform="translate(548.274999, 240.593086)"><g></g></g></g><g fill="#ffffff" fill-opacity="1"><g transform="translate(561.820036, 240.593086)"><g/></g></g><g fill="#ffffff" fill-opacity="1"><g transform="translate(567.768255, 240.593086)"><g></g></g></g><g fill="#ffffff" fill-opacity="1"><g transform="translate(582.78359, 240.593086)"><g/></g></g><g fill="#ffffff" fill-opacity="1"><g transform="translate(588.731854, 240.593086)"><g></g></g></g><g fill="#ffffff" fill-opacity="1"><g transform="translate(601.809013, 240.593086)"><g></g></g></g><g fill="#ffffff" fill-opacity="1"><g transform="translate(613.86138, 240.593086)"><g></g></g></g><g fill="#ffffff" fill-opacity="1"><g transform="translate(626.871739, 240.593086)"><g></g></g></g><g fill="#ffffff" fill-opacity="1"><g transform="translate(636.495815, 240.593086)"><g></g></g></g><g fill="#ffffff" fill-opacity="1"><g transform="translate(641.976202, 240.593086)"><g></g></g></g><g fill="#ffffff" fill-opacity="1"><g transform="translate(655.053361, 240.593086)"><g></g></g></g><g fill="#ffffff" fill-opacity="1"><g transform="translate(670.469728, 240.593086)"><g></g></g></g><g fill="#ffffff" fill-opacity="1"><g transform="translate(172.284612, 264.581238)"><g></g></g></g><g fill="#ffffff" fill-opacity="1"><g transform="translate(189.483214, 264.581238)"><g></g></g></g><g fill="#ffffff" fill-opacity="1"><g transform="translate(206.993708, 264.581238)"><g></g></g></g><g fill="#ffffff" fill-opacity="1"><g transform="translate(226.175049, 264.581238)"><g></g></g></g><g fill="#ffffff" fill-opacity="1"><g transform="translate(237.40315, 264.581238)"><g></g></g></g><g fill="#ffffff" fill-opacity="1"><g transform="translate(254.913643, 264.581238)"><g></g></g></g><g fill="#ffffff" fill-opacity="1"><g transform="translate(268.458658, 264.581238)"><g></g></g></g><g fill="#ffffff" fill-opacity="1"><g transform="translate(280.511047, 264.581238)"><g></g></g></g><g fill="#ffffff" fill-opacity="1"><g transform="translate(295.526405, 264.581238)"><g></g></g></g><g fill="#ffffff" fill-opacity="1"><g transform="translate(309.182807, 264.581238)"><g></g></g></g><g fill="#ffffff" fill-opacity="1"><g transform="translate(318.806895, 264.581238)"><g></g></g></g><g fill="#ffffff" fill-opacity="1"><g transform="translate(330.2355, 264.581238)"><g></g></g></g><g fill="#ffffff" fill-opacity="1"><g transform="translate(334.646541, 264.581238)"><g/></g></g><g fill="#ffffff" fill-opacity="1"><g transform="translate(340.59476, 264.581238)"><g></g></g></g><g fill="#ffffff" fill-opacity="1"><g transform="translate(355.610117, 264.581238)"><g></g></g></g><g fill="#ffffff" fill-opacity="1"><g transform="translate(371.27153, 264.581238)"><g></g></g></g><g fill="#ffffff" fill-opacity="1"><g transform="translate(387.022059, 264.581238)"><g/></g></g><g fill="#ffffff" fill-opacity="1"><g transform="translate(392.970278, 264.581238)"><g></g></g></g><g fill="#ffffff" fill-opacity="1"><g transform="translate(410.168891, 264.581238)"><g></g></g></g><g fill="#ffffff" fill-opacity="1"><g transform="translate(427.679362, 264.581238)"><g></g></g></g><g fill="#ffffff" fill-opacity="1"><g transform="translate(443.340786, 264.581238)"><g></g></g></g><g fill="#ffffff" fill-opacity="1"><g transform="translate(458.400685, 264.581238)"><g></g></g></g><g fill="#ffffff" fill-opacity="1"><g transform="translate(469.829291, 264.581238)"><g></g></g></g><g fill="#ffffff" fill-opacity="1"><g transform="translate(485.490715, 264.581238)"><g></g></g></g><g fill="#ffffff" fill-opacity="1"><g transform="translate(490.971101, 264.581238)"><g></g></g></g><g fill="#ffffff" fill-opacity="1"><g transform="translate(502.399706, 264.581238)"><g></g></g></g><g fill="#ffffff" fill-opacity="1"><g transform="translate(518.06113, 264.581238)"><g></g></g></g><g fill="#ffffff" fill-opacity="1"><g transform="translate(530.113497, 264.581238)"><g/></g></g><g fill="#ffffff" fill-opacity="1"><g transform="translate(536.061715, 264.581238)"><g></g></g></g><g fill="#ffffff" fill-opacity="1"><g transform="translate(545.685815, 264.581238)"><g></g></g></g><g fill="#ffffff" fill-opacity="1"><g transform="translate(551.166202, 264.581238)"><g></g></g></g><g fill="#ffffff" fill-opacity="1"><g transform="translate(562.394291, 264.581238)"><g></g></g></g><g fill="#ffffff" fill-opacity="1"><g transform="translate(573.822896, 264.581238)"><g></g></g></g><g fill="#ffffff" fill-opacity="1"><g transform="translate(586.900055, 264.581238)"><g></g></g></g><g fill="#ffffff" fill-opacity="1"><g transform="translate(598.952468, 264.581238)"><g></g></g></g><g fill="#ffffff" fill-opacity="1"><g transform="translate(611.962781, 264.581238)"><g></g></g></g><g fill="#ffffff" fill-opacity="1"><g transform="translate(621.586903, 264.581238)"><g></g></g></g><g fill="#ffffff" fill-opacity="1"><g transform="translate(633.015509, 264.581238)"><g></g></g></g></svg>