<svg xmlns="http://www.w3.org/2000/svg" xmlns:xlink="http://www.w3.org/1999/xlink" width="1080" zoomAndPan="magnify" viewBox="0 0 810 1012.49997" height="1350" preserveAspectRatio="xMidYMid meet" version="1.0"><defs><g/><clipPath id="5e94d9c51c"><path d="M 0.199219 0 L 809.800781 0 L 809.800781 1012 L 0.199219 1012 Z M 0.199219 0 " clip-rule="nonzero"/></clipPath><clipPath id="b9d55f41cc"><path d="M 34.09375 209.964844 L 779 209.964844 L 779 802.300781 L 34.09375 802.300781 Z M 34.09375 209.964844 " clip-rule="nonzero"/></clipPath><clipPath id="18ba317438"><path d="M 44.589844 209.964844 L 768.265625 209.964844 C 771.050781 209.964844 773.71875 211.070312 775.6875 213.039062 C 777.65625 215.007812 778.761719 217.675781 778.761719 220.460938 L 778.761719 791.804688 C 778.761719 794.589844 777.65625 797.257812 775.6875 799.226562 C 773.71875 801.195312 771.050781 802.300781 768.265625 802.300781 L 44.589844 802.300781 C 41.804688 802.300781 39.136719 801.195312 37.167969 799.226562 C 35.199219 797.257812 34.09375 794.589844 34.09375 791.804688 L 34.09375 220.460938 C 34.09375 217.675781 35.199219 215.007812 37.167969 213.039062 C 39.136719 211.070312 41.804688 209.964844 44.589844 209.964844 Z M 44.589844 209.964844 " clip-rule="nonzero"/></clipPath><clipPath id="2e5f6df11c"><path d="M 0.09375 0.964844 L 744.855469 0.964844 L 744.855469 593.300781 L 0.09375 593.300781 Z M 0.09375 0.964844 " clip-rule="nonzero"/></clipPath><clipPath id="2620afe640"><path d="M 10.589844 0.964844 L 734.265625 0.964844 C 737.050781 0.964844 739.71875 2.070312 741.6875 4.039062 C 743.65625 6.007812 744.761719 8.675781 744.761719 11.460938 L 744.761719 582.804688 C 744.761719 585.589844 743.65625 588.257812 741.6875 590.226562 C 739.71875 592.195312 737.050781 593.300781 734.265625 593.300781 L 10.589844 593.300781 C 7.804688 593.300781 5.136719 592.195312 3.167969 590.226562 C 1.199219 588.257812 0.09375 585.589844 0.09375 582.804688 L 0.09375 11.460938 C 0.09375 8.675781 1.199219 6.007812 3.167969 4.039062 C 5.136719 2.070312 7.804688 0.964844 10.589844 0.964844 Z M 10.589844 0.964844 " clip-rule="nonzero"/></clipPath><clipPath id="42d2995739"><rect x="0" width="745" y="0" height="594"/></clipPath><clipPath id="f20441ae46"><path d="M 488.925781 32.785156 L 624.394531 32.785156 L 624.394531 181.488281 L 488.925781 181.488281 Z M 488.925781 32.785156 " clip-rule="nonzero"/></clipPath><clipPath id="798eefa2eb"><path d="M 497.171875 32.785156 L 616.148438 32.785156 C 620.703125 32.785156 624.394531 36.476562 624.394531 41.03125 L 624.394531 172.773438 C 624.394531 177.328125 620.703125 181.019531 616.148438 181.019531 L 497.171875 181.019531 C 492.617188 181.019531 488.925781 177.328125 488.925781 172.773438 L 488.925781 41.03125 C 488.925781 36.476562 492.617188 32.785156 497.171875 32.785156 Z M 497.171875 32.785156 " clip-rule="nonzero"/></clipPath><clipPath id="ace4d07f84"><path d="M 0.925781 0.785156 L 136.394531 0.785156 L 136.394531 148.957031 L 0.925781 148.957031 Z M 0.925781 0.785156 " clip-rule="nonzero"/></clipPath><clipPath id="616a29eecd"><path d="M 9.171875 0.785156 L 128.148438 0.785156 C 132.703125 0.785156 136.394531 4.476562 136.394531 9.03125 L 136.394531 140.773438 C 136.394531 145.328125 132.703125 149.019531 128.148438 149.019531 L 9.171875 149.019531 C 4.617188 149.019531 0.925781 145.328125 0.925781 140.773438 L 0.925781 9.03125 C 0.925781 4.476562 4.617188 0.785156 9.171875 0.785156 Z M 9.171875 0.785156 " clip-rule="nonzero"/></clipPath><clipPath id="9eb8759c5a"><rect x="0" width="137" y="0" height="150"/></clipPath><clipPath id="4bbb3a7aef"><path d="M 334.714844 32.785156 L 470.183594 32.785156 L 470.183594 181.488281 L 334.714844 181.488281 Z M 334.714844 32.785156 " clip-rule="nonzero"/></clipPath><clipPath id="529b8e3d8d"><path d="M 342.960938 32.785156 L 461.9375 32.785156 C 466.492188 32.785156 470.183594 36.476562 470.183594 41.03125 L 470.183594 172.773438 C 470.183594 177.328125 466.492188 181.019531 461.9375 181.019531 L 342.960938 181.019531 C 338.40625 181.019531 334.714844 177.328125 334.714844 172.773438 L 334.714844 41.03125 C 334.714844 36.476562 338.40625 32.785156 342.960938 32.785156 Z M 342.960938 32.785156 " clip-rule="nonzero"/></clipPath><clipPath id="672fdfe50b"><path d="M 0.714844 1 L 136.183594 1 L 136.183594 148.957031 L 0.714844 148.957031 Z M 0.714844 1 " clip-rule="nonzero"/></clipPath><clipPath id="9c4ac42e2f"><path d="M 8.960938 0.785156 L 127.9375 0.785156 C 132.492188 0.785156 136.183594 4.476562 136.183594 9.03125 L 136.183594 140.773438 C 136.183594 145.328125 132.492188 149.019531 127.9375 149.019531 L 8.960938 149.019531 C 4.40625 149.019531 0.714844 145.328125 0.714844 140.773438 L 0.714844 9.03125 C 0.714844 4.476562 4.40625 0.785156 8.960938 0.785156 Z M 8.960938 0.785156 " clip-rule="nonzero"/></clipPath><clipPath id="6186c2d10c"><rect x="0" width="137" y="0" height="150"/></clipPath><clipPath id="75a6515374"><path d="M 643.289062 32.785156 L 778.761719 32.785156 L 778.761719 181.488281 L 643.289062 181.488281 Z M 643.289062 32.785156 " clip-rule="nonzero"/></clipPath><clipPath id="973cd1e2a2"><path d="M 651.535156 32.785156 L 770.515625 32.785156 C 775.070312 32.785156 778.761719 36.476562 778.761719 41.03125 L 778.761719 172.773438 C 778.761719 177.328125 775.070312 181.019531 770.515625 181.019531 L 651.535156 181.019531 C 646.984375 181.019531 643.289062 177.328125 643.289062 172.773438 L 643.289062 41.03125 C 643.289062 36.476562 646.984375 32.785156 651.535156 32.785156 Z M 651.535156 32.785156 " clip-rule="nonzero"/></clipPath><clipPath id="224d742f73"><path d="M 0.289062 1 L 135.761719 1 L 135.761719 148.957031 L 0.289062 148.957031 Z M 0.289062 1 " clip-rule="nonzero"/></clipPath><clipPath id="469024eaf7"><path d="M 8.535156 0.785156 L 127.515625 0.785156 C 132.070312 0.785156 135.761719 4.476562 135.761719 9.03125 L 135.761719 140.773438 C 135.761719 145.328125 132.070312 149.019531 127.515625 149.019531 L 8.535156 149.019531 C 3.984375 149.019531 0.289062 145.328125 0.289062 140.773438 L 0.289062 9.03125 C 0.289062 4.476562 3.984375 0.785156 8.535156 0.785156 Z M 8.535156 0.785156 " clip-rule="nonzero"/></clipPath><clipPath id="2cc2d13345"><rect x="0" width="136" y="0" height="150"/></clipPath><clipPath id="25b8bf2287"><path d="M 127 377 L 141 377 L 141 396.503906 L 127 396.503906 Z M 127 377 " clip-rule="nonzero"/></clipPath><clipPath id="ccfd319caf"><path d="M 61.6875 308 L 81 308 L 81 323 L 61.6875 323 Z M 61.6875 308 " clip-rule="nonzero"/></clipPath><clipPath id="30268ae829"><path d="M 135 242.832031 L 150 242.832031 L 150 262 L 135 262 Z M 135 242.832031 " clip-rule="nonzero"/></clipPath><clipPath id="f3f256a6f3"><path d="M 196 316 L 215.363281 316 L 215.363281 331 L 196 331 Z M 196 316 " clip-rule="nonzero"/></clipPath><clipPath id="432aa55a70"><path d="M 334.714844 731.738281 L 759.8125 731.738281 L 759.8125 784.261719 L 334.714844 784.261719 Z M 334.714844 731.738281 " clip-rule="nonzero"/></clipPath><clipPath id="5b174efd3d"><path d="M 343.710938 731.738281 L 750.761719 731.738281 C 755.730469 731.738281 759.757812 735.765625 759.757812 740.734375 L 759.757812 775.265625 C 759.757812 780.234375 755.730469 784.261719 750.761719 784.261719 L 343.710938 784.261719 C 338.742188 784.261719 334.714844 780.234375 334.714844 775.265625 L 334.714844 740.734375 C 334.714844 735.765625 338.742188 731.738281 343.710938 731.738281 Z M 343.710938 731.738281 " clip-rule="nonzero"/></clipPath><clipPath id="58ab6d157a"><path d="M 0.714844 0.738281 L 425.8125 0.738281 L 425.8125 53.261719 L 0.714844 53.261719 Z M 0.714844 0.738281 " clip-rule="nonzero"/></clipPath><clipPath id="6a4b93a97f"><path d="M 9.710938 0.738281 L 416.761719 0.738281 C 421.730469 0.738281 425.757812 4.765625 425.757812 9.734375 L 425.757812 44.265625 C 425.757812 49.234375 421.730469 53.261719 416.761719 53.261719 L 9.710938 53.261719 C 4.742188 53.261719 0.714844 49.234375 0.714844 44.265625 L 0.714844 9.734375 C 0.714844 4.765625 4.742188 0.738281 9.710938 0.738281 Z M 9.710938 0.738281 " clip-rule="nonzero"/></clipPath><clipPath id="36c9aacbd8"><rect x="0" width="426" y="0" height="54"/></clipPath></defs><g clip-path="url(#5e94d9c51c)"><path fill="#ffffff" d="M 0.199219 0 L 809.800781 0 L 809.800781 1012 L 0.199219 1012 Z M 0.199219 0 " fill-opacity="1" fill-rule="nonzero"/><path fill="#f6f1ea" d="M 0.199219 0 L 809.800781 0 L 809.800781 1012 L 0.199219 1012 Z M 0.199219 0 " fill-opacity="1" fill-rule="nonzero"/></g><g clip-path="url(#b9d55f41cc)"><g clip-path="url(#18ba317438)"><g transform="matrix(1, 0, 0, 1, 34, 209)"><g clip-path="url(#42d2995739)"><g clip-path="url(#2e5f6df11c)"><g clip-path="url(#2620afe640)"><g transform="matrix(0.272312, 0, 0, 0.272101, 0.0932918, -146.539793)"><image x="0" y="0" width="2736" xlink:href="@@PHOTO0@@" height="3648" preserveAspectRatio="xMidYMid meet"/></g></g></g></g></g></g></g><g fill="#7ea6ad" fill-opacity="1"><g transform="translate(34.093292, 176.99894)"><g><path d="M 6.296875 0 L 6.296875 -142.171875 L 35.578125 -142.171875 L 48.65625 -74.15625 L 48.65625 -142.171875 L 76.140625 -142.171875 L 76.140625 0 L 48.328125 0 L 34.09375 -71.171875 L 34.09375 0 Z M 6.296875 0 "/></g></g></g><g fill="#7ea6ad" fill-opacity="1"><g transform="translate(116.520195, 176.99894)"><g><path d="M 6.296875 0 L 6.296875 -142.171875 L 63.234375 -142.171875 L 63.234375 -114.703125 L 35.25 -114.703125 L 35.25 -87.0625 L 62.0625 -87.0625 L 62.0625 -60.25 L 35.25 -60.25 L 35.25 -27.640625 L 65.046875 -27.640625 L 65.046875 0 Z M 6.296875 0 "/></g></g></g><g fill="#7ea6ad" fill-opacity="1"><g transform="translate(184.712734, 176.99894)"><g><path d="M 17.375 0 L 2.15625 -142.171875 L 29.953125 -142.171875 L 37.90625 -52.46875 L 45.84375 -142.171875 L 72.328125 -142.171875 L 79.9375 -52.46875 L 87.5625 -142.171875 L 115.703125 -142.171875 L 100.140625 0 L 66.046875 0 L 58.921875 -68.53125 L 52.140625 0 Z M 17.375 0 "/></g></g></g><g clip-path="url(#f20441ae46)"><g clip-path="url(#798eefa2eb)"><g transform="matrix(1, 0, 0, 1, 488, 32)"><g clip-path="url(#9eb8759c5a)"><g clip-path="url(#ace4d07f84)"><g clip-path="url(#616a29eecd)"><g transform="matrix(0.101647, 0, 0, 0.101537, -42.515646, -13.647365)"><image x="0" y="0" width="2400" xlink:href="@@PHOTO1@@" height="1600" preserveAspectRatio="xMidYMid meet"/></g></g></g></g></g></g></g><g clip-path="url(#4bbb3a7aef)"><g clip-path="url(#529b8e3d8d)"><g transform="matrix(1, 0, 0, 1, 334, 32)"><g clip-path="url(#6186c2d10c)"><g clip-path="url(#672fdfe50b)"><g clip-path="url(#9c4ac42e2f)"><g transform="matrix(0.118, 0, 0, 0.118072, -57.190834, 0.786316)"><image x="0" y="0" width="2036" xlink:href="@@PHOTO2@@" height="1358" preserveAspectRatio="xMidYMid meet"/></g></g></g></g></g></g></g><g clip-path="url(#75a6515374)"><g clip-path="url(#973cd1e2a2)"><g transform="matrix(1, 0, 0, 1, 643, 32)"><g clip-path="url(#2cc2d13345)"><g clip-path="url(#224d742f73)"><g clip-path="url(#469024eaf7)"><g transform="matrix(0.105685, 0, 0, 0.105685, -43.048608, 0.786316)"><image x="0" y="0" width="2103" xlink:href="@@PHOTO3@@" height="1402" preserveAspectRatio="xMidYMid meet"/></g></g></g></g></g></g></g><path fill="#faefe0" d="M 186.996094 364.488281 C 185.300781 363.105469 185.117188 360.980469 186.503906 359.285156 C 187.886719 357.59375 190.011719 357.378906 191.703125 358.792969 C 193.398438 360.210938 193.582031 362.335938 192.199219 363.964844 C 190.8125 365.597656 188.6875 365.875 186.996094 364.488281 Z M 186.996094 364.488281 " fill-opacity="1" fill-rule="nonzero"/><path fill="#faefe0" d="M 170.617188 387.976562 L 170.15625 383.359375 C 172.34375 383.296875 175.113281 382.742188 176.4375 381.945312 C 177.207031 381.453125 177.542969 380.867188 177.207031 380.28125 C 175.820312 378.003906 168.464844 384.3125 165.046875 378.679688 C 163.015625 375.355469 164.984375 371.96875 168.492188 369.84375 C 171.140625 368.214844 174.621094 367.414062 177.511719 367.753906 L 177.945312 372.339844 C 175.480469 371.9375 172.25 372.523438 170.648438 373.476562 C 169.664062 374.09375 169.261719 374.800781 169.695312 375.511719 C 171.109375 377.878906 178.375 371.414062 181.730469 376.925781 C 183.578125 379.941406 182.160156 383.421875 178.253906 385.792969 C 175.882812 387.238281 172.988281 388.039062 170.617188 387.976562 Z M 170.617188 387.976562 " fill-opacity="1" fill-rule="nonzero"/><path fill="#faefe0" d="M 156.425781 378.617188 L 156.828125 375.511719 L 162.277344 374.246094 L 158.859375 393.855469 L 153.410156 395.148438 L 141.867188 379.050781 L 147.5 377.726562 L 149.222656 380.3125 Z M 155.042969 389.179688 L 155.871094 382.835938 L 151.53125 383.851562 Z M 155.042969 389.179688 " fill-opacity="1" fill-rule="nonzero"/><g clip-path="url(#25b8bf2287)"><path fill="#faefe0" d="M 127.242188 382.128906 L 127.550781 377.601562 L 140.632812 378.464844 L 139.402344 396.75 L 133.984375 396.382812 L 134.910156 382.652344 Z M 127.242188 382.128906 " fill-opacity="1" fill-rule="nonzero"/></g><path fill="#faefe0" d="M 115.882812 388.714844 L 116.867188 386.007812 L 108.742188 383.082031 L 110.15625 379.140625 L 118.285156 382.066406 L 119.269531 379.359375 L 110.066406 376.03125 L 111.480469 372.09375 L 125.796875 377.265625 L 119.578125 394.503906 L 105.511719 389.394531 L 106.925781 385.484375 Z M 115.882812 388.714844 " fill-opacity="1" fill-rule="nonzero"/><path fill="#faefe0" d="M 94.242188 368.398438 C 95.628906 366.675781 97.753906 366.460938 99.445312 367.84375 C 101.136719 369.230469 101.355469 371.355469 99.96875 373.046875 C 98.582031 374.742188 96.460938 374.925781 94.796875 373.570312 C 93.132812 372.214844 92.859375 370.0625 94.242188 368.398438 Z M 94.242188 368.398438 " fill-opacity="1" fill-rule="nonzero"/><path fill="#faefe0" d="M 70.664062 352.144531 L 75.28125 351.683594 C 75.371094 353.839844 75.925781 356.609375 76.757812 357.933594 C 77.21875 358.703125 77.804688 359.039062 78.390625 358.703125 C 80.667969 357.285156 74.292969 349.988281 79.929688 346.511719 C 83.253906 344.480469 86.640625 346.417969 88.792969 349.929688 C 90.425781 352.574219 91.257812 356.023438 90.949219 358.949219 L 86.363281 359.378906 C 86.730469 356.917969 86.148438 353.683594 85.160156 352.082031 C 84.546875 351.128906 83.835938 350.699219 83.128906 351.128906 C 80.757812 352.605469 87.285156 359.808594 81.773438 363.195312 C 78.789062 365.042969 75.28125 363.65625 72.878906 359.777344 C 71.433594 357.410156 70.632812 354.515625 70.664062 352.144531 Z M 70.664062 352.144531 " fill-opacity="1" fill-rule="nonzero"/><path fill="#faefe0" d="M 79.929688 337.890625 L 83.039062 338.261719 L 84.359375 343.710938 L 64.722656 340.417969 L 63.398438 334.96875 L 79.4375 323.332031 L 80.789062 328.964844 L 78.203125 330.6875 Z M 69.371094 336.566406 L 75.710938 337.335938 L 74.664062 333.027344 Z M 69.371094 336.566406 " fill-opacity="1" fill-rule="nonzero"/><g clip-path="url(#ccfd319caf)"><path fill="#faefe0" d="M 76.234375 308.738281 L 80.789062 309.015625 L 79.988281 322.097656 L 61.703125 320.992188 L 62.042969 315.574219 L 75.773438 316.40625 Z M 76.234375 308.738281 " fill-opacity="1" fill-rule="nonzero"/></g><path fill="#faefe0" d="M 69.617188 297.410156 L 72.324219 298.363281 L 75.1875 290.238281 L 79.128906 291.625 L 76.265625 299.78125 L 78.972656 300.734375 L 82.269531 291.5 L 86.207031 292.917969 L 81.097656 307.261719 L 63.859375 301.136719 L 68.847656 287.035156 L 72.785156 288.421875 Z M 69.617188 297.410156 " fill-opacity="1" fill-rule="nonzero"/><path fill="#faefe0" d="M 89.808594 275.648438 C 91.503906 277.03125 91.75 279.15625 90.363281 280.847656 C 88.980469 282.542969 86.886719 282.789062 85.160156 281.402344 C 83.4375 280.019531 83.253906 277.894531 84.609375 276.230469 C 85.960938 274.570312 88.117188 274.292969 89.808594 275.648438 Z M 89.808594 275.648438 " fill-opacity="1" fill-rule="nonzero"/><path fill="#faefe0" d="M 105.910156 251.972656 L 106.402344 256.589844 C 104.246094 256.683594 101.476562 257.269531 100.183594 258.070312 C 99.382812 258.5625 99.046875 259.144531 99.414062 259.730469 C 100.832031 262.007812 108.09375 255.605469 111.605469 261.207031 C 113.667969 264.503906 111.726562 267.890625 108.25 270.074219 C 105.601562 271.707031 102.15625 272.597656 99.230469 272.292969 L 98.769531 267.703125 C 101.230469 268.042969 104.464844 267.457031 106.0625 266.441406 C 107.019531 265.855469 107.449219 265.117188 106.988281 264.410156 C 105.539062 262.070312 98.335938 268.628906 94.921875 263.148438 C 93.042969 260.164062 94.425781 256.652344 98.304688 254.222656 C 100.675781 252.742188 103.539062 251.941406 105.910156 251.972656 Z M 105.910156 251.972656 " fill-opacity="1" fill-rule="nonzero"/><path fill="#faefe0" d="M 120.222656 261.148438 L 119.855469 264.257812 L 114.4375 265.609375 L 117.609375 245.941406 L 123.027344 244.585938 L 134.785156 260.5625 L 129.152344 261.949219 L 127.398438 259.363281 Z M 121.488281 250.589844 L 120.746094 256.929688 L 125.058594 255.851562 Z M 121.488281 250.589844 " fill-opacity="1" fill-rule="nonzero"/><g clip-path="url(#30268ae829)"><path fill="#faefe0" d="M 149.347656 257.300781 L 149.101562 261.855469 L 135.984375 261.117188 L 137 242.832031 L 142.417969 243.136719 L 141.679688 256.867188 Z M 149.347656 257.300781 " fill-opacity="1" fill-rule="nonzero"/></g><path fill="#faefe0" d="M 160.613281 250.589844 L 159.691406 253.296875 L 167.847656 256.160156 L 166.460938 260.101562 L 158.304688 257.269531 L 157.351562 260.007812 L 166.617188 263.210938 L 165.230469 267.148438 L 150.855469 262.164062 L 156.859375 244.863281 L 171.019531 249.789062 L 169.632812 253.726562 Z M 160.613281 250.589844 " fill-opacity="1" fill-rule="nonzero"/><path fill="#faefe0" d="M 182.53125 270.660156 C 181.144531 272.382812 179.023438 272.628906 177.296875 271.273438 C 175.574219 269.921875 175.359375 267.796875 176.742188 266.074219 C 178.128906 264.347656 180.222656 264.132812 181.914062 265.488281 C 183.609375 266.84375 183.855469 268.964844 182.53125 270.660156 Z M 182.53125 270.660156 " fill-opacity="1" fill-rule="nonzero"/><path fill="#faefe0" d="M 206.265625 286.605469 L 201.648438 287.160156 C 201.554688 284.972656 200.941406 282.234375 200.140625 280.910156 C 199.648438 280.140625 199.0625 279.800781 198.476562 280.171875 C 196.199219 281.617188 202.664062 288.820312 197.09375 292.363281 C 193.796875 294.457031 190.382812 292.515625 188.195312 289.066406 C 186.535156 286.421875 185.640625 282.972656 185.917969 280.078125 L 190.503906 279.585938 C 190.164062 282.019531 190.78125 285.25 191.796875 286.851562 C 192.414062 287.804688 193.121094 288.238281 193.828125 287.777344 C 196.167969 286.296875 189.582031 279.15625 195.03125 275.707031 C 198.015625 273.800781 201.523438 275.152344 203.957031 279.003906 C 205.464844 281.371094 206.296875 284.265625 206.265625 286.605469 Z M 206.265625 286.605469 " fill-opacity="1" fill-rule="nonzero"/><path fill="#faefe0" d="M 197.183594 300.980469 L 194.074219 300.644531 L 192.691406 295.226562 L 212.359375 298.273438 L 213.746094 303.691406 L 197.863281 315.542969 L 196.445312 309.910156 L 199 308.15625 Z M 207.742188 302.183594 L 201.402344 301.472656 L 202.511719 305.785156 Z M 207.742188 302.183594 " fill-opacity="1" fill-rule="nonzero"/><g clip-path="url(#f3f256a6f3)"><path fill="#faefe0" d="M 201.21875 330.101562 L 196.660156 329.855469 L 197.308594 316.773438 L 215.59375 317.667969 L 215.347656 323.117188 L 201.585938 322.4375 Z M 201.21875 330.101562 " fill-opacity="1" fill-rule="nonzero"/></g><path fill="#faefe0" d="M 207.988281 341.339844 L 205.28125 340.386719 L 202.480469 348.574219 L 198.507812 347.25 L 201.308594 339.0625 L 198.570312 338.105469 L 195.398438 347.375 L 191.457031 346.050781 L 196.351562 331.613281 L 213.683594 337.523438 L 208.851562 351.714844 L 204.910156 350.359375 Z M 207.988281 341.339844 " fill-opacity="1" fill-rule="nonzero"/><g fill="#7ea6ad" fill-opacity="1"><g transform="translate(294.616125, 967.950467)"><g/></g></g><g fill="#7ea6ad" fill-opacity="1"><g transform="translate(333.350904, 967.950467)"><g><path d="M 6.296875 0 L 6.296875 -142.171875 L 34.765625 -142.171875 L 34.765625 -24.171875 L 64.046875 -24.171875 L 64.046875 0 Z M 6.296875 0 "/></g></g></g><g fill="#7ea6ad" fill-opacity="1"><g transform="translate(399.060707, 967.950467)"><g><path d="M 4.96875 0 L 4.96875 -142.171875 L 32.4375 -142.171875 L 32.4375 0 Z M 4.96875 0 "/></g></g></g><g fill="#7ea6ad" fill-opacity="1"><g transform="translate(436.63281, 967.950467)"><g><path d="M 40.0625 1.328125 C 27.144531 1.328125 17.816406 -1.867188 12.078125 -8.265625 C 6.335938 -14.671875 3.46875 -24.992188 3.46875 -39.234375 L 3.46875 -53.125 L 31.453125 -53.125 L 31.453125 -35.421875 C 31.453125 -28.359375 33.710938 -24.828125 38.234375 -24.828125 C 40.773438 -24.828125 42.539062 -25.570312 43.53125 -27.0625 C 44.519531 -28.550781 45.015625 -31.0625 45.015625 -34.59375 C 45.015625 -39.226562 44.460938 -43.0625 43.359375 -46.09375 C 42.253906 -49.125 40.847656 -51.660156 39.140625 -53.703125 C 37.429688 -55.742188 34.367188 -58.921875 29.953125 -63.234375 L 17.703125 -75.46875 C 8.210938 -84.738281 3.46875 -95.003906 3.46875 -106.265625 C 3.46875 -118.398438 6.253906 -127.640625 11.828125 -133.984375 C 17.398438 -140.328125 25.539062 -143.5 36.25 -143.5 C 49.050781 -143.5 58.265625 -140.101562 63.890625 -133.3125 C 69.515625 -126.53125 72.328125 -115.914062 72.328125 -101.46875 L 43.359375 -101.46875 L 43.203125 -111.21875 C 43.203125 -113.101562 42.675781 -114.59375 41.625 -115.6875 C 40.582031 -116.789062 39.117188 -117.34375 37.234375 -117.34375 C 35.035156 -117.34375 33.382812 -116.734375 32.28125 -115.515625 C 31.175781 -114.304688 30.625 -112.65625 30.625 -110.5625 C 30.625 -105.925781 33.269531 -101.128906 38.5625 -96.171875 L 55.109375 -80.28125 C 58.972656 -76.519531 62.175781 -72.957031 64.71875 -69.59375 C 67.257812 -66.226562 69.300781 -62.253906 70.84375 -57.671875 C 72.382812 -53.097656 73.15625 -47.664062 73.15625 -41.375 C 73.15625 -27.363281 70.585938 -16.742188 65.453125 -9.515625 C 60.328125 -2.285156 51.863281 1.328125 40.0625 1.328125 Z M 40.0625 1.328125 "/></g></g></g><g fill="#7ea6ad" fill-opacity="1"><g transform="translate(512.935628, 967.950467)"><g><path d="M 18.53125 0 L 18.53125 -114.875 L 1.65625 -114.875 L 1.65625 -142.171875 L 63.890625 -142.171875 L 63.890625 -114.875 L 47 -114.875 L 47 0 Z M 18.53125 0 "/></g></g></g><g fill="#7ea6ad" fill-opacity="1"><g transform="translate(578.479927, 967.950467)"><g><path d="M 4.96875 0 L 4.96875 -142.171875 L 32.4375 -142.171875 L 32.4375 0 Z M 4.96875 0 "/></g></g></g><g fill="#7ea6ad" fill-opacity="1"><g transform="translate(616.052008, 967.950467)"><g><path d="M 6.296875 0 L 6.296875 -142.171875 L 35.578125 -142.171875 L 48.65625 -74.15625 L 48.65625 -142.171875 L 76.140625 -142.171875 L 76.140625 0 L 48.328125 0 L 34.09375 -71.171875 L 34.09375 0 Z M 6.296875 0 "/></g></g></g><g fill="#7ea6ad" fill-opacity="1"><g transform="translate(698.478933, 967.950467)"><g><path d="M 35.578125 1.328125 C 25.316406 1.328125 17.675781 -2.285156 12.65625 -9.515625 C 7.632812 -16.742188 5.125 -27.695312 5.125 -42.375 L 5.125 -103.609375 C 5.125 -116.742188 8.046875 -126.675781 13.890625 -133.40625 C 19.742188 -140.132812 28.46875 -143.5 40.0625 -143.5 C 49.4375 -143.5 56.71875 -141.625 61.90625 -137.875 C 67.09375 -134.125 70.675781 -128.660156 72.65625 -121.484375 C 74.644531 -114.316406 75.640625 -105.101562 75.640625 -93.84375 L 47.828125 -93.84375 L 47.828125 -106.59375 C 47.828125 -110.007812 47.359375 -112.65625 46.421875 -114.53125 C 45.484375 -116.40625 43.800781 -117.34375 41.375 -117.34375 C 35.96875 -117.34375 33.265625 -113.8125 33.265625 -106.75 L 33.265625 -37.90625 C 33.265625 -33.601562 33.816406 -30.347656 34.921875 -28.140625 C 36.023438 -25.929688 37.957031 -24.828125 40.71875 -24.828125 C 43.476562 -24.828125 45.410156 -25.929688 46.515625 -28.140625 C 47.617188 -30.347656 48.171875 -33.601562 48.171875 -37.90625 L 48.171875 -58.265625 L 40.546875 -58.265625 L 40.546875 -82.765625 L 75.3125 -82.765625 L 75.3125 0 L 63.890625 0 L 59.09375 -11.921875 C 54.007812 -3.085938 46.171875 1.328125 35.578125 1.328125 Z M 35.578125 1.328125 "/></g></g></g><g fill="#1b1a1a" fill-opacity="1"><g transform="translate(34.093292, 876.120821)"><g></g></g></g><g fill="#1b1a1a" fill-opacity="1"><g transform="translate(50.813069, 876.120821)"><g/></g></g><g fill="#1b1a1a" fill-opacity="1"><g transform="translate(58.760099, 876.120821)"><g></g></g></g><g fill="#1b1a1a" fill-opacity="1"><g transform="translate(83.683835, 876.120821)"><g></g></g></g><g fill="#1b1a1a" fill-opacity="1"><g transform="translate(98.988311, 876.120821)"><g></g></g></g><g fill="#1b1a1a" fill-opacity="1"><g transform="translate(115.252312, 876.120821)"><g></g></g></g><g fill="#1b1a1a" fill-opacity="1"><g transform="translate(130.053027, 876.120821)"><g></g></g></g><g fill="#1b1a1a" fill-opacity="1"><g transform="translate(139.264497, 876.120821)"><g></g></g></g><g fill="#1b1a1a" fill-opacity="1"><g transform="translate(154.832834, 876.120821)"><g/></g></g><g fill="#1b1a1a" fill-opacity="1"><g transform="translate(162.779864, 876.120821)"><g></g></g></g><g fill="#1b1a1a" fill-opacity="1"><g transform="translate(176.621054, 876.120821)"><g></g></g></g><g fill="#1b1a1a" fill-opacity="1"><g transform="translate(190.654147, 876.120821)"><g></g></g></g><g fill="#1b1a1a" fill-opacity="1"><g transform="translate(206.918148, 876.120821)"><g></g></g></g><g fill="#1b1a1a" fill-opacity="1"><g transform="translate(221.718863, 876.120821)"><g></g></g></g><g fill="#1b1a1a" fill-opacity="1"><g transform="translate(237.982864, 876.120821)"><g></g></g></g><g fill="#1b1a1a" fill-opacity="1"><g transform="translate(247.194334, 876.120821)"><g></g></g></g><g fill="#1b1a1a" fill-opacity="1"><g transform="translate(262.498809, 876.120821)"><g></g></g></g><g fill="#1b1a1a" fill-opacity="1"><g transform="translate(277.803285, 876.120821)"><g></g></g></g><g fill="#1b1a1a" fill-opacity="1"><g transform="translate(34.093292, 909.104531)"><g></g></g></g><g fill="#1b1a1a" fill-opacity="1"><g transform="translate(49.66163, 909.104531)"><g></g></g></g><g fill="#1b1a1a" fill-opacity="1"><g transform="translate(64.966105, 909.104531)"><g></g></g></g><g fill="#1b1a1a" fill-opacity="1"><g transform="translate(80.534443, 909.104531)"><g></g></g></g><g fill="#1b1a1a" fill-opacity="1"><g transform="translate(93.344137, 909.104531)"><g></g></g></g><g fill="#1b1a1a" fill-opacity="1"><g transform="translate(108.144853, 909.104531)"><g/></g></g><g fill="#1b1a1a" fill-opacity="1"><g transform="translate(127.10207, 909.104531)"><g></g></g></g><g fill="#1b1a1a" fill-opacity="1"><g transform="translate(146.892337, 909.104531)"><g></g></g></g><g fill="#1b1a1a" fill-opacity="1"><g transform="translate(153.225219, 909.104531)"><g></g></g></g><g fill="#1b1a1a" fill-opacity="1"><g transform="translate(162.148828, 909.104531)"><g></g></g></g><g fill="#1b1a1a" fill-opacity="1"><g transform="translate(177.717166, 909.104531)"><g/></g></g><g fill="#1b1a1a" fill-opacity="1"><g transform="translate(196.674383, 909.104531)"><g></g></g></g><g fill="#1b1a1a" fill-opacity="1"><g transform="translate(212.938384, 909.104531)"><g></g></g></g><g fill="#1b1a1a" fill-opacity="1"><g transform="translate(227.739099, 909.104531)"><g></g></g></g><g fill="#1b1a1a" fill-opacity="1"><g transform="translate(240.548805, 909.104531)"><g></g></g></g><g fill="#1b1a1a" fill-opacity="1"><g transform="translate(246.881675, 909.104531)"><g></g></g></g><g fill="#1b1a1a" fill-opacity="1"><g transform="translate(263.145676, 909.104531)"><g></g></g></g><g fill="#1b1a1a" fill-opacity="1"><g transform="translate(278.714014, 909.104531)"><g></g></g></g><g fill="#1b1a1a" fill-opacity="1"><g transform="translate(293.514741, 909.104531)"><g></g></g></g><g fill="#1b1a1a" fill-opacity="1"><g transform="translate(34.093292, 942.08824)"><g></g></g></g><g fill="#1b1a1a" fill-opacity="1"><g transform="translate(42.057376, 942.08824)"><g></g></g></g><g fill="#1b1a1a" fill-opacity="1"><g transform="translate(57.625714, 942.08824)"><g></g></g></g><g fill="#1b1a1a" fill-opacity="1"><g transform="translate(66.837183, 942.08824)"><g></g></g></g><g fill="#1b1a1a" fill-opacity="1"><g transform="translate(82.405521, 942.08824)"><g></g></g></g><g fill="#1b1a1a" fill-opacity="1"><g transform="translate(88.738403, 942.08824)"><g></g></g></g><g fill="#1b1a1a" fill-opacity="1"><g transform="translate(97.662012, 942.08824)"><g></g></g></g><g fill="#1b1a1a" fill-opacity="1"><g transform="translate(113.23035, 942.08824)"><g></g></g></g><g fill="#1b1a1a" fill-opacity="1"><g transform="translate(122.441819, 942.08824)"><g></g></g></g><g clip-path="url(#432aa55a70)"><g clip-path="url(#5b174efd3d)"><g transform="matrix(1, 0, 0, 1, 334, 731)"><g clip-path="url(#36c9aacbd8)"><g clip-path="url(#58ab6d157a)"><g clip-path="url(#6a4b93a97f)"><path fill="#7ea6ad" d="M 0.714844 0.738281 L 425.8125 0.738281 L 425.8125 53.261719 L 0.714844 53.261719 Z M 0.714844 0.738281 " fill-opacity="1" fill-rule="nonzero"/></g></g></g></g></g></g><g fill="#faefe0" fill-opacity="1"><g transform="translate(478.947743, 765.47343)"><g></g></g></g><g fill="#faefe0" fill-opacity="1"><g transform="translate(501.103433, 765.47343)"><g></g></g></g><g fill="#faefe0" fill-opacity="1"><g transform="translate(518.67963, 765.47343)"><g></g></g></g><g fill="#faefe0" fill-opacity="1"><g transform="translate(536.495587, 765.47343)"><g></g></g></g><g fill="#faefe0" fill-opacity="1"><g transform="translate(554.311544, 765.47343)"><g/></g></g><g fill="#faefe0" fill-opacity="1"><g transform="translate(562.465014, 765.47343)"><g></g></g></g><g fill="#faefe0" fill-opacity="1"><g transform="translate(581.168103, 765.47343)"><g></g></g></g><g fill="#faefe0" fill-opacity="1"><g transform="translate(599.871192, 765.47343)"><g></g></g></g></svg>