<svg xmlns="http://www.w3.org/2000/svg" xmlns:xlink="http://www.w3.org/1999/xlink" width="1080" zoomAndPan="magnify" viewBox="0 0 810 1012.49997" height="1350" preserveAspectRatio="xMidYMid meet" version="1.0"><defs><g/><clipPath id="5e94d9c51c"><path d="M 0.199219 0 L 809.800781 0 L 809.800781 1012 L 0.199219 1012 Z M 0.199219 0 " clip-rule="nonzero"/></clipPath><clipPath id="b9d55f41cc"><path d="M 34.09375 209.964844 L 779 209.964844 L 779 802.300781 L 34.09375 802.300781 Z M 34.09375 209.964844 " clip-rule="nonzero"/></clipPath><clipPath id="18ba317438"><path d="M 44.589844 209.964844 L 768.265625 209.964844 C 771.050781 209.964844 773.71875 211.070312 775.6875 213.039062 C 777.65625 215.007812 778.761719 217.675781 778.761719 220.460938 L 778.761719 791.804688 C 778.761719 794.589844 777.65625 797.257812 775.6875 799.226562 C 773.71875 801.195312 771.050781 802.300781 768.265625 802.300781 L 44.589844 802.300781 C 41.804688 802.300781 39.136719 801.195312 37.167969 799.226562 C 35.199219 797.257812 34.09375 794.589844 34.09375 791.804688 L 34.09375 220.460938 C 34.09375 217.675781 35.199219 215.007812 37.167969 213.039062 C 39.136719 211.070312 41.804688 209.964844 44.589844 209.964844 Z M 44.589844 209.964844 " clip-rule="nonzero"/></clipPath><clipPath id="2e5f6df11c"><path d="M 0.09375 0.964844 L 744.855469 0.964844 L 744.855469 593.300781 L 0.09375 593.300781 Z M 0.09375 0.964844 " clip-rule="nonzero"/></clipPath><clipPath id="2620afe640"><path d="M 10.589844 0.964844 L 734.265625 0.964844 C 737.050781 0.964844 739.71875 2.070312 741.6875 4.039062 C 743.65625 6.007812 744.761719 8.675781 744.761719 11.460938 L 744.761719 582.804688 C 744.761719 585.589844 743.65625 588.257812 741.6875 590.226562 C 739.71875 592.195312 737.050781 593.300781 734.265625 593.300781 L 10.589844 593.300781 C 7.804688 593.300781 5.136719 592.195312 3.167969 590.226562 C 1.199219 588.257812 0.09375 585.589844 0.09375 582.804688 L 0.09375 11.460938 C 0.09375 8.675781 1.199219 6.007812 3.167969 4.039062 C 5.136719 2.070312 7.804688 0.964844 10.589844 0.964844 Z M 10.589844 0.964844 " clip-rule="nonzero"/></clipPath><clipPath id="42d2995739"><rect x="0" width="745" y="0" height="594"/></clipPath><clipPath id="f20441ae46"><path d="M 488.925781 32.785156 L 624.394531 32.785156 L 624.394531 181.488281 L 488.925781 181.488281 Z M 488.925781 32.785156 " clip-rule="nonzero"/></clipPath><clipPath id="798eefa2eb"><path d="M 497.171875 32.785156 L 616.148438 32.785156 C 620.703125 32.785156 624.394531 36.476562 624.394531 41.03125 L 624.394531 172.773438 C 624.394531 177.328125 620.703125 181.019531 616.148438 181.019531 L 497.171875 181.019531 C 492.617188 181.019531 488.925781 177.328125 488.925781 172.773438 L 488.925781 41.03125 C 488.925781 36.476562 492.617188 32.785156 497.171875 32.785156 Z M 497.171875 32.785156 " clip-rule="nonzero"/></clipPath><clipPath id="ace4d07f84"><path d="M 0.925781 0.785156 L 136.394531 0.785156 L 136.394531 148.957031 L 0.925781 148.957031 Z M 0.925781 0.785156 " clip-rule="nonzero"/></clipPath><clipPath id="616a29eecd"><path d="M 9.171875 0.785156 L 128.148438 0.785156 C 132.703125 0.785156 136.394531 4.476562 136.394531 9.03125 L 136.394531 140.773438 C 136.394531 145.328125 132.703125 149.019531 128.148438 149.019531 L 9.171875 149.019531 C 4.617188 149.019531 0.925781 145.328125 0.925781 140.773438 L 0.925781 9.03125 C 0.925781 4.476562 4.617188 0.785156 9.171875 0.785156 Z M 9.171875 0.785156 " clip-rule="nonzero"/></clipPath><clipPath id="9eb8759c5a"><rect x="0" width="137" y="0" height="150"/></clipPath><clipPath id="4bbb3a7aef"><path d="M 334.714844 32.785156 L 470.183594 32.785156 L 470.183594 181.488281 L 334.714844 181.488281 Z M 334.714844 32.785156 " clip-rule="nonzero"/></clipPath><clipPath id="529b8e3d8d"><path d="M 342.960938 32.785156 L 461.9375 32.785156 C 466.492188 32.785156 470.183594 36.476562 470.183594 41.03125 L 470.183594 172.773438 C 470.183594 177.328125 466.492188 181.019531 461.9375 181.019531 L 342.960938 181.019531 C 338.40625 181.019531 334.714844 177.328125 334.714844 172.773438 L 334.714844 41.03125 C 334.714844 36.476562 338.40625 32.785156 342.960938 32.785156 Z M 342.960938 32.785156 " clip-rule="nonzero"/></clipPath><clipPath id="672fdfe50b"><path d="M 0.714844 1 L 136.183594 1 L 136.183594 148.957031 L 0.714844 148.957031 Z M 0.714844 1 " clip-rule="nonzero"/></clipPath><clipPath id="9c4ac42e2f"><path d="M 8.960938 0.785156 L 127.9375 0.785156 C 132.492188 0.785156 136.183594 4.476562 136.183594 9.03125 L 136.183594 140.773438 C 136.183594 145.328125 132.492188 149.019531 127.9375 149.019531 L 8.960938 149.019531 C 4.40625 149.019531 0.714844 145.328125 0.714844 140.773438 L 0.714844 9.03125 C 0.714844 4.476562 4.40625 0.785156 8.960938 0.785156 Z M 8.960938 0.785156 " clip-rule="nonzero"/></clipPath><clipPath id="6186c2d10c"><rect x="0" width="137" y="0" height="150"/></clipPath><clipPath id="75a6515374"><path d="M 643.289062 32.785156 L 778.761719 32.785156 L 778.761719 181.488281 L 643.289062 181.488281 Z M 643.289062 32.785156 " clip-rule="nonzero"/></clipPath><clipPath id="973cd1e2a2"><path d="M 651.535156 32.785156 L 770.515625 32.785156 C 775.070312 32.785156 778.761719 36.476562 778.761719 41.03125 L 778.761719 172.773438 C 778.761719 177.328125 775.070312 181.019531 770.515625 181.019531 L 651.535156 181.019531 C 646.984375 181.019531 643.289062 177.328125 643.289062 172.773438 L 643.289062 41.03125 C 643.289062 36.476562 646.984375 32.785156 651.535156 32.785156 Z M 651.535156 32.785156 " clip-rule="nonzero"/></clipPath><clipPath id="224d742f73"><path d="M 0.289062 1 L 135.761719 1 L 135.761719 148.957031 L 0.289062 148.957031 Z M 0.289062 1 " clip-rule="nonzero"/></clipPath><clipPath id="469024eaf7"><path d="M 8.535156 0.785156 L 127.515625 0.785156 C 132.070312 0.785156 135.761719 4.476562 135.761719 9.03125 L 135.761719 140.773438 C 135.761719 145.328125 132.070312 149.019531 127.515625 149.019531 L 8.535156 149.019531 C 3.984375 149.019531 0.289062 145.328125 0.289062 140.773438 L 0.289062 9.03125 C 0.289062 4.476562 3.984375 0.785156 8.535156 0.785156 Z M 8.535156 0.785156 " clip-rule="nonzero"/></clipPath><clipPath id="2cc2d13345"><rect x="0" width="136" y="0" height="150"/></clipPath><clipPath id="25b8bf2287"><path d="M 127 377 L 141 377 L 141 396.503906 L 127 396.503906 Z M 127 377 " clip-rule="nonzero"/></clipPath><clipPath id="ccfd319caf"><path d="M 61.6875 308 L 81 308 L 81 323 L 61.6875 323 Z M 61.6875 308 " clip-rule="nonzero"/></clipPath><clipPath id="30268ae829"><path d="M 135 242.832031 L 150 242.832031 L 150 262 L 135 262 Z M 135 242.832031 " clip-rule="nonzero"/></clipPath><clipPath id="f3f256a6f3"><path d="M 196 316 L 215.363281 316 L 215.363281 331 L 196 331 Z M 196 316 " clip-rule="nonzero"/></clipPath><clipPath id="432aa55a70"><path d="M 334.714844 731.738281 L 759.8125 731.738281 L 759.8125 784.261719 L 334.714844 784.261719 Z M 334.714844 731.738281 " clip-rule="nonzero"/></clipPath><clipPath id="5b174efd3d"><path d="M 343.710938 731.738281 L 750.761719 731.738281 C 755.730469 731.738281 759.757812 735.765625 759.757812 740.734375 L 759.757812 775.265625 C 759.757812 780.234375 755.730469 784.261719 750.761719 784.261719 L 343.710938 784.261719 C 338.742188 784.261719 334.714844 780.234375 334.714844 775.265625 L 334.714844 740.734375 C 334.714844 735.765625 338.742188 731.738281 343.710938 731.738281 Z M 343.710938 731.738281 " clip-rule="nonzero"/></clipPath><clipPath id="58ab6d157a"><path d="M 0.714844 0.738281 L 425.8125 0.738281 L 425.8125 53.261719 L 0.714844 53.261719 Z M 0.714844 0.738281 " clip-rule="nonzero"/></clipPath><clipPath id="6a4b93a97f"><path d="M 9.710938 0.738281 L 416.761719 0.738281 C 421.730469 0.738281 425.757812 4.765625 425.757812 9.734375 L 425.757812 44.265625 C 425.757812 49.234375 421.730469 53.261719 416.761719 53.261719 L 9.710938 53.261719 C 4.742188 53.261719 0.714844 49.234375 0.714844 44.265625 L 0.714844 9.734375 C 0.714844 4.765625 4.742188 0.738281 9.710938 0.738281 Z M 9.710938 0.738281 " clip-rule="nonzero"/></clipPath><clipPath id="36c9aacbd8"><rect x="0" width="426" y="0" height="54"/></clipPath></defs><g clip-path="url(#5e94d9c51c)"><path fill="#ffffff" d="M 0.199219 0 L 809.800781 0 L 809.800781 1012 L 0.199219 1012 Z M 0.199219 0 " fill-opacity="1" fill-rule="nonzero"/><path fill="#f6f1ea" d="M 0.199219 0 L 809.800781 0 L 809.800781 1012 L 0.199219 1012 Z M 0.199219 0 " fill-opacity="1" fill-rule="nonzero"/></g><g clip-path="url(#b9d55f41cc)"><g clip-path="url(#18ba317438)"><g transform="matrix(1, 0, 0, 1, 34, 209)"><g clip-path="url(#42d2995739)"><g clip-path="url(#2e5f6df11c)"><g clip-path="url(#2620afe640)"><g transform="matrix(0.272312, 0, 0, 0.272101, 0.0932918, -146.539793)"><image x="0" y="0" width="2736" xlink:href="@@PHOTO0@@" height="3648" preserveAspectRatio="xMidYMid meet"/></g></g></g></g></g></g></g><g fill="#7ea6ad" fill-opacity="1"><g transform="translate(34.093292, 176.99894)"><g><path d="M 6.296875 0 L 6.296875 -142.171875 L 35.578125 -142.171875 L 48.65625 -74.15625 L 48.65625 -142.171875 L 76.140625 -142.171875 L 76.140625 0 L 48.328125 0 L 34.09375 -71.171875 L 34.09375 0 Z M 6.296875 0 "/></g></g></g><g fill="#7ea6ad" fill-opacity="1"><g transform="translate(116.520195, 176.99894)"><g><path d="M 6.296875 0 L 6.296875 -142.171875 L 63.234375 -142.171875 L 63.234375 -114.703125 L 35.25 -114.703125 L 35.25 -87.0625 L 62.0625 -87.0625 L 62.0625 -60.25 L 35.25 -60.25 L 35.25 -27.640625 L 65.046875 -27.640625 L 65.046875 0 Z M 6.296875 0 "/></g></g></g><g fill="#7ea6ad" fill-opacity="1"><g transform="translate(184.712734, 176.99894)"><g><path d="M 17.375 0 L 2.15625 -142.171875 L 29.953125 -142.171875 L 37.90625 -52.46875 L 45.84375 -142.171875 L 72.328125 -142.171875 L 79.9375 -52.46875 L 87.5625 -142.171875 L 115.703125 -142.171875 L 100.140625 0 L 66.046875 0 L 58.921875 -68.53125 L 52.140625 0 Z M 17.375 0 "/></g></g></g><g clip-path="url(#f20441ae46)"><g clip-path="url(#798eefa2eb)"><g transform="matrix(1, 0, 0, 1, 488, 32)"><g clip-path="url(#9eb8759c5a)"><g clip-path="url(#ace4d07f84)"><g clip-path="url(#616a29eecd)"><g transform="matrix(0.101647, 0, 0, 0.101537, -42.515646, -13.647365)"><image x="0" y="0" width="2400" xlink:href="@@PHOTO1@@" height="1600" preserveAspectRatio="xMidYMid meet"/></g></g></g></g></g></g></g><g clip-path="url(#4bbb3a7aef)"><g clip-path="url(#529b8e3d8d)"><g transform="matrix(1, 0, 0, 1, 334, 32)"><g clip-path="url(#6186c2d10c)"><g clip-path="url(#672fdfe50b)"><g clip-path="url(#9c4ac42e2f)"><g transform="matrix(0.118, 0, 0, 0.118072, -57.190834, 0.786316)"><image x="0" y="0" width="2036" xlink:href="@@PHOTO2@@" height="1358" preserveAspectRatio="xMidYMid meet"/></g></g></g></g></g></g></g><g clip-path="url(#75a6515374)"><g clip-path="url(#973cd1e2a2)"><g transform="matrix(1, 0, 0, 1, 643, 32)"><g clip-path="url(#2cc2d13345)"><g clip-path="url(#224d742f73)"><g clip-path="url(#469024eaf7)"><g transform="matrix(0.105685, 0, 0, 0.105685, -43.048608, 0.786316)"><image x="0" y="0" width="2103" xlink:href="@@PHOTO3@@" height="1402" preserveAspectRatio="xMidYMid meet"/></g></g></g></g></g></g></g><path fill="#faefe0" d="M 186.996094 364.488281 C 185.300781 363.105469 185.117188 360.980469 186.503906 359.285156 C 187.886719 357.59375 190.011719 357.378906 191.703125 358.792969 C 193.398438 360.210938 193.582031 362.335938 192.199219 363.964844 C 190.8125 365.597656 188.6875 365.875 186.996094 364.488281 Z M 186.996094 364.488281 " fill-opacity="1" fill-rule="nonzero"/><path fill="#faefe0" d="M 170.617188 387.976562 L 170.15625 383.359375 C 172.34375 383.296875 175.113281 382.742188 176.4375 381.945312 C 177.207031 381.453125 177.542969 380.867188 177.207031 380.28125 C 175.820312 378.003906 168.464844 384.3125 165.046875 378.679688 C 163.015625 375.355469 164.984375 371.96875 168.492188 369.84375 C 171.140625 368.214844 174.621094 367.414062 177.511719 367.753906 L 177.945312 372.339844 C 175.480469 371.9375 172.25 372.523438 170.648438 373.476562 C 169.664062 374.09375 169.261719 374.800781 169.695312 375.511719 C 171.109375 377.878906 178.375 371.414062 181.730469 376.925781 C 183.578125 379.941406 182.160156 383.421875 178.253906 385.792969 C 175.882812 387.238281 172.988281 388.039062 170.617188 387.976562 Z M 170.617188 387.976562 " fill-opacity="1" fill-rule="nonzero"/><path fill="#faefe0" d="M 156.425781 378.617188 L 156.828125 375.511719 L 162.277344 374.246094 L 158.859375 393.855469 L 153.410156 395.148438 L 141.867188 379.050781 L 147.5 377.726562 L 149.222656 380.3125 Z M 155.042969 389.179688 L 155.871094 382.835938 L 151.53125 383.851562 Z M 155.042969 389.179688 " fill-opacity="1" fill-rule="nonzero"/><g clip-path="url(#25b8bf2287)"><path fill="#faefe0" d="M 127.242188 382.128906 L 127.550781 377.601562 L 140.632812 378.464844 L 139.402344 396.75 L 133.984375 396.382812 L 134.910156 382.652344 Z M 127.242188 382.128906 " fill-opacity="1" fill-rule="nonzero"/></g><path fill="#faefe0" d="M 115.882812 388.714844 L 116.867188 386.007812 L 108.742188 383.082031 L 110.15625 379.140625 L 118.285156 382.066406 L 119.269531 379.359375 L 110.066406 376.03125 L 111.480469 372.09375 L 125.796875 377.265625 L 119.578125 394.503906 L 105.511719 389.394531 L 106.925781 385.484375 Z M 115.882812 388.714844 " fill-opacity="1" fill-rule="nonzero"/><path fill="#faefe0" d="M 94.242188 368.398438 C 95.628906 366.675781 97.753906 366.460938 99.445312 367.84375 C 101.136719 369.230469 101.355469 371.355469 99.96875 373.046875 C 98.582031 374.742188 96.460938 374.925781 94.796875 373.570312 C 93.132812 372.214844 92.859375 370.0625 94.242188 368.398438 Z M 94.242188 368.398438 " fill-opacity="1" fill-rule="nonzero"/><path fill="#faefe0" d="M 70.664062 352.144531 L 75.28125 351.683594 C 75.371094 353.839844 75.925781 356.609375 76.757812 357.933594 C 77.21875 358.703125 77.804688 359.039062 78.390625 358.703125 C 80.667969 357.285156 74.292969 349.988281 79.929688 346.511719 C 83.253906 344.480469 86.640625 346.417969 88.792969 349.929688 C 90.425781 352.574219 91.257812 356.023438 90.949219 358.949219 L 86.363281 359.378906 C 86.730469 356.917969 86.148438 353.683594 85.160156 352.082031 C 84.546875 351.128906 83.835938 350.699219 83.128906 351.128906 C 80.757812 352.605469 87.285156 359.808594 81.773438 363.195312 C 78.789062 365.042969 75.28125 363.65625 72.878906 359.777344 C 71.433594 357.410156 70.632812 354.515625 70.664062 352.144531 Z M 70.664062 352.144531 " fill-opacity="1" fill-rule="nonzero"/><path fill="#faefe0" d="M 79.929688 337.890625 L 83.039062 338.261719 L 84.359375 343.710938 L 64.722656 340.417969 L 63.398438 334.96875 L 79.4375 323.332031 L 80.789062 328.964844 L 78.203125 330.6875 Z M 69.371094 336.566406 L 75.710938 337.335938 L 74.664062 333.027344 Z M 69.371094 336.566406 " fill-opacity="1" fill-rule="nonzero"/><g clip-path="url(#ccfd319caf)"><path fill="#faefe0" d="M 76.234375 308.738281 L 80.789062 309.015625 L 79.988281 322.097656 L 61.703125 320.992188 L 62.042969 315.574219 L 75.773438 316.40625 Z M 76.234375 308.738281 " fill-opacity="1" fill-rule="nonzero"/></g><path fill="#faefe0" d="M 69.617188 297.410156 L 72.324219 298.363281 L 75.1875 290.238281 L 79.128906 291.625 L 76.265625 299.78125 L 78.972656 300.734375 L 82.269531 291.5 L 86.207031 292.917969 L 81.097656 307.261719 L 63.859375 301.136719 L 68.847656 287.035156 L 72.785156 288.421875 Z M 69.617188 297.410156 " fill-opacity="1" fill-rule="nonzero"/><path fill="#faefe0" d="M 89.808594 275.648438 C 91.503906 277.03125 91.75 279.15625 90.363281 280.847656 C 88.980469 282.542969 86.886719 282.789062 85.160156 281.402344 C 83.4375 280.019531 83.253906 277.894531 84.609375 276.230469 C 85.960938 274.570312 88.117188 274.292969 89.808594 275.648438 Z M 89.808594 275.648438 " fill-opacity="1" fill-rule="nonzero"/><path fill="#faefe0" d="M 105.910156 251.972656 L 106.402344 256.589844 C 104.246094 256.683594 101.476562 257.269531 100.183594 258.070312 C 99.382812 258.5625 99.046875 259.144531 99.414062 259.730469 C 100.832031 262.007812 108.09375 255.605469 111.605469 261.207031 C 113.667969 264.503906 111.726562 267.890625 108.25 270.074219 C 105.601562 271.707031 102.15625 272.597656 99.230469 272.292969 L 98.769531 267.703125 C 101.230469 268.042969 104.464844 267.457031 106.0625 266.441406 C 107.019531 265.855469 107.449219 265.117188 106.988281 264.410156 C 105.539062 262.070312 98.335938 268.628906 94.921875 263.148438 C 93.042969 260.164062 94.425781 256.652344 98.304688 254.222656 C 100.675781 252.742188 103.539062 251.941406 105.910156 251.972656 Z M 105.910156 251.972656 " fill-opacity="1" fill-rule="nonzero"/><path fill="#faefe0" d="M 120.222656 261.148438 L 119.855469 264.257812 L 114.4375 265.609375 L 117.609375 245.941406 L 123.027344 244.585938 L 134.785156 260.5625 L 129.152344 261.949219 L 127.398438 259.363281 Z M 121.488281 250.589844 L 120.746094 256.929688 L 125.058594 255.851562 Z M 121.488281 250.589844 " fill-opacity="1" fill-rule="nonzero"/><g clip-path="url(#30268ae829)"><path fill="#faefe0" d="M 149.347656 257.300781 L 149.101562 261.855469 L 135.984375 261.117188 L 137 242.832031 L 142.417969 243.136719 L 141.679688 256.867188 Z M 149.347656 257.300781 " fill-opacity="1" fill-rule="nonzero"/></g><path fill="#faefe0" d="M 160.613281 250.589844 L 159.691406 253.296875 L 167.847656 256.160156 L 166.460938 260.101562 L 158.304688 257.269531 L 157.351562 260.007812 L 166.617188 263.210938 L 165.230469 267.148438 L 150.855469 262.164062 L 156.859375 244.863281 L 171.019531 249.789062 L 169.632812 253.726562 Z M 160.613281 250.589844 " fill-opacity="1" fill-rule="nonzero"/><path fill="#faefe0" d="M 182.53125 270.660156 C 181.144531 272.382812 179.023438 272.628906 177.296875 271.273438 C 175.574219 269.921875 175.359375 267.796875 176.742188 266.074219 C 178.128906 264.347656 180.222656 264.132812 181.914062 265.488281 C 183.609375 266.84375 183.855469 268.964844 182.53125 270.660156 Z M 182.53125 270.660156 " fill-opacity="1" fill-rule="nonzero"/><path fill="#faefe0" d="M 206.265625 286.605469 L 201.648438 287.160156 C 201.554688 284.972656 200.941406 282.234375 200.140625 280.910156 C 199.648438 280.140625 199.0625 279.800781 198.476562 280.171875 C 196.199219 281.617188 202.664062 288.820312 197.09375 292.363281 C 193.796875 294.457031 190.382812 292.515625 188.195312 289.066406 C 186.535156 286.421875 185.640625 282.972656 185.917969 280.078125 L 190.503906 279.585938 C 190.164062 282.019531 190.78125 285.25 191.796875 286.851562 C 192.414062 287.804688 193.121094 288.238281 193.828125 287.777344 C 196.167969 286.296875 189.582031 279.15625 195.03125 275.707031 C 198.015625 273.800781 201.523438 275.152344 203.957031 279.003906 C 205.464844 281.371094 206.296875 284.265625 206.265625 286.605469 Z M 206.265625 286.605469 " fill-opacity="1" fill-rule="nonzero"/><path fill="#faefe0" d="M 197.183594 300.980469 L 194.074219 300.644531 L 192.691406 295.226562 L 212.359375 298.273438 L 213.746094 303.691406 L 197.863281 315.542969 L 196.445312 309.910156 L 199 308.15625 Z M 207.742188 302.183594 L 201.402344 301.472656 L 202.511719 305.785156 Z M 207.742188 302.183594 " fill-opacity="1" fill-rule="nonzero"/><g clip-path="url(#f3f256a6f3)"><path fill="#faefe0" d="M 201.21875 330.101562 L 196.660156 329.855469 L 197.308594 316.773438 L 215.59375 317.667969 L 215.347656 323.117188 L 201.585938 322.4375 Z M 201.21875 330.101562 " fill-opacity="1" fill-rule="nonzero"/></g><path fill="#faefe0" d="M 207.988281 341.339844 L 205.28125 340.386719 L 202.480469 348.574219 L 198.507812 347.25 L 201.308594 339.0625 L 198.570312 338.105469 L 195.398438 347.375 L 191.457031 346.050781 L 196.351562 331.613281 L 213.683594 337.523438 L 208.851562 351.714844 L 204.910156 350.359375 Z M 207.988281 341.339844 " fill-opacity="1" fill-rule="nonzero"/><g fill="#7ea6ad" fill-opacity="1"><g transform="translate(294.616125, 967.950467)"><g/></g></g><g fill="#7ea6ad" fill-opacity="1"><g transform="translate(333.350904, 967.950467)"><g><path d="M 6.296875 0 L 6.296875 -142.171875 L 34.765625 -142.171875 L 34.765625 -24.171875 L 64.046875 -24.171875 L 64.046875 0 Z M 6.296875 0 "/></g></g></g><g fill="#7ea6ad" fill-opacity="1"><g transform="translate(399.060707, 967.950467)"><g><path d="M 4.96875 0 L 4.96875 -142.171875 L 32.4375 -142.171875 L 32.4375 0 Z M 4.96875 0 "/></g></g></g><g fill="#7ea6ad" fill-opacity="1"><g transform="translate(436.63281, 967.950467)"><g><path d="M 40.0625 1.328125 C 27.144531 1.328125 17.816406 -1.867188 12.078125 -8.265625 C 6.335938 -14.671875 3.46875 -24.992188 3.46875 -39.234375 L 3.46875 -53.125 L 31.453125 -53.125 L 31.453125 -35.421875 C 31.453125 -28.359375 33.710938 -24.828125 38.234375 -24.828125 C 40.773438 -24.828125 42.539062 -25.570312 43.53125 -27.0625 C 44.519531 -28.550781 45.015625 -31.0625 45.015625 -34.59375 C 45.015625 -39.226562 44.460938 -43.0625 43.359375 -46.09375 C 42.253906 -49.125 40.847656 -51.660156 39.140625 -53.703125 C 37.429688 -55.742188 34.367188 -58.921875 29.953125 -63.234375 L 17.703125 -75.46875 C 8.210938 -84.738281 3.46875 -95.003906 3.46875 -106.265625 C 3.46875 -118.398438 6.253906 -127.640625 11.828125 -133.984375 C 17.398438 -140.328125 25.539062 -143.5 36.25 -143.5 C 49.050781 -143.5 58.265625 -140.101562 63.890625 -133.3125 C 69.515625 -126.53125 72.328125 -115.914062 72.328125 -101.46875 L 43.359375 -101.46875 L 43.203125 -111.21875 C 43.203125 -113.101562 42.675781 -114.59375 41.625 -115.6875 C 40.582031 -116.789062 39.117188 -117.34375 37.234375 -117.34375 C 35.035156 -117.34375 33.382812 -116.734375 32.28125 -115.515625 C 31.175781 -114.304688 30.625 -112.65625 30.625 -110.5625 C 30.625 -105.925781 33.269531 -101.128906 38.5625 -96.171875 L 55.109375 -80.28125 C 58.972656 -76.519531 62.175781 -72.957031 64.71875 -69.59375 C 67.257812 -66.226562 69.300781 -62.253906 70.84375 -57.671875 C 72.382812 -53.097656 73.15625 -47.664062 73.15625 -41.375 C 73.15625 -27.363281 70.585938 -16.742188 65.453125 -9.515625 C 60.328125 -2.285156 51.863281 1.328125 40.0625 1.328125 Z M 40.0625 1.328125 "/></g></g></g><g fill="#7ea6ad" fill-opacity="1"><g transform="translate(512.935628, 967.950467)"><g><path d="M 18.53125 0 L 18.53125 -114.875 L 1.65625 -114.875 L 1.65625 -142.171875 L 63.890625 -142.171875 L 63.890625 -114.875 L 47 -114.875 L 47 0 Z M 18.53125 0 "/></g></g></g><g fill="#7ea6ad" fill-opacity="1"><g transform="translate(578.479927, 967.950467)"><g><path d="M 4.96875 0 L 4.96875 -142.171875 L 32.4375 -142.171875 L 32.4375 0 Z M 4.96875 0 "/></g></g></g><g fill="#7ea6ad" fill-opacity="1"><g transform="translate(616.052008, 967.950467)"><g><path d="M 6.296875 0 L 6.296875 -142.171875 L 35.578125 -142.171875 L 48.65625 -74.15625 L 48.65625 -142.171875 L 76.140625 -142.171875 L 76.140625 0 L 48.328125 0 L 34.09375 -71.171875 L 34.09375 0 Z M 6.296875 0 "/></g></g></g><g fill="#7ea6ad" fill-opacity="1"><g transform="translate(698.478933, 967.950467)"><g><path d="M 35.578125 1.328125 C 25.316406 1.328125 17.675781 -2.285156 12.65625 -9.515625 C 7.632812 -16.742188 5.125 -27.695312 5.125 -42.375 L 5.125 -103.609375 C 5.125 -116.742188 8.046875 -126.675781 13.890625 -133.40625 C 19.742188 -140.132812 28.46875 -143.5 40.0625 -143.5 C 49.4375 -143.5 56.71875 -141.625 61.90625 -137.875 C 67.09375 -134.125 70.675781 -128.660156 72.65625 -121.484375 C 74.644531 -114.316406 75.640625 -105.101562 75.640625 -93.84375 L 47.828125 -93.84375 L 47.828125 -106.59375 C 47.828125 -110.007812 47.359375 -112.65625 46.421875 -114.53125 C 45.484375 -116.40625 43.800781 -117.34375 41.375 -117.34375 C 35.96875 -117.34375 33.265625 -113.8125 33.265625 -106.75 L 33.265625 -37.90625 C 33.265625 -33.601562 33.816406 -30.347656 34.921875 -28.140625 C 36.023438 -25.929688 37.957031 -24.828125 40.71875 -24.828125 C 43.476562 -24.828125 45.410156 -25.929688 46.515625 -28.140625 C 47.617188 -30.347656 48.171875 -33.601562 48.171875 -37.90625 L 48.171875 -58.265625 L 40.546875 -58.265625 L 40.546875 -82.765625 L 75.3125 -82.765625 L 75.3125 0 L 63.890625 0 L 59.09375 -11.921875 C 54.007812 -3.085938 46.171875 1.328125 35.578125 1.328125 Z M 35.578125 1.328125 "/></g></g></g><g fill="#1b1a1a" fill-opacity="1"><g transform="translate(34.093292, 876.120821)"><g><path d="M 11.84375 -3.40625 L 4.875 -3.40625 L 3.671875 0 L 0.8125 0 L 6.78125 -16.6875 L 9.953125 -16.6875 L 15.921875 0 L 13.046875 0 Z M 11.078125 -5.640625 L 8.375 -13.390625 L 5.640625 -5.640625 Z M 11.078125 -5.640625 "/></g></g></g><g fill="#1b1a1a" fill-opacity="1"><g transform="translate(50.813069, 876.120821)"><g/></g></g><g fill="#1b1a1a" fill-opacity="1"><g transform="translate(58.760099, 876.120821)"><g><path d="M 17.796875 -13.4375 C 18.835938 -13.4375 19.769531 -13.21875 20.59375 -12.78125 C 21.414062 -12.351562 22.0625 -11.710938 22.53125 -10.859375 C 23 -10.015625 23.234375 -8.992188 23.234375 -7.796875 L 23.234375 0 L 20.53125 0 L 20.53125 -7.390625 C 20.53125 -8.566406 20.234375 -9.472656 19.640625 -10.109375 C 19.046875 -10.742188 18.238281 -11.0625 17.21875 -11.0625 C 16.195312 -11.0625 15.382812 -10.742188 14.78125 -10.109375 C 14.1875 -9.472656 13.890625 -8.566406 13.890625 -7.390625 L 13.890625 0 L 11.171875 0 L 11.171875 -7.390625 C 11.171875 -8.566406 10.875 -9.472656 10.28125 -10.109375 C 9.695312 -10.742188 8.890625 -11.0625 7.859375 -11.0625 C 6.835938 -11.0625 6.023438 -10.742188 5.421875 -10.109375 C 4.828125 -9.472656 4.53125 -8.566406 4.53125 -7.390625 L 4.53125 0 L 1.796875 0 L 1.796875 -13.21875 L 4.53125 -13.21875 L 4.53125 -11.703125 C 4.976562 -12.242188 5.546875 -12.664062 6.234375 -12.96875 C 6.921875 -13.28125 7.65625 -13.4375 8.4375 -13.4375 C 9.5 -13.4375 10.441406 -13.210938 11.265625 -12.765625 C 12.097656 -12.316406 12.738281 -11.664062 13.1875 -10.8125 C 13.59375 -11.613281 14.21875 -12.25 15.0625 -12.71875 C 15.90625 -13.195312 16.816406 -13.4375 17.796875 -13.4375 Z M 17.796875 -13.4375 "/></g></g></g><g fill="#1b1a1a" fill-opacity="1"><g transform="translate(83.683835, 876.120821)"><g><path d="M 7.53125 0.21875 C 6.28125 0.21875 5.148438 -0.0625 4.140625 -0.625 C 3.140625 -1.195312 2.347656 -2 1.765625 -3.03125 C 1.191406 -4.0625 0.90625 -5.257812 0.90625 -6.625 C 0.90625 -7.96875 1.203125 -9.15625 1.796875 -10.1875 C 2.390625 -11.226562 3.195312 -12.03125 4.21875 -12.59375 C 5.238281 -13.15625 6.382812 -13.4375 7.65625 -13.4375 C 8.914062 -13.4375 10.054688 -13.15625 11.078125 -12.59375 C 12.097656 -12.03125 12.90625 -11.226562 13.5 -10.1875 C 14.09375 -9.15625 14.390625 -7.96875 14.390625 -6.625 C 14.390625 -5.28125 14.082031 -4.085938 13.46875 -3.046875 C 12.863281 -2.003906 12.035156 -1.195312 10.984375 -0.625 C 9.941406 -0.0625 8.789062 0.21875 7.53125 0.21875 Z M 7.53125 -2.15625 C 8.238281 -2.15625 8.898438 -2.320312 9.515625 -2.65625 C 10.128906 -3 10.625 -3.503906 11 -4.171875 C 11.382812 -4.847656 11.578125 -5.664062 11.578125 -6.625 C 11.578125 -7.582031 11.394531 -8.390625 11.03125 -9.046875 C 10.664062 -9.710938 10.175781 -10.210938 9.5625 -10.546875 C 8.957031 -10.890625 8.304688 -11.0625 7.609375 -11.0625 C 6.898438 -11.0625 6.242188 -10.890625 5.640625 -10.546875 C 5.046875 -10.210938 4.570312 -9.710938 4.21875 -9.046875 C 3.863281 -8.390625 3.6875 -7.582031 3.6875 -6.625 C 3.6875 -5.195312 4.050781 -4.09375 4.78125 -3.3125 C 5.507812 -2.539062 6.425781 -2.15625 7.53125 -2.15625 Z M 7.53125 -2.15625 "/></g></g></g><g fill="#1b1a1a" fill-opacity="1"><g transform="translate(98.988311, 876.120821)"><g><path d="M 0.890625 -6.671875 C 0.890625 -7.992188 1.164062 -9.164062 1.71875 -10.1875 C 2.269531 -11.21875 3.019531 -12.015625 3.96875 -12.578125 C 4.914062 -13.148438 5.972656 -13.4375 7.140625 -13.4375 C 8.003906 -13.4375 8.851562 -13.242188 9.6875 -12.859375 C 10.53125 -12.484375 11.203125 -11.988281 11.703125 -11.375 L 11.703125 -17.75 L 14.46875 -17.75 L 14.46875 0 L 11.703125 0 L 11.703125 -1.984375 C 11.253906 -1.347656 10.632812 -0.820312 9.84375 -0.40625 C 9.050781 0.0078125 8.144531 0.21875 7.125 0.21875 C 5.96875 0.21875 4.914062 -0.0703125 3.96875 -0.65625 C 3.019531 -1.238281 2.269531 -2.050781 1.71875 -3.09375 C 1.164062 -4.144531 0.890625 -5.335938 0.890625 -6.671875 Z M 11.703125 -6.625 C 11.703125 -7.53125 11.515625 -8.316406 11.140625 -8.984375 C 10.765625 -9.660156 10.269531 -10.175781 9.65625 -10.53125 C 9.050781 -10.882812 8.398438 -11.0625 7.703125 -11.0625 C 6.992188 -11.0625 6.335938 -10.890625 5.734375 -10.546875 C 5.128906 -10.203125 4.632812 -9.695312 4.25 -9.03125 C 3.875 -8.363281 3.6875 -7.578125 3.6875 -6.671875 C 3.6875 -5.753906 3.875 -4.953125 4.25 -4.265625 C 4.632812 -3.578125 5.132812 -3.050781 5.75 -2.6875 C 6.363281 -2.332031 7.015625 -2.15625 7.703125 -2.15625 C 8.398438 -2.15625 9.050781 -2.332031 9.65625 -2.6875 C 10.269531 -3.039062 10.765625 -3.554688 11.140625 -4.234375 C 11.515625 -4.910156 11.703125 -5.707031 11.703125 -6.625 Z M 11.703125 -6.625 "/></g></g></g><g fill="#1b1a1a" fill-opacity="1"><g transform="translate(115.252312, 876.120821)"><g><path d="M 13.90625 -6.9375 C 13.90625 -6.4375 13.875 -5.988281 13.8125 -5.59375 L 3.71875 -5.59375 C 3.800781 -4.53125 4.191406 -3.679688 4.890625 -3.046875 C 5.597656 -2.410156 6.460938 -2.09375 7.484375 -2.09375 C 8.953125 -2.09375 9.988281 -2.707031 10.59375 -3.9375 L 13.546875 -3.9375 C 13.148438 -2.71875 12.425781 -1.71875 11.375 -0.9375 C 10.332031 -0.164062 9.035156 0.21875 7.484375 0.21875 C 6.222656 0.21875 5.09375 -0.0625 4.09375 -0.625 C 3.09375 -1.195312 2.304688 -2 1.734375 -3.03125 C 1.171875 -4.0625 0.890625 -5.257812 0.890625 -6.625 C 0.890625 -7.976562 1.164062 -9.171875 1.71875 -10.203125 C 2.269531 -11.234375 3.046875 -12.03125 4.046875 -12.59375 C 5.046875 -13.15625 6.191406 -13.4375 7.484375 -13.4375 C 8.734375 -13.4375 9.84375 -13.160156 10.8125 -12.609375 C 11.789062 -12.066406 12.550781 -11.300781 13.09375 -10.3125 C 13.632812 -9.332031 13.90625 -8.207031 13.90625 -6.9375 Z M 11.0625 -7.796875 C 11.039062 -8.804688 10.675781 -9.613281 9.96875 -10.21875 C 9.269531 -10.820312 8.398438 -11.125 7.359375 -11.125 C 6.421875 -11.125 5.613281 -10.820312 4.9375 -10.21875 C 4.269531 -9.625 3.867188 -8.816406 3.734375 -7.796875 Z M 11.0625 -7.796875 "/></g></g></g><g fill="#1b1a1a" fill-opacity="1"><g transform="translate(130.053027, 876.120821)"><g><path d="M 4.53125 -11.296875 C 4.925781 -11.960938 5.457031 -12.484375 6.125 -12.859375 C 6.789062 -13.242188 7.578125 -13.4375 8.484375 -13.4375 L 8.484375 -10.59375 L 7.796875 -10.59375 C 6.722656 -10.59375 5.910156 -10.320312 5.359375 -9.78125 C 4.804688 -9.238281 4.53125 -8.296875 4.53125 -6.953125 L 4.53125 0 L 1.796875 0 L 1.796875 -13.21875 L 4.53125 -13.21875 Z M 4.53125 -11.296875 "/></g></g></g><g fill="#1b1a1a" fill-opacity="1"><g transform="translate(139.264497, 876.120821)"><g><path d="M 8.46875 -13.4375 C 9.507812 -13.4375 10.441406 -13.21875 11.265625 -12.78125 C 12.085938 -12.351562 12.726562 -11.710938 13.1875 -10.859375 C 13.65625 -10.015625 13.890625 -8.992188 13.890625 -7.796875 L 13.890625 0 L 11.171875 0 L 11.171875 -7.390625 C 11.171875 -8.566406 10.875 -9.472656 10.28125 -10.109375 C 9.695312 -10.742188 8.890625 -11.0625 7.859375 -11.0625 C 6.835938 -11.0625 6.023438 -10.742188 5.421875 -10.109375 C 4.828125 -9.472656 4.53125 -8.566406 4.53125 -7.390625 L 4.53125 0 L 1.796875 0 L 1.796875 -13.21875 L 4.53125 -13.21875 L 4.53125 -11.703125 C 4.976562 -12.242188 5.550781 -12.664062 6.25 -12.96875 C 6.945312 -13.28125 7.6875 -13.4375 8.46875 -13.4375 Z M 8.46875 -13.4375 "/></g></g></g><g fill="#1b1a1a" fill-opacity="1"><g transform="translate(154.832834, 876.120821)"><g/></g></g><g fill="#1b1a1a" fill-opacity="1"><g transform="translate(162.779864, 876.120821)"><g><path d="M 2.953125 -3.71875 C 4.484375 -5.039062 5.691406 -6.128906 6.578125 -6.984375 C 7.472656 -7.847656 8.210938 -8.742188 8.796875 -9.671875 C 9.390625 -10.597656 9.6875 -11.523438 9.6875 -12.453125 C 9.6875 -13.410156 9.457031 -14.160156 9 -14.703125 C 8.550781 -15.242188 7.835938 -15.515625 6.859375 -15.515625 C 5.910156 -15.515625 5.175781 -15.210938 4.65625 -14.609375 C 4.144531 -14.015625 3.875 -13.210938 3.84375 -12.203125 L 1.203125 -12.203125 C 1.242188 -14.023438 1.785156 -15.421875 2.828125 -16.390625 C 3.878906 -17.359375 5.210938 -17.84375 6.828125 -17.84375 C 8.578125 -17.84375 9.941406 -17.363281 10.921875 -16.40625 C 11.910156 -15.445312 12.40625 -14.164062 12.40625 -12.5625 C 12.40625 -11.414062 12.113281 -10.3125 11.53125 -9.25 C 10.945312 -8.1875 10.25 -7.234375 9.4375 -6.390625 C 8.632812 -5.546875 7.609375 -4.578125 6.359375 -3.484375 L 5.28125 -2.515625 L 12.875 -2.515625 L 12.875 -0.234375 L 1.21875 -0.234375 L 1.21875 -2.234375 Z M 2.953125 -3.71875 "/></g></g></g><g fill="#1b1a1a" fill-opacity="1"><g transform="translate(176.621054, 876.120821)"><g><path d="M 11.9375 -9.828125 L 11.9375 -7.53125 L 2.09375 -7.53125 L 2.09375 -9.828125 Z M 11.9375 -9.828125 "/></g></g></g><g fill="#1b1a1a" fill-opacity="1"><g transform="translate(190.654147, 876.120821)"><g><path d="M 4.53125 -11.25 C 5 -11.882812 5.632812 -12.40625 6.4375 -12.8125 C 7.25 -13.226562 8.148438 -13.4375 9.140625 -13.4375 C 10.304688 -13.4375 11.359375 -13.15625 12.296875 -12.59375 C 13.242188 -12.03125 13.988281 -11.234375 14.53125 -10.203125 C 15.070312 -9.171875 15.34375 -7.992188 15.34375 -6.671875 C 15.34375 -5.335938 15.070312 -4.144531 14.53125 -3.09375 C 13.988281 -2.050781 13.238281 -1.238281 12.28125 -0.65625 C 11.332031 -0.0703125 10.285156 0.21875 9.140625 0.21875 C 8.117188 0.21875 7.210938 0.0195312 6.421875 -0.375 C 5.628906 -0.78125 5 -1.296875 4.53125 -1.921875 L 4.53125 0 L 1.796875 0 L 1.796875 -17.75 L 4.53125 -17.75 Z M 12.5625 -6.671875 C 12.5625 -7.578125 12.375 -8.363281 12 -9.03125 C 11.625 -9.695312 11.128906 -10.203125 10.515625 -10.546875 C 9.898438 -10.890625 9.238281 -11.0625 8.53125 -11.0625 C 7.84375 -11.0625 7.191406 -10.882812 6.578125 -10.53125 C 5.960938 -10.175781 5.46875 -9.660156 5.09375 -8.984375 C 4.71875 -8.316406 4.53125 -7.53125 4.53125 -6.625 C 4.53125 -5.707031 4.71875 -4.910156 5.09375 -4.234375 C 5.46875 -3.554688 5.960938 -3.039062 6.578125 -2.6875 C 7.191406 -2.332031 7.84375 -2.15625 8.53125 -2.15625 C 9.238281 -2.15625 9.898438 -2.332031 10.515625 -2.6875 C 11.128906 -3.050781 11.625 -3.578125 12 -4.265625 C 12.375 -4.953125 12.5625 -5.753906 12.5625 -6.671875 Z M 12.5625 -6.671875 "/></g></g></g><g fill="#1b1a1a" fill-opacity="1"><g transform="translate(206.918148, 876.120821)"><g><path d="M 13.90625 -6.9375 C 13.90625 -6.4375 13.875 -5.988281 13.8125 -5.59375 L 3.71875 -5.59375 C 3.800781 -4.53125 4.191406 -3.679688 4.890625 -3.046875 C 5.597656 -2.410156 6.460938 -2.09375 7.484375 -2.09375 C 8.953125 -2.09375 9.988281 -2.707031 10.59375 -3.9375 L 13.546875 -3.9375 C 13.148438 -2.71875 12.425781 -1.71875 11.375 -0.9375 C 10.332031 -0.164062 9.035156 0.21875 7.484375 0.21875 C 6.222656 0.21875 5.09375 -0.0625 4.09375 -0.625 C 3.09375 -1.195312 2.304688 -2 1.734375 -3.03125 C 1.171875 -4.0625 0.890625 -5.257812 0.890625 -6.625 C 0.890625 -7.976562 1.164062 -9.171875 1.71875 -10.203125 C 2.269531 -11.234375 3.046875 -12.03125 4.046875 -12.59375 C 5.046875 -13.15625 6.191406 -13.4375 7.484375 -13.4375 C 8.734375 -13.4375 9.84375 -13.160156 10.8125 -12.609375 C 11.789062 -12.066406 12.550781 -11.300781 13.09375 -10.3125 C 13.632812 -9.332031 13.90625 -8.207031 13.90625 -6.9375 Z M 11.0625 -7.796875 C 11.039062 -8.804688 10.675781 -9.613281 9.96875 -10.21875 C 9.269531 -10.820312 8.398438 -11.125 7.359375 -11.125 C 6.421875 -11.125 5.613281 -10.820312 4.9375 -10.21875 C 4.269531 -9.625 3.867188 -8.816406 3.734375 -7.796875 Z M 11.0625 -7.796875 "/></g></g></g><g fill="#1b1a1a" fill-opacity="1"><g transform="translate(221.718863, 876.120821)"><g><path d="M 0.890625 -6.671875 C 0.890625 -7.992188 1.164062 -9.164062 1.71875 -10.1875 C 2.269531 -11.21875 3.019531 -12.015625 3.96875 -12.578125 C 4.914062 -13.148438 5.972656 -13.4375 7.140625 -13.4375 C 8.003906 -13.4375 8.851562 -13.242188 9.6875 -12.859375 C 10.53125 -12.484375 11.203125 -11.988281 11.703125 -11.375 L 11.703125 -17.75 L 14.46875 -17.75 L 14.46875 0 L 11.703125 0 L 11.703125 -1.984375 C 11.253906 -1.347656 10.632812 -0.820312 9.84375 -0.40625 C 9.050781 0.0078125 8.144531 0.21875 7.125 0.21875 C 5.96875 0.21875 4.914062 -0.0703125 3.96875 -0.65625 C 3.019531 -1.238281 2.269531 -2.050781 1.71875 -3.09375 C 1.164062 -4.144531 0.890625 -5.335938 0.890625 -6.671875 Z M 11.703125 -6.625 C 11.703125 -7.53125 11.515625 -8.316406 11.140625 -8.984375 C 10.765625 -9.660156 10.269531 -10.175781 9.65625 -10.53125 C 9.050781 -10.882812 8.398438 -11.0625 7.703125 -11.0625 C 6.992188 -11.0625 6.335938 -10.890625 5.734375 -10.546875 C 5.128906 -10.203125 4.632812 -9.695312 4.25 -9.03125 C 3.875 -8.363281 3.6875 -7.578125 3.6875 -6.671875 C 3.6875 -5.753906 3.875 -4.953125 4.25 -4.265625 C 4.632812 -3.578125 5.132812 -3.050781 5.75 -2.6875 C 6.363281 -2.332031 7.015625 -2.15625 7.703125 -2.15625 C 8.398438 -2.15625 9.050781 -2.332031 9.65625 -2.6875 C 10.269531 -3.039062 10.765625 -3.554688 11.140625 -4.234375 C 11.515625 -4.910156 11.703125 -5.707031 11.703125 -6.625 Z M 11.703125 -6.625 "/></g></g></g><g fill="#1b1a1a" fill-opacity="1"><g transform="translate(237.982864, 876.120821)"><g><path d="M 4.53125 -11.296875 C 4.925781 -11.960938 5.457031 -12.484375 6.125 -12.859375 C 6.789062 -13.242188 7.578125 -13.4375 8.484375 -13.4375 L 8.484375 -10.59375 L 7.796875 -10.59375 C 6.722656 -10.59375 5.910156 -10.320312 5.359375 -9.78125 C 4.804688 -9.238281 4.53125 -8.296875 4.53125 -6.953125 L 4.53125 0 L 1.796875 0 L 1.796875 -13.21875 L 4.53125 -13.21875 Z M 4.53125 -11.296875 "/></g></g></g><g fill="#1b1a1a" fill-opacity="1"><g transform="translate(247.194334, 876.120821)"><g><path d="M 7.53125 0.21875 C 6.28125 0.21875 5.148438 -0.0625 4.140625 -0.625 C 3.140625 -1.195312 2.347656 -2 1.765625 -3.03125 C 1.191406 -4.0625 0.90625 -5.257812 0.90625 -6.625 C 0.90625 -7.96875 1.203125 -9.15625 1.796875 -10.1875 C 2.390625 -11.226562 3.195312 -12.03125 4.21875 -12.59375 C 5.238281 -13.15625 6.382812 -13.4375 7.65625 -13.4375 C 8.914062 -13.4375 10.054688 -13.15625 11.078125 -12.59375 C 12.097656 -12.03125 12.90625 -11.226562 13.5 -10.1875 C 14.09375 -9.15625 14.390625 -7.96875 14.390625 -6.625 C 14.390625 -5.28125 14.082031 -4.085938 13.46875 -3.046875 C 12.863281 -2.003906 12.035156 -1.195312 10.984375 -0.625 C 9.941406 -0.0625 8.789062 0.21875 7.53125 0.21875 Z M 7.53125 -2.15625 C 8.238281 -2.15625 8.898438 -2.320312 9.515625 -2.65625 C 10.128906 -3 10.625 -3.503906 11 -4.171875 C 11.382812 -4.847656 11.578125 -5.664062 11.578125 -6.625 C 11.578125 -7.582031 11.394531 -8.390625 11.03125 -9.046875 C 10.664062 -9.710938 10.175781 -10.210938 9.5625 -10.546875 C 8.957031 -10.890625 8.304688 -11.0625 7.609375 -11.0625 C 6.898438 -11.0625 6.242188 -10.890625 5.640625 -10.546875 C 5.046875 -10.210938 4.570312 -9.710938 4.21875 -9.046875 C 3.863281 -8.390625 3.6875 -7.582031 3.6875 -6.625 C 3.6875 -5.195312 4.050781 -4.09375 4.78125 -3.3125 C 5.507812 -2.539062 6.425781 -2.15625 7.53125 -2.15625 Z M 7.53125 -2.15625 "/></g></g></g><g fill="#1b1a1a" fill-opacity="1"><g transform="translate(262.498809, 876.120821)"><g><path d="M 7.53125 0.21875 C 6.28125 0.21875 5.148438 -0.0625 4.140625 -0.625 C 3.140625 -1.195312 2.347656 -2 1.765625 -3.03125 C 1.191406 -4.0625 0.90625 -5.257812 0.90625 -6.625 C 0.90625 -7.96875 1.203125 -9.15625 1.796875 -10.1875 C 2.390625 -11.226562 3.195312 -12.03125 4.21875 -12.59375 C 5.238281 -13.15625 6.382812 -13.4375 7.65625 -13.4375 C 8.914062 -13.4375 10.054688 -13.15625 11.078125 -12.59375 C 12.097656 -12.03125 12.90625 -11.226562 13.5 -10.1875 C 14.09375 -9.15625 14.390625 -7.96875 14.390625 -6.625 C 14.390625 -5.28125 14.082031 -4.085938 13.46875 -3.046875 C 12.863281 -2.003906 12.035156 -1.195312 10.984375 -0.625 C 9.941406 -0.0625 8.789062 0.21875 7.53125 0.21875 Z M 7.53125 -2.15625 C 8.238281 -2.15625 8.898438 -2.320312 9.515625 -2.65625 C 10.128906 -3 10.625 -3.503906 11 -4.171875 C 11.382812 -4.847656 11.578125 -5.664062 11.578125 -6.625 C 11.578125 -7.582031 11.394531 -8.390625 11.03125 -9.046875 C 10.664062 -9.710938 10.175781 -10.210938 9.5625 -10.546875 C 8.957031 -10.890625 8.304688 -11.0625 7.609375 -11.0625 C 6.898438 -11.0625 6.242188 -10.890625 5.640625 -10.546875 C 5.046875 -10.210938 4.570312 -9.710938 4.21875 -9.046875 C 3.863281 -8.390625 3.6875 -7.582031 3.6875 -6.625 C 3.6875 -5.195312 4.050781 -4.09375 4.78125 -3.3125 C 5.507812 -2.539062 6.425781 -2.15625 7.53125 -2.15625 Z M 7.53125 -2.15625 "/></g></g></g><g fill="#1b1a1a" fill-opacity="1"><g transform="translate(277.803285, 876.120821)"><g><path d="M 17.796875 -13.4375 C 18.835938 -13.4375 19.769531 -13.21875 20.59375 -12.78125 C 21.414062 -12.351562 22.0625 -11.710938 22.53125 -10.859375 C 23 -10.015625 23.234375 -8.992188 23.234375 -7.796875 L 23.234375 0 L 20.53125 0 L 20.53125 -7.390625 C 20.53125 -8.566406 20.234375 -9.472656 19.640625 -10.109375 C 19.046875 -10.742188 18.238281 -11.0625 17.21875 -11.0625 C 16.195312 -11.0625 15.382812 -10.742188 14.78125 -10.109375 C 14.1875 -9.472656 13.890625 -8.566406 13.890625 -7.390625 L 13.890625 0 L 11.171875 0 L 11.171875 -7.390625 C 11.171875 -8.566406 10.875 -9.472656 10.28125 -10.109375 C 9.695312 -10.742188 8.890625 -11.0625 7.859375 -11.0625 C 6.835938 -11.0625 6.023438 -10.742188 5.421875 -10.109375 C 4.828125 -9.472656 4.53125 -8.566406 4.53125 -7.390625 L 4.53125 0 L 1.796875 0 L 1.796875 -13.21875 L 4.53125 -13.21875 L 4.53125 -11.703125 C 4.976562 -12.242188 5.546875 -12.664062 6.234375 -12.96875 C 6.921875 -13.28125 7.65625 -13.4375 8.4375 -13.4375 C 9.5 -13.4375 10.441406 -13.210938 11.265625 -12.765625 C 12.097656 -12.316406 12.738281 -11.664062 13.1875 -10.8125 C 13.59375 -11.613281 14.21875 -12.25 15.0625 -12.71875 C 15.90625 -13.195312 16.816406 -13.4375 17.796875 -13.4375 Z M 17.796875 -13.4375 "/></g></g></g><g fill="#1b1a1a" fill-opacity="1"><g transform="translate(34.093292, 909.104531)"><g><path d="M 8.640625 -13.4375 C 9.640625 -13.4375 10.535156 -13.21875 11.328125 -12.78125 C 12.117188 -12.351562 12.742188 -11.710938 13.203125 -10.859375 C 13.660156 -10.015625 13.890625 -8.992188 13.890625 -7.796875 L 13.890625 0 L 11.171875 0 L 11.171875 -7.390625 C 11.171875 -8.566406 10.875 -9.472656 10.28125 -10.109375 C 9.695312 -10.742188 8.890625 -11.0625 7.859375 -11.0625 C 6.835938 -11.0625 6.023438 -10.742188 5.421875 -10.109375 C 4.828125 -9.472656 4.53125 -8.566406 4.53125 -7.390625 L 4.53125 0 L 1.796875 0 L 1.796875 -17.75 L 4.53125 -17.75 L 4.53125 -11.6875 C 5 -12.238281 5.585938 -12.664062 6.296875 -12.96875 C 7.003906 -13.28125 7.785156 -13.4375 8.640625 -13.4375 Z M 8.640625 -13.4375 "/></g></g></g><g fill="#1b1a1a" fill-opacity="1"><g transform="translate(49.66163, 909.104531)"><g><path d="M 7.53125 0.21875 C 6.28125 0.21875 5.148438 -0.0625 4.140625 -0.625 C 3.140625 -1.195312 2.347656 -2 1.765625 -3.03125 C 1.191406 -4.0625 0.90625 -5.257812 0.90625 -6.625 C 0.90625 -7.96875 1.203125 -9.15625 1.796875 -10.1875 C 2.390625 -11.226562 3.195312 -12.03125 4.21875 -12.59375 C 5.238281 -13.15625 6.382812 -13.4375 7.65625 -13.4375 C 8.914062 -13.4375 10.054688 -13.15625 11.078125 -12.59375 C 12.097656 -12.03125 12.90625 -11.226562 13.5 -10.1875 C 14.09375 -9.15625 14.390625 -7.96875 14.390625 -6.625 C 14.390625 -5.28125 14.082031 -4.085938 13.46875 -3.046875 C 12.863281 -2.003906 12.035156 -1.195312 10.984375 -0.625 C 9.941406 -0.0625 8.789062 0.21875 7.53125 0.21875 Z M 7.53125 -2.15625 C 8.238281 -2.15625 8.898438 -2.320312 9.515625 -2.65625 C 10.128906 -3 10.625 -3.503906 11 -4.171875 C 11.382812 -4.847656 11.578125 -5.664062 11.578125 -6.625 C 11.578125 -7.582031 11.394531 -8.390625 11.03125 -9.046875 C 10.664062 -9.710938 10.175781 -10.210938 9.5625 -10.546875 C 8.957031 -10.890625 8.304688 -11.0625 7.609375 -11.0625 C 6.898438 -11.0625 6.242188 -10.890625 5.640625 -10.546875 C 5.046875 -10.210938 4.570312 -9.710938 4.21875 -9.046875 C 3.863281 -8.390625 3.6875 -7.582031 3.6875 -6.625 C 3.6875 -5.195312 4.050781 -4.09375 4.78125 -3.3125 C 5.507812 -2.539062 6.425781 -2.15625 7.53125 -2.15625 Z M 7.53125 -2.15625 "/></g></g></g><g fill="#1b1a1a" fill-opacity="1"><g transform="translate(64.966105, 909.104531)"><g><path d="M 13.765625 -13.21875 L 13.765625 0 L 11.03125 0 L 11.03125 -1.5625 C 10.601562 -1.019531 10.039062 -0.59375 9.34375 -0.28125 C 8.644531 0.0273438 7.90625 0.1875 7.125 0.1875 C 6.082031 0.1875 5.148438 -0.0234375 4.328125 -0.453125 C 3.503906 -0.890625 2.851562 -1.53125 2.375 -2.375 C 1.90625 -3.21875 1.671875 -4.238281 1.671875 -5.4375 L 1.671875 -13.21875 L 4.390625 -13.21875 L 4.390625 -5.859375 C 4.390625 -4.671875 4.679688 -3.757812 5.265625 -3.125 C 5.859375 -2.5 6.671875 -2.1875 7.703125 -2.1875 C 8.722656 -2.1875 9.53125 -2.5 10.125 -3.125 C 10.726562 -3.757812 11.03125 -4.671875 11.03125 -5.859375 L 11.03125 -13.21875 Z M 13.765625 -13.21875 "/></g></g></g><g fill="#1b1a1a" fill-opacity="1"><g transform="translate(80.534443, 909.104531)"><g><path d="M 6.59375 0.21875 C 5.550781 0.21875 4.617188 0.0273438 3.796875 -0.34375 C 2.972656 -0.71875 2.320312 -1.226562 1.84375 -1.875 C 1.363281 -2.53125 1.109375 -3.253906 1.078125 -4.046875 L 3.90625 -4.046875 C 3.957031 -3.492188 4.222656 -3.03125 4.703125 -2.65625 C 5.191406 -2.28125 5.804688 -2.09375 6.546875 -2.09375 C 7.316406 -2.09375 7.910156 -2.238281 8.328125 -2.53125 C 8.753906 -2.820312 8.96875 -3.203125 8.96875 -3.671875 C 8.96875 -4.160156 8.734375 -4.523438 8.265625 -4.765625 C 7.796875 -5.003906 7.046875 -5.269531 6.015625 -5.5625 C 5.023438 -5.832031 4.21875 -6.09375 3.59375 -6.34375 C 2.96875 -6.601562 2.425781 -7 1.96875 -7.53125 C 1.519531 -8.0625 1.296875 -8.757812 1.296875 -9.625 C 1.296875 -10.320312 1.503906 -10.960938 1.921875 -11.546875 C 2.335938 -12.128906 2.929688 -12.585938 3.703125 -12.921875 C 4.484375 -13.265625 5.375 -13.4375 6.375 -13.4375 C 7.882812 -13.4375 9.097656 -13.054688 10.015625 -12.296875 C 10.929688 -11.535156 11.421875 -10.5 11.484375 -9.1875 L 8.75 -9.1875 C 8.707031 -9.78125 8.46875 -10.25 8.03125 -10.59375 C 7.601562 -10.945312 7.019531 -11.125 6.28125 -11.125 C 5.5625 -11.125 5.007812 -10.988281 4.625 -10.71875 C 4.238281 -10.445312 4.046875 -10.085938 4.046875 -9.640625 C 4.046875 -9.285156 4.175781 -8.988281 4.4375 -8.75 C 4.695312 -8.507812 5.007812 -8.320312 5.375 -8.1875 C 5.738281 -8.050781 6.28125 -7.878906 7 -7.671875 C 7.957031 -7.421875 8.742188 -7.160156 9.359375 -6.890625 C 9.984375 -6.628906 10.515625 -6.242188 10.953125 -5.734375 C 11.398438 -5.222656 11.632812 -4.539062 11.65625 -3.6875 C 11.65625 -2.9375 11.445312 -2.265625 11.03125 -1.671875 C 10.613281 -1.085938 10.023438 -0.625 9.265625 -0.28125 C 8.503906 0.0507812 7.613281 0.21875 6.59375 0.21875 Z M 6.59375 0.21875 "/></g></g></g><g fill="#1b1a1a" fill-opacity="1"><g transform="translate(93.344137, 909.104531)"><g><path d="M 13.90625 -6.9375 C 13.90625 -6.4375 13.875 -5.988281 13.8125 -5.59375 L 3.71875 -5.59375 C 3.800781 -4.53125 4.191406 -3.679688 4.890625 -3.046875 C 5.597656 -2.410156 6.460938 -2.09375 7.484375 -2.09375 C 8.953125 -2.09375 9.988281 -2.707031 10.59375 -3.9375 L 13.546875 -3.9375 C 13.148438 -2.71875 12.425781 -1.71875 11.375 -0.9375 C 10.332031 -0.164062 9.035156 0.21875 7.484375 0.21875 C 6.222656 0.21875 5.09375 -0.0625 4.09375 -0.625 C 3.09375 -1.195312 2.304688 -2 1.734375 -3.03125 C 1.171875 -4.0625 0.890625 -5.257812 0.890625 -6.625 C 0.890625 -7.976562 1.164062 -9.171875 1.71875 -10.203125 C 2.269531 -11.234375 3.046875 -12.03125 4.046875 -12.59375 C 5.046875 -13.15625 6.191406 -13.4375 7.484375 -13.4375 C 8.734375 -13.4375 9.84375 -13.160156 10.8125 -12.609375 C 11.789062 -12.066406 12.550781 -11.300781 13.09375 -10.3125 C 13.632812 -9.332031 13.90625 -8.207031 13.90625 -6.9375 Z M 11.0625 -7.796875 C 11.039062 -8.804688 10.675781 -9.613281 9.96875 -10.21875 C 9.269531 -10.820312 8.398438 -11.125 7.359375 -11.125 C 6.421875 -11.125 5.613281 -10.820312 4.9375 -10.21875 C 4.269531 -9.625 3.867188 -8.816406 3.734375 -7.796875 Z M 11.0625 -7.796875 "/></g></g></g><g fill="#1b1a1a" fill-opacity="1"><g transform="translate(108.144853, 909.104531)"><g/></g></g><g fill="#1b1a1a" fill-opacity="1"><g transform="translate(127.10207, 909.104531)"><g><path d="M 19.546875 -13.21875 L 15.453125 0 L 12.5625 0 L 9.90625 -9.765625 L 7.25 0 L 4.359375 0 L 0.234375 -13.21875 L 3.015625 -13.21875 L 5.78125 -2.59375 L 8.59375 -13.21875 L 11.4375 -13.21875 L 14.125 -2.640625 L 16.859375 -13.21875 Z M 19.546875 -13.21875 "/></g></g></g><g fill="#1b1a1a" fill-opacity="1"><g transform="translate(146.892337, 909.104531)"><g><path d="M 3.1875 -14.96875 C 2.695312 -14.96875 2.28125 -15.132812 1.9375 -15.46875 C 1.601562 -15.800781 1.4375 -16.21875 1.4375 -16.71875 C 1.4375 -17.207031 1.601562 -17.617188 1.9375 -17.953125 C 2.28125 -18.296875 2.695312 -18.46875 3.1875 -18.46875 C 3.664062 -18.46875 4.070312 -18.296875 4.40625 -17.953125 C 4.75 -17.617188 4.921875 -17.207031 4.921875 -16.71875 C 4.921875 -16.21875 4.75 -15.800781 4.40625 -15.46875 C 4.070312 -15.132812 3.664062 -14.96875 3.1875 -14.96875 Z M 4.53125 -13.21875 L 4.53125 0 L 1.796875 0 L 1.796875 -13.21875 Z M 4.53125 -13.21875 "/></g></g></g><g fill="#1b1a1a" fill-opacity="1"><g transform="translate(153.225219, 909.104531)"><g><path d="M 4.984375 -10.984375 L 4.984375 -3.671875 C 4.984375 -3.171875 5.097656 -2.8125 5.328125 -2.59375 C 5.566406 -2.382812 5.96875 -2.28125 6.53125 -2.28125 L 8.203125 -2.28125 L 8.203125 0 L 6.046875 0 C 4.816406 0 3.875 -0.285156 3.21875 -0.859375 C 2.5625 -1.441406 2.234375 -2.378906 2.234375 -3.671875 L 2.234375 -10.984375 L 0.671875 -10.984375 L 0.671875 -13.21875 L 2.234375 -13.21875 L 2.234375 -16.5 L 4.984375 -16.5 L 4.984375 -13.21875 L 8.203125 -13.21875 L 8.203125 -10.984375 Z M 4.984375 -10.984375 "/></g></g></g><g fill="#1b1a1a" fill-opacity="1"><g transform="translate(162.148828, 909.104531)"><g><path d="M 8.640625 -13.4375 C 9.640625 -13.4375 10.535156 -13.21875 11.328125 -12.78125 C 12.117188 -12.351562 12.742188 -11.710938 13.203125 -10.859375 C 13.660156 -10.015625 13.890625 -8.992188 13.890625 -7.796875 L 13.890625 0 L 11.171875 0 L 11.171875 -7.390625 C 11.171875 -8.566406 10.875 -9.472656 10.28125 -10.109375 C 9.695312 -10.742188 8.890625 -11.0625 7.859375 -11.0625 C 6.835938 -11.0625 6.023438 -10.742188 5.421875 -10.109375 C 4.828125 -9.472656 4.53125 -8.566406 4.53125 -7.390625 L 4.53125 0 L 1.796875 0 L 1.796875 -17.75 L 4.53125 -17.75 L 4.53125 -11.6875 C 5 -12.238281 5.585938 -12.664062 6.296875 -12.96875 C 7.003906 -13.28125 7.785156 -13.4375 8.640625 -13.4375 Z M 8.640625 -13.4375 "/></g></g></g><g fill="#1b1a1a" fill-opacity="1"><g transform="translate(177.717166, 909.104531)"><g/></g></g><g fill="#1b1a1a" fill-opacity="1"><g transform="translate(196.674383, 909.104531)"><g><path d="M 0.890625 -6.671875 C 0.890625 -7.992188 1.164062 -9.164062 1.71875 -10.1875 C 2.269531 -11.21875 3.019531 -12.015625 3.96875 -12.578125 C 4.914062 -13.148438 5.972656 -13.4375 7.140625 -13.4375 C 8.003906 -13.4375 8.851562 -13.242188 9.6875 -12.859375 C 10.53125 -12.484375 11.203125 -11.988281 11.703125 -11.375 L 11.703125 -17.75 L 14.46875 -17.75 L 14.46875 0 L 11.703125 0 L 11.703125 -1.984375 C 11.253906 -1.347656 10.632812 -0.820312 9.84375 -0.40625 C 9.050781 0.0078125 8.144531 0.21875 7.125 0.21875 C 5.96875 0.21875 4.914062 -0.0703125 3.96875 -0.65625 C 3.019531 -1.238281 2.269531 -2.050781 1.71875 -3.09375 C 1.164062 -4.144531 0.890625 -5.335938 0.890625 -6.671875 Z M 11.703125 -6.625 C 11.703125 -7.53125 11.515625 -8.316406 11.140625 -8.984375 C 10.765625 -9.660156 10.269531 -10.175781 9.65625 -10.53125 C 9.050781 -10.882812 8.398438 -11.0625 7.703125 -11.0625 C 6.992188 -11.0625 6.335938 -10.890625 5.734375 -10.546875 C 5.128906 -10.203125 4.632812 -9.695312 4.25 -9.03125 C 3.875 -8.363281 3.6875 -7.578125 3.6875 -6.671875 C 3.6875 -5.753906 3.875 -4.953125 4.25 -4.265625 C 4.632812 -3.578125 5.132812 -3.050781 5.75 -2.6875 C 6.363281 -2.332031 7.015625 -2.15625 7.703125 -2.15625 C 8.398438 -2.15625 9.050781 -2.332031 9.65625 -2.6875 C 10.269531 -3.039062 10.765625 -3.554688 11.140625 -4.234375 C 11.515625 -4.910156 11.703125 -5.707031 11.703125 -6.625 Z M 11.703125 -6.625 "/></g></g></g><g fill="#1b1a1a" fill-opacity="1"><g transform="translate(212.938384, 909.104531)"><g><path d="M 13.90625 -6.9375 C 13.90625 -6.4375 13.875 -5.988281 13.8125 -5.59375 L 3.71875 -5.59375 C 3.800781 -4.53125 4.191406 -3.679688 4.890625 -3.046875 C 5.597656 -2.410156 6.460938 -2.09375 7.484375 -2.09375 C 8.953125 -2.09375 9.988281 -2.707031 10.59375 -3.9375 L 13.546875 -3.9375 C 13.148438 -2.71875 12.425781 -1.71875 11.375 -0.9375 C 10.332031 -0.164062 9.035156 0.21875 7.484375 0.21875 C 6.222656 0.21875 5.09375 -0.0625 4.09375 -0.625 C 3.09375 -1.195312 2.304688 -2 1.734375 -3.03125 C 1.171875 -4.0625 0.890625 -5.257812 0.890625 -6.625 C 0.890625 -7.976562 1.164062 -9.171875 1.71875 -10.203125 C 2.269531 -11.234375 3.046875 -12.03125 4.046875 -12.59375 C 5.046875 -13.15625 6.191406 -13.4375 7.484375 -13.4375 C 8.734375 -13.4375 9.84375 -13.160156 10.8125 -12.609375 C 11.789062 -12.066406 12.550781 -11.300781 13.09375 -10.3125 C 13.632812 -9.332031 13.90625 -8.207031 13.90625 -6.9375 Z M 11.0625 -7.796875 C 11.039062 -8.804688 10.675781 -9.613281 9.96875 -10.21875 C 9.269531 -10.820312 8.398438 -11.125 7.359375 -11.125 C 6.421875 -11.125 5.613281 -10.820312 4.9375 -10.21875 C 4.269531 -9.625 3.867188 -8.816406 3.734375 -7.796875 Z M 11.0625 -7.796875 "/></g></g></g><g fill="#1b1a1a" fill-opacity="1"><g transform="translate(227.739099, 909.104531)"><g><path d="M 6.59375 0.21875 C 5.550781 0.21875 4.617188 0.0273438 3.796875 -0.34375 C 2.972656 -0.71875 2.320312 -1.226562 1.84375 -1.875 C 1.363281 -2.53125 1.109375 -3.253906 1.078125 -4.046875 L 3.90625 -4.046875 C 3.957031 -3.492188 4.222656 -3.03125 4.703125 -2.65625 C 5.191406 -2.28125 5.804688 -2.09375 6.546875 -2.09375 C 7.316406 -2.09375 7.910156 -2.238281 8.328125 -2.53125 C 8.753906 -2.820312 8.96875 -3.203125 8.96875 -3.671875 C 8.96875 -4.160156 8.734375 -4.523438 8.265625 -4.765625 C 7.796875 -5.003906 7.046875 -5.269531 6.015625 -5.5625 C 5.023438 -5.832031 4.21875 -6.09375 3.59375 -6.34375 C 2.96875 -6.601562 2.425781 -7 1.96875 -7.53125 C 1.519531 -8.0625 1.296875 -8.757812 1.296875 -9.625 C 1.296875 -10.320312 1.503906 -10.960938 1.921875 -11.546875 C 2.335938 -12.128906 2.929688 -12.585938 3.703125 -12.921875 C 4.484375 -13.265625 5.375 -13.4375 6.375 -13.4375 C 7.882812 -13.4375 9.097656 -13.054688 10.015625 -12.296875 C 10.929688 -11.535156 11.421875 -10.5 11.484375 -9.1875 L 8.75 -9.1875 C 8.707031 -9.78125 8.46875 -10.25 8.03125 -10.59375 C 7.601562 -10.945312 7.019531 -11.125 6.28125 -11.125 C 5.5625 -11.125 5.007812 -10.988281 4.625 -10.71875 C 4.238281 -10.445312 4.046875 -10.085938 4.046875 -9.640625 C 4.046875 -9.285156 4.175781 -8.988281 4.4375 -8.75 C 4.695312 -8.507812 5.007812 -8.320312 5.375 -8.1875 C 5.738281 -8.050781 6.28125 -7.878906 7 -7.671875 C 7.957031 -7.421875 8.742188 -7.160156 9.359375 -6.890625 C 9.984375 -6.628906 10.515625 -6.242188 10.953125 -5.734375 C 11.398438 -5.222656 11.632812 -4.539062 11.65625 -3.6875 C 11.65625 -2.9375 11.445312 -2.265625 11.03125 -1.671875 C 10.613281 -1.085938 10.023438 -0.625 9.265625 -0.28125 C 8.503906 0.0507812 7.613281 0.21875 6.59375 0.21875 Z M 6.59375 0.21875 "/></g></g></g><g fill="#1b1a1a" fill-opacity="1"><g transform="translate(240.548805, 909.104531)"><g><path d="M 3.1875 -14.96875 C 2.695312 -14.96875 2.28125 -15.132812 1.9375 -15.46875 C 1.601562 -15.800781 1.4375 -16.21875 1.4375 -16.71875 C 1.4375 -17.207031 1.601562 -17.617188 1.9375 -17.953125 C 2.28125 -18.296875 2.695312 -18.46875 3.1875 -18.46875 C 3.664062 -18.46875 4.070312 -18.296875 4.40625 -17.953125 C 4.75 -17.617188 4.921875 -17.207031 4.921875 -16.71875 C 4.921875 -16.21875 4.75 -15.800781 4.40625 -15.46875 C 4.070312 -15.132812 3.664062 -14.96875 3.1875 -14.96875 Z M 4.53125 -13.21875 L 4.53125 0 L 1.796875 0 L 1.796875 -13.21875 Z M 4.53125 -13.21875 "/></g></g></g><g fill="#1b1a1a" fill-opacity="1"><g transform="translate(246.881675, 909.104531)"><g><path d="M 7.125 -13.4375 C 8.144531 -13.4375 9.050781 -13.226562 9.84375 -12.8125 C 10.632812 -12.40625 11.253906 -11.898438 11.703125 -11.296875 L 11.703125 -13.21875 L 14.46875 -13.21875 L 14.46875 0.21875 C 14.46875 1.425781 14.207031 2.503906 13.6875 3.453125 C 13.175781 4.410156 12.4375 5.160156 11.46875 5.703125 C 10.507812 6.253906 9.359375 6.53125 8.015625 6.53125 C 6.222656 6.53125 4.734375 6.109375 3.546875 5.265625 C 2.367188 4.421875 1.695312 3.28125 1.53125 1.84375 L 4.25 1.84375 C 4.457031 2.53125 4.898438 3.085938 5.578125 3.515625 C 6.253906 3.941406 7.066406 4.15625 8.015625 4.15625 C 9.117188 4.15625 10.007812 3.816406 10.6875 3.140625 C 11.363281 2.472656 11.703125 1.5 11.703125 0.21875 L 11.703125 -1.984375 C 11.242188 -1.367188 10.617188 -0.847656 9.828125 -0.421875 C 9.035156 0.00390625 8.132812 0.21875 7.125 0.21875 C 5.96875 0.21875 4.914062 -0.0703125 3.96875 -0.65625 C 3.019531 -1.238281 2.269531 -2.050781 1.71875 -3.09375 C 1.164062 -4.144531 0.890625 -5.335938 0.890625 -6.671875 C 0.890625 -7.992188 1.164062 -9.164062 1.71875 -10.1875 C 2.269531 -11.21875 3.019531 -12.015625 3.96875 -12.578125 C 4.914062 -13.148438 5.96875 -13.4375 7.125 -13.4375 Z M 11.703125 -6.625 C 11.703125 -7.53125 11.515625 -8.316406 11.140625 -8.984375 C 10.765625 -9.660156 10.269531 -10.175781 9.65625 -10.53125 C 9.050781 -10.882812 8.398438 -11.0625 7.703125 -11.0625 C 6.992188 -11.0625 6.335938 -10.890625 5.734375 -10.546875 C 5.128906 -10.203125 4.632812 -9.695312 4.25 -9.03125 C 3.875 -8.363281 3.6875 -7.578125 3.6875 -6.671875 C 3.6875 -5.753906 3.875 -4.953125 4.25 -4.265625 C 4.632812 -3.578125 5.132812 -3.050781 5.75 -2.6875 C 6.363281 -2.332031 7.015625 -2.15625 7.703125 -2.15625 C 8.398438 -2.15625 9.050781 -2.332031 9.65625 -2.6875 C 10.269531 -3.039062 10.765625 -3.554688 11.140625 -4.234375 C 11.515625 -4.910156 11.703125 -5.707031 11.703125 -6.625 Z M 11.703125 -6.625 "/></g></g></g><g fill="#1b1a1a" fill-opacity="1"><g transform="translate(263.145676, 909.104531)"><g><path d="M 8.46875 -13.4375 C 9.507812 -13.4375 10.441406 -13.21875 11.265625 -12.78125 C 12.085938 -12.351562 12.726562 -11.710938 13.1875 -10.859375 C 13.65625 -10.015625 13.890625 -8.992188 13.890625 -7.796875 L 13.890625 0 L 11.171875 0 L 11.171875 -7.390625 C 11.171875 -8.566406 10.875 -9.472656 10.28125 -10.109375 C 9.695312 -10.742188 8.890625 -11.0625 7.859375 -11.0625 C 6.835938 -11.0625 6.023438 -10.742188 5.421875 -10.109375 C 4.828125 -9.472656 4.53125 -8.566406 4.53125 -7.390625 L 4.53125 0 L 1.796875 0 L 1.796875 -13.21875 L 4.53125 -13.21875 L 4.53125 -11.703125 C 4.976562 -12.242188 5.550781 -12.664062 6.25 -12.96875 C 6.945312 -13.28125 7.6875 -13.4375 8.46875 -13.4375 Z M 8.46875 -13.4375 "/></g></g></g><g fill="#1b1a1a" fill-opacity="1"><g transform="translate(278.714014, 909.104531)"><g><path d="M 13.90625 -6.9375 C 13.90625 -6.4375 13.875 -5.988281 13.8125 -5.59375 L 3.71875 -5.59375 C 3.800781 -4.53125 4.191406 -3.679688 4.890625 -3.046875 C 5.597656 -2.410156 6.460938 -2.09375 7.484375 -2.09375 C 8.953125 -2.09375 9.988281 -2.707031 10.59375 -3.9375 L 13.546875 -3.9375 C 13.148438 -2.71875 12.425781 -1.71875 11.375 -0.9375 C 10.332031 -0.164062 9.035156 0.21875 7.484375 0.21875 C 6.222656 0.21875 5.09375 -0.0625 4.09375 -0.625 C 3.09375 -1.195312 2.304688 -2 1.734375 -3.03125 C 1.171875 -4.0625 0.890625 -5.257812 0.890625 -6.625 C 0.890625 -7.976562 1.164062 -9.171875 1.71875 -10.203125 C 2.269531 -11.234375 3.046875 -12.03125 4.046875 -12.59375 C 5.046875 -13.15625 6.191406 -13.4375 7.484375 -13.4375 C 8.734375 -13.4375 9.84375 -13.160156 10.8125 -12.609375 C 11.789062 -12.066406 12.550781 -11.300781 13.09375 -10.3125 C 13.632812 -9.332031 13.90625 -8.207031 13.90625 -6.9375 Z M 11.0625 -7.796875 C 11.039062 -8.804688 10.675781 -9.613281 9.96875 -10.21875 C 9.269531 -10.820312 8.398438 -11.125 7.359375 -11.125 C 6.421875 -11.125 5.613281 -10.820312 4.9375 -10.21875 C 4.269531 -9.625 3.867188 -8.816406 3.734375 -7.796875 Z M 11.0625 -7.796875 "/></g></g></g><g fill="#1b1a1a" fill-opacity="1"><g transform="translate(293.514741, 909.104531)"><g><path d="M 4.53125 -11.296875 C 4.925781 -11.960938 5.457031 -12.484375 6.125 -12.859375 C 6.789062 -13.242188 7.578125 -13.4375 8.484375 -13.4375 L 8.484375 -10.59375 L 7.796875 -10.59375 C 6.722656 -10.59375 5.910156 -10.320312 5.359375 -9.78125 C 4.804688 -9.238281 4.53125 -8.296875 4.53125 -6.953125 L 4.53125 0 L 1.796875 0 L 1.796875 -13.21875 L 4.53125 -13.21875 Z M 4.53125 -11.296875 "/></g></g></g><g fill="#1b1a1a" fill-opacity="1"><g transform="translate(34.093292, 942.08824)"><g><path d="M 7.34375 -10.984375 L 4.890625 -10.984375 L 4.890625 0 L 2.140625 0 L 2.140625 -10.984375 L 0.578125 -10.984375 L 0.578125 -13.21875 L 2.140625 -13.21875 L 2.140625 -14.15625 C 2.140625 -15.664062 2.539062 -16.769531 3.34375 -17.46875 C 4.15625 -18.164062 5.421875 -18.515625 7.140625 -18.515625 L 7.140625 -16.234375 C 6.316406 -16.234375 5.734375 -16.078125 5.390625 -15.765625 C 5.054688 -15.453125 4.890625 -14.914062 4.890625 -14.15625 L 4.890625 -13.21875 L 7.34375 -13.21875 Z M 7.34375 -10.984375 "/></g></g></g><g fill="#1b1a1a" fill-opacity="1"><g transform="translate(42.057376, 942.08824)"><g><path d="M 13.765625 -13.21875 L 13.765625 0 L 11.03125 0 L 11.03125 -1.5625 C 10.601562 -1.019531 10.039062 -0.59375 9.34375 -0.28125 C 8.644531 0.0273438 7.90625 0.1875 7.125 0.1875 C 6.082031 0.1875 5.148438 -0.0234375 4.328125 -0.453125 C 3.503906 -0.890625 2.851562 -1.53125 2.375 -2.375 C 1.90625 -3.21875 1.671875 -4.238281 1.671875 -5.4375 L 1.671875 -13.21875 L 4.390625 -13.21875 L 4.390625 -5.859375 C 4.390625 -4.671875 4.679688 -3.757812 5.265625 -3.125 C 5.859375 -2.5 6.671875 -2.1875 7.703125 -2.1875 C 8.722656 -2.1875 9.53125 -2.5 10.125 -3.125 C 10.726562 -3.757812 11.03125 -4.671875 11.03125 -5.859375 L 11.03125 -13.21875 Z M 13.765625 -13.21875 "/></g></g></g><g fill="#1b1a1a" fill-opacity="1"><g transform="translate(57.625714, 942.08824)"><g><path d="M 4.53125 -11.296875 C 4.925781 -11.960938 5.457031 -12.484375 6.125 -12.859375 C 6.789062 -13.242188 7.578125 -13.4375 8.484375 -13.4375 L 8.484375 -10.59375 L 7.796875 -10.59375 C 6.722656 -10.59375 5.910156 -10.320312 5.359375 -9.78125 C 4.804688 -9.238281 4.53125 -8.296875 4.53125 -6.953125 L 4.53125 0 L 1.796875 0 L 1.796875 -13.21875 L 4.53125 -13.21875 Z M 4.53125 -11.296875 "/></g></g></g><g fill="#1b1a1a" fill-opacity="1"><g transform="translate(66.837183, 942.08824)"><g><path d="M 8.46875 -13.4375 C 9.507812 -13.4375 10.441406 -13.21875 11.265625 -12.78125 C 12.085938 -12.351562 12.726562 -11.710938 13.1875 -10.859375 C 13.65625 -10.015625 13.890625 -8.992188 13.890625 -7.796875 L 13.890625 0 L 11.171875 0 L 11.171875 -7.390625 C 11.171875 -8.566406 10.875 -9.472656 10.28125 -10.109375 C 9.695312 -10.742188 8.890625 -11.0625 7.859375 -11.0625 C 6.835938 -11.0625 6.023438 -10.742188 5.421875 -10.109375 C 4.828125 -9.472656 4.53125 -8.566406 4.53125 -7.390625 L 4.53125 0 L 1.796875 0 L 1.796875 -13.21875 L 4.53125 -13.21875 L 4.53125 -11.703125 C 4.976562 -12.242188 5.550781 -12.664062 6.25 -12.96875 C 6.945312 -13.28125 7.6875 -13.4375 8.46875 -13.4375 Z M 8.46875 -13.4375 "/></g></g></g><g fill="#1b1a1a" fill-opacity="1"><g transform="translate(82.405521, 942.08824)"><g><path d="M 3.1875 -14.96875 C 2.695312 -14.96875 2.28125 -15.132812 1.9375 -15.46875 C 1.601562 -15.800781 1.4375 -16.21875 1.4375 -16.71875 C 1.4375 -17.207031 1.601562 -17.617188 1.9375 -17.953125 C 2.28125 -18.296875 2.695312 -18.46875 3.1875 -18.46875 C 3.664062 -18.46875 4.070312 -18.296875 4.40625 -17.953125 C 4.75 -17.617188 4.921875 -17.207031 4.921875 -16.71875 C 4.921875 -16.21875 4.75 -15.800781 4.40625 -15.46875 C 4.070312 -15.132812 3.664062 -14.96875 3.1875 -14.96875 Z M 4.53125 -13.21875 L 4.53125 0 L 1.796875 0 L 1.796875 -13.21875 Z M 4.53125 -13.21875 "/></g></g></g><g fill="#1b1a1a" fill-opacity="1"><g transform="translate(88.738403, 942.08824)"><g><path d="M 4.984375 -10.984375 L 4.984375 -3.671875 C 4.984375 -3.171875 5.097656 -2.8125 5.328125 -2.59375 C 5.566406 -2.382812 5.96875 -2.28125 6.53125 -2.28125 L 8.203125 -2.28125 L 8.203125 0 L 6.046875 0 C 4.816406 0 3.875 -0.285156 3.21875 -0.859375 C 2.5625 -1.441406 2.234375 -2.378906 2.234375 -3.671875 L 2.234375 -10.984375 L 0.671875 -10.984375 L 0.671875 -13.21875 L 2.234375 -13.21875 L 2.234375 -16.5 L 4.984375 -16.5 L 4.984375 -13.21875 L 8.203125 -13.21875 L 8.203125 -10.984375 Z M 4.984375 -10.984375 "/></g></g></g><g fill="#1b1a1a" fill-opacity="1"><g transform="translate(97.662012, 942.08824)"><g><path d="M 13.765625 -13.21875 L 13.765625 0 L 11.03125 0 L 11.03125 -1.5625 C 10.601562 -1.019531 10.039062 -0.59375 9.34375 -0.28125 C 8.644531 0.0273438 7.90625 0.1875 7.125 0.1875 C 6.082031 0.1875 5.148438 -0.0234375 4.328125 -0.453125 C 3.503906 -0.890625 2.851562 -1.53125 2.375 -2.375 C 1.90625 -3.21875 1.671875 -4.238281 1.671875 -5.4375 L 1.671875 -13.21875 L 4.390625 -13.21875 L 4.390625 -5.859375 C 4.390625 -4.671875 4.679688 -3.757812 5.265625 -3.125 C 5.859375 -2.5 6.671875 -2.1875 7.703125 -2.1875 C 8.722656 -2.1875 9.53125 -2.5 10.125 -3.125 C 10.726562 -3.757812 11.03125 -4.671875 11.03125 -5.859375 L 11.03125 -13.21875 Z M 13.765625 -13.21875 "/></g></g></g><g fill="#1b1a1a" fill-opacity="1"><g transform="translate(113.23035, 942.08824)"><g><path d="M 4.53125 -11.296875 C 4.925781 -11.960938 5.457031 -12.484375 6.125 -12.859375 C 6.789062 -13.242188 7.578125 -13.4375 8.484375 -13.4375 L 8.484375 -10.59375 L 7.796875 -10.59375 C 6.722656 -10.59375 5.910156 -10.320312 5.359375 -9.78125 C 4.804688 -9.238281 4.53125 -8.296875 4.53125 -6.953125 L 4.53125 0 L 1.796875 0 L 1.796875 -13.21875 L 4.53125 -13.21875 Z M 4.53125 -11.296875 "/></g></g></g><g fill="#1b1a1a" fill-opacity="1"><g transform="translate(122.441819, 942.08824)"><g><path d="M 13.90625 -6.9375 C 13.90625 -6.4375 13.875 -5.988281 13.8125 -5.59375 L 3.71875 -5.59375 C 3.800781 -4.53125 4.191406 -3.679688 4.890625 -3.046875 C 5.597656 -2.410156 6.460938 -2.09375 7.484375 -2.09375 C 8.953125 -2.09375 9.988281 -2.707031 10.59375 -3.9375 L 13.546875 -3.9375 C 13.148438 -2.71875 12.425781 -1.71875 11.375 -0.9375 C 10.332031 -0.164062 9.035156 0.21875 7.484375 0.21875 C 6.222656 0.21875 5.09375 -0.0625 4.09375 -0.625 C 3.09375 -1.195312 2.304688 -2 1.734375 -3.03125 C 1.171875 -4.0625 0.890625 -5.257812 0.890625 -6.625 C 0.890625 -7.976562 1.164062 -9.171875 1.71875 -10.203125 C 2.269531 -11.234375 3.046875 -12.03125 4.046875 -12.59375 C 5.046875 -13.15625 6.191406 -13.4375 7.484375 -13.4375 C 8.734375 -13.4375 9.84375 -13.160156 10.8125 -12.609375 C 11.789062 -12.066406 12.550781 -11.300781 13.09375 -10.3125 C 13.632812 -9.332031 13.90625 -8.207031 13.90625 -6.9375 Z M 11.0625 -7.796875 C 11.039062 -8.804688 10.675781 -9.613281 9.96875 -10.21875 C 9.269531 -10.820312 8.398438 -11.125 7.359375 -11.125 C 6.421875 -11.125 5.613281 -10.820312 4.9375 -10.21875 C 4.269531 -9.625 3.867188 -8.816406 3.734375 -7.796875 Z M 11.0625 -7.796875 "/></g></g></g><g clip-path="url(#432aa55a70)"><g clip-path="url(#5b174efd3d)"><g transform="matrix(1, 0, 0, 1, 334, 731)"><g clip-path="url(#36c9aacbd8)"><g clip-path="url(#58ab6d157a)"><g clip-path="url(#6a4b93a97f)"><path fill="#7ea6ad" d="M 0.714844 0.738281 L 425.8125 0.738281 L 425.8125 53.261719 L 0.714844 53.261719 Z M 0.714844 0.738281 " fill-opacity="1" fill-rule="nonzero"/></g></g></g></g></g></g><g fill="#faefe0" fill-opacity="1"><g transform="translate(478.947743, 765.47343)"><g><path d="M 10.359375 -3.625 C 11.140625 -3.625 11.832031 -3.804688 12.4375 -4.171875 C 13.050781 -4.535156 13.535156 -5.0625 13.890625 -5.75 L 18.390625 -5.75 C 17.910156 -3.925781 16.957031 -2.488281 15.53125 -1.4375 C 14.113281 -0.394531 12.40625 0.125 10.40625 0.125 C 8.425781 0.125 6.71875 -0.394531 5.28125 -1.4375 C 3.851562 -2.476562 2.875 -3.882812 2.34375 -5.65625 L 0.484375 -5.65625 L 0.484375 -7.796875 L 1.984375 -7.796875 C 1.972656 -7.941406 1.96875 -8.15625 1.96875 -8.4375 C 1.96875 -8.738281 1.972656 -8.972656 1.984375 -9.140625 L 0.484375 -9.140625 L 0.484375 -11.296875 L 2.375 -11.296875 C 2.90625 -13.054688 3.882812 -14.453125 5.3125 -15.484375 C 6.738281 -16.515625 8.4375 -17.03125 10.40625 -17.03125 C 12.40625 -17.03125 14.113281 -16.5 15.53125 -15.4375 C 16.957031 -14.382812 17.910156 -12.945312 18.390625 -11.125 L 13.890625 -11.125 C 13.535156 -11.8125 13.050781 -12.332031 12.4375 -12.6875 C 11.832031 -13.050781 11.140625 -13.234375 10.359375 -13.234375 C 9.585938 -13.234375 8.898438 -13.066406 8.296875 -12.734375 C 7.691406 -12.398438 7.203125 -11.921875 6.828125 -11.296875 L 10.84375 -11.296875 L 10.84375 -9.140625 L 6.15625 -9.140625 C 6.144531 -8.992188 6.140625 -8.757812 6.140625 -8.4375 C 6.140625 -8.15625 6.144531 -7.941406 6.15625 -7.796875 L 10.84375 -7.796875 L 10.84375 -5.65625 L 6.78125 -5.65625 C 7.15625 -5 7.648438 -4.492188 8.265625 -4.140625 C 8.878906 -3.796875 9.578125 -3.625 10.359375 -3.625 Z M 10.359375 -3.625 "/></g></g></g><g fill="#faefe0" fill-opacity="1"><g transform="translate(501.103433, 765.47343)"><g><path d="M 1.21875 -12.5625 C 1.28125 -14.28125 1.835938 -15.601562 2.890625 -16.53125 C 3.953125 -17.457031 5.390625 -17.921875 7.203125 -17.921875 C 8.398438 -17.921875 9.425781 -17.710938 10.28125 -17.296875 C 11.132812 -16.878906 11.78125 -16.3125 12.21875 -15.59375 C 12.65625 -14.875 12.875 -14.066406 12.875 -13.171875 C 12.875 -12.109375 12.609375 -11.242188 12.078125 -10.578125 C 11.554688 -9.921875 10.941406 -9.472656 10.234375 -9.234375 L 10.234375 -9.140625 C 11.148438 -8.835938 11.867188 -8.332031 12.390625 -7.625 C 12.921875 -6.925781 13.1875 -6.023438 13.1875 -4.921875 C 13.1875 -3.929688 12.957031 -3.054688 12.5 -2.296875 C 12.050781 -1.535156 11.390625 -0.9375 10.515625 -0.5 C 9.640625 -0.0703125 8.601562 0.140625 7.40625 0.140625 C 5.488281 0.140625 3.957031 -0.328125 2.8125 -1.265625 C 1.675781 -2.210938 1.070312 -3.640625 1 -5.546875 L 4.984375 -5.546875 C 5.003906 -4.835938 5.203125 -4.28125 5.578125 -3.875 C 5.960938 -3.46875 6.523438 -3.265625 7.265625 -3.265625 C 7.890625 -3.265625 8.375 -3.441406 8.71875 -3.796875 C 9.0625 -4.160156 9.234375 -4.640625 9.234375 -5.234375 C 9.234375 -5.992188 8.988281 -6.546875 8.5 -6.890625 C 8.007812 -7.234375 7.226562 -7.40625 6.15625 -7.40625 L 5.390625 -7.40625 L 5.390625 -10.75 L 6.15625 -10.75 C 6.976562 -10.75 7.640625 -10.882812 8.140625 -11.15625 C 8.640625 -11.4375 8.890625 -11.9375 8.890625 -12.65625 C 8.890625 -13.238281 8.726562 -13.6875 8.40625 -14 C 8.09375 -14.320312 7.65625 -14.484375 7.09375 -14.484375 C 6.488281 -14.484375 6.035156 -14.300781 5.734375 -13.9375 C 5.441406 -13.570312 5.273438 -13.113281 5.234375 -12.5625 Z M 1.21875 -12.5625 "/></g></g></g><g fill="#faefe0" fill-opacity="1"><g transform="translate(518.67963, 765.47343)"><g><path d="M 5.5 -5.125 C 5.738281 -3.863281 6.472656 -3.234375 7.703125 -3.234375 C 8.546875 -3.234375 9.144531 -3.609375 9.5 -4.359375 C 9.851562 -5.117188 10.03125 -6.34375 10.03125 -8.03125 C 9.675781 -7.539062 9.191406 -7.15625 8.578125 -6.875 C 7.972656 -6.601562 7.296875 -6.46875 6.546875 -6.46875 C 5.523438 -6.46875 4.613281 -6.679688 3.8125 -7.109375 C 3.007812 -7.535156 2.378906 -8.164062 1.921875 -9 C 1.472656 -9.84375 1.25 -10.863281 1.25 -12.0625 C 1.25 -13.25 1.488281 -14.28125 1.96875 -15.15625 C 2.457031 -16.039062 3.15625 -16.722656 4.0625 -17.203125 C 4.96875 -17.679688 6.035156 -17.921875 7.265625 -17.921875 C 9.628906 -17.921875 11.28125 -17.179688 12.21875 -15.703125 C 13.164062 -14.234375 13.640625 -12.066406 13.640625 -9.203125 C 13.640625 -7.128906 13.453125 -5.414062 13.078125 -4.0625 C 12.703125 -2.707031 12.070312 -1.675781 11.1875 -0.96875 C 10.300781 -0.269531 9.09375 0.078125 7.5625 0.078125 C 6.34375 0.078125 5.304688 -0.160156 4.453125 -0.640625 C 3.597656 -1.117188 2.941406 -1.75 2.484375 -2.53125 C 2.023438 -3.320312 1.765625 -4.1875 1.703125 -5.125 Z M 7.484375 -9.71875 C 8.148438 -9.71875 8.679688 -9.921875 9.078125 -10.328125 C 9.484375 -10.734375 9.6875 -11.289062 9.6875 -12 C 9.6875 -12.757812 9.476562 -13.347656 9.0625 -13.765625 C 8.644531 -14.179688 8.085938 -14.390625 7.390625 -14.390625 C 6.679688 -14.390625 6.125 -14.175781 5.71875 -13.75 C 5.3125 -13.332031 5.109375 -12.753906 5.109375 -12.015625 C 5.109375 -11.328125 5.3125 -10.769531 5.71875 -10.34375 C 6.125 -9.925781 6.710938 -9.71875 7.484375 -9.71875 Z M 7.484375 -9.71875 "/></g></g></g><g fill="#faefe0" fill-opacity="1"><g transform="translate(536.495587, 765.47343)"><g><path d="M 5.5 -5.125 C 5.738281 -3.863281 6.472656 -3.234375 7.703125 -3.234375 C 8.546875 -3.234375 9.144531 -3.609375 9.5 -4.359375 C 9.851562 -5.117188 10.03125 -6.34375 10.03125 -8.03125 C 9.675781 -7.539062 9.191406 -7.15625 8.578125 -6.875 C 7.972656 -6.601562 7.296875 -6.46875 6.546875 -6.46875 C 5.523438 -6.46875 4.613281 -6.679688 3.8125 -7.109375 C 3.007812 -7.535156 2.378906 -8.164062 1.921875 -9 C 1.472656 -9.84375 1.25 -10.863281 1.25 -12.0625 C 1.25 -13.25 1.488281 -14.28125 1.96875 -15.15625 C 2.457031 -16.039062 3.15625 -16.722656 4.0625 -17.203125 C 4.96875 -17.679688 6.035156 -17.921875 7.265625 -17.921875 C 9.628906 -17.921875 11.28125 -17.179688 12.21875 -15.703125 C 13.164062 -14.234375 13.640625 -12.066406 13.640625 -9.203125 C 13.640625 -7.128906 13.453125 -5.414062 13.078125 -4.0625 C 12.703125 -2.707031 12.070312 -1.675781 11.1875 -0.96875 C 10.300781 -0.269531 9.09375 0.078125 7.5625 0.078125 C 6.34375 0.078125 5.304688 -0.160156 4.453125 -0.640625 C 3.597656 -1.117188 2.941406 -1.75 2.484375 -2.53125 C 2.023438 -3.320312 1.765625 -4.1875 1.703125 -5.125 Z M 7.484375 -9.71875 C 8.148438 -9.71875 8.679688 -9.921875 9.078125 -10.328125 C 9.484375 -10.734375 9.6875 -11.289062 9.6875 -12 C 9.6875 -12.757812 9.476562 -13.347656 9.0625 -13.765625 C 8.644531 -14.179688 8.085938 -14.390625 7.390625 -14.390625 C 6.679688 -14.390625 6.125 -14.175781 5.71875 -13.75 C 5.3125 -13.332031 5.109375 -12.753906 5.109375 -12.015625 C 5.109375 -11.328125 5.3125 -10.769531 5.71875 -10.34375 C 6.125 -9.925781 6.710938 -9.71875 7.484375 -9.71875 Z M 7.484375 -9.71875 "/></g></g></g><g fill="#faefe0" fill-opacity="1"><g transform="translate(554.311544, 765.47343)"><g/></g></g><g fill="#faefe0" fill-opacity="1"><g transform="translate(562.465014, 765.47343)"><g><path d="M 1.078125 -9 C 1.078125 -11.75 1.609375 -13.914062 2.671875 -15.5 C 3.734375 -17.082031 5.445312 -17.875 7.8125 -17.875 C 10.1875 -17.875 11.90625 -17.082031 12.96875 -15.5 C 14.03125 -13.914062 14.5625 -11.75 14.5625 -9 C 14.5625 -6.21875 14.03125 -4.035156 12.96875 -2.453125 C 11.90625 -0.867188 10.1875 -0.078125 7.8125 -0.078125 C 5.445312 -0.078125 3.734375 -0.867188 2.671875 -2.453125 C 1.609375 -4.035156 1.078125 -6.21875 1.078125 -9 Z M 10.53125 -9 C 10.53125 -10.613281 10.351562 -11.851562 10 -12.71875 C 9.644531 -13.59375 8.914062 -14.03125 7.8125 -14.03125 C 6.707031 -14.03125 5.976562 -13.59375 5.625 -12.71875 C 5.28125 -11.851562 5.109375 -10.613281 5.109375 -9 C 5.109375 -7.90625 5.171875 -7.003906 5.296875 -6.296875 C 5.429688 -5.585938 5.691406 -5.007812 6.078125 -4.5625 C 6.472656 -4.125 7.050781 -3.90625 7.8125 -3.90625 C 8.582031 -3.90625 9.160156 -4.125 9.546875 -4.5625 C 9.941406 -5.007812 10.203125 -5.585938 10.328125 -6.296875 C 10.460938 -7.003906 10.53125 -7.90625 10.53125 -9 Z M 10.53125 -9 "/></g></g></g><g fill="#faefe0" fill-opacity="1"><g transform="translate(581.168103, 765.47343)"><g><path d="M 1.078125 -9 C 1.078125 -11.75 1.609375 -13.914062 2.671875 -15.5 C 3.734375 -17.082031 5.445312 -17.875 7.8125 -17.875 C 10.1875 -17.875 11.90625 -17.082031 12.96875 -15.5 C 14.03125 -13.914062 14.5625 -11.75 14.5625 -9 C 14.5625 -6.21875 14.03125 -4.035156 12.96875 -2.453125 C 11.90625 -0.867188 10.1875 -0.078125 7.8125 -0.078125 C 5.445312 -0.078125 3.734375 -0.867188 2.671875 -2.453125 C 1.609375 -4.035156 1.078125 -6.21875 1.078125 -9 Z M 10.53125 -9 C 10.53125 -10.613281 10.351562 -11.851562 10 -12.71875 C 9.644531 -13.59375 8.914062 -14.03125 7.8125 -14.03125 C 6.707031 -14.03125 5.976562 -13.59375 5.625 -12.71875 C 5.28125 -11.851562 5.109375 -10.613281 5.109375 -9 C 5.109375 -7.90625 5.171875 -7.003906 5.296875 -6.296875 C 5.429688 -5.585938 5.691406 -5.007812 6.078125 -4.5625 C 6.472656 -4.125 7.050781 -3.90625 7.8125 -3.90625 C 8.582031 -3.90625 9.160156 -4.125 9.546875 -4.5625 C 9.941406 -5.007812 10.203125 -5.585938 10.328125 -6.296875 C 10.460938 -7.003906 10.53125 -7.90625 10.53125 -9 Z M 10.53125 -9 "/></g></g></g><g fill="#faefe0" fill-opacity="1"><g transform="translate(599.871192, 765.47343)"><g><path d="M 1.078125 -9 C 1.078125 -11.75 1.609375 -13.914062 2.671875 -15.5 C 3.734375 -17.082031 5.445312 -17.875 7.8125 -17.875 C 10.1875 -17.875 11.90625 -17.082031 12.96875 -15.5 C 14.03125 -13.914062 14.5625 -11.75 14.5625 -9 C 14.5625 -6.21875 14.03125 -4.035156 12.96875 -2.453125 C 11.90625 -0.867188 10.1875 -0.078125 7.8125 -0.078125 C 5.445312 -0.078125 3.734375 -0.867188 2.671875 -2.453125 C 1.609375 -4.035156 1.078125 -6.21875 1.078125 -9 Z M 10.53125 -9 C 10.53125 -10.613281 10.351562 -11.851562 10 -12.71875 C 9.644531 -13.59375 8.914062 -14.03125 7.8125 -14.03125 C 6.707031 -14.03125 5.976562 -13.59375 5.625 -12.71875 C 5.28125 -11.851562 5.109375 -10.613281 5.109375 -9 C 5.109375 -7.90625 5.171875 -7.003906 5.296875 -6.296875 C 5.429688 -5.585938 5.691406 -5.007812 6.078125 -4.5625 C 6.472656 -4.125 7.050781 -3.90625 7.8125 -3.90625 C 8.582031 -3.90625 9.160156 -4.125 9.546875 -4.5625 C 9.941406 -5.007812 10.203125 -5.585938 10.328125 -6.296875 C 10.460938 -7.003906 10.53125 -7.90625 10.53125 -9 Z M 10.53125 -9 "/></g></g></g></svg>