<svg xmlns="http://www.w3.org/2000/svg" xmlns:xlink="http://www.w3.org/1999/xlink" width="1080" zoomAndPan="magnify" viewBox="0 0 810 1012.49997" height="1350" preserveAspectRatio="xMidYMid meet" version="1.0"><defs><filter x="0%" y="0%" width="100%" height="100%" id="c70f8d39fa"><feColorMatrix values="0 0 0 0 1 0 0 0 0 1 0 0 0 0 1 0 0 0 1 0" color-interpolation-filters="sRGB"/></filter><g/><clipPath id="0338d384ad"><path d="M 0.199219 0 L 809.800781 0 L 809.800781 1012 L 0.199219 1012 Z M 0.199219 0 " clip-rule="nonzero"/></clipPath><clipPath id="d92aed3a01"><path d="M 0.199219 0 L 809 0 L 809 1012 L 0.199219 1012 Z M 0.199219 0 " clip-rule="nonzero"/></clipPath><clipPath id="3859fdbd46"><path d="M 0.199219 749 L 765 749 L 765 1012 L 0.199219 1012 Z M 0.199219 749 " clip-rule="nonzero"/></clipPath><mask id="4fab853024"><g filter="url(#c70f8d39fa)"><rect x="-81" width="972" fill="#000000" y="-101.249997" height="1214.999964" fill-opacity="0.81"/></g></mask><clipPath id="2506791575"><path d="M 0.199219 0.425781 L 764 0.425781 L 764 263 L 0.199219 263 Z M 0.199219 0.425781 " clip-rule="nonzero"/></clipPath><clipPath id="677bb2e7e2"><path d="M 763.363281 75.390625 L 763.363281 301.34375 C 763.363281 342.746094 729.804688 376.304688 688.402344 376.304688 L -80.167969 376.304688 C -121.570312 376.304688 -155.132812 342.746094 -155.132812 301.34375 L -155.132812 75.390625 C -155.132812 33.988281 -121.570312 0.425781 -80.167969 0.425781 L 688.402344 0.425781 C 729.804688 0.425781 763.363281 33.988281 763.363281 75.390625 Z M 763.363281 75.390625 " clip-rule="nonzero"/></clipPath><clipPath id="47394602ec"><path d="M 0.199219 0.425781 L 763.503906 0.425781 L 763.503906 263 L 0.199219 263 Z M 0.199219 0.425781 " clip-rule="nonzero"/></clipPath><clipPath id="0b6d70a060"><path d="M 763.363281 75.390625 L 763.363281 301.34375 C 763.363281 342.746094 729.804688 376.304688 688.402344 376.304688 L -80.167969 376.304688 C -121.570312 376.304688 -155.132812 342.746094 -155.132812 301.34375 L -155.132812 75.390625 C -155.132812 33.988281 -121.570312 0.425781 -80.167969 0.425781 L 688.402344 0.425781 C 729.804688 0.425781 763.363281 33.988281 763.363281 75.390625 Z M 763.363281 75.390625 " clip-rule="nonzero"/></clipPath><clipPath id="5235495962"><rect x="0" width="764" y="0" height="263"/></clipPath><clipPath id="60019f9674"><rect x="0" width="765" y="0" height="263"/></clipPath><clipPath id="69d20635fc"><path d="M 232.625 0 L 809.800781 0 L 809.800781 83.628906 L 232.625 83.628906 Z M 232.625 0 " clip-rule="nonzero"/></clipPath><clipPath id="a6f4ed9d91"><path d="M 270.859375 -243.320312 L 927.421875 -243.320312 C 937.5625 -243.320312 947.285156 -239.292969 954.457031 -232.125 C 961.625 -224.953125 965.652344 -215.230469 965.652344 -205.089844 L 965.652344 45.398438 C 965.652344 55.535156 961.625 65.261719 954.457031 72.429688 C 947.285156 79.601562 937.5625 83.628906 927.421875 83.628906 L 270.859375 83.628906 C 260.71875 83.628906 250.992188 79.601562 243.824219 72.429688 C 236.652344 65.261719 232.625 55.535156 232.625 45.398438 L 232.625 -205.089844 C 232.625 -215.230469 236.652344 -224.953125 243.824219 -232.125 C 250.992188 -239.292969 260.71875 -243.320312 270.859375 -243.320312 Z M 270.859375 -243.320312 " clip-rule="nonzero"/></clipPath><clipPath id="0e1d84a9f3"><path d="M 0.625 0 L 577.800781 0 L 577.800781 83.628906 L 0.625 83.628906 Z M 0.625 0 " clip-rule="nonzero"/></clipPath><clipPath id="4b3351e835"><path d="M 38.859375 -243.320312 L 695.421875 -243.320312 C 705.5625 -243.320312 715.285156 -239.292969 722.457031 -232.125 C 729.625 -224.953125 733.652344 -215.230469 733.652344 -205.089844 L 733.652344 45.398438 C 733.652344 55.535156 729.625 65.261719 722.457031 72.429688 C 715.285156 79.601562 705.5625 83.628906 695.421875 83.628906 L 38.859375 83.628906 C 28.71875 83.628906 18.992188 79.601562 11.824219 72.429688 C 4.652344 65.261719 0.625 55.535156 0.625 45.398438 L 0.625 -205.089844 C 0.625 -215.230469 4.652344 -224.953125 11.824219 -232.125 C 18.992188 -239.292969 28.71875 -243.320312 38.859375 -243.320312 Z M 38.859375 -243.320312 " clip-rule="nonzero"/></clipPath><clipPath id="d7f656316f"><rect x="0" width="578" y="0" height="84"/></clipPath><clipPath id="5e1b2dde10"><path d="M 178.390625 871.027344 L 221.867188 871.027344 L 221.867188 901.765625 L 178.390625 901.765625 Z M 178.390625 871.027344 " clip-rule="nonzero"/></clipPath><clipPath id="5890548e16"><path d="M 61.746094 864.039062 L 100.726562 864.039062 L 100.726562 901.523438 L 61.746094 901.523438 Z M 61.746094 864.039062 " clip-rule="nonzero"/></clipPath><clipPath id="80566a0c54"><path d="M 300 864.039062 L 338.972656 864.039062 L 338.972656 901.523438 L 300 901.523438 Z M 300 864.039062 " clip-rule="nonzero"/></clipPath><clipPath id="2753acac74"><path d="M 501 870.03125 L 534 870.03125 L 534 901.515625 L 501 901.515625 Z M 501 870.03125 " clip-rule="nonzero"/></clipPath><clipPath id="6690402f88"><path d="M 100.609375 91.460938 L 198.058594 91.460938 L 198.058594 122.195312 L 100.609375 122.195312 Z M 100.609375 91.460938 " clip-rule="nonzero"/></clipPath><clipPath id="6c941839d5"><path d="M 128 115 L 136 115 L 136 122.195312 L 128 122.195312 Z M 128 115 " clip-rule="nonzero"/></clipPath><clipPath id="5ecdc1d035"><path d="M 137 115 L 144 115 L 144 122.195312 L 137 122.195312 Z M 137 115 " clip-rule="nonzero"/></clipPath></defs><g clip-path="url(#0338d384ad)"><path fill="#ffffff" d="M 0.199219 0 L 809.800781 0 L 809.800781 1012 L 0.199219 1012 Z M 0.199219 0 " fill-opacity="1" fill-rule="nonzero"/><path fill="#ffffff" d="M 0.199219 0 L 809.800781 0 L 809.800781 1012 L 0.199219 1012 Z M 0.199219 0 " fill-opacity="1" fill-rule="nonzero"/></g><g clip-path="url(#d92aed3a01)"><g transform="matrix(0.329537, 0, 0, 0.329945, -838.19215, -87.660073)"><image x="0" y="0" width="5000" xlink:href="@@PHOTO0@@" height="3333" preserveAspectRatio="xMidYMid meet"/></g></g><g clip-path="url(#3859fdbd46)"><g mask="url(#4fab853024)"><g transform="matrix(1, 0, 0, 1, 0.000000000000000028, 749)"><g clip-path="url(#60019f9674)"><g clip-path="url(#2506791575)"><g clip-path="url(#677bb2e7e2)"><g transform="matrix(1, 0, 0, 1, 0.000000000000000028, 0)"><g clip-path="url(#5235495962)"><g clip-path="url(#47394602ec)"><g clip-path="url(#0b6d70a060)"><path fill="#ffffff" d="M -155.132812 0.425781 L 764.011719 0.425781 L 764.011719 376.304688 L -155.132812 376.304688 Z M -155.132812 0.425781 " fill-opacity="1" fill-rule="nonzero"/></g></g></g></g></g></g></g></g></g></g><g clip-path="url(#69d20635fc)"><g clip-path="url(#a6f4ed9d91)"><g transform="matrix(1, 0, 0, 1, 232, 0)"><g clip-path="url(#d7f656316f)"><g clip-path="url(#0e1d84a9f3)"><g clip-path="url(#4b3351e835)"><path fill="#626533" d="M 0.625 -243.320312 L 733.710938 -243.320312 L 733.710938 83.628906 L 0.625 83.628906 Z M 0.625 -243.320312 " fill-opacity="1" fill-rule="nonzero"/></g></g></g></g></g></g><g clip-path="url(#5e1b2dde10)"><path fill="#626533" d="M 222.105469 892.253906 L 222.105469 899.238281 C 222.105469 900.480469 221.097656 901.488281 219.855469 901.488281 L 180.65625 901.488281 C 179.414062 901.488281 178.40625 900.480469 178.40625 899.238281 L 178.40625 892.253906 C 178.40625 889.046875 180.601562 886.351562 183.570312 885.589844 L 213.050781 885.589844 C 214.214844 885.589844 215.390625 885.628906 216.558594 885.609375 C 216.699219 885.605469 216.839844 885.605469 216.980469 885.601562 C 219.929688 886.375 222.105469 889.0625 222.105469 892.253906 Z M 187.144531 884.277344 L 187.144531 881.378906 C 187.144531 880.105469 188.175781 879.074219 189.449219 879.074219 L 197.074219 879.074219 C 198.347656 879.074219 199.378906 880.105469 199.378906 881.378906 L 199.378906 884.277344 L 201.136719 884.277344 L 201.136719 881.378906 C 201.136719 880.105469 202.167969 879.074219 203.441406 879.074219 L 211.0625 879.074219 C 212.335938 879.074219 213.367188 880.105469 213.367188 881.378906 L 213.367188 884.277344 L 216.558594 884.277344 L 216.558594 874.078125 C 216.558594 872.394531 215.195312 871.027344 213.511719 871.027344 L 187 871.027344 C 185.320312 871.027344 183.953125 872.394531 183.953125 874.078125 L 183.953125 884.25 C 184.847656 884.253906 185.738281 884.277344 186.625 884.277344 Z M 187.144531 884.277344 " fill-opacity="1" fill-rule="nonzero"/></g><g clip-path="url(#5890548e16)"><path fill="#626533" d="M 63.121094 886.761719 L 99.445312 886.832031 C 99.414062 888.84375 99.03125 894.40625 94.789062 897.585938 C 93.835938 898.28125 92.78125 898.753906 91.625 899.003906 C 91.648438 899.054688 91.664062 899.105469 91.667969 899.160156 L 91.667969 900.855469 C 91.644531 901.039062 91.558594 901.1875 91.414062 901.304688 C 91.269531 901.417969 91.105469 901.46875 90.921875 901.449219 L 90.335938 901.449219 C 90.152344 901.46875 89.988281 901.417969 89.84375 901.304688 C 89.699219 901.1875 89.617188 901.039062 89.59375 900.855469 L 89.59375 899.347656 C 86.910156 899.5625 84.222656 899.636719 81.53125 899.578125 C 78.675781 899.636719 75.824219 899.546875 72.976562 899.3125 L 72.976562 900.855469 C 72.953125 901.039062 72.867188 901.1875 72.722656 901.304688 C 72.578125 901.417969 72.414062 901.46875 72.230469 901.449219 L 71.644531 901.449219 C 71.460938 901.46875 71.296875 901.417969 71.152344 901.304688 C 71.007812 901.1875 70.925781 901.039062 70.902344 900.855469 L 70.902344 899.160156 C 70.902344 899.089844 70.921875 899.023438 70.953125 898.960938 C 69.6875 898.6875 68.542969 898.152344 67.519531 897.363281 C 63.535156 894.21875 63.136719 888.972656 63.121094 886.761719 Z M 98.878906 882.375 L 98.078125 882.375 C 98.070312 880.023438 98.074219 877.675781 98.089844 875.328125 C 98.191406 873.117188 98.117188 870.917969 97.867188 868.722656 C 97.8125 868.050781 97.621094 867.417969 97.296875 866.828125 C 96.972656 866.238281 96.542969 865.742188 96.007812 865.332031 C 94.0625 864.023438 91.460938 864.28125 90.152344 866.246094 C 88.582031 866.074219 86.902344 866.910156 86.773438 867.695312 C 86.644531 868.425781 87.828125 869.203125 89.136719 870.058594 C 90.460938 870.929688 91.769531 871.789062 92.445312 871.34375 C 93.121094 870.898438 93.222656 869.09375 92.464844 867.761719 C 92.648438 867.5 92.902344 867.335938 93.214844 867.273438 C 93.53125 867.207031 93.824219 867.257812 94.097656 867.425781 C 94.28125 867.507812 94.453125 867.601562 94.613281 867.714844 C 94.328125 867.523438 94.644531 867.828125 94.738281 867.894531 C 94.785156 868.007812 94.84375 868.113281 94.917969 868.210938 C 94.984375 868.398438 95.042969 868.59375 95.089844 868.789062 C 95.21875 869.371094 95.289062 869.964844 95.296875 870.5625 C 95.5 874.488281 95.339844 878.441406 95.328125 882.375 L 63.449219 882.375 C 63.261719 882.359375 63.078125 882.378906 62.898438 882.4375 C 62.71875 882.496094 62.554688 882.585938 62.410156 882.707031 C 62.265625 882.828125 62.148438 882.972656 62.058594 883.136719 C 61.96875 883.304688 61.914062 883.484375 61.894531 883.671875 C 61.914062 883.859375 61.96875 884.039062 62.058594 884.203125 C 62.148438 884.371094 62.265625 884.515625 62.410156 884.636719 C 62.554688 884.757812 62.71875 884.847656 62.898438 884.90625 C 63.078125 884.960938 63.261719 884.984375 63.449219 884.96875 L 98.878906 884.96875 C 99.066406 884.984375 99.25 884.960938 99.433594 884.90625 C 99.613281 884.847656 99.773438 884.757812 99.921875 884.636719 C 100.066406 884.515625 100.183594 884.371094 100.269531 884.203125 C 100.359375 884.039062 100.414062 883.859375 100.433594 883.671875 C 100.414062 883.484375 100.359375 883.304688 100.269531 883.136719 C 100.183594 882.972656 100.066406 882.828125 99.921875 882.707031 C 99.773438 882.585938 99.613281 882.496094 99.433594 882.4375 C 99.25 882.378906 99.066406 882.359375 98.878906 882.375 Z M 89.453125 875.324219 C 89.550781 875.414062 89.667969 875.476562 89.804688 875.507812 L 90.078125 875.542969 C 90.265625 875.546875 90.441406 875.496094 90.601562 875.402344 C 90.839844 875.257812 91 875.050781 91.078125 874.78125 L 91.363281 873.738281 C 91.40625 873.605469 91.410156 873.464844 91.378906 873.328125 C 91.355469 873.039062 91.226562 872.816406 90.992188 872.652344 C 90.890625 872.558594 90.773438 872.496094 90.640625 872.464844 L 90.363281 872.429688 C 90.175781 872.429688 90.003906 872.476562 89.839844 872.570312 C 89.601562 872.714844 89.445312 872.921875 89.367188 873.191406 L 89.082031 874.234375 C 89.035156 874.371094 89.03125 874.507812 89.0625 874.648438 C 89.070312 874.785156 89.109375 874.914062 89.183594 875.03125 C 89.25 875.152344 89.335938 875.25 89.453125 875.324219 Z M 88.191406 877.492188 L 87.902344 878.535156 C 87.859375 878.671875 87.855469 878.8125 87.886719 878.949219 C 87.890625 879.089844 87.933594 879.21875 88.007812 879.335938 C 88.160156 879.566406 88.367188 879.726562 88.628906 879.808594 L 88.90625 879.847656 C 89.089844 879.847656 89.265625 879.800781 89.425781 879.707031 C 89.667969 879.5625 89.824219 879.355469 89.902344 879.089844 L 90.1875 878.046875 C 90.230469 877.910156 90.238281 877.769531 90.207031 877.632812 C 90.179688 877.347656 90.050781 877.121094 89.816406 876.957031 C 89.714844 876.863281 89.597656 876.800781 89.464844 876.773438 L 89.1875 876.734375 C 89.003906 876.734375 88.828125 876.78125 88.667969 876.871094 C 88.425781 877.019531 88.269531 877.226562 88.191406 877.492188 Z M 88.179688 871.121094 L 87.972656 870.960938 C 87.8125 870.867188 87.636719 870.820312 87.449219 870.820312 L 87.175781 870.855469 C 87 870.90625 86.847656 870.992188 86.71875 871.121094 L 86.03125 871.957031 C 85.929688 872.046875 85.859375 872.160156 85.816406 872.289062 C 85.691406 872.554688 85.691406 872.820312 85.816406 873.085938 C 85.859375 873.214844 85.929688 873.328125 86.03125 873.417969 L 86.238281 873.582031 C 86.398438 873.675781 86.570312 873.71875 86.757812 873.71875 L 87.035156 873.683594 C 87.210938 873.632812 87.363281 873.546875 87.492188 873.414062 L 88.179688 872.582031 C 88.28125 872.492188 88.351562 872.378906 88.394531 872.25 C 88.519531 871.984375 88.519531 871.71875 88.394531 871.453125 C 88.351562 871.324219 88.28125 871.214844 88.179688 871.121094 Z M 83.1875 876.855469 L 83.394531 877.015625 C 83.554688 877.109375 83.730469 877.15625 83.917969 877.15625 L 84.191406 877.117188 C 84.371094 877.070312 84.523438 876.984375 84.652344 876.855469 C 84.882812 876.578125 85.113281 876.300781 85.34375 876.023438 C 85.445312 875.929688 85.515625 875.820312 85.558594 875.691406 C 85.683594 875.425781 85.683594 875.15625 85.558594 874.890625 C 85.515625 874.761719 85.445312 874.652344 85.34375 874.558594 L 85.136719 874.398438 C 84.976562 874.304688 84.800781 874.257812 84.613281 874.257812 L 84.339844 874.292969 C 84.164062 874.34375 84.011719 874.429688 83.882812 874.558594 L 83.191406 875.394531 C 83.09375 875.484375 83.019531 875.597656 82.980469 875.726562 C 82.855469 875.992188 82.855469 876.257812 82.980469 876.523438 C 83.019531 876.652344 83.089844 876.761719 83.1875 876.855469 Z M 83.398438 870.679688 L 83.558594 870.886719 C 83.6875 871.015625 83.839844 871.105469 84.015625 871.152344 L 84.292969 871.191406 C 84.480469 871.191406 84.652344 871.144531 84.816406 871.046875 L 85.742188 870.492188 C 85.863281 870.429688 85.957031 870.34375 86.03125 870.230469 C 86.125 870.128906 86.1875 870.011719 86.21875 869.875 C 86.261719 869.742188 86.269531 869.601562 86.238281 869.464844 C 86.230469 869.324219 86.191406 869.195312 86.113281 869.078125 L 85.953125 868.871094 C 85.824219 868.742188 85.671875 868.65625 85.496094 868.605469 L 85.21875 868.570312 C 85.035156 868.570312 84.859375 868.617188 84.699219 868.710938 L 83.769531 869.265625 C 83.652344 869.328125 83.554688 869.417969 83.480469 869.53125 C 83.386719 869.632812 83.328125 869.75 83.296875 869.882812 C 83.25 870.019531 83.246094 870.160156 83.277344 870.296875 C 83.285156 870.4375 83.324219 870.5625 83.398438 870.679688 Z M 79.574219 872.972656 L 79.738281 873.179688 C 79.867188 873.308594 80.019531 873.398438 80.191406 873.445312 L 80.46875 873.484375 C 80.65625 873.484375 80.828125 873.4375 80.992188 873.34375 L 81.917969 872.789062 C 82.039062 872.726562 82.132812 872.636719 82.207031 872.523438 C 82.398438 872.300781 82.464844 872.046875 82.414062 871.757812 C 82.410156 871.621094 82.367188 871.492188 82.292969 871.375 L 82.128906 871.167969 C 82 871.039062 81.847656 870.949219 81.675781 870.902344 L 81.398438 870.863281 C 81.210938 870.863281 81.039062 870.910156 80.875 871.003906 L 79.949219 871.5625 C 79.828125 871.625 79.734375 871.714844 79.660156 871.828125 C 79.46875 872.050781 79.402344 872.304688 79.453125 872.59375 C 79.457031 872.730469 79.5 872.859375 79.574219 872.972656 Z M 79.574219 872.972656 " fill-opacity="1" fill-rule="nonzero"/></g><g clip-path="url(#80566a0c54)"><path fill="#626533" d="M 338.746094 865.675781 L 338.746094 899.578125 C 338.753906 899.964844 338.640625 900.316406 338.40625 900.625 C 338.171875 900.933594 337.867188 901.140625 337.492188 901.238281 C 336.902344 901.375 336.390625 901.230469 335.960938 900.800781 C 335.644531 900.484375 335.484375 900.101562 335.484375 899.652344 L 335.484375 867.292969 L 303.367188 867.292969 L 303.367188 899.445312 C 303.386719 899.851562 303.277344 900.21875 303.042969 900.550781 C 302.808594 900.882812 302.496094 901.109375 302.109375 901.230469 C 301.832031 901.300781 301.554688 901.292969 301.28125 901.210938 C 301.007812 901.128906 300.777344 900.980469 300.585938 900.765625 C 300.265625 900.417969 300.105469 900.003906 300.109375 899.527344 L 300.109375 865.3125 C 300.175781 865.003906 300.320312 864.738281 300.542969 864.519531 C 300.859375 864.199219 301.242188 864.042969 301.691406 864.039062 L 337.109375 864.039062 C 337.328125 864.039062 337.535156 864.082031 337.734375 864.164062 C 337.9375 864.25 338.113281 864.367188 338.265625 864.519531 C 338.417969 864.671875 338.535156 864.847656 338.621094 865.050781 C 338.703125 865.25 338.746094 865.457031 338.746094 865.675781 Z M 333.15625 868.289062 L 305.699219 868.289062 C 305.550781 868.289062 305.410156 868.320312 305.277344 868.375 C 305.140625 868.429688 305.023438 868.511719 304.917969 868.613281 C 304.816406 868.714844 304.738281 868.835938 304.679688 868.96875 C 304.625 869.105469 304.597656 869.246094 304.597656 869.390625 C 304.597656 869.535156 304.625 869.675781 304.679688 869.8125 C 304.738281 869.945312 304.816406 870.066406 304.917969 870.167969 C 305.023438 870.273438 305.140625 870.351562 305.277344 870.40625 C 305.410156 870.464844 305.550781 870.492188 305.699219 870.492188 L 333.15625 870.492188 C 333.300781 870.492188 333.441406 870.464844 333.574219 870.40625 C 333.710938 870.351562 333.828125 870.273438 333.933594 870.167969 C 334.035156 870.066406 334.117188 869.945312 334.171875 869.8125 C 334.226562 869.675781 334.253906 869.535156 334.253906 869.390625 C 334.253906 869.246094 334.226562 869.105469 334.171875 868.96875 C 334.117188 868.835938 334.035156 868.714844 333.933594 868.613281 C 333.828125 868.507812 333.710938 868.429688 333.574219 868.375 C 333.441406 868.316406 333.300781 868.289062 333.15625 868.289062 Z M 333.15625 871.691406 L 305.699219 871.691406 C 305.554688 871.695312 305.417969 871.726562 305.285156 871.785156 C 305.152344 871.839844 305.039062 871.921875 304.9375 872.023438 C 304.835938 872.128906 304.757812 872.246094 304.707031 872.378906 C 304.652344 872.511719 304.625 872.648438 304.625 872.792969 C 304.625 872.9375 304.652344 873.074219 304.707031 873.207031 C 304.757812 873.339844 304.835938 873.460938 304.9375 873.5625 C 305.039062 873.664062 305.152344 873.746094 305.285156 873.800781 C 305.417969 873.859375 305.554688 873.890625 305.699219 873.894531 L 333.15625 873.894531 C 333.304688 873.898438 333.445312 873.871094 333.585938 873.820312 C 333.722656 873.765625 333.84375 873.683594 333.949219 873.582031 C 334.058594 873.476562 334.140625 873.359375 334.195312 873.222656 C 334.253906 873.085938 334.285156 872.941406 334.285156 872.792969 C 334.285156 872.644531 334.253906 872.503906 334.195312 872.367188 C 334.140625 872.230469 334.058594 872.109375 333.949219 872.003906 C 333.84375 871.902344 333.722656 871.824219 333.585938 871.769531 C 333.445312 871.714844 333.304688 871.6875 333.15625 871.691406 Z M 333.15625 874.949219 L 305.699219 874.949219 C 305.554688 874.953125 305.417969 874.984375 305.285156 875.042969 C 305.152344 875.097656 305.039062 875.179688 304.9375 875.28125 C 304.835938 875.382812 304.757812 875.503906 304.707031 875.636719 C 304.652344 875.769531 304.625 875.90625 304.625 876.050781 C 304.625 876.195312 304.652344 876.332031 304.707031 876.464844 C 304.757812 876.597656 304.835938 876.714844 304.9375 876.820312 C 305.039062 876.921875 305.152344 877.003906 305.285156 877.058594 C 305.417969 877.117188 305.554688 877.148438 305.699219 877.152344 L 333.15625 877.152344 C 333.304688 877.15625 333.445312 877.128906 333.585938 877.074219 C 333.722656 877.023438 333.84375 876.941406 333.949219 876.839844 C 334.058594 876.734375 334.140625 876.617188 334.195312 876.476562 C 334.253906 876.339844 334.285156 876.199219 334.285156 876.050781 C 334.285156 875.902344 334.253906 875.757812 334.195312 875.621094 C 334.140625 875.484375 334.058594 875.367188 333.949219 875.261719 C 333.84375 875.160156 333.722656 875.078125 333.585938 875.027344 C 333.445312 874.972656 333.304688 874.945312 333.15625 874.949219 Z M 332.03125 890.816406 C 332.152344 891.039062 332.214844 891.28125 332.210938 891.535156 L 332.210938 896.835938 C 332.210938 897.035156 332.171875 897.226562 332.097656 897.410156 C 332.019531 897.59375 331.910156 897.757812 331.769531 897.898438 C 331.628906 898.039062 331.46875 898.144531 331.285156 898.222656 C 331.101562 898.300781 330.910156 898.339844 330.710938 898.339844 L 329.253906 898.339844 L 329.253906 899.78125 C 329.253906 900.003906 329.210938 900.21875 329.128906 900.425781 C 329.042969 900.632812 328.921875 900.8125 328.761719 900.972656 C 328.605469 901.128906 328.421875 901.25 328.214844 901.335938 C 328.011719 901.421875 327.796875 901.464844 327.574219 901.464844 C 327.351562 901.464844 327.136719 901.421875 326.929688 901.335938 C 326.722656 901.25 326.542969 901.128906 326.382812 900.972656 C 326.226562 900.8125 326.105469 900.632812 326.019531 900.425781 C 325.933594 900.21875 325.890625 900.003906 325.890625 899.78125 L 325.890625 898.339844 L 313.101562 898.339844 L 313.101562 899.78125 C 313.101562 900.003906 313.058594 900.21875 312.972656 900.425781 C 312.886719 900.632812 312.765625 900.8125 312.609375 900.972656 C 312.449219 901.128906 312.269531 901.25 312.0625 901.335938 C 311.855469 901.421875 311.640625 901.464844 311.417969 901.464844 C 311.195312 901.464844 310.980469 901.421875 310.773438 901.335938 C 310.566406 901.25 310.386719 901.128906 310.226562 900.972656 C 310.070312 900.8125 309.949219 900.632812 309.863281 900.425781 C 309.777344 900.21875 309.734375 900.003906 309.734375 899.78125 L 309.734375 898.339844 L 308.148438 898.339844 C 307.949219 898.339844 307.757812 898.300781 307.574219 898.222656 C 307.386719 898.148438 307.226562 898.039062 307.085938 897.898438 C 306.945312 897.757812 306.835938 897.59375 306.757812 897.410156 C 306.679688 897.226562 306.640625 897.035156 306.640625 896.835938 L 306.640625 891.5 C 306.648438 891.222656 306.726562 890.96875 306.875 890.734375 C 307.023438 890.496094 307.222656 890.316406 307.46875 890.195312 C 309.140625 887.5625 310.8125 884.929688 312.480469 882.292969 C 312.671875 882 312.855469 881.703125 313.042969 881.40625 C 313.234375 881.101562 313.488281 880.863281 313.804688 880.691406 C 314.121094 880.519531 314.457031 880.433594 314.816406 880.433594 L 324.289062 880.433594 C 324.648438 880.433594 324.988281 880.519531 325.300781 880.691406 C 325.617188 880.867188 325.871094 881.101562 326.0625 881.40625 C 326.25 881.703125 326.441406 882 326.625 882.292969 C 328.398438 885.097656 330.175781 887.898438 331.957031 890.695312 C 331.980469 890.738281 332.007812 890.78125 332.03125 890.816406 Z M 309.777344 890.03125 L 329.332031 890.03125 C 327.902344 887.777344 326.46875 885.523438 325.039062 883.273438 C 324.847656 882.96875 324.59375 882.730469 324.277344 882.554688 C 323.964844 882.382812 323.625 882.292969 323.265625 882.292969 L 315.84375 882.292969 C 315.484375 882.292969 315.144531 882.382812 314.832031 882.554688 C 314.515625 882.730469 314.261719 882.96875 314.070312 883.273438 C 312.636719 885.523438 311.203125 887.777344 309.777344 890.03125 Z M 313.839844 894.183594 C 313.839844 893.910156 313.789062 893.648438 313.683594 893.398438 C 313.582031 893.148438 313.433594 892.925781 313.238281 892.730469 C 313.046875 892.539062 312.824219 892.390625 312.574219 892.285156 C 312.320312 892.183594 312.058594 892.128906 311.789062 892.128906 C 311.515625 892.128906 311.253906 892.183594 311.003906 892.285156 C 310.75 892.390625 310.527344 892.539062 310.335938 892.730469 C 310.144531 892.925781 309.996094 893.148438 309.890625 893.398438 C 309.789062 893.648438 309.734375 893.910156 309.734375 894.183594 C 309.734375 894.457031 309.789062 894.71875 309.890625 894.96875 C 309.996094 895.222656 310.144531 895.441406 310.335938 895.636719 C 310.527344 895.828125 310.75 895.976562 311.003906 896.082031 C 311.253906 896.183594 311.515625 896.238281 311.789062 896.238281 C 312.058594 896.238281 312.324219 896.183594 312.574219 896.082031 C 312.824219 895.976562 313.046875 895.828125 313.242188 895.636719 C 313.433594 895.441406 313.582031 895.21875 313.683594 894.96875 C 313.789062 894.71875 313.839844 894.453125 313.839844 894.183594 Z M 329.621094 894.183594 C 329.621094 893.910156 329.570312 893.648438 329.464844 893.398438 C 329.363281 893.148438 329.214844 892.925781 329.019531 892.730469 C 328.828125 892.539062 328.605469 892.390625 328.355469 892.285156 C 328.105469 892.183594 327.839844 892.128906 327.570312 892.128906 C 327.296875 892.128906 327.035156 892.183594 326.785156 892.285156 C 326.53125 892.390625 326.308594 892.539062 326.117188 892.730469 C 325.925781 892.925781 325.777344 893.148438 325.671875 893.398438 C 325.570312 893.648438 325.515625 893.910156 325.515625 894.183594 C 325.515625 894.457031 325.570312 894.71875 325.671875 894.96875 C 325.777344 895.222656 325.925781 895.441406 326.117188 895.636719 C 326.308594 895.828125 326.53125 895.976562 326.785156 896.082031 C 327.035156 896.183594 327.296875 896.238281 327.570312 896.238281 C 327.84375 896.238281 328.105469 896.183594 328.355469 896.082031 C 328.605469 895.976562 328.828125 895.828125 329.023438 895.636719 C 329.214844 895.441406 329.363281 895.21875 329.46875 894.96875 C 329.570312 894.71875 329.625 894.453125 329.625 894.183594 Z M 329.621094 894.183594 " fill-opacity="1" fill-rule="nonzero"/></g><g clip-path="url(#2753acac74)"><path fill="#626533" d="M 531.722656 886.476562 L 530.394531 886.476562 L 530.394531 900.101562 C 530.382812 900.285156 530.335938 900.460938 530.253906 900.628906 C 530.171875 900.796875 530.0625 900.941406 529.925781 901.066406 C 529.785156 901.191406 529.628906 901.28125 529.453125 901.34375 C 529.277344 901.40625 529.097656 901.433594 528.914062 901.421875 L 521.0625 901.421875 L 521.0625 892.132812 C 521.0625 891.863281 520.96875 891.636719 520.777344 891.445312 C 520.589844 891.257812 520.359375 891.164062 520.09375 891.164062 L 514.398438 891.164062 C 514.128906 891.164062 513.902344 891.257812 513.710938 891.445312 C 513.523438 891.636719 513.425781 891.863281 513.425781 892.132812 L 513.425781 901.421875 L 505.578125 901.421875 C 505.390625 901.433594 505.210938 901.40625 505.039062 901.34375 C 504.863281 901.285156 504.707031 901.191406 504.566406 901.066406 C 504.429688 900.945312 504.320312 900.800781 504.238281 900.632812 C 504.160156 900.464844 504.113281 900.289062 504.101562 900.105469 L 504.101562 886.476562 L 502.769531 886.476562 C 501.289062 886.476562 500.488281 885.082031 501.457031 884.1875 L 516.0625 870.6875 C 516.246094 870.53125 516.449219 870.410156 516.675781 870.328125 C 516.902344 870.246094 517.136719 870.207031 517.378906 870.207031 C 517.621094 870.207031 517.855469 870.25 518.082031 870.332031 C 518.308594 870.414062 518.511719 870.535156 518.695312 870.691406 C 523.476562 875.191406 528.261719 879.691406 533.046875 884.195312 C 533.996094 885.097656 533.195312 886.476562 531.722656 886.476562 Z M 531.722656 886.476562 " fill-opacity="1" fill-rule="nonzero"/></g><g clip-path="url(#6690402f88)"><path fill="#ffffff" d="M 164.066406 94.355469 L 135.398438 94.355469 L 135.300781 94.4375 L 119.597656 107.015625 L 119.597656 98.5625 L 120.460938 98.5625 L 120.460938 97.152344 L 119.273438 97.152344 L 119.273438 95.640625 L 121.957031 95.640625 L 116.398438 91.460938 L 110.839844 95.640625 L 113.421875 95.640625 L 113.421875 97.152344 L 112.332031 97.152344 L 112.332031 98.5625 L 113.179688 98.5625 L 113.179688 112.152344 L 100.664062 122.195312 L 102.53125 122.195312 L 113.179688 113.664062 L 119.597656 108.511719 L 136.226562 95.183594 L 169.640625 122.195312 L 198.296875 122.195312 L 198.296875 122.050781 Z M 119.0625 97.152344 L 113.648438 97.152344 L 113.648438 95.640625 L 119.0625 95.640625 Z M 119.0625 97.152344 " fill-opacity="1" fill-rule="nonzero"/></g><g clip-path="url(#6c941839d5)"><path fill="#ffffff" d="M 128.929688 115.582031 L 135.542969 115.582031 L 135.542969 122.195312 L 128.929688 122.195312 Z M 128.929688 115.582031 " fill-opacity="1" fill-rule="nonzero"/></g><path fill="#ffffff" d="M 128.929688 107.488281 L 135.542969 107.488281 L 135.542969 114.101562 L 128.929688 114.101562 Z M 128.929688 107.488281 " fill-opacity="1" fill-rule="nonzero"/><path fill="#ffffff" d="M 137.007812 107.488281 L 143.621094 107.488281 L 143.621094 114.101562 L 137.007812 114.101562 Z M 137.007812 107.488281 " fill-opacity="1" fill-rule="nonzero"/><g clip-path="url(#5ecdc1d035)"><path fill="#ffffff" d="M 137.007812 115.582031 L 143.621094 115.582031 L 143.621094 122.195312 L 137.007812 122.195312 Z M 137.007812 115.582031 " fill-opacity="1" fill-rule="nonzero"/></g><g fill="#ffffff" fill-opacity="1"><g transform="translate(106.037316, 239.559396)"><g></g></g></g><g fill="#ffffff" fill-opacity="1"><g transform="translate(128.399872, 239.559396)"><g></g></g></g><g fill="#ffffff" fill-opacity="1"><g transform="translate(203.072494, 239.559396)"><g></g></g></g><g fill="#ffffff" fill-opacity="1"><g transform="translate(258.65184, 239.559396)"><g></g></g></g><g fill="#ffffff" fill-opacity="1"><g transform="translate(327.308814, 239.559396)"><g/></g></g><g fill="#ffffff" fill-opacity="1"><g transform="translate(360.002582, 239.559396)"><g></g></g></g><g fill="#ffffff" fill-opacity="1"><g transform="translate(413.358866, 239.559396)"><g></g></g></g><g fill="#ffffff" fill-opacity="1"><g transform="translate(438.467689, 239.559396)"><g></g></g></g><g fill="#ffffff" fill-opacity="1"><g transform="translate(494.047034, 239.559396)"><g></g></g></g><g fill="#ffffff" fill-opacity="1"><g transform="translate(562.703997, 239.559396)"><g></g></g></g><g fill="#ffffff" fill-opacity="1"><g transform="translate(616.191069, 239.559396)"><g></g></g></g><g fill="#ffffff" fill-opacity="1"><g transform="translate(106.037316, 239.559396)"><g></g></g></g><g fill="#ffffff" fill-opacity="1"><g transform="translate(128.399872, 239.559396)"><g></g></g></g><g fill="#ffffff" fill-opacity="1"><g transform="translate(203.072494, 239.559396)"><g></g></g></g><g fill="#ffffff" fill-opacity="1"><g transform="translate(258.65184, 239.559396)"><g></g></g></g><g fill="#ffffff" fill-opacity="1"><g transform="translate(327.308814, 239.559396)"><g/></g></g><g fill="#ffffff" fill-opacity="1"><g transform="translate(360.002582, 239.559396)"><g></g></g></g><g fill="#ffffff" fill-opacity="1"><g transform="translate(413.358866, 239.559396)"><g></g></g></g><g fill="#ffffff" fill-opacity="1"><g transform="translate(438.467689, 239.559396)"><g></g></g></g><g fill="#ffffff" fill-opacity="1"><g transform="translate(494.047034, 239.559396)"><g></g></g></g><g fill="#ffffff" fill-opacity="1"><g transform="translate(562.703997, 239.559396)"><g></g></g></g><g fill="#ffffff" fill-opacity="1"><g transform="translate(616.191069, 239.559396)"><g></g></g></g><g fill="#626533" fill-opacity="1"><g transform="translate(61.74527, 832.87937)"><g></g></g></g><g fill="#626533" fill-opacity="1"><g transform="translate(86.499546, 832.87937)"><g></g></g></g><g fill="#626533" fill-opacity="1"><g transform="translate(124.909298, 832.87937)"><g></g></g></g><g fill="#626533" fill-opacity="1"><g transform="translate(159.081153, 832.87937)"><g></g></g></g><g fill="#626533" fill-opacity="1"><g transform="translate(197.490905, 832.87937)"><g></g></g></g><g fill="#626533" fill-opacity="1"><g transform="translate(232.604544, 832.87937)"><g></g></g></g><g fill="#626533" fill-opacity="1"><g transform="translate(268.928999, 832.87937)"><g/></g></g><g fill="#626533" fill-opacity="1"><g transform="translate(285.745889, 832.87937)"><g></g></g></g><g fill="#626533" fill-opacity="1"><g transform="translate(304.714807, 832.87937)"><g></g></g></g><g fill="#626533" fill-opacity="1"><g transform="translate(347.496961, 832.87937)"><g></g></g></g><g fill="#626533" fill-opacity="1"><g transform="translate(401.378224, 832.87937)"><g></g></g></g><g fill="#626533" fill-opacity="1"><g transform="translate(414.293575, 832.87937)"><g></g></g></g><g fill="#626533" fill-opacity="1"><g transform="translate(430.975262, 832.87937)"><g></g></g></g><g fill="#626533" fill-opacity="1"><g transform="translate(467.299729, 832.87937)"><g/></g></g><g fill="#626533" fill-opacity="1"><g transform="translate(484.116573, 832.87937)"><g></g></g></g><g fill="#626533" fill-opacity="1"><g transform="translate(520.239219, 832.87937)"><g></g></g></g><g fill="#626533" fill-opacity="1"><g transform="translate(572.30431, 832.87937)"><g></g></g></g><g fill="#626533" fill-opacity="1"><g transform="translate(626.18555, 832.87937)"><g></g></g></g><g fill="#626533" fill-opacity="1"><g transform="translate(61.74527, 956.08739)"><g></g></g></g><g fill="#626533" fill-opacity="1"><g transform="translate(71.449393, 956.08739)"><g></g></g></g><g fill="#626533" fill-opacity="1"><g transform="translate(86.717929, 956.08739)"><g></g></g></g><g fill="#626533" fill-opacity="1"><g transform="translate(101.878943, 956.08739)"><g/></g></g><g fill="#626533" fill-opacity="1"><g transform="translate(108.921821, 956.08739)"><g></g></g></g><g fill="#626533" fill-opacity="1"><g transform="translate(128.195665, 956.08739)"><g></g></g></g><g fill="#626533" fill-opacity="1"><g transform="translate(146.125366, 956.08739)"><g></g></g></g><g fill="#626533" fill-opacity="1"><g transform="translate(160.560544, 956.08739)"><g></g></g></g><g fill="#626533" fill-opacity="1"><g transform="translate(184.189151, 956.08739)"><g></g></g></g><g fill="#626533" fill-opacity="1"><g transform="translate(202.441531, 956.08739)"><g></g></g></g><g fill="#626533" fill-opacity="1"><g transform="translate(218.677793, 956.08739)"><g></g></g></g><g fill="#626533" fill-opacity="1"><g transform="translate(229.107605, 956.08739)"><g></g></g></g><g fill="#626533" fill-opacity="1"><g transform="translate(245.343867, 956.08739)"><g/></g></g><g fill="#626533" fill-opacity="1"><g transform="translate(252.386745, 956.08739)"><g></g></g></g><g fill="#626533" fill-opacity="1"><g transform="translate(268.918703, 956.08739)"><g></g></g></g><g fill="#626533" fill-opacity="1"><g transform="translate(280.101382, 956.08739)"><g></g></g></g><g fill="#626533" fill-opacity="1"><g transform="translate(285.800197, 956.08739)"><g></g></g></g><g fill="#626533" fill-opacity="1"><g transform="translate(291.499035, 956.08739)"><g/></g></g><g fill="#626533" fill-opacity="1"><g transform="translate(298.541912, 956.08739)"><g></g></g></g><g fill="#626533" fill-opacity="1"><g transform="translate(317.815756, 956.08739)"><g></g></g></g><g fill="#626533" fill-opacity="1"><g transform="translate(335.745469, 956.08739)"><g></g></g></g><g fill="#626533" fill-opacity="1"><g transform="translate(350.315071, 956.08739)"><g/></g></g><g fill="#626533" fill-opacity="1"><g transform="translate(357.357948, 956.08739)"><g></g></g></g><g fill="#626533" fill-opacity="1"><g transform="translate(376.685576, 956.08739)"><g></g></g></g><g fill="#626533" fill-opacity="1"><g transform="translate(383.916616, 956.08739)"><g></g></g></g><g fill="#626533" fill-opacity="1"><g transform="translate(394.561505, 956.08739)"><g></g></g></g><g fill="#626533" fill-opacity="1"><g transform="translate(116.890064, 896.128955)"><g></g></g></g><g fill="#626533" fill-opacity="1"><g transform="translate(238.494579, 896.128955)"><g></g></g></g><g fill="#626533" fill-opacity="1"><g transform="translate(358.7314, 896.128955)"><g></g></g></g><g fill="#626533" fill-opacity="1"><g transform="translate(544.672175, 896.128955)"><g></g></g></g><g fill="#626533" fill-opacity="1"><g transform="translate(559.740893, 896.128955)"><g></g></g></g><g fill="#626533" fill-opacity="1"><g transform="translate(567.25595, 896.128955)"><g></g></g></g><g fill="#626533" fill-opacity="1"><g transform="translate(582.324668, 896.128955)"><g></g></g></g><g fill="#626533" fill-opacity="1"><g transform="translate(597.393385, 896.128955)"><g></g></g></g><g fill="#626533" fill-opacity="1"><g transform="translate(612.462103, 896.128955)"><g/></g></g><g fill="#626533" fill-opacity="1"><g transform="translate(619.308011, 896.128955)"><g></g></g></g><g fill="#626533" fill-opacity="1"><g transform="translate(632.407887, 896.128955)"><g></g></g></g><g fill="#626533" fill-opacity="1"><g transform="translate(649.085136, 896.128955)"><g></g></g></g><g fill="#ffffff" fill-opacity="1"><g transform="translate(259.447242, 49.19214)"><g></g></g></g><g fill="#ffffff" fill-opacity="1"><g transform="translate(278.626776, 49.19214)"><g></g></g></g><g fill="#ffffff" fill-opacity="1"><g transform="translate(290.441028, 49.19214)"><g></g></g></g><g fill="#ffffff" fill-opacity="1"><g transform="translate(301.989199, 49.19214)"><g></g></g></g><g fill="#ffffff" fill-opacity="1"><g transform="translate(313.537371, 49.19214)"><g></g></g></g><g fill="#ffffff" fill-opacity="1"><g transform="translate(327.224874, 49.19214)"><g></g></g></g><g fill="#ffffff" fill-opacity="1"><g transform="translate(342.264104, 49.19214)"><g></g></g></g><g fill="#ffffff" fill-opacity="1"><g transform="translate(354.078356, 49.19214)"><g/></g></g><g fill="#ffffff" fill-opacity="1"><g transform="translate(359.740682, 49.19214)"><g></g></g></g><g fill="#ffffff" fill-opacity="1"><g transform="translate(374.801199, 49.19214)"><g></g></g></g><g fill="#ffffff" fill-opacity="1"><g transform="translate(386.349371, 49.19214)"><g/></g></g><g fill="#ffffff" fill-opacity="1"><g transform="translate(392.011697, 49.19214)"><g></g></g></g><g fill="#ffffff" fill-opacity="1"><g transform="translate(408.466503, 49.19214)"><g></g></g></g><g fill="#ffffff" fill-opacity="1"><g transform="translate(424.378497, 49.19214)"><g></g></g></g><g fill="#ffffff" fill-opacity="1"><g transform="translate(443.866698, 49.19214)"><g/></g></g><g fill="#ffffff" fill-opacity="1"><g transform="translate(449.529024, 49.19214)"><g></g></g></g><g fill="#ffffff" fill-opacity="1"><g transform="translate(461.098471, 49.19214)"><g></g></g></g><g fill="#ffffff" fill-opacity="1"><g transform="translate(477.010488, 49.19214)"><g/></g></g><g fill="#ffffff" fill-opacity="1"><g transform="translate(482.672791, 49.19214)"><g></g></g></g><g fill="#ffffff" fill-opacity="1"><g transform="translate(494.220974, 49.19214)"><g></g></g></g><g fill="#ffffff" fill-opacity="1"><g transform="translate(507.55726, 49.19214)"><g></g></g></g><g fill="#ffffff" fill-opacity="1"><g transform="translate(522.819986, 49.19214)"><g></g></g></g><g fill="#ffffff" fill-opacity="1"><g transform="translate(534.634249, 49.19214)"><g></g></g></g><g fill="#ffffff" fill-opacity="1"><g transform="translate(549.386088, 49.19214)"><g></g></g></g><g fill="#ffffff" fill-opacity="1"><g transform="translate(564.446605, 49.19214)"><g></g></g></g><g fill="#ffffff" fill-opacity="1"><g transform="translate(575.739345, 49.19214)"><g></g></g></g><g fill="#ffffff" fill-opacity="1"><g transform="translate(587.553586, 49.19214)"><g/></g></g><g fill="#ffffff" fill-opacity="1"><g transform="translate(593.215912, 49.19214)"><g></g></g></g><g fill="#ffffff" fill-opacity="1"><g transform="translate(606.912352, 49.19214)"><g/></g></g><g fill="#ffffff" fill-opacity="1"><g transform="translate(612.574678, 49.19214)"><g/></g></g><g fill="#ffffff" fill-opacity="1"><g transform="translate(618.238785, 49.19214)"><g></g></g></g><g fill="#ffffff" fill-opacity="1"><g transform="translate(631.532485, 49.19214)"><g></g></g></g><g fill="#ffffff" fill-opacity="1"><g transform="translate(644.804899, 49.19214)"><g></g></g></g><g fill="#ffffff" fill-opacity="1"><g transform="translate(651.776378, 49.19214)"><g></g></g></g><g fill="#ffffff" fill-opacity="1"><g transform="translate(664.63369, 49.19214)"><g></g></g></g><g fill="#ffffff" fill-opacity="1"><g transform="translate(678.321194, 49.19214)"><g></g></g></g><g fill="#ffffff" fill-opacity="1"><g transform="translate(689.890652, 49.19214)"><g></g></g></g><g fill="#ffffff" fill-opacity="1"><g transform="translate(701.704904, 49.19214)"><g/></g></g><g fill="#ffffff" fill-opacity="1"><g transform="translate(707.367231, 49.19214)"><g></g></g></g><g fill="#ffffff" fill-opacity="1"><g transform="translate(718.936689, 49.19214)"><g></g></g></g><g fill="#ffffff" fill-opacity="1"><g transform="translate(734.848683, 49.19214)"><g></g></g></g><g fill="#ffffff" fill-opacity="1"><g transform="translate(749.9092, 49.19214)"><g></g></g></g><g fill="#ffffff" fill-opacity="1"><g transform="translate(763.181614, 49.19214)"><g></g></g></g></svg>