<svg xmlns="http://www.w3.org/2000/svg" xmlns:xlink="http://www.w3.org/1999/xlink" width="1080" zoomAndPan="magnify" viewBox="0 0 810 1012.49997" height="1350" preserveAspectRatio="xMidYMid meet" version="1.0"><defs><g/><clipPath id="7b92d3b179"><path d="M 0.199219 0 L 809.800781 0 L 809.800781 1012 L 0.199219 1012 Z M 0.199219 0 " clip-rule="nonzero"/></clipPath><clipPath id="dffbe50e3f"><path d="M 0.199219 0 L 809.800781 0 L 809.800781 1012 L 0.199219 1012 Z M 0.199219 0 " clip-rule="nonzero"/></clipPath><clipPath id="608c853253"><path d="M 273.660156 504.242188 C 273.660156 463.519531 273.929688 422.796875 273.660156 382.078125 C 273.390625 302.894531 214.117188 247.09375 129.25 245.082031 C 56.777344 241.5625 1.007812 184 4.78125 116.132812 C 8.28125 52.785156 63.242188 2.261719 131.136719 0 C 202.53125 -0.503906 260.726562 53.039062 262.613281 120.40625 C 264.5 198.832031 322.421875 253.125 406.480469 255.640625 C 480.839844 257.902344 535.800781 310.4375 536.070312 380.066406 C 536.339844 462.261719 536.070312 544.710938 536.070312 626.90625 C 536.070312 709.105469 594.535156 764.40625 681.828125 767.167969 C 754.300781 767.921875 812.0625 823.476562 811.308594 891.09375 C 810.554688 958.710938 751.066406 1012.753906 678.59375 1012 C 607.199219 1012 549.542969 958.460938 547.65625 890.839844 C 545.769531 813.671875 486.5 758.121094 404.328125 756.109375 C 329.96875 754.601562 274.46875 702.066406 273.929688 632.4375 C 273.390625 589.703125 273.929688 546.972656 273.660156 504.242188 Z M 810.050781 378.304688 L 810.050781 629.921875 C 809.800781 701.5625 752.953125 756.359375 678.59375 756.109375 C 604.234375 755.859375 547.925781 701.5625 547.65625 630.679688 C 547.65625 461.257812 547.65625 291.835938 547.925781 122.667969 C 547.386719 55.300781 605.582031 0 677.785156 -0.503906 C 742.714844 -1.003906 797.945312 42.730469 808.183594 102.558594 C 809.53125 110.601562 810.050781 118.894531 809.800781 126.941406 C 810.050781 210.894531 810.304688 294.601562 810.050781 378.304688 Z M 131.945312 510.777344 C 203.878906 511.53125 260.996094 565.070312 262.613281 633.695312 C 263.960938 695.277344 304.371094 745.550781 367.148438 761.890625 C 380.617188 765.160156 394.359375 766.667969 408.367188 766.917969 C 477.609375 769.683594 533.109375 819.957031 536.070312 883.300781 C 539.574219 948.152344 488.117188 1004.207031 418.875 1011.246094 C 342.359375 1019.542969 276.351562 964.492188 273.929688 889.585938 C 271.773438 833.53125 244.5625 792.054688 189.871094 768.929688 C 171.550781 760.886719 149.726562 757.617188 129.25 756.613281 C 60.820312 753.597656 5.859375 706.085938 0.738281 643.496094 C -4.324219 580.65625 41.960938 524.097656 108.503906 513.039062 C 116.320312 511.78125 124.132812 511.53125 131.945312 510.777344 Z M 0.46875 377.804688 C 0.738281 310.1875 59.472656 255.386719 131.945312 255.640625 C 204.417969 255.890625 263.152344 310.6875 262.882812 378.304688 C 262.613281 445.921875 204.148438 500.46875 131.675781 500.46875 C 59.203125 500.46875 0.46875 445.671875 0.46875 378.054688 C 0.46875 378.054688 0.46875 377.804688 0.46875 377.804688 Z M 405.132812 0 C 332.390625 -0.25 273.390625 54.296875 273.121094 122.164062 C 272.851562 190.03125 331.3125 245.082031 404.058594 245.332031 C 476.800781 245.585938 535.800781 191.039062 536.070312 123.167969 C 536.070312 122.667969 536.070312 122.414062 536.070312 121.914062 C 535.53125 54.796875 477.070312 0.503906 405.132812 0 Z M 131.675781 766.917969 C 58.933594 766.667969 -0.0507812 821.214844 -0.304688 889.082031 C -0.554688 956.949219 57.855469 1012 130.597656 1012.25 C 203.339844 1012.503906 262.34375 957.957031 262.613281 890.085938 C 262.613281 889.585938 262.613281 889.332031 262.613281 888.832031 C 262.074219 821.714844 203.609375 767.421875 131.675781 766.917969 Z M 131.675781 766.917969 " clip-rule="nonzero"/></clipPath><clipPath id="8b28167809"><path d="M 0.199219 0 L 809.800781 0 L 809.800781 1012 L 0.199219 1012 Z M 0.199219 0 " clip-rule="nonzero"/></clipPath><clipPath id="321545ad56"><path d="M 273.660156 504.242188 C 273.660156 463.519531 273.929688 422.796875 273.660156 382.078125 C 273.390625 302.894531 214.117188 247.09375 129.25 245.082031 C 56.777344 241.5625 1.007812 184 4.78125 116.132812 C 8.28125 52.785156 63.242188 2.261719 131.136719 0 C 202.53125 -0.503906 260.726562 53.039062 262.613281 120.40625 C 264.5 198.832031 322.421875 253.125 406.480469 255.640625 C 480.839844 257.902344 535.800781 310.4375 536.070312 380.066406 C 536.339844 462.261719 536.070312 544.710938 536.070312 626.90625 C 536.070312 709.105469 594.535156 764.40625 681.828125 767.167969 C 754.300781 767.921875 812.0625 823.476562 811.308594 891.09375 C 810.554688 958.710938 751.066406 1012.753906 678.59375 1012 C 607.199219 1012 549.542969 958.460938 547.65625 890.839844 C 545.769531 813.671875 486.5 758.121094 404.328125 756.109375 C 329.96875 754.601562 274.46875 702.066406 273.929688 632.4375 C 273.390625 589.703125 273.929688 546.972656 273.660156 504.242188 Z M 810.050781 378.304688 L 810.050781 629.921875 C 809.800781 701.5625 752.953125 756.359375 678.59375 756.109375 C 604.234375 755.859375 547.925781 701.5625 547.65625 630.679688 C 547.65625 461.257812 547.65625 291.835938 547.925781 122.667969 C 547.386719 55.300781 605.582031 0 677.785156 -0.503906 C 742.714844 -1.003906 797.945312 42.730469 808.183594 102.558594 C 809.53125 110.601562 810.050781 118.894531 809.800781 126.941406 C 810.050781 210.894531 810.304688 294.601562 810.050781 378.304688 Z M 131.945312 510.777344 C 203.878906 511.53125 260.996094 565.070312 262.613281 633.695312 C 263.960938 695.277344 304.371094 745.550781 367.148438 761.890625 C 380.617188 765.160156 394.359375 766.667969 408.367188 766.917969 C 477.609375 769.683594 533.109375 819.957031 536.070312 883.300781 C 539.574219 948.152344 488.117188 1004.207031 418.875 1011.246094 C 342.359375 1019.542969 276.351562 964.492188 273.929688 889.585938 C 271.773438 833.53125 244.5625 792.054688 189.871094 768.929688 C 171.550781 760.886719 149.726562 757.617188 129.25 756.613281 C 60.820312 753.597656 5.859375 706.085938 0.738281 643.496094 C -4.324219 580.65625 41.960938 524.097656 108.503906 513.039062 C 116.320312 511.78125 124.132812 511.53125 131.945312 510.777344 Z M 0.46875 377.804688 C 0.738281 310.1875 59.472656 255.386719 131.945312 255.640625 C 204.417969 255.890625 263.152344 310.6875 262.882812 378.304688 C 262.613281 445.921875 204.148438 500.46875 131.675781 500.46875 C 59.203125 500.46875 0.46875 445.671875 0.46875 378.054688 C 0.46875 378.054688 0.46875 377.804688 0.46875 377.804688 Z M 405.132812 0 C 332.390625 -0.25 273.390625 54.296875 273.121094 122.164062 C 272.851562 190.03125 331.3125 245.082031 404.058594 245.332031 C 476.800781 245.585938 535.800781 191.039062 536.070312 123.167969 C 536.070312 122.667969 536.070312 122.414062 536.070312 121.914062 C 535.53125 54.796875 477.070312 0.503906 405.132812 0 Z M 131.675781 766.917969 C 58.933594 766.667969 -0.0507812 821.214844 -0.304688 889.082031 C -0.554688 956.949219 57.855469 1012 130.597656 1012.25 C 203.339844 1012.503906 262.34375 957.957031 262.613281 890.085938 C 262.613281 889.585938 262.613281 889.332031 262.613281 888.832031 C 262.074219 821.714844 203.609375 767.421875 131.675781 766.917969 Z M 131.675781 766.917969 " clip-rule="nonzero"/></clipPath><clipPath id="7003395f59"><rect x="0" width="810" y="0" height="1012"/></clipPath></defs><g clip-path="url(#7b92d3b179)"><path fill="#ffffff" d="M 0.199219 0 L 809.800781 0 L 809.800781 1012 L 0.199219 1012 Z M 0.199219 0 " fill-opacity="1" fill-rule="nonzero"/><path fill="#252634" d="M 0.199219 0 L 809.800781 0 L 809.800781 1012 L 0.199219 1012 Z M 0.199219 0 " fill-opacity="1" fill-rule="nonzero"/></g><g clip-path="url(#dffbe50e3f)"><g clip-path="url(#608c853253)"><g transform="matrix(1, 0, 0, 1, 0.000000000000000028, 0)"><g clip-path="url(#7003395f59)"><g clip-path="url(#8b28167809)"><g clip-path="url(#321545ad56)"><g transform="matrix(0.211298, 0, 0, 0.210964, -3.817657, -0.507062)"><image x="0" y="0" width="3879" xlink:href="@@PHOTO0@@" height="4800" preserveAspectRatio="xMidYMid meet"/></g></g></g></g></g></g></g><g fill="#fffcfc" fill-opacity="1"><g transform="translate(39.60191, 157.994897)"><g><path d="M 59.109375 -106.4375 L 59.109375 -107.5625 L 82.703125 -107.5625 L 82.703125 1.59375 L 81.75 1.59375 L 19.28125 -93.53125 L 18.484375 -93.53125 L 18.484375 -30.109375 C 18.484375 -24.273438 18.722656 -19.679688 19.203125 -16.328125 C 19.679688 -12.984375 20.632812 -10.4375 22.0625 -8.6875 C 23.5 -6.9375 25.546875 -5.554688 28.203125 -4.546875 C 30.859375 -3.535156 34.363281 -2.390625 38.71875 -1.109375 L 38.71875 0 L 14.984375 0 L 14.984375 -99.90625 L 9.234375 -106.59375 L 9.234375 -107.5625 L 21.515625 -107.5625 L 78.390625 -21.359375 L 79.1875 -21.359375 L 79.1875 -77.4375 C 79.1875 -83.382812 78.945312 -88.003906 78.46875 -91.296875 C 78 -94.597656 77.070312 -97.125 75.6875 -98.875 C 74.300781 -100.625 72.28125 -102.003906 69.625 -103.015625 C 66.976562 -104.023438 63.472656 -105.164062 59.109375 -106.4375 Z M 59.109375 -106.4375 "/></g></g></g><g fill="#fffcfc" fill-opacity="1"><g transform="translate(136.641938, 157.994897)"><g><path d="M 35.375 1.59375 C 29.851562 1.59375 24.675781 0.210938 19.84375 -2.546875 C 15.007812 -5.304688 11.078125 -9.582031 8.046875 -15.375 C 5.015625 -21.164062 3.5 -28.578125 3.5 -37.609375 C 3.5 -46.523438 4.691406 -54.007812 7.078125 -60.0625 C 9.472656 -66.125 12.367188 -70.929688 15.765625 -74.484375 C 19.171875 -78.046875 22.519531 -80.625 25.8125 -82.21875 C 29.101562 -83.8125 31.707031 -84.609375 33.625 -84.609375 C 39.144531 -84.609375 44.320312 -83.226562 49.15625 -80.46875 C 53.988281 -77.707031 57.914062 -73.429688 60.9375 -67.640625 C 63.96875 -61.847656 65.484375 -54.4375 65.484375 -45.40625 C 65.484375 -36.488281 64.285156 -29 61.890625 -22.9375 C 59.503906 -16.882812 56.613281 -12.078125 53.21875 -8.515625 C 49.820312 -4.960938 46.476562 -2.390625 43.1875 -0.796875 C 39.894531 0.792969 37.289062 1.59375 35.375 1.59375 Z M 39.359375 -5.734375 C 41.160156 -5.734375 43.203125 -6.15625 45.484375 -7 C 47.773438 -7.851562 49.957031 -9.367188 52.03125 -11.546875 C 54.101562 -13.722656 55.828125 -16.800781 57.203125 -20.78125 C 58.585938 -24.769531 59.28125 -29.847656 59.28125 -36.015625 C 59.28125 -44.085938 58.003906 -51.226562 55.453125 -57.4375 C 52.898438 -63.65625 49.421875 -68.515625 45.015625 -72.015625 C 40.609375 -75.523438 35.484375 -77.28125 29.640625 -77.28125 C 27.828125 -77.28125 25.78125 -76.851562 23.5 -76 C 21.21875 -75.15625 19.039062 -73.644531 16.96875 -71.46875 C 14.894531 -69.289062 13.164062 -66.234375 11.78125 -62.296875 C 10.40625 -58.367188 9.71875 -53.269531 9.71875 -47 C 9.71875 -38.925781 10.992188 -31.78125 13.546875 -25.5625 C 16.097656 -19.351562 19.601562 -14.492188 24.0625 -10.984375 C 28.519531 -7.484375 33.617188 -5.734375 39.359375 -5.734375 Z M 39.359375 -5.734375 "/></g></g></g><g fill="#fffcfc" fill-opacity="1"><g transform="translate(205.637558, 157.994897)"><g><path d="M 80.78125 -82.21875 L 80.78125 -83.171875 L 103.09375 -83.171875 L 103.09375 -82.21875 L 74.578125 4.46875 L 73.9375 4.46875 L 52.265625 -62.296875 L 51.3125 -62.296875 L 29.3125 4.46875 L 28.6875 4.46875 L 0.3125 -82.21875 L 0.3125 -83.171875 L 25.171875 -83.171875 L 25.171875 -82.21875 L 11 -78.078125 L 31.703125 -14.984375 L 32.671875 -14.984375 L 43.984375 -50.03125 C 46.109375 -56.613281 47.617188 -62.082031 48.515625 -66.4375 C 49.421875 -70.800781 48.992188 -74.226562 47.234375 -76.71875 C 45.484375 -79.21875 41.691406 -81.050781 35.859375 -82.21875 L 35.859375 -83.171875 L 70.4375 -83.171875 L 70.4375 -82.21875 L 56.5625 -78.078125 L 56.40625 -77.765625 L 76.96875 -14.984375 L 77.921875 -14.984375 L 89.546875 -50.03125 C 91.460938 -55.976562 92.894531 -60.757812 93.84375 -64.375 C 94.800781 -67.988281 95.015625 -70.859375 94.484375 -72.984375 C 93.953125 -75.109375 92.597656 -76.859375 90.421875 -78.234375 C 88.242188 -79.617188 85.03125 -80.945312 80.78125 -82.21875 Z M 80.78125 -82.21875 "/></g></g></g><g fill="#fffcfc" fill-opacity="1"><g transform="translate(39.60191, 302.67344)"><g><path d="M 34.265625 -107.5625 L 45.25 -107.5625 L 79.984375 -0.953125 L 79.984375 0 L 54.5 0 L 54.5 -0.953125 L 68.203125 -6.21875 L 57.6875 -37.921875 L 18.796875 -37.921875 L 16.734375 -32.03125 C 14.710938 -26.289062 13.273438 -21.691406 12.421875 -18.234375 C 11.578125 -14.785156 11.421875 -12.078125 11.953125 -10.109375 C 12.484375 -8.148438 13.835938 -6.503906 16.015625 -5.171875 C 18.191406 -3.847656 21.296875 -2.441406 25.328125 -0.953125 L 25.328125 0 L 1.75 0 L 1.75 -0.953125 L 36.65625 -99.265625 L 34.265625 -106.59375 Z M 38.5625 -94.015625 L 19.765625 -40.796875 L 56.71875 -40.796875 L 39.203125 -94.015625 Z M 38.5625 -94.015625 "/></g></g></g><g fill="#fffcfc" fill-opacity="1"><g transform="translate(121.823012, 302.67344)"><g><path d="M 40.796875 -82.21875 L 40.796875 -83.171875 L 63.578125 -83.171875 L 63.578125 -82.21875 L 31.875 4.625 L 31.234375 4.625 L 0.3125 -82.21875 L 0.3125 -83.171875 L 25.171875 -83.171875 L 25.171875 -82.21875 L 11 -78.078125 L 34.265625 -12.90625 L 35.21875 -12.90625 L 48.59375 -50.03125 C 51.039062 -56.613281 52.6875 -61.789062 53.53125 -65.5625 C 54.382812 -69.34375 54.519531 -72.210938 53.9375 -74.171875 C 53.351562 -76.140625 51.972656 -77.679688 49.796875 -78.796875 C 47.617188 -79.910156 44.617188 -81.050781 40.796875 -82.21875 Z M 40.796875 -82.21875 "/></g></g></g><g fill="#fffcfc" fill-opacity="1"><g transform="translate(185.71965, 302.67344)"><g><path d="M 58.484375 -6.53125 L 77.125 -16.890625 L 77.59375 -16.09375 C 75.363281 -14.289062 73 -12.003906 70.5 -9.234375 C 68.007812 -6.472656 65.648438 -4.054688 63.421875 -1.984375 C 61.191406 0.0742188 59.222656 1.109375 57.515625 1.109375 C 56.773438 1.109375 55.976562 0.816406 55.125 0.234375 C 54.28125 -0.347656 53.40625 -1.882812 52.5 -4.375 C 51.601562 -6.875 50.625 -10.992188 49.5625 -16.734375 C 44.988281 -10.253906 40.679688 -5.550781 36.640625 -2.625 C 32.609375 0.289062 27.882812 1.75 22.46875 1.75 C 17.15625 1.75 13.222656 0.527344 10.671875 -1.90625 C 8.128906 -4.351562 6.859375 -7.382812 6.859375 -11 C 6.859375 -15.25 8.421875 -19.414062 11.546875 -23.5 C 14.679688 -27.59375 18.742188 -31.628906 23.734375 -35.609375 C 28.734375 -39.597656 33.941406 -43.453125 39.359375 -47.171875 L 49.875 -54.34375 C 49.875 -58.375 49.609375 -62.222656 49.078125 -65.890625 C 48.546875 -69.554688 47.242188 -72.554688 45.171875 -74.890625 C 43.097656 -77.222656 39.78125 -78.390625 35.21875 -78.390625 C 28.738281 -78.390625 23.847656 -76 20.546875 -71.21875 C 17.253906 -66.445312 15.820312 -60.445312 16.25 -53.21875 L 4.46875 -46.6875 L 3.984375 -47 C 7.273438 -56.132812 11.148438 -63.515625 15.609375 -69.140625 C 20.078125 -74.773438 24.40625 -78.894531 28.59375 -81.5 C 32.789062 -84.101562 36.0625 -85.40625 38.40625 -85.40625 C 44.132812 -85.40625 48.539062 -84.179688 51.625 -81.734375 C 54.707031 -79.296875 56.832031 -76.296875 58 -72.734375 C 59.164062 -69.179688 59.695312 -65.703125 59.59375 -62.296875 L 58.484375 -17.046875 Z M 27.40625 -4.140625 C 30.488281 -4.140625 33.941406 -5.441406 37.765625 -8.046875 C 41.585938 -10.648438 45.519531 -14.765625 49.5625 -20.390625 L 49.875 -50.515625 C 38.71875 -43.710938 30.5625 -37.492188 25.40625 -31.859375 C 20.257812 -26.234375 17.6875 -20.660156 17.6875 -15.140625 C 17.6875 -11.734375 18.585938 -9.046875 20.390625 -7.078125 C 22.203125 -5.117188 24.539062 -4.140625 27.40625 -4.140625 Z M 27.40625 -4.140625 "/></g></g></g><g fill="#fffcfc" fill-opacity="1"><g transform="translate(260.610964, 302.67344)"><g><path d="M 20.234375 -100.546875 C 18.210938 -100.546875 16.484375 -101.257812 15.046875 -102.6875 C 13.617188 -104.125 12.90625 -105.851562 12.90625 -107.875 C 12.90625 -109.789062 13.617188 -111.460938 15.046875 -112.890625 C 16.484375 -114.328125 18.210938 -115.046875 20.234375 -115.046875 C 22.253906 -115.046875 23.953125 -114.328125 25.328125 -112.890625 C 26.710938 -111.460938 27.40625 -109.789062 27.40625 -107.875 C 27.40625 -105.851562 26.710938 -104.125 25.328125 -102.6875 C 23.953125 -101.257812 22.253906 -100.546875 20.234375 -100.546875 Z M 16.40625 -4.78125 L 16.40625 -78.078125 L 2.078125 -82.21875 L 2.078125 -83.171875 L 25.328125 -83.171875 L 25.328125 -4.78125 L 39.671875 -0.953125 L 39.671875 0 L 2.078125 0 L 2.078125 -0.953125 Z M 16.40625 -4.78125 "/></g></g></g><g fill="#fffcfc" fill-opacity="1"><g transform="translate(299.968745, 302.67344)"><g><path d="M 23.421875 -4.78125 L 37.765625 -0.953125 L 37.765625 0 L 0.15625 0 L 0.15625 -0.953125 L 14.5 -4.78125 L 14.5 -114.5625 L -1.4375 -114.40625 L -1.4375 -115.359375 L 22.46875 -120.625 L 23.421875 -120.625 Z M 23.421875 -4.78125 "/></g></g></g><g fill="#fffcfc" fill-opacity="1"><g transform="translate(337.89242, 302.67344)"><g><path d="M 58.484375 -6.53125 L 77.125 -16.890625 L 77.59375 -16.09375 C 75.363281 -14.289062 73 -12.003906 70.5 -9.234375 C 68.007812 -6.472656 65.648438 -4.054688 63.421875 -1.984375 C 61.191406 0.0742188 59.222656 1.109375 57.515625 1.109375 C 56.773438 1.109375 55.976562 0.816406 55.125 0.234375 C 54.28125 -0.347656 53.40625 -1.882812 52.5 -4.375 C 51.601562 -6.875 50.625 -10.992188 49.5625 -16.734375 C 44.988281 -10.253906 40.679688 -5.550781 36.640625 -2.625 C 32.609375 0.289062 27.882812 1.75 22.46875 1.75 C 17.15625 1.75 13.222656 0.527344 10.671875 -1.90625 C 8.128906 -4.351562 6.859375 -7.382812 6.859375 -11 C 6.859375 -15.25 8.421875 -19.414062 11.546875 -23.5 C 14.679688 -27.59375 18.742188 -31.628906 23.734375 -35.609375 C 28.734375 -39.597656 33.941406 -43.453125 39.359375 -47.171875 L 49.875 -54.34375 C 49.875 -58.375 49.609375 -62.222656 49.078125 -65.890625 C 48.546875 -69.554688 47.242188 -72.554688 45.171875 -74.890625 C 43.097656 -77.222656 39.78125 -78.390625 35.21875 -78.390625 C 28.738281 -78.390625 23.847656 -76 20.546875 -71.21875 C 17.253906 -66.445312 15.820312 -60.445312 16.25 -53.21875 L 4.46875 -46.6875 L 3.984375 -47 C 7.273438 -56.132812 11.148438 -63.515625 15.609375 -69.140625 C 20.078125 -74.773438 24.40625 -78.894531 28.59375 -81.5 C 32.789062 -84.101562 36.0625 -85.40625 38.40625 -85.40625 C 44.132812 -85.40625 48.539062 -84.179688 51.625 -81.734375 C 54.707031 -79.296875 56.832031 -76.296875 58 -72.734375 C 59.164062 -69.179688 59.695312 -65.703125 59.59375 -62.296875 L 58.484375 -17.046875 Z M 27.40625 -4.140625 C 30.488281 -4.140625 33.941406 -5.441406 37.765625 -8.046875 C 41.585938 -10.648438 45.519531 -14.765625 49.5625 -20.390625 L 49.875 -50.515625 C 38.71875 -43.710938 30.5625 -37.492188 25.40625 -31.859375 C 20.257812 -26.234375 17.6875 -20.660156 17.6875 -15.140625 C 17.6875 -11.734375 18.585938 -9.046875 20.390625 -7.078125 C 22.203125 -5.117188 24.539062 -4.140625 27.40625 -4.140625 Z M 27.40625 -4.140625 "/></g></g></g><g fill="#fffcfc" fill-opacity="1"><g transform="translate(412.783746, 302.67344)"><g><path d="M 39.203125 -84.765625 C 45.046875 -84.765625 50.4375 -83.300781 55.375 -80.375 C 60.3125 -77.457031 64.289062 -72.972656 67.3125 -66.921875 C 70.34375 -60.867188 71.859375 -53.007812 71.859375 -43.34375 C 71.859375 -36.96875 71.007812 -31.3125 69.3125 -26.375 C 67.613281 -21.4375 65.460938 -17.210938 62.859375 -13.703125 C 60.253906 -10.191406 57.519531 -7.320312 54.65625 -5.09375 C 51.789062 -2.863281 49.132812 -1.21875 46.6875 -0.15625 C 44.238281 0.902344 42.378906 1.4375 41.109375 1.4375 C 34.953125 1.4375 29.957031 0.183594 26.125 -2.3125 C 22.300781 -4.8125 19.539062 -8.023438 17.84375 -11.953125 L 17.375 -11.953125 L 12.75 1.59375 L 11.796875 1.59375 L 12.109375 -114.5625 L -3.671875 -114.40625 L -3.671875 -115.359375 L 20.234375 -120.625 L 21.1875 -120.625 L 21.1875 -74.578125 C 25.226562 -77.648438 28.972656 -80.113281 32.421875 -81.96875 C 35.878906 -83.832031 38.140625 -84.765625 39.203125 -84.765625 Z M 43.65625 -4.625 C 45.675781 -4.625 47.851562 -5.019531 50.1875 -5.8125 C 52.53125 -6.613281 54.765625 -8.179688 56.890625 -10.515625 C 59.015625 -12.847656 60.738281 -16.269531 62.0625 -20.78125 C 63.394531 -25.300781 64.0625 -31.28125 64.0625 -38.71875 C 64.0625 -45.945312 62.890625 -52.507812 60.546875 -58.40625 C 58.210938 -64.300781 54.972656 -69 50.828125 -72.5 C 46.679688 -76.007812 41.898438 -77.765625 36.484375 -77.765625 C 32.984375 -77.765625 29.984375 -77.097656 27.484375 -75.765625 C 24.992188 -74.441406 22.84375 -73.035156 21.03125 -71.546875 L 21.03125 -32.5 C 21.03125 -24.113281 23.046875 -17.367188 27.078125 -12.265625 C 31.117188 -7.171875 36.644531 -4.625 43.65625 -4.625 Z M 43.65625 -4.625 "/></g></g></g><g fill="#fffcfc" fill-opacity="1"><g transform="translate(487.834386, 302.67344)"><g><path d="M 23.421875 -4.78125 L 37.765625 -0.953125 L 37.765625 0 L 0.15625 0 L 0.15625 -0.953125 L 14.5 -4.78125 L 14.5 -114.5625 L -1.4375 -114.40625 L -1.4375 -115.359375 L 22.46875 -120.625 L 23.421875 -120.625 Z M 23.421875 -4.78125 "/></g></g></g><g fill="#fffcfc" fill-opacity="1"><g transform="translate(525.758084, 302.67344)"><g><path d="M 59.75 -11.46875 L 60.390625 -10.359375 C 55.828125 -6.847656 51.601562 -3.976562 47.71875 -1.75 C 43.84375 0.476562 40.738281 1.59375 38.40625 1.59375 C 32.03125 1.59375 26.210938 0.105469 20.953125 -2.859375 C 15.691406 -5.835938 11.46875 -10.300781 8.28125 -16.25 C 5.09375 -22.195312 3.5 -29.6875 3.5 -38.71875 C 3.5 -45.726562 4.398438 -51.804688 6.203125 -56.953125 C 8.015625 -62.109375 10.328125 -66.492188 13.140625 -70.109375 C 15.960938 -73.722656 18.910156 -76.617188 21.984375 -78.796875 C 25.066406 -80.972656 27.910156 -82.566406 30.515625 -83.578125 C 33.117188 -84.585938 35.109375 -85.09375 36.484375 -85.09375 C 45.085938 -85.09375 51.035156 -82.648438 54.328125 -77.765625 C 57.628906 -72.878906 59.28125 -66.503906 59.28125 -58.640625 C 59.28125 -57.785156 58.484375 -56.640625 56.890625 -55.203125 C 55.296875 -53.773438 53.617188 -52.503906 51.859375 -51.390625 C 50.109375 -50.273438 48.863281 -49.71875 48.125 -49.71875 L 11.15625 -49.71875 L 11.15625 -46.84375 C 11.15625 -33.675781 14.15625 -23.476562 20.15625 -16.25 C 26.15625 -9.03125 34.039062 -5.421875 43.8125 -5.421875 C 47.320312 -5.421875 50.269531 -6.054688 52.65625 -7.328125 C 55.050781 -8.597656 57.414062 -9.976562 59.75 -11.46875 Z M 33.78125 -78.234375 C 30.914062 -78.234375 27.863281 -77.59375 24.625 -76.3125 C 21.382812 -75.039062 18.515625 -72.570312 16.015625 -68.90625 C 13.515625 -65.25 11.945312 -59.804688 11.3125 -52.578125 L 50.671875 -52.578125 C 51.203125 -58.742188 50.695312 -63.6875 49.15625 -67.40625 C 47.613281 -71.125 45.488281 -73.859375 42.78125 -75.609375 C 40.070312 -77.359375 37.070312 -78.234375 33.78125 -78.234375 Z M 33.78125 -78.234375 "/></g></g></g><g fill="#ffffff" fill-opacity="1"><g transform="translate(737.080473, 73.395312)"><g><path d="M 0 0.65625 C 1.53125 0.65625 2.800781 1.03125 3.8125 1.78125 C 4.832031 2.539062 5.695312 3.46875 6.40625 4.5625 C 7.082031 5.5625 7.695312 6.476562 8.25 7.3125 C 8.8125 8.15625 9.398438 8.832031 10.015625 9.34375 C 10.628906 9.863281 11.351562 10.125 12.1875 10.125 C 13.050781 10.125 13.773438 9.851562 14.359375 9.3125 C 14.953125 8.769531 15.25 8.007812 15.25 7.03125 C 15.25 5.925781 14.890625 5.03125 14.171875 4.34375 C 13.453125 3.664062 12.476562 3.328125 11.25 3.328125 L 11.25 0.984375 C 12.375 0.984375 13.394531 1.207031 14.3125 1.65625 C 15.226562 2.101562 15.953125 2.78125 16.484375 3.6875 C 17.015625 4.59375 17.28125 5.722656 17.28125 7.078125 C 17.28125 8.179688 17.078125 9.144531 16.671875 9.96875 C 16.273438 10.789062 15.707031 11.429688 14.96875 11.890625 C 14.238281 12.359375 13.359375 12.59375 12.328125 12.59375 C 11.441406 12.59375 10.671875 12.414062 10.015625 12.0625 C 9.367188 11.71875 8.789062 11.257812 8.28125 10.6875 C 7.78125 10.113281 7.304688 9.492188 6.859375 8.828125 C 6.421875 8.160156 5.972656 7.503906 5.515625 6.859375 C 5.054688 6.210938 4.550781 5.632812 4 5.125 C 3.457031 4.613281 2.816406 4.238281 2.078125 4 L 2.03125 4 L 2.03125 12.59375 L 0 12.59375 Z M 0 0.65625 "/></g></g></g><g fill="#ffffff" fill-opacity="1"><g transform="translate(737.080473, 86.756133)"><g/></g></g><g fill="#ffffff" fill-opacity="1"><g transform="translate(737.080473, 91.659187)"><g><path d="M -0.34375 7.703125 C -0.34375 6.992188 -0.21875 6.363281 0.03125 5.8125 C 0.289062 5.257812 0.613281 4.789062 1 4.40625 C 1.394531 4.019531 1.796875 3.71875 2.203125 3.5 L 2.203125 3.453125 L 0 3.453125 L 0 1.125 L 17.53125 1.125 L 17.53125 3.453125 L 10.296875 3.453125 L 10.296875 3.5 C 10.953125 3.8125 11.546875 4.320312 12.078125 5.03125 C 12.609375 5.75 12.875 6.640625 12.875 7.703125 C 12.875 8.765625 12.609375 9.695312 12.078125 10.5 C 11.554688 11.3125 10.800781 11.945312 9.8125 12.40625 C 8.820312 12.875 7.644531 13.109375 6.28125 13.109375 C 4.90625 13.109375 3.722656 12.875 2.734375 12.40625 C 1.742188 11.945312 0.984375 11.3125 0.453125 10.5 C -0.0742188 9.695312 -0.34375 8.765625 -0.34375 7.703125 Z M 1.46875 7.078125 C 1.46875 8.191406 1.882812 9.085938 2.71875 9.765625 C 3.550781 10.441406 4.738281 10.78125 6.28125 10.78125 C 7.8125 10.78125 8.992188 10.441406 9.828125 9.765625 C 10.660156 9.085938 11.078125 8.191406 11.078125 7.078125 C 11.078125 6.085938 10.660156 5.242188 9.828125 4.546875 C 8.992188 3.847656 7.8125 3.5 6.28125 3.5 C 4.738281 3.5 3.550781 3.847656 2.71875 4.546875 C 1.882812 5.242188 1.46875 6.085938 1.46875 7.078125 Z M 1.46875 7.078125 "/></g></g></g><g fill="#ffffff" fill-opacity="1"><g transform="translate(737.080473, 105.28967)"><g><path d="M -0.34375 6.71875 C -0.34375 5.445312 -0.0664062 4.347656 0.484375 3.421875 C 1.046875 2.492188 1.820312 1.773438 2.8125 1.265625 C 3.8125 0.765625 4.96875 0.515625 6.28125 0.515625 C 7.601562 0.515625 8.757812 0.765625 9.75 1.265625 C 10.738281 1.773438 11.503906 2.484375 12.046875 3.390625 C 12.597656 4.296875 12.875 5.363281 12.875 6.59375 C 12.875 7.914062 12.570312 9.015625 11.96875 9.890625 C 11.363281 10.765625 10.53125 11.414062 9.46875 11.84375 C 8.40625 12.28125 7.1875 12.5 5.8125 12.5 L 5.8125 2.84375 C 4.414062 2.84375 3.34375 3.207031 2.59375 3.9375 C 1.84375 4.675781 1.46875 5.59375 1.46875 6.6875 C 1.46875 7.40625 1.59375 7.988281 1.84375 8.4375 C 2.101562 8.894531 2.410156 9.25 2.765625 9.5 C 3.128906 9.75 3.472656 9.914062 3.796875 10 L 3.796875 12.3125 C 2.585938 12 1.59375 11.390625 0.8125 10.484375 C 0.0390625 9.578125 -0.34375 8.320312 -0.34375 6.71875 Z M 7.328125 2.84375 L 7.328125 10.171875 C 8.046875 10.171875 8.695312 10.035156 9.28125 9.765625 C 9.863281 9.492188 10.328125 9.09375 10.671875 8.5625 C 11.023438 8.03125 11.203125 7.375 11.203125 6.59375 C 11.203125 5.445312 10.832031 4.539062 10.09375 3.875 C 9.363281 3.21875 8.441406 2.875 7.328125 2.84375 Z M 7.328125 2.84375 "/></g></g></g><g fill="#ffffff" fill-opacity="1"><g transform="translate(737.080473, 118.282757)"><g><path d="M -0.34375 5.953125 C -0.34375 4.910156 -0.0742188 3.972656 0.453125 3.140625 C 0.984375 2.316406 1.742188 1.671875 2.734375 1.203125 C 3.722656 0.742188 4.90625 0.515625 6.28125 0.515625 C 7.644531 0.515625 8.820312 0.742188 9.8125 1.203125 C 10.800781 1.671875 11.554688 2.316406 12.078125 3.140625 C 12.609375 3.972656 12.875 4.910156 12.875 5.953125 C 12.875 7.015625 12.609375 7.894531 12.078125 8.59375 C 11.546875 9.300781 10.953125 9.8125 10.296875 10.125 L 10.296875 10.171875 L 17.53125 10.171875 L 17.53125 12.5 L 0 12.5 L 0 10.171875 L 2.203125 10.171875 L 2.203125 10.125 C 1.796875 9.925781 1.394531 9.632812 1 9.25 C 0.613281 8.863281 0.289062 8.394531 0.03125 7.84375 C -0.21875 7.300781 -0.34375 6.671875 -0.34375 5.953125 Z M 1.46875 6.546875 C 1.46875 7.554688 1.882812 8.410156 2.71875 9.109375 C 3.550781 9.804688 4.738281 10.15625 6.28125 10.15625 C 7.8125 10.15625 8.992188 9.804688 9.828125 9.109375 C 10.660156 8.410156 11.078125 7.554688 11.078125 6.546875 C 11.078125 5.453125 10.660156 4.5625 9.828125 3.875 C 8.992188 3.1875 7.8125 2.84375 6.28125 2.84375 C 4.738281 2.84375 3.550781 3.1875 2.71875 3.875 C 1.882812 4.5625 1.46875 5.453125 1.46875 6.546875 Z M 1.46875 6.546875 "/></g></g></g><g fill="#ffffff" fill-opacity="1"><g transform="translate(737.080473, 131.913239)"><g><path d="M 0 1.125 L 12.578125 1.125 L 12.578125 3.453125 L 10.203125 3.453125 L 10.203125 3.5 C 10.960938 3.800781 11.578125 4.253906 12.046875 4.859375 C 12.523438 5.472656 12.765625 6.164062 12.765625 6.9375 C 12.765625 7.113281 12.757812 7.285156 12.75 7.453125 C 12.75 7.617188 12.734375 7.78125 12.703125 7.9375 L 10.671875 7.9375 L 10.671875 7.890625 C 10.796875 7.160156 10.71875 6.453125 10.4375 5.765625 C 10.164062 5.085938 9.726562 4.53125 9.125 4.09375 C 8.519531 3.664062 7.757812 3.453125 6.84375 3.453125 L 0 3.453125 Z M 0 1.125 "/></g></g></g><g fill="#ffffff" fill-opacity="1"><g transform="translate(737.080473, 139.733496)"><g><path d="M -0.34375 6.765625 C -0.34375 5.472656 -0.0585938 4.359375 0.5 3.421875 C 1.0625 2.484375 1.84375 1.765625 2.84375 1.265625 C 3.84375 0.765625 4.988281 0.515625 6.28125 0.515625 C 7.582031 0.515625 8.726562 0.765625 9.71875 1.265625 C 10.707031 1.765625 11.476562 2.484375 12.03125 3.421875 C 12.59375 4.359375 12.875 5.472656 12.875 6.765625 C 12.875 8.054688 12.59375 9.164062 12.03125 10.09375 C 11.476562 11.03125 10.707031 11.75 9.71875 12.25 C 8.726562 12.75 7.582031 13 6.28125 13 C 4.988281 13 3.84375 12.75 2.84375 12.25 C 1.84375 11.75 1.0625 11.03125 0.5 10.09375 C -0.0585938 9.164062 -0.34375 8.054688 -0.34375 6.765625 Z M 1.46875 6.765625 C 1.46875 7.992188 1.90625 8.953125 2.78125 9.640625 C 3.65625 10.328125 4.820312 10.671875 6.28125 10.671875 C 7.726562 10.671875 8.890625 10.328125 9.765625 9.640625 C 10.640625 8.953125 11.078125 7.992188 11.078125 6.765625 C 11.078125 5.523438 10.640625 4.5625 9.765625 3.875 C 8.890625 3.1875 7.726562 2.84375 6.28125 2.84375 C 4.820312 2.84375 3.65625 3.1875 2.78125 3.875 C 1.90625 4.5625 1.46875 5.523438 1.46875 6.765625 Z M 1.46875 6.765625 "/></g></g></g><g fill="#ffffff" fill-opacity="1"><g transform="translate(737.080473, 153.241405)"><g><path d="M -0.34375 6.765625 C -0.34375 5.472656 -0.0585938 4.359375 0.5 3.421875 C 1.0625 2.484375 1.84375 1.765625 2.84375 1.265625 C 3.84375 0.765625 4.988281 0.515625 6.28125 0.515625 C 7.582031 0.515625 8.726562 0.765625 9.71875 1.265625 C 10.707031 1.765625 11.476562 2.484375 12.03125 3.421875 C 12.59375 4.359375 12.875 5.472656 12.875 6.765625 C 12.875 8.054688 12.59375 9.164062 12.03125 10.09375 C 11.476562 11.03125 10.707031 11.75 9.71875 12.25 C 8.726562 12.75 7.582031 13 6.28125 13 C 4.988281 13 3.84375 12.75 2.84375 12.25 C 1.84375 11.75 1.0625 11.03125 0.5 10.09375 C -0.0585938 9.164062 -0.34375 8.054688 -0.34375 6.765625 Z M 1.46875 6.765625 C 1.46875 7.992188 1.90625 8.953125 2.78125 9.640625 C 3.65625 10.328125 4.820312 10.671875 6.28125 10.671875 C 7.726562 10.671875 8.890625 10.328125 9.765625 9.640625 C 10.640625 8.953125 11.078125 7.992188 11.078125 6.765625 C 11.078125 5.523438 10.640625 4.5625 9.765625 3.875 C 8.890625 3.1875 7.726562 2.84375 6.28125 2.84375 C 4.820312 2.84375 3.65625 3.1875 2.78125 3.875 C 1.90625 4.5625 1.46875 5.523438 1.46875 6.765625 Z M 1.46875 6.765625 "/></g></g></g><g fill="#ffffff" fill-opacity="1"><g transform="translate(737.080473, 166.749313)"><g><path d="M 0 1.125 L 12.578125 1.125 L 12.578125 3.453125 L 10.515625 3.453125 L 10.515625 3.5 C 10.890625 3.726562 11.253906 4.019531 11.609375 4.375 C 11.972656 4.738281 12.273438 5.179688 12.515625 5.703125 C 12.753906 6.234375 12.875 6.84375 12.875 7.53125 C 12.875 8.425781 12.648438 9.148438 12.203125 9.703125 C 11.765625 10.265625 11.160156 10.648438 10.390625 10.859375 L 10.390625 10.90625 C 11.109375 11.394531 11.703125 11.960938 12.171875 12.609375 C 12.640625 13.253906 12.875 14.125 12.875 15.21875 C 12.875 16.46875 12.5 17.414062 11.75 18.0625 C 11.007812 18.71875 9.960938 19.046875 8.609375 19.046875 L 0 19.046875 L 0 16.6875 L 7.75 16.6875 C 8.84375 16.6875 9.648438 16.519531 10.171875 16.1875 C 10.691406 15.851562 10.953125 15.238281 10.953125 14.34375 C 10.953125 13.375 10.65625 12.613281 10.0625 12.0625 C 9.476562 11.507812 8.753906 11.234375 7.890625 11.234375 L 0 11.234375 L 0 8.90625 L 7.75 8.90625 C 8.925781 8.90625 9.753906 8.707031 10.234375 8.3125 C 10.710938 7.914062 10.953125 7.332031 10.953125 6.5625 C 10.953125 5.925781 10.804688 5.375 10.515625 4.90625 C 10.234375 4.445312 9.859375 4.085938 9.390625 3.828125 C 8.929688 3.578125 8.429688 3.453125 7.890625 3.453125 L 0 3.453125 Z M 0 1.125 "/></g></g></g><g fill="#ffffff" fill-opacity="1"><g transform="translate(737.080473, 186.827314)"><g><path d="M -0.34375 6.203125 C -0.34375 4.859375 -0.148438 3.757812 0.234375 2.90625 C 0.628906 2.0625 1.15625 1.4375 1.8125 1.03125 C 2.476562 0.625 3.222656 0.394531 4.046875 0.34375 L 4.046875 2.546875 C 3.222656 2.609375 2.566406 2.9375 2.078125 3.53125 C 1.585938 4.132812 1.34375 5 1.34375 6.125 C 1.34375 6.914062 1.519531 7.566406 1.875 8.078125 C 2.238281 8.585938 2.707031 8.84375 3.28125 8.84375 C 3.851562 8.84375 4.28125 8.679688 4.5625 8.359375 C 4.851562 8.035156 5.078125 7.585938 5.234375 7.015625 C 5.390625 6.453125 5.554688 5.8125 5.734375 5.09375 C 5.929688 4.332031 6.148438 3.609375 6.390625 2.921875 C 6.640625 2.242188 6.988281 1.703125 7.4375 1.296875 C 7.882812 0.890625 8.503906 0.6875 9.296875 0.6875 C 10.335938 0.6875 11.191406 1.117188 11.859375 1.984375 C 12.535156 2.847656 12.875 4.054688 12.875 5.609375 C 12.875 6.804688 12.6875 7.765625 12.3125 8.484375 C 11.9375 9.210938 11.453125 9.757812 10.859375 10.125 C 10.273438 10.488281 9.644531 10.703125 8.96875 10.765625 L 8.96875 8.5625 C 9.59375 8.457031 10.117188 8.179688 10.546875 7.734375 C 10.984375 7.296875 11.203125 6.601562 11.203125 5.65625 C 11.203125 4.9375 11.054688 4.316406 10.765625 3.796875 C 10.484375 3.273438 10.039062 3.015625 9.4375 3.015625 C 9.007812 3.015625 8.679688 3.15625 8.453125 3.4375 C 8.222656 3.726562 8.039062 4.132812 7.90625 4.65625 C 7.769531 5.175781 7.617188 5.789062 7.453125 6.5 C 7.253906 7.363281 7.015625 8.144531 6.734375 8.84375 C 6.460938 9.550781 6.078125 10.113281 5.578125 10.53125 C 5.078125 10.957031 4.382812 11.171875 3.5 11.171875 C 2.3125 11.171875 1.375 10.726562 0.6875 9.84375 C 0 8.96875 -0.34375 7.753906 -0.34375 6.203125 Z M -0.34375 6.203125 "/></g></g></g><g fill="#ffffff" fill-opacity="1"><g transform="translate(737.080473, 198.447548)"><g/></g></g><g fill="#ffffff" fill-opacity="1"><g transform="translate(737.080473, 203.350602)"><g><path d="M -3.265625 1.671875 L 18.359375 1.671875 L 18.359375 3.40625 L -3.265625 3.40625 Z M -3.265625 1.671875 "/></g></g></g><g fill="#ffffff" fill-opacity="1"><g transform="translate(737.080473, 208.400743)"><g/></g></g><g fill="#ffffff" fill-opacity="1"><g transform="translate(737.080473, 213.303797)"><g><path d="M 0 0.65625 C 1.53125 0.65625 2.800781 1.03125 3.8125 1.78125 C 4.832031 2.539062 5.695312 3.46875 6.40625 4.5625 C 7.082031 5.5625 7.695312 6.476562 8.25 7.3125 C 8.8125 8.15625 9.398438 8.832031 10.015625 9.34375 C 10.628906 9.863281 11.351562 10.125 12.1875 10.125 C 13.050781 10.125 13.773438 9.851562 14.359375 9.3125 C 14.953125 8.769531 15.25 8.007812 15.25 7.03125 C 15.25 5.925781 14.890625 5.03125 14.171875 4.34375 C 13.453125 3.664062 12.476562 3.328125 11.25 3.328125 L 11.25 0.984375 C 12.375 0.984375 13.394531 1.207031 14.3125 1.65625 C 15.226562 2.101562 15.953125 2.78125 16.484375 3.6875 C 17.015625 4.59375 17.28125 5.722656 17.28125 7.078125 C 17.28125 8.179688 17.078125 9.144531 16.671875 9.96875 C 16.273438 10.789062 15.707031 11.429688 14.96875 11.890625 C 14.238281 12.359375 13.359375 12.59375 12.328125 12.59375 C 11.441406 12.59375 10.671875 12.414062 10.015625 12.0625 C 9.367188 11.71875 8.789062 11.257812 8.28125 10.6875 C 7.78125 10.113281 7.304688 9.492188 6.859375 8.828125 C 6.421875 8.160156 5.972656 7.503906 5.515625 6.859375 C 5.054688 6.210938 4.550781 5.632812 4 5.125 C 3.457031 4.613281 2.816406 4.238281 2.078125 4 L 2.03125 4 L 2.03125 12.59375 L 0 12.59375 Z M 0 0.65625 "/></g></g></g><g fill="#ffffff" fill-opacity="1"><g transform="translate(737.080473, 226.664618)"><g/></g></g><g fill="#ffffff" fill-opacity="1"><g transform="translate(737.080473, 231.567672)"><g><path d="M -0.34375 7.703125 C -0.34375 6.992188 -0.21875 6.363281 0.03125 5.8125 C 0.289062 5.257812 0.613281 4.789062 1 4.40625 C 1.394531 4.019531 1.796875 3.71875 2.203125 3.5 L 2.203125 3.453125 L 0 3.453125 L 0 1.125 L 17.53125 1.125 L 17.53125 3.453125 L 10.296875 3.453125 L 10.296875 3.5 C 10.953125 3.8125 11.546875 4.320312 12.078125 5.03125 C 12.609375 5.75 12.875 6.640625 12.875 7.703125 C 12.875 8.765625 12.609375 9.695312 12.078125 10.5 C 11.554688 11.3125 10.800781 11.945312 9.8125 12.40625 C 8.820312 12.875 7.644531 13.109375 6.28125 13.109375 C 4.90625 13.109375 3.722656 12.875 2.734375 12.40625 C 1.742188 11.945312 0.984375 11.3125 0.453125 10.5 C -0.0742188 9.695312 -0.34375 8.765625 -0.34375 7.703125 Z M 1.46875 7.078125 C 1.46875 8.191406 1.882812 9.085938 2.71875 9.765625 C 3.550781 10.441406 4.738281 10.78125 6.28125 10.78125 C 7.8125 10.78125 8.992188 10.441406 9.828125 9.765625 C 10.660156 9.085938 11.078125 8.191406 11.078125 7.078125 C 11.078125 6.085938 10.660156 5.242188 9.828125 4.546875 C 8.992188 3.847656 7.8125 3.5 6.28125 3.5 C 4.738281 3.5 3.550781 3.847656 2.71875 4.546875 C 1.882812 5.242188 1.46875 6.085938 1.46875 7.078125 Z M 1.46875 7.078125 "/></g></g></g><g fill="#ffffff" fill-opacity="1"><g transform="translate(737.080473, 245.124595)"><g><path d="M -0.34375 4.5625 C -0.34375 3.300781 -0.0195312 2.304688 0.625 1.578125 C 1.269531 0.847656 2.109375 0.484375 3.140625 0.484375 C 4.347656 0.484375 5.257812 0.890625 5.875 1.703125 C 6.5 2.515625 6.941406 3.6875 7.203125 5.21875 C 7.304688 5.8125 7.410156 6.378906 7.515625 6.921875 C 7.617188 7.472656 7.789062 7.925781 8.03125 8.28125 C 8.28125 8.644531 8.675781 8.828125 9.21875 8.828125 C 9.882812 8.828125 10.378906 8.601562 10.703125 8.15625 C 11.035156 7.707031 11.203125 7.101562 11.203125 6.34375 C 11.203125 5.351562 10.988281 4.601562 10.5625 4.09375 C 10.132812 3.582031 9.539062 3.296875 8.78125 3.234375 L 8.78125 1.03125 C 9.476562 1.082031 10.132812 1.28125 10.75 1.625 C 11.375 1.976562 11.882812 2.539062 12.28125 3.3125 C 12.675781 4.082031 12.875 5.09375 12.875 6.34375 C 12.875 7.332031 12.722656 8.1875 12.421875 8.90625 C 12.128906 9.625 11.648438 10.175781 10.984375 10.5625 C 10.316406 10.957031 9.410156 11.15625 8.265625 11.15625 L 2.203125 11.15625 C 1.929688 11.15625 1.671875 11.175781 1.421875 11.21875 C 1.171875 11.269531 0.984375 11.382812 0.859375 11.5625 C 0.742188 11.75 0.71875 12.046875 0.78125 12.453125 L -0.03125 12.453125 C -0.1875 11.941406 -0.265625 11.425781 -0.265625 10.90625 C -0.265625 10.15625 -0.0898438 9.632812 0.25 9.34375 C 0.601562 9.050781 1.082031 8.90625 1.6875 8.90625 L 1.6875 8.84375 C 1.039062 8.382812 0.539062 7.785156 0.1875 7.046875 C -0.164062 6.304688 -0.34375 5.476562 -0.34375 4.5625 Z M 1.34375 5.34375 C 1.34375 6.144531 1.488281 6.796875 1.78125 7.296875 C 2.082031 7.804688 2.457031 8.1875 2.90625 8.4375 C 3.351562 8.695312 3.789062 8.828125 4.21875 8.828125 L 6.84375 8.828125 C 6.59375 8.609375 6.398438 8.242188 6.265625 7.734375 C 6.140625 7.234375 6.03125 6.640625 5.9375 5.953125 C 5.769531 4.960938 5.5 4.191406 5.125 3.640625 C 4.757812 3.085938 4.226562 2.8125 3.53125 2.8125 C 2.789062 2.8125 2.238281 3.03125 1.875 3.46875 C 1.519531 3.914062 1.34375 4.539062 1.34375 5.34375 Z M 1.34375 5.34375 "/></g></g></g><g fill="#ffffff" fill-opacity="1"><g transform="translate(737.080473, 257.553755)"><g><path d="M -0.140625 5.078125 C -0.140625 4.078125 0.144531 3.335938 0.71875 2.859375 C 1.300781 2.390625 2.265625 2.15625 3.609375 2.15625 L 10.78125 2.15625 L 10.78125 0.375 L 12.578125 0.375 L 12.578125 2.15625 L 16.375 2.15625 L 16.375 4.484375 L 12.578125 4.484375 L 12.578125 6.96875 L 10.78125 6.96875 L 10.78125 4.484375 L 3.84375 4.484375 C 3.34375 4.484375 2.921875 4.535156 2.578125 4.640625 C 2.242188 4.753906 2.015625 4.984375 1.890625 5.328125 C 1.773438 5.679688 1.765625 6.226562 1.859375 6.96875 L 0.078125 6.96875 C 0.00390625 6.664062 -0.046875 6.375 -0.078125 6.09375 C -0.117188 5.820312 -0.140625 5.484375 -0.140625 5.078125 Z M -0.140625 5.078125 "/></g></g></g><g fill="#ffffff" fill-opacity="1"><g transform="translate(737.080473, 265.104454)"><g><path d="M 0 1.15625 L 17.53125 1.15625 L 17.53125 3.484375 L 10.546875 3.484375 L 10.546875 3.53125 C 11.128906 3.90625 11.660156 4.425781 12.140625 5.09375 C 12.628906 5.769531 12.875 6.6875 12.875 7.84375 C 12.875 9 12.519531 9.960938 11.8125 10.734375 C 11.113281 11.503906 10.09375 11.890625 8.75 11.890625 L 0 11.890625 L 0 9.5625 L 7.890625 9.5625 C 8.828125 9.5625 9.570312 9.375 10.125 9 C 10.675781 8.625 10.953125 7.90625 10.953125 6.84375 C 10.953125 6.164062 10.804688 5.570312 10.515625 5.0625 C 10.234375 4.5625 9.867188 4.171875 9.421875 3.890625 C 8.972656 3.617188 8.488281 3.484375 7.96875 3.484375 L 0 3.484375 Z M 0 1.15625 "/></g></g></g><g fill="#ffffff" fill-opacity="1"><g transform="translate(737.080473, 278.024014)"><g><path d="M 0 1.125 L 12.578125 1.125 L 12.578125 3.453125 L 10.203125 3.453125 L 10.203125 3.5 C 10.960938 3.800781 11.578125 4.253906 12.046875 4.859375 C 12.523438 5.472656 12.765625 6.164062 12.765625 6.9375 C 12.765625 7.113281 12.757812 7.285156 12.75 7.453125 C 12.75 7.617188 12.734375 7.78125 12.703125 7.9375 L 10.671875 7.9375 L 10.671875 7.890625 C 10.796875 7.160156 10.71875 6.453125 10.4375 5.765625 C 10.164062 5.085938 9.726562 4.53125 9.125 4.09375 C 8.519531 3.664062 7.757812 3.453125 6.84375 3.453125 L 0 3.453125 Z M 0 1.125 "/></g></g></g><g fill="#ffffff" fill-opacity="1"><g transform="translate(737.080473, 285.844249)"><g><path d="M -0.34375 6.765625 C -0.34375 5.472656 -0.0585938 4.359375 0.5 3.421875 C 1.0625 2.484375 1.84375 1.765625 2.84375 1.265625 C 3.84375 0.765625 4.988281 0.515625 6.28125 0.515625 C 7.582031 0.515625 8.726562 0.765625 9.71875 1.265625 C 10.707031 1.765625 11.476562 2.484375 12.03125 3.421875 C 12.59375 4.359375 12.875 5.472656 12.875 6.765625 C 12.875 8.054688 12.59375 9.164062 12.03125 10.09375 C 11.476562 11.03125 10.707031 11.75 9.71875 12.25 C 8.726562 12.75 7.582031 13 6.28125 13 C 4.988281 13 3.84375 12.75 2.84375 12.25 C 1.84375 11.75 1.0625 11.03125 0.5 10.09375 C -0.0585938 9.164062 -0.34375 8.054688 -0.34375 6.765625 Z M 1.46875 6.765625 C 1.46875 7.992188 1.90625 8.953125 2.78125 9.640625 C 3.65625 10.328125 4.820312 10.671875 6.28125 10.671875 C 7.726562 10.671875 8.890625 10.328125 9.765625 9.640625 C 10.640625 8.953125 11.078125 7.992188 11.078125 6.765625 C 11.078125 5.523438 10.640625 4.5625 9.765625 3.875 C 8.890625 3.1875 7.726562 2.84375 6.28125 2.84375 C 4.820312 2.84375 3.65625 3.1875 2.78125 3.875 C 1.90625 4.5625 1.46875 5.523438 1.46875 6.765625 Z M 1.46875 6.765625 "/></g></g></g><g fill="#ffffff" fill-opacity="1"><g transform="translate(737.080473, 299.35218)"><g><path d="M -0.34375 6.765625 C -0.34375 5.472656 -0.0585938 4.359375 0.5 3.421875 C 1.0625 2.484375 1.84375 1.765625 2.84375 1.265625 C 3.84375 0.765625 4.988281 0.515625 6.28125 0.515625 C 7.582031 0.515625 8.726562 0.765625 9.71875 1.265625 C 10.707031 1.765625 11.476562 2.484375 12.03125 3.421875 C 12.59375 4.359375 12.875 5.472656 12.875 6.765625 C 12.875 8.054688 12.59375 9.164062 12.03125 10.09375 C 11.476562 11.03125 10.707031 11.75 9.71875 12.25 C 8.726562 12.75 7.582031 13 6.28125 13 C 4.988281 13 3.84375 12.75 2.84375 12.25 C 1.84375 11.75 1.0625 11.03125 0.5 10.09375 C -0.0585938 9.164062 -0.34375 8.054688 -0.34375 6.765625 Z M 1.46875 6.765625 C 1.46875 7.992188 1.90625 8.953125 2.78125 9.640625 C 3.65625 10.328125 4.820312 10.671875 6.28125 10.671875 C 7.726562 10.671875 8.890625 10.328125 9.765625 9.640625 C 10.640625 8.953125 11.078125 7.992188 11.078125 6.765625 C 11.078125 5.523438 10.640625 4.5625 9.765625 3.875 C 8.890625 3.1875 7.726562 2.84375 6.28125 2.84375 C 4.820312 2.84375 3.65625 3.1875 2.78125 3.875 C 1.90625 4.5625 1.46875 5.523438 1.46875 6.765625 Z M 1.46875 6.765625 "/></g></g></g><g fill="#ffffff" fill-opacity="1"><g transform="translate(737.080473, 312.860065)"><g><path d="M 0 1.125 L 12.578125 1.125 L 12.578125 3.453125 L 10.515625 3.453125 L 10.515625 3.5 C 10.890625 3.726562 11.253906 4.019531 11.609375 4.375 C 11.972656 4.738281 12.273438 5.179688 12.515625 5.703125 C 12.753906 6.234375 12.875 6.84375 12.875 7.53125 C 12.875 8.425781 12.648438 9.148438 12.203125 9.703125 C 11.765625 10.265625 11.160156 10.648438 10.390625 10.859375 L 10.390625 10.90625 C 11.109375 11.394531 11.703125 11.960938 12.171875 12.609375 C 12.640625 13.253906 12.875 14.125 12.875 15.21875 C 12.875 16.46875 12.5 17.414062 11.75 18.0625 C 11.007812 18.71875 9.960938 19.046875 8.609375 19.046875 L 0 19.046875 L 0 16.6875 L 7.75 16.6875 C 8.84375 16.6875 9.648438 16.519531 10.171875 16.1875 C 10.691406 15.851562 10.953125 15.238281 10.953125 14.34375 C 10.953125 13.375 10.65625 12.613281 10.0625 12.0625 C 9.476562 11.507812 8.753906 11.234375 7.890625 11.234375 L 0 11.234375 L 0 8.90625 L 7.75 8.90625 C 8.925781 8.90625 9.753906 8.707031 10.234375 8.3125 C 10.710938 7.914062 10.953125 7.332031 10.953125 6.5625 C 10.953125 5.925781 10.804688 5.375 10.515625 4.90625 C 10.234375 4.445312 9.859375 4.085938 9.390625 3.828125 C 8.929688 3.578125 8.429688 3.453125 7.890625 3.453125 L 0 3.453125 Z M 0 1.125 "/></g></g></g><g fill="#ffffff" fill-opacity="1"><g transform="translate(737.080473, 332.938077)"><g><path d="M -0.34375 6.203125 C -0.34375 4.859375 -0.148438 3.757812 0.234375 2.90625 C 0.628906 2.0625 1.15625 1.4375 1.8125 1.03125 C 2.476562 0.625 3.222656 0.394531 4.046875 0.34375 L 4.046875 2.546875 C 3.222656 2.609375 2.566406 2.9375 2.078125 3.53125 C 1.585938 4.132812 1.34375 5 1.34375 6.125 C 1.34375 6.914062 1.519531 7.566406 1.875 8.078125 C 2.238281 8.585938 2.707031 8.84375 3.28125 8.84375 C 3.851562 8.84375 4.28125 8.679688 4.5625 8.359375 C 4.851562 8.035156 5.078125 7.585938 5.234375 7.015625 C 5.390625 6.453125 5.554688 5.8125 5.734375 5.09375 C 5.929688 4.332031 6.148438 3.609375 6.390625 2.921875 C 6.640625 2.242188 6.988281 1.703125 7.4375 1.296875 C 7.882812 0.890625 8.503906 0.6875 9.296875 0.6875 C 10.335938 0.6875 11.191406 1.117188 11.859375 1.984375 C 12.535156 2.847656 12.875 4.054688 12.875 5.609375 C 12.875 6.804688 12.6875 7.765625 12.3125 8.484375 C 11.9375 9.210938 11.453125 9.757812 10.859375 10.125 C 10.273438 10.488281 9.644531 10.703125 8.96875 10.765625 L 8.96875 8.5625 C 9.59375 8.457031 10.117188 8.179688 10.546875 7.734375 C 10.984375 7.296875 11.203125 6.601562 11.203125 5.65625 C 11.203125 4.9375 11.054688 4.316406 10.765625 3.796875 C 10.484375 3.273438 10.039062 3.015625 9.4375 3.015625 C 9.007812 3.015625 8.679688 3.15625 8.453125 3.4375 C 8.222656 3.726562 8.039062 4.132812 7.90625 4.65625 C 7.769531 5.175781 7.617188 5.789062 7.453125 6.5 C 7.253906 7.363281 7.015625 8.144531 6.734375 8.84375 C 6.460938 9.550781 6.078125 10.113281 5.578125 10.53125 C 5.078125 10.957031 4.382812 11.171875 3.5 11.171875 C 2.3125 11.171875 1.375 10.726562 0.6875 9.84375 C 0 8.96875 -0.34375 7.753906 -0.34375 6.203125 Z M -0.34375 6.203125 "/></g></g></g><g fill="#ffffff" fill-opacity="1"><g transform="translate(737.080473, 344.558322)"><g/></g></g><g fill="#ffffff" fill-opacity="1"><g transform="translate(737.080473, 349.461365)"><g><path d="M -3.265625 1.671875 L 18.359375 1.671875 L 18.359375 3.40625 L -3.265625 3.40625 Z M -3.265625 1.671875 "/></g></g></g><g fill="#ffffff" fill-opacity="1"><g transform="translate(737.080473, 354.511506)"><g/></g></g><g fill="#ffffff" fill-opacity="1"><g transform="translate(737.080473, 359.414571)"><g><path d="M 0 1.390625 L 17.53125 1.390625 L 17.53125 8.78125 C 17.53125 10.488281 17.113281 11.867188 16.28125 12.921875 C 15.445312 13.984375 14.109375 14.515625 12.265625 14.515625 C 10.429688 14.515625 9.085938 13.984375 8.234375 12.921875 C 7.390625 11.867188 6.96875 10.488281 6.96875 8.78125 L 6.96875 4 L 0 4 Z M 9.125 4 L 9.125 8.40625 C 9.125 9.488281 9.367188 10.34375 9.859375 10.96875 C 10.347656 11.601562 11.148438 11.921875 12.265625 11.921875 C 13.367188 11.921875 14.164062 11.601562 14.65625 10.96875 C 15.144531 10.34375 15.390625 9.488281 15.390625 8.40625 L 15.390625 4 Z M 9.125 4 "/></g></g></g><g fill="#ffffff" fill-opacity="1"><g transform="translate(737.080473, 374.368871)"><g><path d="M 0 1.125 L 12.578125 1.125 L 12.578125 3.453125 L 10.203125 3.453125 L 10.203125 3.5 C 10.960938 3.800781 11.578125 4.253906 12.046875 4.859375 C 12.523438 5.472656 12.765625 6.164062 12.765625 6.9375 C 12.765625 7.113281 12.757812 7.285156 12.75 7.453125 C 12.75 7.617188 12.734375 7.78125 12.703125 7.9375 L 10.671875 7.9375 L 10.671875 7.890625 C 10.796875 7.160156 10.71875 6.453125 10.4375 5.765625 C 10.164062 5.085938 9.726562 4.53125 9.125 4.09375 C 8.519531 3.664062 7.757812 3.453125 6.84375 3.453125 L 0 3.453125 Z M 0 1.125 "/></g></g></g><g fill="#ffffff" fill-opacity="1"><g transform="translate(737.080473, 382.679539)"><g><path d="M 14.828125 2.421875 C 14.828125 2.078125 14.925781 1.78125 15.125 1.53125 C 15.332031 1.28125 15.628906 1.15625 16.015625 1.15625 C 16.390625 1.15625 16.671875 1.28125 16.859375 1.53125 C 17.054688 1.78125 17.15625 2.078125 17.15625 2.421875 C 17.15625 2.785156 17.054688 3.09375 16.859375 3.34375 C 16.671875 3.59375 16.390625 3.71875 16.015625 3.71875 C 15.628906 3.71875 15.332031 3.59375 15.125 3.34375 C 14.925781 3.09375 14.828125 2.785156 14.828125 2.421875 Z M 0 1.28125 L 12.578125 1.28125 L 12.578125 3.609375 L 0 3.609375 Z M 0 1.28125 "/></g></g></g><g fill="#ffffff" fill-opacity="1"><g transform="translate(737.080473, 387.533557)"><g><path d="M 0 4.578125 L 12.578125 0.03125 L 12.578125 2.375 L 2.671875 5.859375 L 2.671875 5.890625 L 12.578125 9.390625 L 12.578125 11.71875 L 0 7.15625 Z M 0 4.578125 "/></g></g></g><g fill="#ffffff" fill-opacity="1"><g transform="translate(737.080473, 398.712392)"><g><path d="M -0.34375 4.5625 C -0.34375 3.300781 -0.0195312 2.304688 0.625 1.578125 C 1.269531 0.847656 2.109375 0.484375 3.140625 0.484375 C 4.347656 0.484375 5.257812 0.890625 5.875 1.703125 C 6.5 2.515625 6.941406 3.6875 7.203125 5.21875 C 7.304688 5.8125 7.410156 6.378906 7.515625 6.921875 C 7.617188 7.472656 7.789062 7.925781 8.03125 8.28125 C 8.28125 8.644531 8.675781 8.828125 9.21875 8.828125 C 9.882812 8.828125 10.378906 8.601562 10.703125 8.15625 C 11.035156 7.707031 11.203125 7.101562 11.203125 6.34375 C 11.203125 5.351562 10.988281 4.601562 10.5625 4.09375 C 10.132812 3.582031 9.539062 3.296875 8.78125 3.234375 L 8.78125 1.03125 C 9.476562 1.082031 10.132812 1.28125 10.75 1.625 C 11.375 1.976562 11.882812 2.539062 12.28125 3.3125 C 12.675781 4.082031 12.875 5.09375 12.875 6.34375 C 12.875 7.332031 12.722656 8.1875 12.421875 8.90625 C 12.128906 9.625 11.648438 10.175781 10.984375 10.5625 C 10.316406 10.957031 9.410156 11.15625 8.265625 11.15625 L 2.203125 11.15625 C 1.929688 11.15625 1.671875 11.175781 1.421875 11.21875 C 1.171875 11.269531 0.984375 11.382812 0.859375 11.5625 C 0.742188 11.75 0.71875 12.046875 0.78125 12.453125 L -0.03125 12.453125 C -0.1875 11.941406 -0.265625 11.425781 -0.265625 10.90625 C -0.265625 10.15625 -0.0898438 9.632812 0.25 9.34375 C 0.601562 9.050781 1.082031 8.90625 1.6875 8.90625 L 1.6875 8.84375 C 1.039062 8.382812 0.539062 7.785156 0.1875 7.046875 C -0.164062 6.304688 -0.34375 5.476562 -0.34375 4.5625 Z M 1.34375 5.34375 C 1.34375 6.144531 1.488281 6.796875 1.78125 7.296875 C 2.082031 7.804688 2.457031 8.1875 2.90625 8.4375 C 3.351562 8.695312 3.789062 8.828125 4.21875 8.828125 L 6.84375 8.828125 C 6.59375 8.609375 6.398438 8.242188 6.265625 7.734375 C 6.140625 7.234375 6.03125 6.640625 5.9375 5.953125 C 5.769531 4.960938 5.5 4.191406 5.125 3.640625 C 4.757812 3.085938 4.226562 2.8125 3.53125 2.8125 C 2.789062 2.8125 2.238281 3.03125 1.875 3.46875 C 1.519531 3.914062 1.34375 4.539062 1.34375 5.34375 Z M 1.34375 5.34375 "/></g></g></g><g fill="#ffffff" fill-opacity="1"><g transform="translate(737.080473, 411.141541)"><g><path d="M -0.140625 5.078125 C -0.140625 4.078125 0.144531 3.335938 0.71875 2.859375 C 1.300781 2.390625 2.265625 2.15625 3.609375 2.15625 L 10.78125 2.15625 L 10.78125 0.375 L 12.578125 0.375 L 12.578125 2.15625 L 16.375 2.15625 L 16.375 4.484375 L 12.578125 4.484375 L 12.578125 6.96875 L 10.78125 6.96875 L 10.78125 4.484375 L 3.84375 4.484375 C 3.34375 4.484375 2.921875 4.535156 2.578125 4.640625 C 2.242188 4.753906 2.015625 4.984375 1.890625 5.328125 C 1.773438 5.679688 1.765625 6.226562 1.859375 6.96875 L 0.078125 6.96875 C 0.00390625 6.664062 -0.046875 6.375 -0.078125 6.09375 C -0.117188 5.820312 -0.140625 5.484375 -0.140625 5.078125 Z M -0.140625 5.078125 "/></g></g></g><g fill="#ffffff" fill-opacity="1"><g transform="translate(737.080473, 418.447045)"><g><path d="M -0.34375 6.71875 C -0.34375 5.445312 -0.0664062 4.347656 0.484375 3.421875 C 1.046875 2.492188 1.820312 1.773438 2.8125 1.265625 C 3.8125 0.765625 4.96875 0.515625 6.28125 0.515625 C 7.601562 0.515625 8.757812 0.765625 9.75 1.265625 C 10.738281 1.773438 11.503906 2.484375 12.046875 3.390625 C 12.597656 4.296875 12.875 5.363281 12.875 6.59375 C 12.875 7.914062 12.570312 9.015625 11.96875 9.890625 C 11.363281 10.765625 10.53125 11.414062 9.46875 11.84375 C 8.40625 12.28125 7.1875 12.5 5.8125 12.5 L 5.8125 2.84375 C 4.414062 2.84375 3.34375 3.207031 2.59375 3.9375 C 1.84375 4.675781 1.46875 5.59375 1.46875 6.6875 C 1.46875 7.40625 1.59375 7.988281 1.84375 8.4375 C 2.101562 8.894531 2.410156 9.25 2.765625 9.5 C 3.128906 9.75 3.472656 9.914062 3.796875 10 L 3.796875 12.3125 C 2.585938 12 1.59375 11.390625 0.8125 10.484375 C 0.0390625 9.578125 -0.34375 8.320312 -0.34375 6.71875 Z M 7.328125 2.84375 L 7.328125 10.171875 C 8.046875 10.171875 8.695312 10.035156 9.28125 9.765625 C 9.863281 9.492188 10.328125 9.09375 10.671875 8.5625 C 11.023438 8.03125 11.203125 7.375 11.203125 6.59375 C 11.203125 5.445312 10.832031 4.539062 10.09375 3.875 C 9.363281 3.21875 8.441406 2.875 7.328125 2.84375 Z M 7.328125 2.84375 "/></g></g></g><g fill="#ffffff" fill-opacity="1"><g transform="translate(737.080473, 431.440132)"><g/></g></g><g fill="#ffffff" fill-opacity="1"><g transform="translate(737.080473, 436.343175)"><g><path d="M -4.265625 6.546875 C -4.265625 5.347656 -4.078125 4.34375 -3.703125 3.53125 C -3.335938 2.726562 -2.863281 2.101562 -2.28125 1.65625 C -1.707031 1.207031 -1.101562 0.925781 -0.46875 0.8125 L -0.46875 3.140625 C -1.007812 3.265625 -1.488281 3.59375 -1.90625 4.125 C -2.332031 4.65625 -2.546875 5.445312 -2.546875 6.5 C -2.546875 7.625 -2.25 8.476562 -1.65625 9.0625 C -1.0625 9.65625 -0.136719 9.953125 1.109375 9.953125 L 3.015625 9.953125 L 3.015625 9.90625 C 2.390625 9.59375 1.835938 9.082031 1.359375 8.375 C 0.890625 7.675781 0.65625 6.820312 0.65625 5.8125 C 0.65625 4.832031 0.894531 3.941406 1.375 3.140625 C 1.863281 2.335938 2.5625 1.695312 3.46875 1.21875 C 4.375 0.75 5.472656 0.515625 6.765625 0.515625 C 8.054688 0.515625 9.15625 0.75 10.0625 1.21875 C 10.96875 1.695312 11.660156 2.335938 12.140625 3.140625 C 12.628906 3.941406 12.875 4.832031 12.875 5.8125 C 12.875 6.820312 12.632812 7.675781 12.15625 8.375 C 11.6875 9.082031 11.125 9.59375 10.46875 9.90625 L 10.46875 9.953125 L 12.578125 9.953125 L 12.578125 12.28125 L 0.953125 12.28125 C -0.917969 12.28125 -2.257812 11.757812 -3.0625 10.71875 C -3.863281 9.6875 -4.265625 8.296875 -4.265625 6.546875 Z M 2.453125 6.421875 C 2.453125 7.367188 2.8125 8.1875 3.53125 8.875 C 4.25 9.5625 5.328125 9.90625 6.765625 9.90625 C 8.191406 9.90625 9.265625 9.5625 9.984375 8.875 C 10.710938 8.1875 11.078125 7.367188 11.078125 6.421875 C 11.078125 5.378906 10.710938 4.519531 9.984375 3.84375 C 9.265625 3.175781 8.191406 2.84375 6.765625 2.84375 C 5.328125 2.84375 4.25 3.175781 3.53125 3.84375 C 2.8125 4.519531 2.453125 5.378906 2.453125 6.421875 Z M 2.453125 6.421875 "/></g></g></g><g fill="#ffffff" fill-opacity="1"><g transform="translate(737.080473, 449.753032)"><g><path d="M -0.34375 4.5625 C -0.34375 3.300781 -0.0195312 2.304688 0.625 1.578125 C 1.269531 0.847656 2.109375 0.484375 3.140625 0.484375 C 4.347656 0.484375 5.257812 0.890625 5.875 1.703125 C 6.5 2.515625 6.941406 3.6875 7.203125 5.21875 C 7.304688 5.8125 7.410156 6.378906 7.515625 6.921875 C 7.617188 7.472656 7.789062 7.925781 8.03125 8.28125 C 8.28125 8.644531 8.675781 8.828125 9.21875 8.828125 C 9.882812 8.828125 10.378906 8.601562 10.703125 8.15625 C 11.035156 7.707031 11.203125 7.101562 11.203125 6.34375 C 11.203125 5.351562 10.988281 4.601562 10.5625 4.09375 C 10.132812 3.582031 9.539062 3.296875 8.78125 3.234375 L 8.78125 1.03125 C 9.476562 1.082031 10.132812 1.28125 10.75 1.625 C 11.375 1.976562 11.882812 2.539062 12.28125 3.3125 C 12.675781 4.082031 12.875 5.09375 12.875 6.34375 C 12.875 7.332031 12.722656 8.1875 12.421875 8.90625 C 12.128906 9.625 11.648438 10.175781 10.984375 10.5625 C 10.316406 10.957031 9.410156 11.15625 8.265625 11.15625 L 2.203125 11.15625 C 1.929688 11.15625 1.671875 11.175781 1.421875 11.21875 C 1.171875 11.269531 0.984375 11.382812 0.859375 11.5625 C 0.742188 11.75 0.71875 12.046875 0.78125 12.453125 L -0.03125 12.453125 C -0.1875 11.941406 -0.265625 11.425781 -0.265625 10.90625 C -0.265625 10.15625 -0.0898438 9.632812 0.25 9.34375 C 0.601562 9.050781 1.082031 8.90625 1.6875 8.90625 L 1.6875 8.84375 C 1.039062 8.382812 0.539062 7.785156 0.1875 7.046875 C -0.164062 6.304688 -0.34375 5.476562 -0.34375 4.5625 Z M 1.34375 5.34375 C 1.34375 6.144531 1.488281 6.796875 1.78125 7.296875 C 2.082031 7.804688 2.457031 8.1875 2.90625 8.4375 C 3.351562 8.695312 3.789062 8.828125 4.21875 8.828125 L 6.84375 8.828125 C 6.59375 8.609375 6.398438 8.242188 6.265625 7.734375 C 6.140625 7.234375 6.03125 6.640625 5.9375 5.953125 C 5.769531 4.960938 5.5 4.191406 5.125 3.640625 C 4.757812 3.085938 4.226562 2.8125 3.53125 2.8125 C 2.789062 2.8125 2.238281 3.03125 1.875 3.46875 C 1.519531 3.914062 1.34375 4.539062 1.34375 5.34375 Z M 1.34375 5.34375 "/></g></g></g><g fill="#ffffff" fill-opacity="1"><g transform="translate(737.080473, 462.549972)"><g><path d="M 0 1.125 L 12.578125 1.125 L 12.578125 3.453125 L 10.203125 3.453125 L 10.203125 3.5 C 10.960938 3.800781 11.578125 4.253906 12.046875 4.859375 C 12.523438 5.472656 12.765625 6.164062 12.765625 6.9375 C 12.765625 7.113281 12.757812 7.285156 12.75 7.453125 C 12.75 7.617188 12.734375 7.78125 12.703125 7.9375 L 10.671875 7.9375 L 10.671875 7.890625 C 10.796875 7.160156 10.71875 6.453125 10.4375 5.765625 C 10.164062 5.085938 9.726562 4.53125 9.125 4.09375 C 8.519531 3.664062 7.757812 3.453125 6.84375 3.453125 L 0 3.453125 Z M 0 1.125 "/></g></g></g><g fill="#ffffff" fill-opacity="1"><g transform="translate(737.080473, 470.370252)"><g><path d="M -0.34375 5.953125 C -0.34375 4.910156 -0.0742188 3.972656 0.453125 3.140625 C 0.984375 2.316406 1.742188 1.671875 2.734375 1.203125 C 3.722656 0.742188 4.90625 0.515625 6.28125 0.515625 C 7.644531 0.515625 8.820312 0.742188 9.8125 1.203125 C 10.800781 1.671875 11.554688 2.316406 12.078125 3.140625 C 12.609375 3.972656 12.875 4.910156 12.875 5.953125 C 12.875 7.015625 12.609375 7.894531 12.078125 8.59375 C 11.546875 9.300781 10.953125 9.8125 10.296875 10.125 L 10.296875 10.171875 L 17.53125 10.171875 L 17.53125 12.5 L 0 12.5 L 0 10.171875 L 2.203125 10.171875 L 2.203125 10.125 C 1.796875 9.925781 1.394531 9.632812 1 9.25 C 0.613281 8.863281 0.289062 8.394531 0.03125 7.84375 C -0.21875 7.300781 -0.34375 6.671875 -0.34375 5.953125 Z M 1.46875 6.546875 C 1.46875 7.554688 1.882812 8.410156 2.71875 9.109375 C 3.550781 9.804688 4.738281 10.15625 6.28125 10.15625 C 7.8125 10.15625 8.992188 9.804688 9.828125 9.109375 C 10.660156 8.410156 11.078125 7.554688 11.078125 6.546875 C 11.078125 5.453125 10.660156 4.5625 9.828125 3.875 C 8.992188 3.1875 7.8125 2.84375 6.28125 2.84375 C 4.738281 2.84375 3.550781 3.1875 2.71875 3.875 C 1.882812 4.5625 1.46875 5.453125 1.46875 6.546875 Z M 1.46875 6.546875 "/></g></g></g><g fill="#ffffff" fill-opacity="1"><g transform="translate(737.080473, 484.000712)"><g><path d="M -0.34375 6.71875 C -0.34375 5.445312 -0.0664062 4.347656 0.484375 3.421875 C 1.046875 2.492188 1.820312 1.773438 2.8125 1.265625 C 3.8125 0.765625 4.96875 0.515625 6.28125 0.515625 C 7.601562 0.515625 8.757812 0.765625 9.75 1.265625 C 10.738281 1.773438 11.503906 2.484375 12.046875 3.390625 C 12.597656 4.296875 12.875 5.363281 12.875 6.59375 C 12.875 7.914062 12.570312 9.015625 11.96875 9.890625 C 11.363281 10.765625 10.53125 11.414062 9.46875 11.84375 C 8.40625 12.28125 7.1875 12.5 5.8125 12.5 L 5.8125 2.84375 C 4.414062 2.84375 3.34375 3.207031 2.59375 3.9375 C 1.84375 4.675781 1.46875 5.59375 1.46875 6.6875 C 1.46875 7.40625 1.59375 7.988281 1.84375 8.4375 C 2.101562 8.894531 2.410156 9.25 2.765625 9.5 C 3.128906 9.75 3.472656 9.914062 3.796875 10 L 3.796875 12.3125 C 2.585938 12 1.59375 11.390625 0.8125 10.484375 C 0.0390625 9.578125 -0.34375 8.320312 -0.34375 6.71875 Z M 7.328125 2.84375 L 7.328125 10.171875 C 8.046875 10.171875 8.695312 10.035156 9.28125 9.765625 C 9.863281 9.492188 10.328125 9.09375 10.671875 8.5625 C 11.023438 8.03125 11.203125 7.375 11.203125 6.59375 C 11.203125 5.445312 10.832031 4.539062 10.09375 3.875 C 9.363281 3.21875 8.441406 2.875 7.328125 2.84375 Z M 7.328125 2.84375 "/></g></g></g><g fill="#ffffff" fill-opacity="1"><g transform="translate(737.080473, 496.993822)"><g><path d="M 0 1.125 L 12.578125 1.125 L 12.578125 3.453125 L 10.546875 3.453125 L 10.546875 3.5 C 11.128906 3.875 11.660156 4.398438 12.140625 5.078125 C 12.628906 5.765625 12.875 6.71875 12.875 7.9375 C 12.875 9.03125 12.519531 9.957031 11.8125 10.71875 C 11.113281 11.476562 10.09375 11.859375 8.75 11.859375 L 0 11.859375 L 0 9.53125 L 7.890625 9.53125 C 8.828125 9.53125 9.570312 9.335938 10.125 8.953125 C 10.675781 8.578125 10.953125 7.878906 10.953125 6.859375 C 10.953125 6.140625 10.804688 5.523438 10.515625 5.015625 C 10.234375 4.515625 9.867188 4.128906 9.421875 3.859375 C 8.972656 3.585938 8.488281 3.453125 7.96875 3.453125 L 0 3.453125 Z M 0 1.125 "/></g></g></g><g fill="#ffffff" fill-opacity="1"><g transform="translate(737.080473, 509.890665)"><g/></g></g><g fill="#ffffff" fill-opacity="1"><g transform="translate(703.347134, 73.395312)"><g><path d="M 0 4.390625 L 12.875 4.390625 C 12.46875 4.109375 12.164062 3.757812 11.96875 3.34375 C 11.78125 2.925781 11.65625 2.488281 11.59375 2.03125 C 11.539062 1.570312 11.515625 1.140625 11.515625 0.734375 L 13.34375 0.734375 C 13.34375 2.160156 13.679688 3.1875 14.359375 3.8125 C 15.035156 4.4375 15.894531 4.75 16.9375 4.75 L 16.9375 6.859375 L 0 6.859375 Z M 0 4.390625 "/></g></g></g><g fill="#ffffff" fill-opacity="1"><g transform="translate(703.347134, 82.073715)"><g><path d="M 0 0.65625 C 1.53125 0.65625 2.800781 1.03125 3.8125 1.78125 C 4.832031 2.539062 5.695312 3.46875 6.40625 4.5625 C 7.082031 5.5625 7.695312 6.476562 8.25 7.3125 C 8.8125 8.15625 9.398438 8.832031 10.015625 9.34375 C 10.628906 9.863281 11.351562 10.125 12.1875 10.125 C 13.050781 10.125 13.773438 9.851562 14.359375 9.3125 C 14.953125 8.769531 15.25 8.007812 15.25 7.03125 C 15.25 5.925781 14.890625 5.03125 14.171875 4.34375 C 13.453125 3.664062 12.476562 3.328125 11.25 3.328125 L 11.25 0.984375 C 12.375 0.984375 13.394531 1.207031 14.3125 1.65625 C 15.226562 2.101562 15.953125 2.78125 16.484375 3.6875 C 17.015625 4.59375 17.28125 5.722656 17.28125 7.078125 C 17.28125 8.179688 17.078125 9.144531 16.671875 9.96875 C 16.273438 10.789062 15.707031 11.429688 14.96875 11.890625 C 14.238281 12.359375 13.359375 12.59375 12.328125 12.59375 C 11.441406 12.59375 10.671875 12.414062 10.015625 12.0625 C 9.367188 11.71875 8.789062 11.257812 8.28125 10.6875 C 7.78125 10.113281 7.304688 9.492188 6.859375 8.828125 C 6.421875 8.160156 5.972656 7.503906 5.515625 6.859375 C 5.054688 6.210938 4.550781 5.632812 4 5.125 C 3.457031 4.613281 2.816406 4.238281 2.078125 4 L 2.03125 4 L 2.03125 12.59375 L 0 12.59375 Z M 0 0.65625 "/></g></g></g><g fill="#ffffff" fill-opacity="1"><g transform="translate(703.347134, 95.434537)"><g><path d="M -0.34375 7.140625 C -0.34375 5.023438 0.191406 3.378906 1.265625 2.203125 C 2.335938 1.023438 3.828125 0.4375 5.734375 0.4375 L 5.734375 2.796875 C 4.503906 2.796875 3.519531 3.144531 2.78125 3.84375 C 2.050781 4.550781 1.6875 5.597656 1.6875 6.984375 C 1.6875 8.160156 1.957031 9.0625 2.5 9.6875 C 3.050781 10.320312 3.800781 10.640625 4.75 10.640625 C 5.46875 10.640625 6.0625 10.46875 6.53125 10.125 C 7 9.78125 7.34375 9.332031 7.5625 8.78125 C 7.78125 8.238281 7.890625 7.640625 7.890625 6.984375 L 7.890625 5.640625 L 9.65625 5.640625 L 9.65625 6.890625 C 9.65625 7.847656 9.898438 8.617188 10.390625 9.203125 C 10.878906 9.785156 11.554688 10.078125 12.421875 10.078125 C 13.242188 10.078125 13.921875 9.8125 14.453125 9.28125 C 14.984375 8.75 15.25 7.96875 15.25 6.9375 C 15.25 5.707031 14.929688 4.796875 14.296875 4.203125 C 13.671875 3.609375 12.882812 3.3125 11.9375 3.3125 L 11.9375 0.953125 C 12.945312 0.953125 13.859375 1.1875 14.671875 1.65625 C 15.484375 2.132812 16.117188 2.832031 16.578125 3.75 C 17.046875 4.664062 17.28125 5.785156 17.28125 7.109375 C 17.28125 8.054688 17.101562 8.941406 16.75 9.765625 C 16.40625 10.585938 15.894531 11.253906 15.21875 11.765625 C 14.550781 12.285156 13.734375 12.546875 12.765625 12.546875 C 11.773438 12.546875 10.976562 12.300781 10.375 11.8125 C 9.769531 11.320312 9.285156 10.703125 8.921875 9.953125 L 8.875 9.953125 C 8.550781 11.035156 8.023438 11.832031 7.296875 12.34375 C 6.566406 12.851562 5.679688 13.109375 4.640625 13.109375 C 3.578125 13.109375 2.671875 12.851562 1.921875 12.34375 C 1.179688 11.84375 0.617188 11.144531 0.234375 10.25 C -0.148438 9.351562 -0.34375 8.316406 -0.34375 7.140625 Z M -0.34375 7.140625 "/></g></g></g><g fill="#ffffff" fill-opacity="1"><g transform="translate(703.347134, 109.212118)"><g/></g></g><g fill="#ffffff" fill-opacity="1"><g transform="translate(703.347134, 114.115172)"><g><path d="M 0 0.09375 L 17.53125 6.625 L 17.53125 9.296875 L 0 15.84375 L 0 13.234375 L 4.8125 11.515625 L 4.8125 4.40625 L 0 2.703125 Z M 6.84375 5.03125 L 6.84375 10.90625 L 15.046875 7.984375 L 15.046875 7.9375 Z M 6.84375 5.03125 "/></g></g></g><g fill="#ffffff" fill-opacity="1"><g transform="translate(703.347134, 130.074612)"><g><path d="M 0 1.125 L 12.578125 1.125 L 12.578125 3.453125 L 10.546875 3.453125 L 10.546875 3.5 C 11.128906 3.875 11.660156 4.398438 12.140625 5.078125 C 12.628906 5.765625 12.875 6.71875 12.875 7.9375 C 12.875 9.03125 12.519531 9.957031 11.8125 10.71875 C 11.113281 11.476562 10.09375 11.859375 8.75 11.859375 L 0 11.859375 L 0 9.53125 L 7.890625 9.53125 C 8.828125 9.53125 9.570312 9.335938 10.125 8.953125 C 10.675781 8.578125 10.953125 7.878906 10.953125 6.859375 C 10.953125 6.140625 10.804688 5.523438 10.515625 5.015625 C 10.234375 4.515625 9.867188 4.128906 9.421875 3.859375 C 8.972656 3.585938 8.488281 3.453125 7.96875 3.453125 L 0 3.453125 Z M 0 1.125 "/></g></g></g><g fill="#ffffff" fill-opacity="1"><g transform="translate(703.347134, 142.724432)"><g><path d="M -4.234375 3.234375 C -4.234375 2.890625 -4.207031 2.566406 -4.15625 2.265625 C -4.113281 1.960938 -4.0625 1.671875 -4 1.390625 L -2.203125 1.390625 L -2.203125 1.453125 C -2.316406 1.921875 -2.359375 2.375 -2.328125 2.8125 C -2.304688 3.257812 -2.144531 3.613281 -1.84375 3.875 C -1.5625 4.101562 -1.175781 4.273438 -0.6875 4.390625 C -0.195312 4.515625 0.34375 4.570312 0.9375 4.5625 L 12.578125 0.03125 L 12.578125 2.375 L 2.703125 6.078125 L 2.703125 6.125 L 12.578125 9.515625 L 12.578125 11.859375 L -0.34375 7.25 C -1.269531 6.925781 -2.019531 6.59375 -2.59375 6.25 C -3.164062 5.90625 -3.582031 5.492188 -3.84375 5.015625 C -4.101562 4.546875 -4.234375 3.953125 -4.234375 3.234375 Z M -4.234375 3.234375 "/></g></g></g><g fill="#ffffff" fill-opacity="1"><g transform="translate(703.347134, 154.982141)"><g><path d="M 0 3.828125 L 12.578125 0.078125 L 12.578125 2.421875 L 2.921875 5.203125 L 2.921875 5.25 L 12.578125 7.9375 L 12.578125 10.15625 L 2.921875 12.875 L 2.921875 12.890625 L 12.578125 15.6875 L 12.578125 18.015625 L 0 14.296875 L 0 11.96875 L 9.8125 9.078125 L 9.8125 9.015625 L 0 6.15625 Z M 0 3.828125 "/></g></g></g><g fill="#ffffff" fill-opacity="1"><g transform="translate(703.347134, 173.098918)"><g><path d="M 0 1.15625 L 17.53125 1.15625 L 17.53125 3.484375 L 10.546875 3.484375 L 10.546875 3.53125 C 11.128906 3.90625 11.660156 4.425781 12.140625 5.09375 C 12.628906 5.769531 12.875 6.6875 12.875 7.84375 C 12.875 9 12.519531 9.960938 11.8125 10.734375 C 11.113281 11.503906 10.09375 11.890625 8.75 11.890625 L 0 11.890625 L 0 9.5625 L 7.890625 9.5625 C 8.828125 9.5625 9.570312 9.375 10.125 9 C 10.675781 8.625 10.953125 7.90625 10.953125 6.84375 C 10.953125 6.164062 10.804688 5.570312 10.515625 5.0625 C 10.234375 4.5625 9.867188 4.171875 9.421875 3.890625 C 8.972656 3.617188 8.488281 3.484375 7.96875 3.484375 L 0 3.484375 Z M 0 1.15625 "/></g></g></g><g fill="#ffffff" fill-opacity="1"><g transform="translate(703.347134, 186.018467)"><g><path d="M -0.34375 6.71875 C -0.34375 5.445312 -0.0664062 4.347656 0.484375 3.421875 C 1.046875 2.492188 1.820312 1.773438 2.8125 1.265625 C 3.8125 0.765625 4.96875 0.515625 6.28125 0.515625 C 7.601562 0.515625 8.757812 0.765625 9.75 1.265625 C 10.738281 1.773438 11.503906 2.484375 12.046875 3.390625 C 12.597656 4.296875 12.875 5.363281 12.875 6.59375 C 12.875 7.914062 12.570312 9.015625 11.96875 9.890625 C 11.363281 10.765625 10.53125 11.414062 9.46875 11.84375 C 8.40625 12.28125 7.1875 12.5 5.8125 12.5 L 5.8125 2.84375 C 4.414062 2.84375 3.34375 3.207031 2.59375 3.9375 C 1.84375 4.675781 1.46875 5.59375 1.46875 6.6875 C 1.46875 7.40625 1.59375 7.988281 1.84375 8.4375 C 2.101562 8.894531 2.410156 9.25 2.765625 9.5 C 3.128906 9.75 3.472656 9.914062 3.796875 10 L 3.796875 12.3125 C 2.585938 12 1.59375 11.390625 0.8125 10.484375 C 0.0390625 9.578125 -0.34375 8.320312 -0.34375 6.71875 Z M 7.328125 2.84375 L 7.328125 10.171875 C 8.046875 10.171875 8.695312 10.035156 9.28125 9.765625 C 9.863281 9.492188 10.328125 9.09375 10.671875 8.5625 C 11.023438 8.03125 11.203125 7.375 11.203125 6.59375 C 11.203125 5.445312 10.832031 4.539062 10.09375 3.875 C 9.363281 3.21875 8.441406 2.875 7.328125 2.84375 Z M 7.328125 2.84375 "/></g></g></g><g fill="#ffffff" fill-opacity="1"><g transform="translate(703.347134, 199.011553)"><g><path d="M 0 1.125 L 12.578125 1.125 L 12.578125 3.453125 L 10.203125 3.453125 L 10.203125 3.5 C 10.960938 3.800781 11.578125 4.253906 12.046875 4.859375 C 12.523438 5.472656 12.765625 6.164062 12.765625 6.9375 C 12.765625 7.113281 12.757812 7.285156 12.75 7.453125 C 12.75 7.617188 12.734375 7.78125 12.703125 7.9375 L 10.671875 7.9375 L 10.671875 7.890625 C 10.796875 7.160156 10.71875 6.453125 10.4375 5.765625 C 10.164062 5.085938 9.726562 4.53125 9.125 4.09375 C 8.519531 3.664062 7.757812 3.453125 6.84375 3.453125 L 0 3.453125 Z M 0 1.125 "/></g></g></g><g fill="#ffffff" fill-opacity="1"><g transform="translate(703.347134, 206.831811)"><g><path d="M -0.34375 6.71875 C -0.34375 5.445312 -0.0664062 4.347656 0.484375 3.421875 C 1.046875 2.492188 1.820312 1.773438 2.8125 1.265625 C 3.8125 0.765625 4.96875 0.515625 6.28125 0.515625 C 7.601562 0.515625 8.757812 0.765625 9.75 1.265625 C 10.738281 1.773438 11.503906 2.484375 12.046875 3.390625 C 12.597656 4.296875 12.875 5.363281 12.875 6.59375 C 12.875 7.914062 12.570312 9.015625 11.96875 9.890625 C 11.363281 10.765625 10.53125 11.414062 9.46875 11.84375 C 8.40625 12.28125 7.1875 12.5 5.8125 12.5 L 5.8125 2.84375 C 4.414062 2.84375 3.34375 3.207031 2.59375 3.9375 C 1.84375 4.675781 1.46875 5.59375 1.46875 6.6875 C 1.46875 7.40625 1.59375 7.988281 1.84375 8.4375 C 2.101562 8.894531 2.410156 9.25 2.765625 9.5 C 3.128906 9.75 3.472656 9.914062 3.796875 10 L 3.796875 12.3125 C 2.585938 12 1.59375 11.390625 0.8125 10.484375 C 0.0390625 9.578125 -0.34375 8.320312 -0.34375 6.71875 Z M 7.328125 2.84375 L 7.328125 10.171875 C 8.046875 10.171875 8.695312 10.035156 9.28125 9.765625 C 9.863281 9.492188 10.328125 9.09375 10.671875 8.5625 C 11.023438 8.03125 11.203125 7.375 11.203125 6.59375 C 11.203125 5.445312 10.832031 4.539062 10.09375 3.875 C 9.363281 3.21875 8.441406 2.875 7.328125 2.84375 Z M 7.328125 2.84375 "/></g></g></g><g fill="#ffffff" fill-opacity="1"><g transform="translate(703.347134, 219.824897)"><g/></g></g><g fill="#ffffff" fill-opacity="1"><g transform="translate(703.347134, 224.727951)"><g><path d="M -0.34375 7.984375 C -0.34375 6.585938 -0.113281 5.328125 0.34375 4.203125 C 0.800781 3.085938 1.484375 2.191406 2.390625 1.515625 C 3.296875 0.847656 4.40625 0.5 5.71875 0.46875 L 5.71875 3.0625 C 4.40625 3.113281 3.425781 3.597656 2.78125 4.515625 C 2.132812 5.429688 1.8125 6.585938 1.8125 7.984375 C 1.8125 9.242188 2.09375 10.191406 2.65625 10.828125 C 3.21875 11.472656 3.882812 11.796875 4.65625 11.796875 C 5.394531 11.804688 5.972656 11.597656 6.390625 11.171875 C 6.804688 10.753906 7.140625 10.148438 7.390625 9.359375 C 7.640625 8.578125 7.878906 7.640625 8.109375 6.546875 C 8.359375 5.484375 8.675781 4.535156 9.0625 3.703125 C 9.445312 2.878906 9.960938 2.226562 10.609375 1.75 C 11.253906 1.28125 12.082031 1.046875 13.09375 1.046875 C 14.207031 1.046875 15.113281 1.320312 15.8125 1.875 C 16.507812 2.425781 17.023438 3.164062 17.359375 4.09375 C 17.703125 5.019531 17.875 6.066406 17.875 7.234375 C 17.875 8.492188 17.660156 9.617188 17.234375 10.609375 C 16.804688 11.597656 16.195312 12.390625 15.40625 12.984375 C 14.613281 13.578125 13.65625 13.898438 12.53125 13.953125 L 12.53125 11.34375 C 13.507812 11.226562 14.285156 10.828125 14.859375 10.140625 C 15.429688 9.460938 15.71875 8.492188 15.71875 7.234375 C 15.71875 6.179688 15.503906 5.320312 15.078125 4.65625 C 14.648438 3.988281 14.046875 3.65625 13.265625 3.65625 C 12.609375 3.65625 12.097656 3.828125 11.734375 4.171875 C 11.378906 4.515625 11.09375 5.007812 10.875 5.65625 C 10.664062 6.3125 10.457031 7.097656 10.25 8.015625 C 9.988281 9.242188 9.65625 10.332031 9.25 11.28125 C 8.851562 12.238281 8.3125 12.992188 7.625 13.546875 C 6.9375 14.109375 6.019531 14.390625 4.875 14.390625 C 3.882812 14.390625 2.988281 14.140625 2.1875 13.640625 C 1.394531 13.140625 0.773438 12.410156 0.328125 11.453125 C -0.117188 10.503906 -0.34375 9.347656 -0.34375 7.984375 Z M -0.34375 7.984375 "/></g></g></g><g fill="#ffffff" fill-opacity="1"><g transform="translate(703.347134, 239.584143)"><g><path d="M -0.140625 5.078125 C -0.140625 4.078125 0.144531 3.335938 0.71875 2.859375 C 1.300781 2.390625 2.265625 2.15625 3.609375 2.15625 L 10.78125 2.15625 L 10.78125 0.375 L 12.578125 0.375 L 12.578125 2.15625 L 16.375 2.15625 L 16.375 4.484375 L 12.578125 4.484375 L 12.578125 6.96875 L 10.78125 6.96875 L 10.78125 4.484375 L 3.84375 4.484375 C 3.34375 4.484375 2.921875 4.535156 2.578125 4.640625 C 2.242188 4.753906 2.015625 4.984375 1.890625 5.328125 C 1.773438 5.679688 1.765625 6.226562 1.859375 6.96875 L 0.078125 6.96875 C 0.00390625 6.664062 -0.046875 6.375 -0.078125 6.09375 C -0.117188 5.820312 -0.140625 5.484375 -0.140625 5.078125 Z M -0.140625 5.078125 "/></g></g></g><g fill="#ffffff" fill-opacity="1"><g transform="translate(703.347134, 247.257439)"><g><path d="M -0.171875 2.328125 C -0.171875 1.953125 -0.0429688 1.625 0.203125 1.34375 C 0.460938 1.070312 0.8125 0.9375 1.25 0.9375 C 1.6875 0.9375 2.03125 1.070312 2.28125 1.34375 C 2.539062 1.625 2.671875 1.953125 2.671875 2.328125 C 2.671875 2.703125 2.539062 3.03125 2.28125 3.3125 C 2.03125 3.601562 1.6875 3.75 1.25 3.75 C 0.8125 3.75 0.460938 3.601562 0.203125 3.3125 C -0.0429688 3.03125 -0.171875 2.703125 -0.171875 2.328125 Z M -0.171875 2.328125 "/></g></g></g><g fill="#ffffff" fill-opacity="1"><g transform="translate(703.347134, 251.915344)"><g><path d="M -3.28125 0.875 L -2.078125 0.875 C -1.953125 1.351562 -1.679688 1.703125 -1.265625 1.921875 C -0.859375 2.140625 -0.492188 2.25 -0.171875 2.25 C -0.203125 1.8125 -0.0976562 1.441406 0.140625 1.140625 C 0.390625 0.835938 0.757812 0.6875 1.25 0.6875 C 1.707031 0.6875 2.054688 0.820312 2.296875 1.09375 C 2.546875 1.375 2.671875 1.722656 2.671875 2.140625 C 2.671875 3.128906 1.960938 3.625 0.546875 3.625 C -0.0117188 3.625 -0.5625 3.53125 -1.09375 3.34375 C -1.632812 3.15625 -2.101562 2.859375 -2.5 2.453125 C -2.894531 2.054688 -3.15625 1.53125 -3.28125 0.875 Z M -3.28125 0.875 "/></g></g></g><g fill="#ffffff" fill-opacity="1"><g transform="translate(703.347134, 256.475188)"><g/></g></g><g fill="#ffffff" fill-opacity="1"><g transform="translate(703.347134, 261.378242)"><g><path d="M 0 0.09375 L 17.53125 6.625 L 17.53125 9.296875 L 0 15.84375 L 0 13.234375 L 4.8125 11.515625 L 4.8125 4.40625 L 0 2.703125 Z M 6.84375 5.03125 L 6.84375 10.90625 L 15.046875 7.984375 L 15.046875 7.9375 Z M 6.84375 5.03125 "/></g></g></g><g fill="#ffffff" fill-opacity="1"><g transform="translate(703.347134, 277.337683)"><g><path d="M 0 1.125 L 12.578125 1.125 L 12.578125 3.453125 L 10.546875 3.453125 L 10.546875 3.5 C 11.128906 3.875 11.660156 4.398438 12.140625 5.078125 C 12.628906 5.765625 12.875 6.71875 12.875 7.9375 C 12.875 9.03125 12.519531 9.957031 11.8125 10.71875 C 11.113281 11.476562 10.09375 11.859375 8.75 11.859375 L 0 11.859375 L 0 9.53125 L 7.890625 9.53125 C 8.828125 9.53125 9.570312 9.335938 10.125 8.953125 C 10.675781 8.578125 10.953125 7.878906 10.953125 6.859375 C 10.953125 6.140625 10.804688 5.523438 10.515625 5.015625 C 10.234375 4.515625 9.867188 4.128906 9.421875 3.859375 C 8.972656 3.585938 8.488281 3.453125 7.96875 3.453125 L 0 3.453125 Z M 0 1.125 "/></g></g></g><g fill="#ffffff" fill-opacity="1"><g transform="translate(703.347134, 289.987502)"><g><path d="M -4.234375 3.234375 C -4.234375 2.890625 -4.207031 2.566406 -4.15625 2.265625 C -4.113281 1.960938 -4.0625 1.671875 -4 1.390625 L -2.203125 1.390625 L -2.203125 1.453125 C -2.316406 1.921875 -2.359375 2.375 -2.328125 2.8125 C -2.304688 3.257812 -2.144531 3.613281 -1.84375 3.875 C -1.5625 4.101562 -1.175781 4.273438 -0.6875 4.390625 C -0.195312 4.515625 0.34375 4.570312 0.9375 4.5625 L 12.578125 0.03125 L 12.578125 2.375 L 2.703125 6.078125 L 2.703125 6.125 L 12.578125 9.515625 L 12.578125 11.859375 L -0.34375 7.25 C -1.269531 6.925781 -2.019531 6.59375 -2.59375 6.25 C -3.164062 5.90625 -3.582031 5.492188 -3.84375 5.015625 C -4.101562 4.546875 -4.234375 3.953125 -4.234375 3.234375 Z M -4.234375 3.234375 "/></g></g></g><g fill="#ffffff" fill-opacity="1"><g transform="translate(703.347134, 301.87742)"><g/></g></g><g fill="#ffffff" fill-opacity="1"><g transform="translate(703.347134, 306.780462)"><g><path d="M -0.34375 8.921875 C -0.34375 7.203125 0.0390625 5.726562 0.8125 4.5 C 1.59375 3.28125 2.671875 2.34375 4.046875 1.6875 C 5.421875 1.039062 7 0.71875 8.78125 0.71875 C 10.539062 0.71875 12.101562 1.039062 13.46875 1.6875 C 14.832031 2.34375 15.90625 3.285156 16.6875 4.515625 C 17.476562 5.753906 17.875 7.238281 17.875 8.96875 C 17.875 10.363281 17.609375 11.566406 17.078125 12.578125 C 16.554688 13.585938 15.832031 14.394531 14.90625 15 C 13.976562 15.601562 12.90625 15.976562 11.6875 16.125 L 11.6875 13.53125 C 12.832031 13.351562 13.789062 12.875 14.5625 12.09375 C 15.332031 11.320312 15.71875 10.25 15.71875 8.875 C 15.71875 7.613281 15.414062 6.570312 14.8125 5.75 C 14.21875 4.925781 13.394531 4.3125 12.34375 3.90625 C 11.300781 3.507812 10.113281 3.3125 8.78125 3.3125 C 7.414062 3.3125 6.207031 3.515625 5.15625 3.921875 C 4.101562 4.328125 3.28125 4.9375 2.6875 5.75 C 2.101562 6.570312 1.8125 7.597656 1.8125 8.828125 C 1.8125 9.804688 2.015625 10.632812 2.421875 11.3125 C 2.835938 11.988281 3.382812 12.523438 4.0625 12.921875 C 4.738281 13.316406 5.484375 13.570312 6.296875 13.6875 L 6.296875 16.28125 C 5.003906 16.132812 3.851562 15.75 2.84375 15.125 C 1.84375 14.5 1.0625 13.664062 0.5 12.625 C -0.0585938 11.582031 -0.34375 10.347656 -0.34375 8.921875 Z M -0.34375 8.921875 "/></g></g></g><g fill="#ffffff" fill-opacity="1"><g transform="translate(703.347134, 323.597924)"><g><path d="M 14.828125 2.421875 C 14.828125 2.078125 14.925781 1.78125 15.125 1.53125 C 15.332031 1.28125 15.628906 1.15625 16.015625 1.15625 C 16.390625 1.15625 16.671875 1.28125 16.859375 1.53125 C 17.054688 1.78125 17.15625 2.078125 17.15625 2.421875 C 17.15625 2.785156 17.054688 3.09375 16.859375 3.34375 C 16.671875 3.59375 16.390625 3.71875 16.015625 3.71875 C 15.628906 3.71875 15.332031 3.59375 15.125 3.34375 C 14.925781 3.09375 14.828125 2.785156 14.828125 2.421875 Z M 0 1.28125 L 12.578125 1.28125 L 12.578125 3.609375 L 0 3.609375 Z M 0 1.28125 "/></g></g></g><g fill="#ffffff" fill-opacity="1"><g transform="translate(703.347134, 328.451941)"><g><path d="M -0.140625 5.078125 C -0.140625 4.078125 0.144531 3.335938 0.71875 2.859375 C 1.300781 2.390625 2.265625 2.15625 3.609375 2.15625 L 10.78125 2.15625 L 10.78125 0.375 L 12.578125 0.375 L 12.578125 2.15625 L 16.375 2.15625 L 16.375 4.484375 L 12.578125 4.484375 L 12.578125 6.96875 L 10.78125 6.96875 L 10.78125 4.484375 L 3.84375 4.484375 C 3.34375 4.484375 2.921875 4.535156 2.578125 4.640625 C 2.242188 4.753906 2.015625 4.984375 1.890625 5.328125 C 1.773438 5.679688 1.765625 6.226562 1.859375 6.96875 L 0.078125 6.96875 C 0.00390625 6.664062 -0.046875 6.375 -0.078125 6.09375 C -0.117188 5.820312 -0.140625 5.484375 -0.140625 5.078125 Z M -0.140625 5.078125 "/></g></g></g><g fill="#ffffff" fill-opacity="1"><g transform="translate(703.347134, 336.198809)"><g><path d="M -4.234375 3.234375 C -4.234375 2.890625 -4.207031 2.566406 -4.15625 2.265625 C -4.113281 1.960938 -4.0625 1.671875 -4 1.390625 L -2.203125 1.390625 L -2.203125 1.453125 C -2.316406 1.921875 -2.359375 2.375 -2.328125 2.8125 C -2.304688 3.257812 -2.144531 3.613281 -1.84375 3.875 C -1.5625 4.101562 -1.175781 4.273438 -0.6875 4.390625 C -0.195312 4.515625 0.34375 4.570312 0.9375 4.5625 L 12.578125 0.03125 L 12.578125 2.375 L 2.703125 6.078125 L 2.703125 6.125 L 12.578125 9.515625 L 12.578125 11.859375 L -0.34375 7.25 C -1.269531 6.925781 -2.019531 6.59375 -2.59375 6.25 C -3.164062 5.90625 -3.582031 5.492188 -3.84375 5.015625 C -4.101562 4.546875 -4.234375 3.953125 -4.234375 3.234375 Z M -4.234375 3.234375 "/></g></g></g></svg>