<svg xmlns="http://www.w3.org/2000/svg" xmlns:xlink="http://www.w3.org/1999/xlink" width="1080" zoomAndPan="magnify" viewBox="0 0 810 1012.49997" height="1350" preserveAspectRatio="xMidYMid meet" version="1.0"><defs><g/><clipPath id="7b92d3b179"><path d="M 0.199219 0 L 809.800781 0 L 809.800781 1012 L 0.199219 1012 Z M 0.199219 0 " clip-rule="nonzero"/></clipPath><clipPath id="dffbe50e3f"><path d="M 0.199219 0 L 809.800781 0 L 809.800781 1012 L 0.199219 1012 Z M 0.199219 0 " clip-rule="nonzero"/></clipPath><clipPath id="608c853253"><path d="M 273.660156 504.242188 C 273.660156 463.519531 273.929688 422.796875 273.660156 382.078125 C 273.390625 302.894531 214.117188 247.09375 129.25 245.082031 C 56.777344 241.5625 1.007812 184 4.78125 116.132812 C 8.28125 52.785156 63.242188 2.261719 131.136719 0 C 202.53125 -0.503906 260.726562 53.039062 262.613281 120.40625 C 264.5 198.832031 322.421875 253.125 406.480469 255.640625 C 480.839844 257.902344 535.800781 310.4375 536.070312 380.066406 C 536.339844 462.261719 536.070312 544.710938 536.070312 626.90625 C 536.070312 709.105469 594.535156 764.40625 681.828125 767.167969 C 754.300781 767.921875 812.0625 823.476562 811.308594 891.09375 C 810.554688 958.710938 751.066406 1012.753906 678.59375 1012 C 607.199219 1012 549.542969 958.460938 547.65625 890.839844 C 545.769531 813.671875 486.5 758.121094 404.328125 756.109375 C 329.96875 754.601562 274.46875 702.066406 273.929688 632.4375 C 273.390625 589.703125 273.929688 546.972656 273.660156 504.242188 Z M 810.050781 378.304688 L 810.050781 629.921875 C 809.800781 701.5625 752.953125 756.359375 678.59375 756.109375 C 604.234375 755.859375 547.925781 701.5625 547.65625 630.679688 C 547.65625 461.257812 547.65625 291.835938 547.925781 122.667969 C 547.386719 55.300781 605.582031 0 677.785156 -0.503906 C 742.714844 -1.003906 797.945312 42.730469 808.183594 102.558594 C 809.53125 110.601562 810.050781 118.894531 809.800781 126.941406 C 810.050781 210.894531 810.304688 294.601562 810.050781 378.304688 Z M 131.945312 510.777344 C 203.878906 511.53125 260.996094 565.070312 262.613281 633.695312 C 263.960938 695.277344 304.371094 745.550781 367.148438 761.890625 C 380.617188 765.160156 394.359375 766.667969 408.367188 766.917969 C 477.609375 769.683594 533.109375 819.957031 536.070312 883.300781 C 539.574219 948.152344 488.117188 1004.207031 418.875 1011.246094 C 342.359375 1019.542969 276.351562 964.492188 273.929688 889.585938 C 271.773438 833.53125 244.5625 792.054688 189.871094 768.929688 C 171.550781 760.886719 149.726562 757.617188 129.25 756.613281 C 60.820312 753.597656 5.859375 706.085938 0.738281 643.496094 C -4.324219 580.65625 41.960938 524.097656 108.503906 513.039062 C 116.320312 511.78125 124.132812 511.53125 131.945312 510.777344 Z M 0.46875 377.804688 C 0.738281 310.1875 59.472656 255.386719 131.945312 255.640625 C 204.417969 255.890625 263.152344 310.6875 262.882812 378.304688 C 262.613281 445.921875 204.148438 500.46875 131.675781 500.46875 C 59.203125 500.46875 0.46875 445.671875 0.46875 378.054688 C 0.46875 378.054688 0.46875 377.804688 0.46875 377.804688 Z M 405.132812 0 C 332.390625 -0.25 273.390625 54.296875 273.121094 122.164062 C 272.851562 190.03125 331.3125 245.082031 404.058594 245.332031 C 476.800781 245.585938 535.800781 191.039062 536.070312 123.167969 C 536.070312 122.667969 536.070312 122.414062 536.070312 121.914062 C 535.53125 54.796875 477.070312 0.503906 405.132812 0 Z M 131.675781 766.917969 C 58.933594 766.667969 -0.0507812 821.214844 -0.304688 889.082031 C -0.554688 956.949219 57.855469 1012 130.597656 1012.25 C 203.339844 1012.503906 262.34375 957.957031 262.613281 890.085938 C 262.613281 889.585938 262.613281 889.332031 262.613281 888.832031 C 262.074219 821.714844 203.609375 767.421875 131.675781 766.917969 Z M 131.675781 766.917969 " clip-rule="nonzero"/></clipPath><clipPath id="8b28167809"><path d="M 0.199219 0 L 809.800781 0 L 809.800781 1012 L 0.199219 1012 Z M 0.199219 0 " clip-rule="nonzero"/></clipPath><clipPath id="321545ad56"><path d="M 273.660156 504.242188 C 273.660156 463.519531 273.929688 422.796875 273.660156 382.078125 C 273.390625 302.894531 214.117188 247.09375 129.25 245.082031 C 56.777344 241.5625 1.007812 184 4.78125 116.132812 C 8.28125 52.785156 63.242188 2.261719 131.136719 0 C 202.53125 -0.503906 260.726562 53.039062 262.613281 120.40625 C 264.5 198.832031 322.421875 253.125 406.480469 255.640625 C 480.839844 257.902344 535.800781 310.4375 536.070312 380.066406 C 536.339844 462.261719 536.070312 544.710938 536.070312 626.90625 C 536.070312 709.105469 594.535156 764.40625 681.828125 767.167969 C 754.300781 767.921875 812.0625 823.476562 811.308594 891.09375 C 810.554688 958.710938 751.066406 1012.753906 678.59375 1012 C 607.199219 1012 549.542969 958.460938 547.65625 890.839844 C 545.769531 813.671875 486.5 758.121094 404.328125 756.109375 C 329.96875 754.601562 274.46875 702.066406 273.929688 632.4375 C 273.390625 589.703125 273.929688 546.972656 273.660156 504.242188 Z M 810.050781 378.304688 L 810.050781 629.921875 C 809.800781 701.5625 752.953125 756.359375 678.59375 756.109375 C 604.234375 755.859375 547.925781 701.5625 547.65625 630.679688 C 547.65625 461.257812 547.65625 291.835938 547.925781 122.667969 C 547.386719 55.300781 605.582031 0 677.785156 -0.503906 C 742.714844 -1.003906 797.945312 42.730469 808.183594 102.558594 C 809.53125 110.601562 810.050781 118.894531 809.800781 126.941406 C 810.050781 210.894531 810.304688 294.601562 810.050781 378.304688 Z M 131.945312 510.777344 C 203.878906 511.53125 260.996094 565.070312 262.613281 633.695312 C 263.960938 695.277344 304.371094 745.550781 367.148438 761.890625 C 380.617188 765.160156 394.359375 766.667969 408.367188 766.917969 C 477.609375 769.683594 533.109375 819.957031 536.070312 883.300781 C 539.574219 948.152344 488.117188 1004.207031 418.875 1011.246094 C 342.359375 1019.542969 276.351562 964.492188 273.929688 889.585938 C 271.773438 833.53125 244.5625 792.054688 189.871094 768.929688 C 171.550781 760.886719 149.726562 757.617188 129.25 756.613281 C 60.820312 753.597656 5.859375 706.085938 0.738281 643.496094 C -4.324219 580.65625 41.960938 524.097656 108.503906 513.039062 C 116.320312 511.78125 124.132812 511.53125 131.945312 510.777344 Z M 0.46875 377.804688 C 0.738281 310.1875 59.472656 255.386719 131.945312 255.640625 C 204.417969 255.890625 263.152344 310.6875 262.882812 378.304688 C 262.613281 445.921875 204.148438 500.46875 131.675781 500.46875 C 59.203125 500.46875 0.46875 445.671875 0.46875 378.054688 C 0.46875 378.054688 0.46875 377.804688 0.46875 377.804688 Z M 405.132812 0 C 332.390625 -0.25 273.390625 54.296875 273.121094 122.164062 C 272.851562 190.03125 331.3125 245.082031 404.058594 245.332031 C 476.800781 245.585938 535.800781 191.039062 536.070312 123.167969 C 536.070312 122.667969 536.070312 122.414062 536.070312 121.914062 C 535.53125 54.796875 477.070312 0.503906 405.132812 0 Z M 131.675781 766.917969 C 58.933594 766.667969 -0.0507812 821.214844 -0.304688 889.082031 C -0.554688 956.949219 57.855469 1012 130.597656 1012.25 C 203.339844 1012.503906 262.34375 957.957031 262.613281 890.085938 C 262.613281 889.585938 262.613281 889.332031 262.613281 888.832031 C 262.074219 821.714844 203.609375 767.421875 131.675781 766.917969 Z M 131.675781 766.917969 " clip-rule="nonzero"/></clipPath><clipPath id="7003395f59"><rect x="0" width="810" y="0" height="1012"/></clipPath></defs><g clip-path="url(#7b92d3b179)"><path fill="#ffffff" d="M 0.199219 0 L 809.800781 0 L 809.800781 1012 L 0.199219 1012 Z M 0.199219 0 " fill-opacity="1" fill-rule="nonzero"/><path fill="#252634" d="M 0.199219 0 L 809.800781 0 L 809.800781 1012 L 0.199219 1012 Z M 0.199219 0 " fill-opacity="1" fill-rule="nonzero"/></g><g clip-path="url(#dffbe50e3f)"><g clip-path="url(#608c853253)"><g transform="matrix(1, 0, 0, 1, 0.000000000000000028, 0)"><g clip-path="url(#7003395f59)"><g clip-path="url(#8b28167809)"><g clip-path="url(#321545ad56)"><g transform="matrix(0.211298, 0, 0, 0.210964, -3.817657, -0.507062)"><image x="0" y="0" width="3879" xlink:href="@@PHOTO0@@" height="4800" preserveAspectRatio="xMidYMid meet"/></g></g></g></g></g></g></g><g fill="#fffcfc" fill-opacity="1"><g transform="translate(39.60191, 157.994897)"><g></g></g></g><g fill="#fffcfc" fill-opacity="1"><g transform="translate(136.641938, 157.994897)"><g></g></g></g><g fill="#fffcfc" fill-opacity="1"><g transform="translate(205.637558, 157.994897)"><g></g></g></g><g fill="#fffcfc" fill-opacity="1"><g transform="translate(39.60191, 302.67344)"><g></g></g></g><g fill="#fffcfc" fill-opacity="1"><g transform="translate(121.823012, 302.67344)"><g></g></g></g><g fill="#fffcfc" fill-opacity="1"><g transform="translate(185.71965, 302.67344)"><g></g></g></g><g fill="#fffcfc" fill-opacity="1"><g transform="translate(260.610964, 302.67344)"><g></g></g></g><g fill="#fffcfc" fill-opacity="1"><g transform="translate(299.968745, 302.67344)"><g></g></g></g><g fill="#fffcfc" fill-opacity="1"><g transform="translate(337.89242, 302.67344)"><g></g></g></g><g fill="#fffcfc" fill-opacity="1"><g transform="translate(412.783746, 302.67344)"><g></g></g></g><g fill="#fffcfc" fill-opacity="1"><g transform="translate(487.834386, 302.67344)"><g></g></g></g><g fill="#fffcfc" fill-opacity="1"><g transform="translate(525.758084, 302.67344)"><g></g></g></g><g fill="#ffffff" fill-opacity="1"><g transform="translate(737.080473, 73.395312)"><g></g></g></g><g fill="#ffffff" fill-opacity="1"><g transform="translate(737.080473, 86.756133)"><g/></g></g><g fill="#ffffff" fill-opacity="1"><g transform="translate(737.080473, 91.659187)"><g></g></g></g><g fill="#ffffff" fill-opacity="1"><g transform="translate(737.080473, 105.28967)"><g></g></g></g><g fill="#ffffff" fill-opacity="1"><g transform="translate(737.080473, 118.282757)"><g></g></g></g><g fill="#ffffff" fill-opacity="1"><g transform="translate(737.080473, 131.913239)"><g></g></g></g><g fill="#ffffff" fill-opacity="1"><g transform="translate(737.080473, 139.733496)"><g></g></g></g><g fill="#ffffff" fill-opacity="1"><g transform="translate(737.080473, 153.241405)"><g></g></g></g><g fill="#ffffff" fill-opacity="1"><g transform="translate(737.080473, 166.749313)"><g></g></g></g><g fill="#ffffff" fill-opacity="1"><g transform="translate(737.080473, 186.827314)"><g></g></g></g><g fill="#ffffff" fill-opacity="1"><g transform="translate(737.080473, 198.447548)"><g/></g></g><g fill="#ffffff" fill-opacity="1"><g transform="translate(737.080473, 203.350602)"><g></g></g></g><g fill="#ffffff" fill-opacity="1"><g transform="translate(737.080473, 208.400743)"><g/></g></g><g fill="#ffffff" fill-opacity="1"><g transform="translate(737.080473, 213.303797)"><g></g></g></g><g fill="#ffffff" fill-opacity="1"><g transform="translate(737.080473, 226.664618)"><g/></g></g><g fill="#ffffff" fill-opacity="1"><g transform="translate(737.080473, 231.567672)"><g></g></g></g><g fill="#ffffff" fill-opacity="1"><g transform="translate(737.080473, 245.124595)"><g></g></g></g><g fill="#ffffff" fill-opacity="1"><g transform="translate(737.080473, 257.553755)"><g></g></g></g><g fill="#ffffff" fill-opacity="1"><g transform="translate(737.080473, 265.104454)"><g></g></g></g><g fill="#ffffff" fill-opacity="1"><g transform="translate(737.080473, 278.024014)"><g></g></g></g><g fill="#ffffff" fill-opacity="1"><g transform="translate(737.080473, 285.844249)"><g></g></g></g><g fill="#ffffff" fill-opacity="1"><g transform="translate(737.080473, 299.35218)"><g></g></g></g><g fill="#ffffff" fill-opacity="1"><g transform="translate(737.080473, 312.860065)"><g></g></g></g><g fill="#ffffff" fill-opacity="1"><g transform="translate(737.080473, 332.938077)"><g></g></g></g><g fill="#ffffff" fill-opacity="1"><g transform="translate(737.080473, 344.558322)"><g/></g></g><g fill="#ffffff" fill-opacity="1"><g transform="translate(737.080473, 349.461365)"><g></g></g></g><g fill="#ffffff" fill-opacity="1"><g transform="translate(737.080473, 354.511506)"><g/></g></g><g fill="#ffffff" fill-opacity="1"><g transform="translate(737.080473, 359.414571)"><g></g></g></g><g fill="#ffffff" fill-opacity="1"><g transform="translate(737.080473, 374.368871)"><g></g></g></g><g fill="#ffffff" fill-opacity="1"><g transform="translate(737.080473, 382.679539)"><g></g></g></g><g fill="#ffffff" fill-opacity="1"><g transform="translate(737.080473, 387.533557)"><g></g></g></g><g fill="#ffffff" fill-opacity="1"><g transform="translate(737.080473, 398.712392)"><g></g></g></g><g fill="#ffffff" fill-opacity="1"><g transform="translate(737.080473, 411.141541)"><g></g></g></g><g fill="#ffffff" fill-opacity="1"><g transform="translate(737.080473, 418.447045)"><g></g></g></g><g fill="#ffffff" fill-opacity="1"><g transform="translate(737.080473, 431.440132)"><g/></g></g><g fill="#ffffff" fill-opacity="1"><g transform="translate(737.080473, 436.343175)"><g></g></g></g><g fill="#ffffff" fill-opacity="1"><g transform="translate(737.080473, 449.753032)"><g></g></g></g><g fill="#ffffff" fill-opacity="1"><g transform="translate(737.080473, 462.549972)"><g></g></g></g><g fill="#ffffff" fill-opacity="1"><g transform="translate(737.080473, 470.370252)"><g></g></g></g><g fill="#ffffff" fill-opacity="1"><g transform="translate(737.080473, 484.000712)"><g></g></g></g><g fill="#ffffff" fill-opacity="1"><g transform="translate(737.080473, 496.993822)"><g></g></g></g><g fill="#ffffff" fill-opacity="1"><g transform="translate(737.080473, 509.890665)"><g/></g></g><g fill="#ffffff" fill-opacity="1"><g transform="translate(703.347134, 73.395312)"><g></g></g></g><g fill="#ffffff" fill-opacity="1"><g transform="translate(703.347134, 82.073715)"><g></g></g></g><g fill="#ffffff" fill-opacity="1"><g transform="translate(703.347134, 95.434537)"><g></g></g></g><g fill="#ffffff" fill-opacity="1"><g transform="translate(703.347134, 109.212118)"><g/></g></g><g fill="#ffffff" fill-opacity="1"><g transform="translate(703.347134, 114.115172)"><g></g></g></g><g fill="#ffffff" fill-opacity="1"><g transform="translate(703.347134, 130.074612)"><g></g></g></g><g fill="#ffffff" fill-opacity="1"><g transform="translate(703.347134, 142.724432)"><g></g></g></g><g fill="#ffffff" fill-opacity="1"><g transform="translate(703.347134, 154.982141)"><g></g></g></g><g fill="#ffffff" fill-opacity="1"><g transform="translate(703.347134, 173.098918)"><g></g></g></g><g fill="#ffffff" fill-opacity="1"><g transform="translate(703.347134, 186.018467)"><g></g></g></g><g fill="#ffffff" fill-opacity="1"><g transform="translate(703.347134, 199.011553)"><g></g></g></g><g fill="#ffffff" fill-opacity="1"><g transform="translate(703.347134, 206.831811)"><g></g></g></g><g fill="#ffffff" fill-opacity="1"><g transform="translate(703.347134, 219.824897)"><g/></g></g><g fill="#ffffff" fill-opacity="1"><g transform="translate(703.347134, 224.727951)"><g></g></g></g><g fill="#ffffff" fill-opacity="1"><g transform="translate(703.347134, 239.584143)"><g></g></g></g><g fill="#ffffff" fill-opacity="1"><g transform="translate(703.347134, 247.257439)"><g></g></g></g><g fill="#ffffff" fill-opacity="1"><g transform="translate(703.347134, 251.915344)"><g></g></g></g><g fill="#ffffff" fill-opacity="1"><g transform="translate(703.347134, 256.475188)"><g/></g></g><g fill="#ffffff" fill-opacity="1"><g transform="translate(703.347134, 261.378242)"><g></g></g></g><g fill="#ffffff" fill-opacity="1"><g transform="translate(703.347134, 277.337683)"><g></g></g></g><g fill="#ffffff" fill-opacity="1"><g transform="translate(703.347134, 289.987502)"><g></g></g></g><g fill="#ffffff" fill-opacity="1"><g transform="translate(703.347134, 301.87742)"><g/></g></g><g fill="#ffffff" fill-opacity="1"><g transform="translate(703.347134, 306.780462)"><g></g></g></g><g fill="#ffffff" fill-opacity="1"><g transform="translate(703.347134, 323.597924)"><g></g></g></g><g fill="#ffffff" fill-opacity="1"><g transform="translate(703.347134, 328.451941)"><g></g></g></g><g fill="#ffffff" fill-opacity="1"><g transform="translate(703.347134, 336.198809)"><g></g></g></g></svg>