<svg xmlns="http://www.w3.org/2000/svg" xmlns:xlink="http://www.w3.org/1999/xlink" width="1080" zoomAndPan="magnify" viewBox="0 0 810 1012.49997" height="1350" preserveAspectRatio="xMidYMid meet" version="1.0"><defs><g/><clipPath id="2f2725ad34"><path d="M 0.199219 0 L 809.800781 0 L 809.800781 1012 L 0.199219 1012 Z M 0.199219 0 " clip-rule="nonzero"/></clipPath><clipPath id="8990c2cca9"><path d="M 0.199219 0 L 405 0 L 405 1012 L 0.199219 1012 Z M 0.199219 0 " clip-rule="nonzero"/></clipPath><clipPath id="0b6df2c5e0"><path d="M 0.199219 0 L 405 0 L 405 1012 L 0.199219 1012 Z M 0.199219 0 " clip-rule="nonzero"/></clipPath><clipPath id="22570b9758"><rect x="0" width="405" y="0" height="1012"/></clipPath><clipPath id="497953289b"><path d="M 296.804688 150.550781 L 513.195312 150.550781 L 513.195312 444.910156 L 296.804688 444.910156 Z M 296.804688 150.550781 " clip-rule="nonzero"/></clipPath><clipPath id="c718238f23"><path d="M 1 0.550781 L 217 0.550781 L 217 294.710938 L 1 294.710938 Z M 1 0.550781 " clip-rule="nonzero"/></clipPath><clipPath id="6c69232a9b"><rect x="0" width="218" y="0" height="295"/></clipPath><clipPath id="76867901de"><path d="M 296.804688 150.550781 L 513.1875 150.550781 L 513.1875 444.898438 L 296.804688 444.898438 Z M 296.804688 150.550781 " clip-rule="nonzero"/></clipPath><clipPath id="0ad4f8fe9a"><path d="M 534.070312 150.550781 L 750.460938 150.550781 L 750.460938 444.910156 L 534.070312 444.910156 Z M 534.070312 150.550781 " clip-rule="nonzero"/></clipPath><clipPath id="f6b74c7adf"><path d="M 0.0703125 0.550781 L 216 0.550781 L 216 294.710938 L 0.0703125 294.710938 Z M 0.0703125 0.550781 " clip-rule="nonzero"/></clipPath><clipPath id="d67c5637e3"><rect x="0" width="217" y="0" height="295"/></clipPath><clipPath id="e5b354bff9"><path d="M 534.070312 150.550781 L 750.453125 150.550781 L 750.453125 444.898438 L 534.070312 444.898438 Z M 534.070312 150.550781 " clip-rule="nonzero"/></clipPath><clipPath id="5c2dc7e54e"><path d="M 59.421875 150.550781 L 275.8125 150.550781 L 275.8125 444.910156 L 59.421875 444.910156 Z M 59.421875 150.550781 " clip-rule="nonzero"/></clipPath><clipPath id="54eb438567"><path d="M 0.421875 1 L 216.8125 1 L 216.8125 294.710938 L 0.421875 294.710938 Z M 0.421875 1 " clip-rule="nonzero"/></clipPath><clipPath id="1e748c1dd4"><rect x="0" width="217" y="0" height="295"/></clipPath><clipPath id="0e0e170c99"><path d="M 59.421875 150.550781 L 275.808594 150.550781 L 275.808594 444.898438 L 59.421875 444.898438 Z M 59.421875 150.550781 " clip-rule="nonzero"/></clipPath><clipPath id="1bbaf9844d"><path d="M 144.449219 7.210938 L 186.980469 7.210938 L 186.980469 38.851562 L 144.449219 38.851562 Z M 144.449219 7.210938 " clip-rule="nonzero"/></clipPath><clipPath id="3eb81923b2"><path d="M 13 0.453125 L 48.976562 0.453125 L 48.976562 17 L 13 17 Z M 13 0.453125 " clip-rule="nonzero"/></clipPath><clipPath id="88e0c05662"><path d="M 7.484375 2 L 15 2 L 15 9 L 7.484375 9 Z M 7.484375 2 " clip-rule="nonzero"/></clipPath><clipPath id="c1ee8dab6d"><path d="M 7.484375 28 L 15 28 L 15 36 L 7.484375 36 Z M 7.484375 28 " clip-rule="nonzero"/></clipPath><clipPath id="85c7f28666"><path d="M 41 38 L 48 38 L 48 45.578125 L 41 45.578125 Z M 41 38 " clip-rule="nonzero"/></clipPath><clipPath id="37b59a84e0"><path d="M 14 38 L 22 38 L 22 45.578125 L 14 45.578125 Z M 14 38 " clip-rule="nonzero"/></clipPath><clipPath id="91e5b91f78"><path d="M 279.714844 20 L 327.433594 20 L 327.433594 25 L 279.714844 25 Z M 279.714844 20 " clip-rule="nonzero"/></clipPath><clipPath id="929f8be679"><path d="M 286 0.453125 L 301 0.453125 L 301 23 L 286 23 Z M 286 0.453125 " clip-rule="nonzero"/></clipPath><clipPath id="d206986770"><path d="M 291 38 L 298 38 L 298 44.542969 L 291 44.542969 Z M 291 38 " clip-rule="nonzero"/></clipPath><clipPath id="85b47916ca"><path d="M 309 38 L 317 38 L 317 44.542969 L 309 44.542969 Z M 309 38 " clip-rule="nonzero"/></clipPath><clipPath id="5542e9fe58"><path d="M 116 55 L 215 55 L 215 77.070312 L 116 77.070312 Z M 116 55 " clip-rule="nonzero"/></clipPath><clipPath id="e5d660ee98"><rect x="0" width="99" y="0" height="23"/></clipPath><clipPath id="7bfb2a59d0"><path d="M 255 55 L 351.046875 55 L 351.046875 77.070312 L 255 77.070312 Z M 255 55 " clip-rule="nonzero"/></clipPath><clipPath id="07a2e63e78"><rect x="0" width="97" y="0" height="23"/></clipPath><clipPath id="4736665925"><path d="M 0.34375 55 L 57 55 L 57 77.070312 L 0.34375 77.070312 Z M 0.34375 55 " clip-rule="nonzero"/></clipPath><clipPath id="4ea43df17e"><rect x="0" width="57" y="0" height="23"/></clipPath><clipPath id="b105c9e1e2"><rect x="0" width="352" y="0" height="78"/></clipPath></defs><g clip-path="url(#2f2725ad34)"><path fill="#ffffff" d="M 0.199219 0 L 809.800781 0 L 809.800781 1012 L 0.199219 1012 Z M 0.199219 0 " fill-opacity="1" fill-rule="nonzero"/><path fill="#f8f7f2" d="M 0.199219 0 L 809.800781 0 L 809.800781 1012 L 0.199219 1012 Z M 0.199219 0 " fill-opacity="1" fill-rule="nonzero"/></g><g clip-path="url(#8990c2cca9)"><g transform="matrix(1, 0, 0, 1, 0.000000000000000028, 0)"><g clip-path="url(#22570b9758)"><g clip-path="url(#0b6df2c5e0)"><g transform="matrix(0.233228, 0, 0, 0.233019, -134.733443, 0)"><image x="0" y="0" width="2895" xlink:href="@@PHOTO0@@" height="4343" preserveAspectRatio="xMidYMid meet"/></g></g></g></g></g><g clip-path="url(#497953289b)"><g transform="matrix(1, 0, 0, 1, 296, 150)"><g clip-path="url(#6c69232a9b)"><g clip-path="url(#c718238f23)"><g transform="matrix(0.12089, 0, 0, 0.120935, 0.803841, -14.563367)"><image x="0" y="0" width="1790" xlink:href="@@PHOTO1@@" height="2684" preserveAspectRatio="xMidYMid meet"/></g></g></g></g></g><g clip-path="url(#76867901de)"><path stroke-linecap="butt" transform="matrix(0.74963, 0, 0, 0.74963, 296.80384, 150.552362)" fill="none" stroke-linejoin="miter" d="M 0.00113023 -0.0021082 L 288.65406 -0.0021082 L 288.65406 392.655296 L 0.00113023 392.655296 Z M 0.00113023 -0.0021082 " stroke="#000000" stroke-width="6" stroke-opacity="1" stroke-miterlimit="4"/></g><g clip-path="url(#0ad4f8fe9a)"><g transform="matrix(1, 0, 0, 1, 534, 150)"><g clip-path="url(#d67c5637e3)"><g clip-path="url(#f6b74c7adf)"><g transform="matrix(0.130988, 0, 0, 0.131041, 0.0687167, -14.563336)"><image x="0" y="0" width="1652" xlink:href="@@PHOTO2@@" height="2477" preserveAspectRatio="xMidYMid meet"/></g></g></g></g></g><g clip-path="url(#e5b354bff9)"><path stroke-linecap="butt" transform="matrix(0.74963, 0, 0, 0.74963, 534.068716, 150.552362)" fill="none" stroke-linejoin="miter" d="M 0.00212934 -0.0021082 L 288.655059 -0.0021082 L 288.655059 392.655296 L 0.00212934 392.655296 Z M 0.00212934 -0.0021082 " stroke="#000000" stroke-width="6" stroke-opacity="1" stroke-miterlimit="4"/></g><g clip-path="url(#5c2dc7e54e)"><g transform="matrix(1, 0, 0, 1, 59, 150)"><g clip-path="url(#1e748c1dd4)"><g clip-path="url(#54eb438567)"><g transform="matrix(0.13436, 0, 0, 0.13438, -1.765817, 0.552362)"><image x="0" y="0" width="1642" xlink:href="@@PHOTO3@@" height="2189" preserveAspectRatio="xMidYMid meet"/></g></g></g></g></g><g clip-path="url(#0e0e170c99)"><path stroke-linecap="butt" transform="matrix(0.74963, 0, 0, 0.74963, 59.421912, 150.552362)" fill="none" stroke-linejoin="miter" d="M -0.0000488531 -0.0021082 L 288.658092 -0.0021082 L 288.658092 392.655296 L -0.0000488531 392.655296 Z M -0.0000488531 -0.0021082 " stroke="#000000" stroke-width="6" stroke-opacity="1" stroke-miterlimit="4"/></g><g fill="#000000" fill-opacity="1"><g transform="translate(509.957922, 89.205941)"><g></g></g></g><g fill="#000000" fill-opacity="1"><g transform="translate(536.275033, 89.205941)"><g></g></g></g><g fill="#000000" fill-opacity="1"><g transform="translate(552.070504, 89.205941)"><g></g></g></g><g fill="#000000" fill-opacity="1"><g transform="translate(565.397925, 89.205941)"><g></g></g></g><g fill="#000000" fill-opacity="1"><g transform="translate(582.908029, 89.205941)"><g></g></g></g><g fill="#000000" fill-opacity="1"><g transform="translate(594.13112, 89.205941)"><g></g></g></g><g fill="#000000" fill-opacity="1"><g transform="translate(605.354211, 89.205941)"><g></g></g></g><g fill="#000000" fill-opacity="1"><g transform="translate(620.526172, 89.205941)"><g></g></g></g><g fill="#000000" fill-opacity="1"><g transform="translate(640.738128, 89.205941)"><g></g></g></g><g fill="#000000" fill-opacity="1"><g transform="translate(656.533599, 89.205941)"><g></g></g></g><g fill="#000000" fill-opacity="1"><g transform="translate(669.86102, 89.205941)"><g></g></g></g><g fill="#000000" fill-opacity="1"><g transform="translate(687.371125, 89.205941)"><g></g></g></g><g fill="#000000" fill-opacity="1"><g transform="translate(701.425973, 89.205941)"><g></g></g></g><g fill="#000000" fill-opacity="1"><g transform="translate(716.675876, 89.205941)"><g></g></g></g><g fill="#000000" fill-opacity="1"><g transform="translate(723.066808, 89.205941)"><g></g></g></g><g fill="#000000" fill-opacity="1"><g transform="translate(737.121657, 89.205941)"><g></g></g></g><g fill="#000000" fill-opacity="1"><g transform="translate(451.434065, 589.670019)"><g></g></g></g><g fill="#000000" fill-opacity="1"><g transform="translate(516.387432, 589.670019)"><g></g></g></g><g fill="#000000" fill-opacity="1"><g transform="translate(534.091099, 589.670019)"><g></g></g></g><g fill="#000000" fill-opacity="1"><g transform="translate(553.17431, 589.670019)"><g></g></g></g><g fill="#000000" fill-opacity="1"><g transform="translate(572.25752, 589.670019)"><g></g></g></g><g fill="#000000" fill-opacity="1"><g transform="translate(625.024828, 589.670019)"><g/></g></g><g fill="#000000" fill-opacity="1"><g transform="translate(641.004046, 589.670019)"><g></g></g></g><g fill="#000000" fill-opacity="1"><g transform="translate(658.707701, 589.670019)"><g></g></g></g><g fill="#000000" fill-opacity="1"><g transform="translate(717.693185, 589.670019)"><g/></g></g><g fill="#000000" fill-opacity="1"><g transform="translate(451.434065, 667.631514)"><g></g></g></g><g fill="#000000" fill-opacity="1"><g transform="translate(481.735288, 667.631514)"><g></g></g></g><g fill="#000000" fill-opacity="1"><g transform="translate(524.18964, 667.631514)"><g></g></g></g><g fill="#000000" fill-opacity="1"><g transform="translate(552.092587, 667.631514)"><g></g></g></g><g fill="#000000" fill-opacity="1"><g transform="translate(576.07772, 667.631514)"><g></g></g></g><g fill="#000000" fill-opacity="1"><g transform="translate(611.81599, 667.631514)"><g></g></g></g><g fill="#000000" fill-opacity="1"><g transform="translate(644.676003, 667.631514)"><g></g></g></g><g fill="#000000" fill-opacity="1"><g transform="translate(656.98816, 667.631514)"><g></g></g></g><g fill="#000000" fill-opacity="1"><g transform="translate(694.245568, 667.631514)"><g></g></g></g><g fill="#000000" fill-opacity="1"><g transform="translate(707.517181, 667.631514)"><g></g></g></g><g fill="#000000" fill-opacity="1"><g transform="translate(507.501126, 742.499497)"><g></g></g></g><g fill="#000000" fill-opacity="1"><g transform="translate(520.516472, 742.499497)"><g></g></g></g><g fill="#000000" fill-opacity="1"><g transform="translate(537.454701, 742.499497)"><g></g></g></g><g fill="#000000" fill-opacity="1"><g transform="translate(542.80613, 742.499497)"><g></g></g></g><g fill="#000000" fill-opacity="1"><g transform="translate(557.01653, 742.499497)"><g/></g></g><g fill="#000000" fill-opacity="1"><g transform="translate(562.913528, 742.499497)"><g></g></g></g><g fill="#000000" fill-opacity="1"><g transform="translate(579.410107, 742.499497)"><g></g></g></g><g fill="#000000" fill-opacity="1"><g transform="translate(589.593695, 742.499497)"><g></g></g></g><g fill="#000000" fill-opacity="1"><g transform="translate(602.609041, 742.499497)"><g></g></g></g><g fill="#000000" fill-opacity="1"><g transform="translate(617.365009, 742.499497)"><g></g></g></g><g fill="#000000" fill-opacity="1"><g transform="translate(633.835611, 742.499497)"><g></g></g></g><g fill="#000000" fill-opacity="1"><g transform="translate(647.110746, 742.499497)"><g></g></g></g><g fill="#000000" fill-opacity="1"><g transform="translate(668.439495, 742.499497)"><g></g></g></g><g fill="#000000" fill-opacity="1"><g transform="translate(687.819785, 742.499497)"><g></g></g></g><g fill="#000000" fill-opacity="1"><g transform="translate(705.14771, 742.499497)"><g></g></g></g><g fill="#000000" fill-opacity="1"><g transform="translate(717.435617, 742.499497)"><g></g></g></g><g fill="#000000" fill-opacity="1"><g transform="translate(732.191596, 742.499497)"><g></g></g></g><g fill="#000000" fill-opacity="1"><g transform="translate(560.970811, 770.985427)"><g></g></g></g><g fill="#000000" fill-opacity="1"><g transform="translate(571.154399, 770.985427)"><g></g></g></g><g fill="#000000" fill-opacity="1"><g transform="translate(587.650978, 770.985427)"><g></g></g></g><g fill="#000000" fill-opacity="1"><g transform="translate(602.744678, 770.985427)"><g></g></g></g><g fill="#000000" fill-opacity="1"><g transform="translate(619.241256, 770.985427)"><g></g></g></g><g fill="#000000" fill-opacity="1"><g transform="translate(633.997224, 770.985427)"><g></g></g></g><g fill="#000000" fill-opacity="1"><g transform="translate(648.129683, 770.985427)"><g/></g></g><g fill="#000000" fill-opacity="1"><g transform="translate(654.02668, 770.985427)"><g></g></g></g><g fill="#000000" fill-opacity="1"><g transform="translate(670.964909, 770.985427)"><g></g></g></g><g fill="#000000" fill-opacity="1"><g transform="translate(690.345199, 770.985427)"><g></g></g></g><g fill="#000000" fill-opacity="1"><g transform="translate(711.673947, 770.985427)"><g></g></g></g><g fill="#000000" fill-opacity="1"><g transform="translate(723.961865, 770.985427)"><g/></g></g><g fill="#000000" fill-opacity="1"><g transform="translate(729.858863, 770.985427)"><g></g></g></g><g fill="#000000" fill-opacity="1"><g transform="translate(735.210292, 770.985427)"><g></g></g></g><g fill="#000000" fill-opacity="1"><g transform="translate(466.330054, 799.471358)"><g></g></g></g><g fill="#000000" fill-opacity="1"><g transform="translate(483.657979, 799.471358)"><g></g></g></g><g fill="#000000" fill-opacity="1"><g transform="translate(495.945898, 799.471358)"><g></g></g></g><g fill="#000000" fill-opacity="1"><g transform="translate(510.156298, 799.471358)"><g></g></g></g><g fill="#000000" fill-opacity="1"><g transform="translate(515.507727, 799.471358)"><g></g></g></g><g fill="#000000" fill-opacity="1"><g transform="translate(534.680181, 799.471358)"><g></g></g></g><g fill="#000000" fill-opacity="1"><g transform="translate(551.904187, 799.471358)"><g></g></g></g><g fill="#000000" fill-opacity="1"><g transform="translate(564.192106, 799.471358)"><g></g></g></g><g fill="#000000" fill-opacity="1"><g transform="translate(581.520031, 799.471358)"><g/></g></g><g fill="#000000" fill-opacity="1"><g transform="translate(587.417028, 799.471358)"><g></g></g></g><g fill="#000000" fill-opacity="1"><g transform="translate(599.471133, 799.471358)"><g></g></g></g><g fill="#000000" fill-opacity="1"><g transform="translate(618.851423, 799.471358)"><g></g></g></g><g fill="#000000" fill-opacity="1"><g transform="translate(633.607391, 799.471358)"><g/></g></g><g fill="#000000" fill-opacity="1"><g transform="translate(639.504388, 799.471358)"><g></g></g></g><g fill="#000000" fill-opacity="1"><g transform="translate(652.519735, 799.471358)"><g></g></g></g><g fill="#000000" fill-opacity="1"><g transform="translate(669.457963, 799.471358)"><g></g></g></g><g fill="#000000" fill-opacity="1"><g transform="translate(681.745893, 799.471358)"><g/></g></g><g fill="#000000" fill-opacity="1"><g transform="translate(687.642867, 799.471358)"><g></g></g></g><g fill="#000000" fill-opacity="1"><g transform="translate(702.528741, 799.471358)"><g></g></g></g><g fill="#000000" fill-opacity="1"><g transform="translate(721.909031, 799.471358)"><g></g></g></g><g fill="#000000" fill-opacity="1"><g transform="translate(732.092608, 799.471358)"><g></g></g></g><g fill="#000000" fill-opacity="1"><g transform="translate(596.789058, 827.957289)"><g></g></g></g><g fill="#000000" fill-opacity="1"><g transform="translate(613.25966, 827.957289)"><g></g></g></g><g fill="#000000" fill-opacity="1"><g transform="translate(630.483667, 827.957289)"><g></g></g></g><g fill="#000000" fill-opacity="1"><g transform="translate(647.811592, 827.957289)"><g/></g></g><g fill="#000000" fill-opacity="1"><g transform="translate(653.70859, 827.957289)"><g></g></g></g><g fill="#000000" fill-opacity="1"><g transform="translate(668.464557, 827.957289)"><g></g></g></g><g fill="#000000" fill-opacity="1"><g transform="translate(680.752476, 827.957289)"><g></g></g></g><g fill="#000000" fill-opacity="1"><g transform="translate(692.806581, 827.957289)"><g></g></g></g><g fill="#000000" fill-opacity="1"><g transform="translate(698.15801, 827.957289)"><g></g></g></g><g fill="#000000" fill-opacity="1"><g transform="translate(715.382017, 827.957289)"><g></g></g></g><g fill="#000000" fill-opacity="1"><g transform="translate(727.669935, 827.957289)"><g></g></g></g><g fill="#000000" fill-opacity="1"><g transform="translate(744.99786, 827.957289)"><g></g></g></g><g transform="matrix(1, 0, 0, 1, 441, 917)"><g clip-path="url(#b105c9e1e2)"><g clip-path="url(#1bbaf9844d)"><path fill="#000000" d="M 152.777344 7.214844 C 150.238281 7.214844 148.160156 9.308594 148.160156 11.867188 L 148.160156 19.3125 C 148.15625 19.570312 148.242188 19.792969 148.425781 19.980469 C 148.605469 20.164062 148.824219 20.257812 149.082031 20.257812 C 149.339844 20.257812 149.558594 20.164062 149.742188 19.980469 C 149.921875 19.792969 150.011719 19.570312 150.007812 19.3125 L 150.007812 11.867188 C 150.007812 10.316406 151.238281 9.078125 152.777344 9.078125 L 178.648438 9.078125 C 180.191406 9.078125 181.421875 10.316406 181.421875 11.867188 L 181.421875 19.3125 C 181.417969 19.570312 181.503906 19.792969 181.6875 19.980469 C 181.867188 20.164062 182.085938 20.253906 182.34375 20.253906 C 182.601562 20.253906 182.820312 20.164062 183.003906 19.980469 C 183.183594 19.792969 183.273438 19.570312 183.269531 19.3125 L 183.269531 11.867188 C 183.269531 9.308594 181.1875 7.214844 178.648438 7.214844 Z M 158.320312 15.589844 C 155.367188 15.589844 153.644531 16.433594 152.742188 17.539062 C 151.84375 18.648438 151.855469 19.921875 151.855469 20.242188 L 151.855469 21.371094 C 151.566406 21.425781 151.269531 21.480469 150.992188 21.542969 C 149.125 21.960938 147.605469 22.46875 146.476562 23.109375 C 145.34375 23.753906 144.460938 24.640625 144.460938 25.824219 L 144.460938 37.921875 C 144.460938 38.179688 144.554688 38.398438 144.734375 38.578125 C 144.914062 38.761719 145.132812 38.851562 145.386719 38.851562 L 148.160156 38.851562 C 148.539062 38.851562 148.816406 38.679688 148.984375 38.339844 L 150.066406 36.160156 C 150.378906 35.527344 151.015625 35.128906 151.71875 35.128906 L 179.707031 35.128906 C 180.410156 35.128906 181.046875 35.527344 181.359375 36.160156 L 182.441406 38.339844 C 182.613281 38.679688 182.886719 38.851562 183.269531 38.851562 L 186.039062 38.851562 C 186.296875 38.851562 186.511719 38.761719 186.695312 38.578125 C 186.875 38.398438 186.964844 38.179688 186.964844 37.921875 L 186.964844 25.824219 C 186.964844 24.640625 186.085938 23.753906 184.953125 23.109375 C 183.820312 22.46875 182.300781 21.960938 180.433594 21.542969 C 180.160156 21.480469 179.863281 21.425781 179.574219 21.371094 L 179.574219 20.242188 C 179.574219 19.921875 179.585938 18.648438 178.683594 17.539062 C 177.78125 16.433594 176.058594 15.589844 173.105469 15.589844 C 170.136719 15.589844 168.414062 16.429688 167.515625 17.539062 C 166.613281 18.648438 166.636719 19.933594 166.636719 20.242188 L 166.636719 20.261719 C 166.324219 20.257812 166.03125 20.242188 165.714844 20.242188 C 165.394531 20.242188 165.105469 20.257812 164.789062 20.261719 L 164.789062 20.242188 C 164.789062 19.933594 164.8125 18.648438 163.914062 17.539062 C 163.011719 16.429688 161.292969 15.589844 158.320312 15.589844 Z M 158.320312 17.449219 C 160.960938 17.449219 162.011719 18.132812 162.480469 18.714844 C 162.953125 19.296875 162.941406 19.875 162.941406 20.242188 L 162.941406 20.300781 C 159.503906 20.390625 156.355469 20.636719 153.703125 21.042969 L 153.703125 20.242188 C 153.703125 19.890625 153.695312 19.304688 154.171875 18.71875 C 154.648438 18.132812 155.703125 17.449219 158.320312 17.449219 Z M 173.105469 17.449219 C 175.726562 17.449219 176.777344 18.132812 177.253906 18.71875 C 177.730469 19.304688 177.726562 19.890625 177.726562 20.242188 L 177.726562 21.042969 C 175.070312 20.636719 171.921875 20.390625 168.484375 20.300781 L 168.484375 20.242188 C 168.484375 19.875 168.476562 19.296875 168.945312 18.714844 C 169.417969 18.132812 170.46875 17.449219 173.105469 17.449219 Z M 165.714844 22.105469 C 171.472656 22.105469 176.507812 22.570312 180.03125 23.359375 C 181.792969 23.757812 183.179688 24.242188 184.042969 24.730469 C 184.910156 25.222656 185.117188 25.613281 185.117188 25.824219 L 185.117188 36.992188 L 183.839844 36.992188 L 183.011719 35.328125 C 182.386719 34.066406 181.105469 33.269531 179.707031 33.269531 L 151.71875 33.269531 C 150.320312 33.269531 149.039062 34.066406 148.414062 35.328125 L 147.589844 36.992188 L 146.3125 36.992188 L 146.3125 25.824219 C 146.3125 25.613281 146.519531 25.222656 147.382812 24.730469 C 148.246094 24.242188 149.632812 23.757812 151.394531 23.359375 C 154.921875 22.570312 159.957031 22.105469 165.714844 22.105469 Z M 165.714844 22.105469 " fill-opacity="1" fill-rule="nonzero"/></g><path stroke-linecap="butt" transform="matrix(0, 0.518684, -0.518684, 0, 231.029231, 3.83073)" fill="none" stroke-linejoin="miter" d="M 0.0025079 1.502323 L 110.370365 1.502323 " stroke="#000000" stroke-width="3" stroke-opacity="1" stroke-miterlimit="4"/><path stroke-linecap="butt" transform="matrix(0, 0.518684, -0.518684, 0, 102.153819, 3.83073)" fill="none" stroke-linejoin="miter" d="M 0.0025079 1.501527 L 110.370365 1.501527 " stroke="#000000" stroke-width="3" stroke-opacity="1" stroke-miterlimit="4"/><path fill="#000000" d="M 45.019531 37.105469 L 17.464844 37.105469 C 17.0625 37.105469 16.726562 36.78125 16.726562 36.371094 L 16.726562 15.472656 C 16.726562 15.070312 17.054688 14.734375 17.464844 14.734375 C 17.878906 14.734375 18.207031 15.0625 18.207031 15.472656 L 18.207031 35.640625 L 44.28125 35.640625 L 44.28125 15.472656 C 44.28125 15.070312 44.609375 14.734375 45.019531 14.734375 C 45.433594 14.734375 45.757812 15.0625 45.757812 15.472656 L 45.757812 36.378906 C 45.75 36.78125 45.421875 37.105469 45.019531 37.105469 Z M 45.019531 37.105469 " fill-opacity="1" fill-rule="nonzero"/><g clip-path="url(#3eb81923b2)"><path fill="#000000" d="M 48.234375 16.210938 L 14.242188 16.210938 C 13.9375 16.210938 13.65625 16.019531 13.550781 15.730469 C 13.445312 15.445312 13.53125 15.117188 13.773438 14.917969 L 30.765625 0.625 C 31.042969 0.394531 31.433594 0.394531 31.714844 0.625 L 48.703125 14.90625 C 48.945312 15.109375 49.03125 15.433594 48.925781 15.722656 C 48.820312 16.019531 48.550781 16.210938 48.234375 16.210938 Z M 16.265625 14.734375 L 46.21875 14.734375 L 31.242188 2.148438 Z M 16.265625 14.734375 " fill-opacity="1" fill-rule="nonzero"/></g><path fill="#000000" d="M 31.242188 12.226562 C 29.21875 12.226562 27.570312 10.582031 27.570312 8.5625 C 27.570312 6.542969 29.21875 4.894531 31.242188 4.894531 C 33.269531 4.894531 34.917969 6.542969 34.917969 8.5625 C 34.917969 10.582031 33.269531 12.226562 31.242188 12.226562 Z M 31.242188 6.359375 C 30.023438 6.359375 29.046875 7.34375 29.046875 8.550781 C 29.046875 9.757812 30.035156 10.742188 31.242188 10.742188 C 32.460938 10.742188 33.441406 9.757812 33.441406 8.550781 C 33.441406 7.34375 32.453125 6.359375 31.242188 6.359375 Z M 31.242188 6.359375 " fill-opacity="1" fill-rule="nonzero"/><path fill="#000000" d="M 43.3125 12.066406 C 42.910156 12.066406 42.574219 11.738281 42.574219 11.328125 L 42.574219 3.621094 L 39.121094 3.621094 L 39.121094 7.191406 C 39.121094 7.59375 38.792969 7.929688 38.382812 7.929688 C 37.96875 7.929688 37.644531 7.605469 37.644531 7.191406 L 37.644531 2.882812 C 37.644531 2.484375 37.96875 2.148438 38.382812 2.148438 L 43.3125 2.148438 C 43.714844 2.148438 44.050781 2.472656 44.050781 2.882812 L 44.050781 11.328125 C 44.042969 11.738281 43.714844 12.066406 43.3125 12.066406 Z M 43.3125 12.066406 " fill-opacity="1" fill-rule="nonzero"/><path fill="#000000" d="M 35.320312 37.105469 C 34.917969 37.105469 34.582031 36.78125 34.582031 36.371094 L 34.582031 26.664062 L 27.894531 26.664062 L 27.894531 36.378906 C 27.894531 36.78125 27.570312 37.117188 27.15625 37.117188 C 26.742188 37.117188 26.417969 36.789062 26.417969 36.378906 L 26.417969 25.925781 C 26.417969 25.523438 26.742188 25.1875 27.15625 25.1875 L 35.320312 25.1875 C 35.722656 25.1875 36.058594 25.515625 36.058594 25.925781 L 36.058594 36.378906 C 36.058594 36.78125 35.734375 37.105469 35.320312 37.105469 Z M 35.320312 37.105469 " fill-opacity="1" fill-rule="nonzero"/><path fill="#000000" d="M 11.097656 30.214844 C 10.691406 30.214844 10.355469 29.890625 10.355469 29.476562 L 10.355469 8.09375 C 10.355469 7.691406 10.683594 7.355469 11.097656 7.355469 C 11.507812 7.355469 11.835938 7.679688 11.835938 8.09375 L 11.835938 29.476562 C 11.835938 29.878906 11.5 30.214844 11.097656 30.214844 Z M 11.097656 30.214844 " fill-opacity="1" fill-rule="nonzero"/><g clip-path="url(#88e0c05662)"><path fill="#000000" d="M 13.964844 8.828125 L 8.226562 8.828125 C 7.96875 8.828125 7.71875 8.6875 7.585938 8.464844 C 7.449219 8.234375 7.449219 7.957031 7.585938 7.726562 L 10.453125 2.769531 C 10.585938 2.539062 10.828125 2.40625 11.097656 2.40625 C 11.363281 2.40625 11.605469 2.550781 11.738281 2.769531 L 14.609375 7.726562 C 14.742188 7.957031 14.742188 8.234375 14.609375 8.464844 C 14.472656 8.6875 14.234375 8.828125 13.964844 8.828125 Z M 9.503906 7.355469 L 12.6875 7.355469 L 11.097656 4.597656 Z M 9.503906 7.355469 " fill-opacity="1" fill-rule="nonzero"/></g><g clip-path="url(#c1ee8dab6d)"><path fill="#000000" d="M 11.097656 35.171875 C 10.835938 35.171875 10.585938 35.03125 10.453125 34.808594 L 7.585938 29.851562 C 7.449219 29.621094 7.449219 29.34375 7.585938 29.113281 C 7.71875 28.882812 7.957031 28.75 8.226562 28.75 L 13.964844 28.75 C 14.222656 28.75 14.472656 28.894531 14.609375 29.113281 C 14.742188 29.34375 14.742188 29.621094 14.609375 29.851562 L 11.730469 34.800781 C 11.605469 35.03125 11.355469 35.171875 11.097656 35.171875 Z M 9.503906 30.214844 L 11.097656 32.972656 L 12.6875 30.214844 Z M 9.503906 30.214844 " fill-opacity="1" fill-rule="nonzero"/></g><path fill="#000000" d="M 41.960938 42.714844 L 20.527344 42.714844 C 20.125 42.714844 19.789062 42.390625 19.789062 41.980469 C 19.789062 41.566406 20.113281 41.242188 20.527344 41.242188 L 41.960938 41.242188 C 42.363281 41.242188 42.699219 41.566406 42.699219 41.980469 C 42.699219 42.390625 42.363281 42.714844 41.960938 42.714844 Z M 41.960938 42.714844 " fill-opacity="1" fill-rule="nonzero"/><g clip-path="url(#85c7f28666)"><path fill="#000000" d="M 41.960938 45.578125 C 41.835938 45.578125 41.699219 45.550781 41.59375 45.484375 C 41.367188 45.347656 41.230469 45.109375 41.230469 44.839844 L 41.230469 39.117188 C 41.230469 38.859375 41.375 38.609375 41.59375 38.476562 C 41.824219 38.339844 42.105469 38.339844 42.335938 38.476562 L 47.304688 41.339844 C 47.535156 41.472656 47.667969 41.710938 47.667969 41.980469 C 47.667969 42.238281 47.523438 42.488281 47.304688 42.621094 L 42.335938 45.484375 C 42.210938 45.539062 42.085938 45.578125 41.960938 45.578125 Z M 42.699219 40.390625 L 42.699219 43.570312 L 45.460938 41.980469 Z M 42.699219 40.390625 " fill-opacity="1" fill-rule="nonzero"/></g><g clip-path="url(#37b59a84e0)"><path fill="#000000" d="M 20.527344 45.578125 C 20.402344 45.578125 20.269531 45.550781 20.164062 45.484375 L 15.183594 42.609375 C 14.953125 42.476562 14.820312 42.238281 14.820312 41.96875 C 14.820312 41.703125 14.960938 41.460938 15.183594 41.328125 L 20.152344 38.464844 C 20.382812 38.332031 20.660156 38.332031 20.890625 38.464844 C 21.121094 38.601562 21.257812 38.839844 21.257812 39.109375 L 21.257812 44.839844 C 21.257812 45.101562 21.113281 45.347656 20.890625 45.484375 C 20.785156 45.539062 20.652344 45.578125 20.527344 45.578125 Z M 17.023438 41.980469 L 19.789062 43.570312 L 19.789062 40.390625 Z M 17.023438 41.980469 " fill-opacity="1" fill-rule="nonzero"/></g><path fill="#000000" d="M 313.734375 39.8125 L 293.507812 39.8125 C 284.097656 39.8125 283.070312 28.976562 283.070312 24.347656 C 283.070312 23.980469 283.445312 23.699219 283.816406 23.699219 L 323.425781 23.699219 C 323.800781 23.699219 324.078125 23.980469 324.078125 24.347656 C 324.078125 28.976562 323.054688 39.8125 313.734375 39.8125 Z M 284.46875 24.996094 C 284.5625 30.273438 285.960938 38.421875 293.507812 38.421875 L 313.734375 38.421875 C 321.46875 38.421875 322.679688 29.535156 322.679688 24.996094 Z M 284.46875 24.996094 " fill-opacity="1" fill-rule="evenodd"/><g clip-path="url(#91e5b91f78)"><path fill="#000000" d="M 325.292969 24.996094 L 281.859375 24.996094 C 280.648438 24.996094 279.714844 24.070312 279.714844 22.867188 C 279.714844 21.664062 280.648438 20.738281 281.859375 20.738281 L 325.292969 20.738281 C 326.503906 20.738281 327.433594 21.664062 327.433594 22.867188 C 327.433594 24.070312 326.503906 24.996094 325.292969 24.996094 Z M 281.859375 22.125 C 281.488281 22.125 281.019531 22.496094 281.019531 22.867188 C 281.019531 23.332031 281.394531 23.699219 281.859375 23.699219 L 325.292969 23.699219 C 325.757812 23.699219 326.128906 23.332031 326.128906 22.867188 C 326.128906 22.496094 325.757812 22.125 325.292969 22.125 Z M 281.859375 22.125 " fill-opacity="1" fill-rule="evenodd"/></g><g clip-path="url(#929f8be679)"><path fill="#000000" d="M 287.265625 22.125 C 286.800781 22.125 286.519531 21.847656 286.519531 21.480469 L 286.519531 7.589844 C 286.519531 3.609375 289.78125 0.460938 293.695312 0.460938 C 297.609375 0.460938 300.871094 3.609375 300.871094 7.589844 C 300.871094 7.960938 300.5 8.238281 300.125 8.238281 C 299.753906 8.238281 299.472656 7.867188 299.472656 7.589844 C 299.472656 4.441406 296.863281 1.851562 293.601562 1.851562 C 290.527344 1.851562 287.917969 4.441406 287.917969 7.589844 L 287.917969 21.480469 C 287.917969 21.847656 287.542969 22.125 287.265625 22.125 Z M 287.265625 22.125 " fill-opacity="1" fill-rule="evenodd"/></g><path fill="#000000" d="M 296.027344 13.238281 C 295.839844 13.238281 295.746094 13.238281 295.652344 13.144531 C 295.464844 13.144531 295.375 12.960938 295.375 12.777344 L 294.8125 10.921875 C 294.628906 10.277344 294.722656 9.535156 295.09375 8.980469 C 295.464844 8.332031 296.027344 7.960938 296.679688 7.777344 L 303.015625 6.109375 C 303.667969 5.925781 304.414062 6.015625 304.972656 6.292969 C 305.625 6.664062 306 7.21875 306.277344 7.867188 L 306.742188 9.71875 C 306.742188 9.90625 306.742188 10.089844 306.652344 10.183594 C 306.558594 10.460938 306.464844 10.460938 306.277344 10.554688 L 296.210938 13.238281 C 296.117188 13.238281 296.027344 13.238281 296.027344 13.238281 Z M 303.761719 7.3125 C 303.667969 7.3125 303.574219 7.3125 303.480469 7.40625 L 297.050781 9.070312 C 296.773438 9.164062 296.492188 9.351562 296.304688 9.628906 C 296.117188 9.90625 296.027344 10.277344 296.117188 10.554688 L 296.492188 11.757812 L 305.253906 9.441406 L 304.972656 8.238281 C 304.878906 7.867188 304.601562 7.589844 304.414062 7.40625 C 304.132812 7.40625 303.949219 7.3125 303.761719 7.3125 Z M 303.761719 7.3125 " fill-opacity="1" fill-rule="evenodd"/><g clip-path="url(#d206986770)"><path fill="#000000" d="M 294.628906 44.53125 L 291.832031 44.53125 C 291.550781 44.53125 291.367188 44.441406 291.273438 44.253906 C 291.179688 43.976562 291.085938 43.792969 291.179688 43.605469 L 293.042969 38.886719 C 293.230469 38.515625 293.601562 38.328125 293.976562 38.515625 C 294.253906 38.609375 294.441406 38.976562 294.347656 39.347656 L 292.855469 43.144531 L 294.160156 43.144531 L 295.839844 38.886719 C 296.027344 38.515625 296.398438 38.328125 296.773438 38.515625 C 297.144531 38.609375 297.238281 38.976562 297.144531 39.347656 L 295.28125 44.070312 C 295.1875 44.347656 294.90625 44.53125 294.628906 44.53125 Z M 294.628906 44.53125 " fill-opacity="1" fill-rule="evenodd"/></g><g clip-path="url(#85b47916ca)"><path fill="#000000" d="M 315.320312 44.53125 L 312.523438 44.53125 C 312.242188 44.53125 311.964844 44.347656 311.871094 44.070312 L 310.007812 39.347656 C 309.914062 38.976562 310.097656 38.609375 310.378906 38.515625 C 310.75 38.328125 311.125 38.515625 311.3125 38.886719 L 312.988281 43.144531 L 314.292969 43.144531 L 312.800781 39.347656 C 312.707031 38.976562 312.894531 38.609375 313.175781 38.515625 C 313.546875 38.328125 313.921875 38.515625 314.105469 38.886719 L 315.972656 43.605469 C 316.0625 43.792969 315.972656 43.976562 315.878906 44.253906 C 315.785156 44.441406 315.503906 44.53125 315.320312 44.53125 Z M 315.320312 44.53125 " fill-opacity="1" fill-rule="evenodd"/></g><g clip-path="url(#5542e9fe58)"><g transform="matrix(1, 0, 0, 1, 116, 55)"><g clip-path="url(#e5d660ee98)"><g fill="#1a130e" fill-opacity="1"><g transform="translate(1.091413, 16.130211)"><g></g></g></g><g fill="#1a130e" fill-opacity="1"><g transform="translate(10.157966, 16.130211)"><g/></g></g><g fill="#1a130e" fill-opacity="1"><g transform="translate(14.267934, 16.130211)"><g></g></g></g><g fill="#1a130e" fill-opacity="1"><g transform="translate(23.703924, 16.130211)"><g></g></g></g><g fill="#1a130e" fill-opacity="1"><g transform="translate(31.600598, 16.130211)"><g></g></g></g><g fill="#1a130e" fill-opacity="1"><g transform="translate(42.483542, 16.130211)"><g></g></g></g><g fill="#1a130e" fill-opacity="1"><g transform="translate(51.842568, 16.130211)"><g></g></g></g><g fill="#1a130e" fill-opacity="1"><g transform="translate(63.941566, 16.130211)"><g></g></g></g><g fill="#1a130e" fill-opacity="1"><g transform="translate(76.040564, 16.130211)"><g></g></g></g><g fill="#1a130e" fill-opacity="1"><g transform="translate(89.294049, 16.130211)"><g></g></g></g></g></g></g><g clip-path="url(#7bfb2a59d0)"><g transform="matrix(1, 0, 0, 1, 255, 55)"><g clip-path="url(#07a2e63e78)"><g fill="#1a130e" fill-opacity="1"><g transform="translate(1.13766, 16.130211)"><g></g></g></g><g fill="#1a130e" fill-opacity="1"><g transform="translate(10.57365, 16.130211)"><g></g></g></g><g fill="#1a130e" fill-opacity="1"><g transform="translate(20.948619, 16.130211)"><g></g></g></g><g fill="#1a130e" fill-opacity="1"><g transform="translate(29.276303, 16.130211)"><g></g></g></g><g fill="#1a130e" fill-opacity="1"><g transform="translate(39.928347, 16.130211)"><g></g></g></g><g fill="#1a130e" fill-opacity="1"><g transform="translate(49.287373, 16.130211)"><g></g></g></g><g fill="#1a130e" fill-opacity="1"><g transform="translate(61.386371, 16.130211)"><g></g></g></g><g fill="#1a130e" fill-opacity="1"><g transform="translate(73.485369, 16.130211)"><g></g></g></g><g fill="#1a130e" fill-opacity="1"><g transform="translate(86.738854, 16.130211)"><g></g></g></g></g></g></g><g clip-path="url(#4736665925)"><g transform="matrix(1, 0, 0, 1, 0, 55)"><g clip-path="url(#4ea43df17e)"><g fill="#1a130e" fill-opacity="1"><g transform="translate(0.560239, 16.130211)"><g></g></g></g><g fill="#1a130e" fill-opacity="1"><g transform="translate(10.227122, 16.130211)"><g></g></g></g><g fill="#1a130e" fill-opacity="1"><g transform="translate(19.894006, 16.130211)"><g></g></g></g><g fill="#1a130e" fill-opacity="1"><g transform="translate(29.56089, 16.130211)"><g/></g></g><g fill="#1a130e" fill-opacity="1"><g transform="translate(33.670858, 16.130211)"><g></g></g></g><g fill="#1a130e" fill-opacity="1"><g transform="translate(46.924344, 16.130211)"><g></g></g></g></g></g></g></g></g></svg>