<svg xmlns="http://www.w3.org/2000/svg" xmlns:xlink="http://www.w3.org/1999/xlink" width="1080" zoomAndPan="magnify" viewBox="0 0 810 1012.49997" height="1350" preserveAspectRatio="xMidYMid meet" version="1.0"><defs><g/><clipPath id="b12f91ff33"><path d="M 0.199219 0 L 809.800781 0 L 809.800781 1012 L 0.199219 1012 Z M 0.199219 0 " clip-rule="nonzero"/></clipPath><clipPath id="6401d5536b"><path d="M 40.0625 432.496094 L 770 432.496094 L 770 976.027344 L 40.0625 976.027344 Z M 40.0625 432.496094 " clip-rule="nonzero"/></clipPath><clipPath id="d7b8807d1d"><path d="M 82.042969 432.496094 L 727.957031 432.496094 C 739.089844 432.496094 749.769531 436.917969 757.640625 444.789062 C 765.515625 452.664062 769.9375 463.339844 769.9375 474.472656 L 769.9375 934.046875 C 769.9375 945.179688 765.515625 955.859375 757.640625 963.730469 C 749.769531 971.605469 739.089844 976.027344 727.957031 976.027344 L 82.042969 976.027344 C 70.910156 976.027344 60.230469 971.605469 52.359375 963.730469 C 44.484375 955.859375 40.0625 945.179688 40.0625 934.046875 L 40.0625 474.472656 C 40.0625 463.339844 44.484375 452.664062 52.359375 444.789062 C 60.230469 436.917969 70.910156 432.496094 82.042969 432.496094 Z M 82.042969 432.496094 " clip-rule="nonzero"/></clipPath><clipPath id="6ec07dcaa8"><path d="M 0.0625 0.496094 L 729.980469 0.496094 L 729.980469 544.027344 L 0.0625 544.027344 Z M 0.0625 0.496094 " clip-rule="nonzero"/></clipPath><clipPath id="79a703efc1"><path d="M 42.042969 0.496094 L 687.957031 0.496094 C 699.089844 0.496094 709.769531 4.917969 717.640625 12.789062 C 725.515625 20.664062 729.9375 31.339844 729.9375 42.472656 L 729.9375 502.046875 C 729.9375 513.179688 725.515625 523.859375 717.640625 531.730469 C 709.769531 539.605469 699.089844 544.027344 687.957031 544.027344 L 42.042969 544.027344 C 30.910156 544.027344 20.230469 539.605469 12.359375 531.730469 C 4.484375 523.859375 0.0625 513.179688 0.0625 502.046875 L 0.0625 42.472656 C 0.0625 31.339844 4.484375 20.664062 12.359375 12.789062 C 20.230469 4.917969 30.910156 0.496094 42.042969 0.496094 Z M 42.042969 0.496094 " clip-rule="nonzero"/></clipPath><clipPath id="7355b89ebf"><rect x="0" width="730" y="0" height="545"/></clipPath><clipPath id="2ce3b384b8"><path d="M 40.0625 35.972656 L 770 35.972656 L 770 407.109375 L 40.0625 407.109375 Z M 40.0625 35.972656 " clip-rule="nonzero"/></clipPath><clipPath id="42d66dc471"><path d="M 68.546875 35.972656 L 741.453125 35.972656 C 757.183594 35.972656 769.9375 48.726562 769.9375 64.460938 L 769.9375 378.621094 C 769.9375 394.355469 757.183594 407.109375 741.453125 407.109375 L 68.546875 407.109375 C 52.816406 407.109375 40.0625 394.355469 40.0625 378.621094 L 40.0625 64.460938 C 40.0625 48.726562 52.816406 35.972656 68.546875 35.972656 Z M 68.546875 35.972656 " clip-rule="nonzero"/></clipPath><clipPath id="d1bf8971d8"><path d="M 0.0625 0.972656 L 729.980469 0.972656 L 729.980469 372.109375 L 0.0625 372.109375 Z M 0.0625 0.972656 " clip-rule="nonzero"/></clipPath><clipPath id="7d90302b6d"><path d="M 28.546875 0.972656 L 701.453125 0.972656 C 717.183594 0.972656 729.9375 13.726562 729.9375 29.460938 L 729.9375 343.621094 C 729.9375 359.355469 717.183594 372.109375 701.453125 372.109375 L 28.546875 372.109375 C 12.816406 372.109375 0.0625 359.355469 0.0625 343.621094 L 0.0625 29.460938 C 0.0625 13.726562 12.816406 0.972656 28.546875 0.972656 Z M 28.546875 0.972656 " clip-rule="nonzero"/></clipPath><clipPath id="0602c49e76"><rect x="0" width="730" y="0" height="373"/></clipPath><clipPath id="28245a3bfa"><path d="M 60.070312 375.445312 L 767.71875 375.445312 L 767.71875 614.574219 L 60.070312 614.574219 Z M 60.070312 375.445312 " clip-rule="nonzero"/></clipPath><clipPath id="8cda442db8"><path d="M 78.042969 97.304688 L 97.535156 97.304688 L 97.535156 129.539062 L 78.042969 129.539062 Z M 78.042969 97.304688 " clip-rule="nonzero"/></clipPath><clipPath id="630a75e2a8"><path d="M 658.359375 290.292969 L 713.082031 290.292969 L 713.082031 345.015625 L 658.359375 345.015625 Z M 658.359375 290.292969 " clip-rule="nonzero"/></clipPath><clipPath id="c294b2d98f"><path d="M 685.878906 290.292969 C 670.679688 290.292969 658.359375 302.613281 658.359375 317.8125 C 658.359375 333.011719 670.679688 345.332031 685.878906 345.332031 C 701.078125 345.332031 713.398438 333.011719 713.398438 317.8125 C 713.398438 302.613281 701.078125 290.292969 685.878906 290.292969 Z M 685.878906 290.292969 " clip-rule="nonzero"/></clipPath><clipPath id="0868e93711"><path d="M 675 306 L 698 306 L 698 330 L 675 330 Z M 675 306 " clip-rule="nonzero"/></clipPath><clipPath id="b2984f5ac0"><path d="M 685.882812 306.796875 L 697.011719 317.929688 L 685.882812 329.0625 L 674.75 317.929688 Z M 685.882812 306.796875 " clip-rule="nonzero"/></clipPath><clipPath id="66ccd2b39c"><path d="M 685.882812 306.796875 L 697.011719 317.929688 L 685.882812 329.0625 L 674.75 317.929688 Z M 685.882812 306.796875 " clip-rule="nonzero"/></clipPath><clipPath id="8c3b832570"><path d="M 685.882812 306.796875 L 697.011719 317.929688 L 685.882812 329.0625 L 674.75 317.929688 Z M 685.882812 306.796875 " clip-rule="nonzero"/></clipPath><clipPath id="196e8e780d"><path d="M 321.046875 889.699219 L 757.632812 889.699219 L 757.632812 940.25 L 321.046875 940.25 Z M 321.046875 889.699219 " clip-rule="nonzero"/></clipPath><clipPath id="7ef855f605"><path d="M 346.320312 889.699219 L 732.304688 889.699219 C 739.007812 889.699219 745.4375 892.359375 750.179688 897.101562 C 754.917969 901.839844 757.582031 908.269531 757.582031 914.972656 C 757.582031 921.675781 754.917969 928.105469 750.179688 932.84375 C 745.4375 937.585938 739.007812 940.25 732.304688 940.25 L 346.320312 940.25 C 339.617188 940.25 333.1875 937.585938 328.449219 932.84375 C 323.707031 928.105469 321.046875 921.675781 321.046875 914.972656 C 321.046875 908.269531 323.707031 901.839844 328.449219 897.101562 C 333.1875 892.359375 339.617188 889.699219 346.320312 889.699219 Z M 346.320312 889.699219 " clip-rule="nonzero"/></clipPath><clipPath id="732359f668"><path d="M 0.046875 0.699219 L 436.632812 0.699219 L 436.632812 51.25 L 0.046875 51.25 Z M 0.046875 0.699219 " clip-rule="nonzero"/></clipPath><clipPath id="baccfc0eab"><path d="M 25.320312 0.699219 L 411.304688 0.699219 C 418.007812 0.699219 424.4375 3.359375 429.179688 8.101562 C 433.917969 12.839844 436.582031 19.269531 436.582031 25.972656 C 436.582031 32.675781 433.917969 39.105469 429.179688 43.84375 C 424.4375 48.585938 418.007812 51.25 411.304688 51.25 L 25.320312 51.25 C 18.617188 51.25 12.1875 48.585938 7.449219 43.84375 C 2.707031 39.105469 0.046875 32.675781 0.046875 25.972656 C 0.046875 19.269531 2.707031 12.839844 7.449219 8.101562 C 12.1875 3.359375 18.617188 0.699219 25.320312 0.699219 Z M 25.320312 0.699219 " clip-rule="nonzero"/></clipPath><clipPath id="a997217f9b"><rect x="0" width="437" y="0" height="52"/></clipPath><clipPath id="4c48d65871"><path d="M 347.515625 903.375 L 361.007812 903.375 L 361.007812 923.613281 L 347.515625 923.613281 Z M 347.515625 903.375 " clip-rule="nonzero"/></clipPath><clipPath id="4e5def22cc"><rect x="0" width="637" y="0" height="187"/></clipPath></defs><g clip-path="url(#b12f91ff33)"><path fill="#ffffff" d="M 0.199219 0 L 809.800781 0 L 809.800781 1012 L 0.199219 1012 Z M 0.199219 0 " fill-opacity="1" fill-rule="nonzero"/><path fill="#f1f1f1" d="M 0.199219 0 L 809.800781 0 L 809.800781 1012 L 0.199219 1012 Z M 0.199219 0 " fill-opacity="1" fill-rule="nonzero"/></g><g clip-path="url(#6401d5536b)"><g clip-path="url(#d7b8807d1d)"><g transform="matrix(1, 0, 0, 1, 40, 432)"><g clip-path="url(#7355b89ebf)"><g clip-path="url(#6ec07dcaa8)"><g clip-path="url(#79a703efc1)"><g transform="matrix(0.26257, 0, 0, 0.262566, -509.096478, -179.51527)"><image x="0" y="0" width="5353" xlink:href="@@PHOTO0@@" height="3000" preserveAspectRatio="xMidYMid meet"/></g></g></g></g></g></g></g><g clip-path="url(#2ce3b384b8)"><g clip-path="url(#42d66dc471)"><g transform="matrix(1, 0, 0, 1, 40, 35)"><g clip-path="url(#0602c49e76)"><g clip-path="url(#d1bf8971d8)"><g clip-path="url(#7d90302b6d)"><path fill="#dfdfdf" d="M 0.0625 0.972656 L 729.285156 0.972656 L 729.285156 372.109375 L 0.0625 372.109375 Z M 0.0625 0.972656 " fill-opacity="1" fill-rule="nonzero"/></g></g></g></g></g></g><g clip-path="url(#28245a3bfa)"></g><g clip-path="url(#8cda442db8)"><path fill="#1e1e1e" d="M 96.609375 102.121094 L 88.6875 97.546875 C 88.128906 97.226562 87.4375 97.226562 86.878906 97.546875 L 78.957031 102.121094 C 78.398438 102.441406 78.054688 103.042969 78.054688 103.6875 L 78.054688 112.832031 C 78.054688 113.476562 78.398438 114.078125 78.957031 114.398438 L 86.25 118.609375 L 86.25 129.84375 L 87.785156 128.957031 C 88.339844 128.636719 88.6875 128.035156 88.6875 127.390625 L 88.6875 118.246094 C 88.6875 117.601562 88.339844 117 87.785156 116.679688 L 80.492188 112.46875 L 80.492188 104.050781 L 87.785156 99.84375 L 95.074219 104.050781 L 95.074219 115.285156 L 96.609375 114.398438 C 97.167969 114.078125 97.511719 113.476562 97.511719 112.832031 L 97.511719 103.6875 C 97.511719 103.042969 97.167969 102.441406 96.609375 102.121094 Z M 96.609375 102.121094 " fill-opacity="1" fill-rule="nonzero"/></g><path fill="#1e1e1e" d="M 87.496094 108.066406 L 85.875 108.066406 C 85.777344 108.066406 85.695312 107.984375 85.695312 107.890625 L 85.695312 106.265625 C 85.695312 106.167969 85.777344 106.089844 85.875 106.089844 L 87.496094 106.089844 C 87.59375 106.089844 87.671875 106.167969 87.671875 106.265625 L 87.671875 107.890625 C 87.671875 107.984375 87.59375 108.066406 87.496094 108.066406 Z M 87.496094 108.066406 " fill-opacity="1" fill-rule="nonzero"/><path fill="#1e1e1e" d="M 89.695312 108.066406 L 88.070312 108.066406 C 87.972656 108.066406 87.894531 107.984375 87.894531 107.890625 L 87.894531 106.265625 C 87.894531 106.167969 87.972656 106.089844 88.070312 106.089844 L 89.695312 106.089844 C 89.792969 106.089844 89.871094 106.167969 89.871094 106.265625 L 89.871094 107.890625 C 89.871094 107.984375 89.792969 108.066406 89.695312 108.066406 Z M 89.695312 108.066406 " fill-opacity="1" fill-rule="nonzero"/><path fill="#1e1e1e" d="M 87.496094 110.261719 L 85.875 110.261719 C 85.777344 110.261719 85.695312 110.183594 85.695312 110.085938 L 85.695312 108.460938 C 85.695312 108.363281 85.777344 108.285156 85.875 108.285156 L 87.496094 108.285156 C 87.59375 108.285156 87.671875 108.363281 87.671875 108.460938 L 87.671875 110.085938 C 87.671875 110.183594 87.59375 110.261719 87.496094 110.261719 Z M 87.496094 110.261719 " fill-opacity="1" fill-rule="nonzero"/><path fill="#1e1e1e" d="M 89.695312 110.261719 L 88.070312 110.261719 C 87.972656 110.261719 87.894531 110.183594 87.894531 110.085938 L 87.894531 108.460938 C 87.894531 108.363281 87.972656 108.285156 88.070312 108.285156 L 89.695312 108.285156 C 89.792969 108.285156 89.871094 108.363281 89.871094 108.460938 L 89.871094 110.085938 C 89.871094 110.183594 89.792969 110.261719 89.695312 110.261719 Z M 89.695312 110.261719 " fill-opacity="1" fill-rule="nonzero"/><g clip-path="url(#630a75e2a8)"><g clip-path="url(#c294b2d98f)"><path fill="#000000" d="M 672.179688 296.574219 C 668.632812 298.863281 665.835938 301.851562 663.78125 305.539062 L 659.851562 303.347656 C 662.269531 299.011719 665.5625 295.492188 669.734375 292.796875 Z M 662.851562 307.386719 C 661.355469 310.683594 660.609375 314.160156 660.609375 317.8125 C 660.609375 318.378906 660.625 318.941406 660.664062 319.503906 L 656.175781 319.800781 C 656.132812 319.140625 656.109375 318.476562 656.109375 317.8125 C 656.109375 313.511719 656.992188 309.417969 658.753906 305.527344 Z M 660.882812 321.554688 C 661.5 325.71875 663.070312 329.496094 665.589844 332.882812 L 661.980469 335.566406 C 659.011719 331.574219 657.164062 327.125 656.433594 322.21875 Z M 666.890625 334.488281 C 669.683594 337.667969 673.050781 339.996094 676.988281 341.476562 L 675.40625 345.683594 C 670.765625 343.941406 666.800781 341.199219 663.515625 337.457031 Z M 678.945312 342.121094 C 681.199219 342.761719 683.511719 343.082031 685.878906 343.082031 C 687.699219 343.082031 689.488281 342.890625 691.25 342.511719 L 692.199219 346.90625 C 690.125 347.355469 688.019531 347.582031 685.878906 347.582031 C 683.09375 347.582031 680.371094 347.203125 677.714844 346.445312 Z M 693.257812 341.988281 C 697.28125 340.761719 700.785156 338.652344 703.769531 335.65625 L 706.957031 338.832031 C 703.4375 342.359375 699.308594 344.847656 694.570312 346.289062 Z M 705.167969 334.136719 C 707.90625 330.90625 709.710938 327.234375 710.59375 323.117188 L 714.992188 324.054688 C 713.953125 328.910156 711.824219 333.238281 708.601562 337.042969 Z M 710.9375 321.097656 C 711.078125 320.011719 711.148438 318.914062 711.148438 317.8125 C 711.148438 314.714844 710.605469 311.730469 709.519531 308.859375 L 713.722656 307.265625 C 715.007812 310.648438 715.648438 314.164062 715.648438 317.8125 C 715.648438 319.109375 715.5625 320.398438 715.398438 321.675781 Z M 708.707031 306.960938 C 706.898438 303.15625 704.292969 300 700.894531 297.484375 L 703.570312 293.867188 C 707.570312 296.828125 710.636719 300.546875 712.769531 305.027344 Z M 699.183594 296.324219 C 695.605469 294.101562 691.714844 292.859375 687.503906 292.59375 L 687.789062 288.105469 C 692.75 288.417969 697.339844 289.882812 701.558594 292.503906 Z M 685.878906 292.542969 C 681.640625 292.542969 677.664062 293.535156 673.953125 295.523438 L 671.828125 291.5625 C 676.203125 289.214844 680.886719 288.042969 685.878906 288.042969 Z M 685.878906 292.542969 " fill-opacity="1" fill-rule="nonzero"/></g></g><g clip-path="url(#0868e93711)"><g clip-path="url(#b2984f5ac0)"><g clip-path="url(#66ccd2b39c)"><g clip-path="url(#8c3b832570)"><path fill="#000000" d="M 697.011719 317.929688 L 685.882812 329.058594 L 685.085938 328.265625 L 694.859375 318.492188 L 675.320312 318.492188 L 675.320312 317.367188 L 694.859375 317.367188 L 685.085938 307.59375 L 685.882812 306.796875 Z M 697.011719 317.929688 " fill-opacity="1" fill-rule="nonzero"/></g></g></g></g><g clip-path="url(#196e8e780d)"><g clip-path="url(#7ef855f605)"><g transform="matrix(1, 0, 0, 1, 321, 889)"><g clip-path="url(#a997217f9b)"><g clip-path="url(#732359f668)"><g clip-path="url(#baccfc0eab)"></g></g></g></g></g></g><g clip-path="url(#4c48d65871)"></g><g fill="#000000" fill-opacity="1"><g transform="translate(106.254077, 112.886395)"><g><path d="M 3.390625 0 L 1.09375 0 L 1.09375 -12.203125 L 6.34375 -12.203125 C 7.113281 -12.203125 7.785156 -12.070312 8.359375 -11.8125 C 8.941406 -11.5625 9.394531 -11.171875 9.71875 -10.640625 C 10.050781 -10.117188 10.21875 -9.4375 10.21875 -8.59375 C 10.21875 -7.820312 10.050781 -7.15625 9.71875 -6.59375 C 9.394531 -6.03125 8.941406 -5.601562 8.359375 -5.3125 C 7.785156 -5.019531 7.113281 -4.875 6.34375 -4.875 L 3.390625 -4.875 Z M 3.390625 -10.140625 L 3.390625 -6.890625 L 6.03125 -6.890625 C 6.644531 -6.890625 7.113281 -7.023438 7.4375 -7.296875 C 7.757812 -7.578125 7.921875 -7.984375 7.921875 -8.515625 C 7.921875 -9.035156 7.753906 -9.4375 7.421875 -9.71875 C 7.097656 -10 6.632812 -10.140625 6.03125 -10.140625 Z M 3.390625 -10.140625 "/></g></g></g><g fill="#000000" fill-opacity="1"><g transform="translate(114.839475, 112.886395)"><g><path d="M 2.53125 0 L 0.109375 0 L 4.40625 -12.203125 L 6.9375 -12.203125 L 11.234375 0 L 8.828125 0 L 7.984375 -2.515625 L 3.34375 -2.515625 Z M 5.671875 -9.6875 L 4 -4.53125 L 7.359375 -4.53125 Z M 5.671875 -9.6875 "/></g></g></g><g fill="#000000" fill-opacity="1"><g transform="translate(124.975799, 112.886395)"><g><path d="M 5.875 0.21875 C 4.71875 0.21875 3.773438 0.0234375 3.046875 -0.359375 C 2.328125 -0.742188 1.796875 -1.285156 1.453125 -1.984375 C 1.117188 -2.691406 0.953125 -3.503906 0.953125 -4.421875 L 0.953125 -12.203125 L 3.28125 -12.203125 L 3.28125 -4.421875 C 3.28125 -3.921875 3.359375 -3.472656 3.515625 -3.078125 C 3.671875 -2.691406 3.941406 -2.390625 4.328125 -2.171875 C 4.710938 -1.953125 5.226562 -1.84375 5.875 -1.84375 C 6.539062 -1.84375 7.0625 -1.953125 7.4375 -2.171875 C 7.820312 -2.390625 8.09375 -2.691406 8.25 -3.078125 C 8.40625 -3.472656 8.484375 -3.921875 8.484375 -4.421875 L 8.484375 -12.203125 L 10.8125 -12.203125 L 10.8125 -4.421875 C 10.8125 -3.503906 10.640625 -2.691406 10.296875 -1.984375 C 9.960938 -1.285156 9.429688 -0.742188 8.703125 -0.359375 C 7.984375 0.0234375 7.039062 0.21875 5.875 0.21875 Z M 5.875 0.21875 "/></g></g></g><g fill="#000000" fill-opacity="1"><g transform="translate(135.879586, 112.886395)"><g><path d="M 6.53125 0.21875 C 5.519531 0.21875 4.644531 0.0507812 3.90625 -0.28125 C 3.164062 -0.625 2.550781 -1.085938 2.0625 -1.671875 C 1.582031 -2.265625 1.222656 -2.941406 0.984375 -3.703125 C 0.742188 -4.460938 0.625 -5.265625 0.625 -6.109375 C 0.625 -6.953125 0.742188 -7.753906 0.984375 -8.515625 C 1.222656 -9.273438 1.582031 -9.945312 2.0625 -10.53125 C 2.550781 -11.113281 3.164062 -11.570312 3.90625 -11.90625 C 4.644531 -12.25 5.519531 -12.421875 6.53125 -12.421875 C 7.539062 -12.421875 8.410156 -12.25 9.140625 -11.90625 C 9.878906 -11.5625 10.46875 -11.085938 10.90625 -10.484375 C 11.34375 -9.878906 11.613281 -9.175781 11.71875 -8.375 L 9.203125 -8.375 C 9.097656 -9.019531 8.796875 -9.507812 8.296875 -9.84375 C 7.804688 -10.1875 7.195312 -10.359375 6.46875 -10.359375 C 5.726562 -10.359375 5.097656 -10.175781 4.578125 -9.8125 C 4.066406 -9.457031 3.675781 -8.960938 3.40625 -8.328125 C 3.144531 -7.691406 3.015625 -6.953125 3.015625 -6.109375 C 3.015625 -5.265625 3.144531 -4.519531 3.40625 -3.875 C 3.675781 -3.226562 4.066406 -2.726562 4.578125 -2.375 C 5.097656 -2.019531 5.726562 -1.84375 6.46875 -1.84375 C 7.195312 -1.84375 7.804688 -2.015625 8.296875 -2.359375 C 8.785156 -2.710938 9.085938 -3.25 9.203125 -3.96875 L 11.71875 -3.96875 C 11.613281 -3.125 11.34375 -2.382812 10.90625 -1.75 C 10.46875 -1.125 9.878906 -0.640625 9.140625 -0.296875 C 8.410156 0.0429688 7.539062 0.21875 6.53125 0.21875 Z M 6.53125 0.21875 "/></g></g></g><g fill="#000000" fill-opacity="1"><g transform="translate(147.263021, 112.886395)"><g><path d="M 9.21875 0 L 1.09375 0 L 1.09375 -12.203125 L 9.21875 -12.203125 L 9.21875 -10.140625 L 3.390625 -10.140625 L 3.390625 -7.125 L 8.609375 -7.125 L 8.609375 -5.078125 L 3.390625 -5.078125 L 3.390625 -2.0625 L 9.21875 -2.0625 Z M 9.21875 0 "/></g></g></g><g fill="#000000" fill-opacity="1"><g transform="translate(156.312167, 112.886395)"><g><path d="M 3.390625 0 L 1.09375 0 L 1.09375 -12.203125 L 3.390625 -12.203125 L 3.390625 -6.78125 L 7.6875 -12.203125 L 10.5 -12.203125 L 5.640625 -6.3125 L 10.65625 0 L 7.796875 0 L 3.390625 -5.65625 Z M 3.390625 0 "/></g></g></g><g fill="#000000" fill-opacity="1"><g transform="translate(106.254077, 128.62862)"><g><path d="M 2.53125 0 L 0.109375 0 L 4.40625 -12.203125 L 6.9375 -12.203125 L 11.234375 0 L 8.828125 0 L 7.984375 -2.515625 L 3.34375 -2.515625 Z M 5.671875 -9.6875 L 4 -4.53125 L 7.359375 -4.53125 Z M 5.671875 -9.6875 "/></g></g></g><g fill="#000000" fill-opacity="1"><g transform="translate(116.726189, 128.62862)"><g><path d="M 3.390625 0 L 1.09375 0 L 1.09375 -12.203125 L 3.671875 -12.203125 L 8.671875 -3.46875 L 8.671875 -12.203125 L 10.984375 -12.203125 L 10.984375 0 L 8.375 0 L 3.390625 -8.75 Z M 3.390625 0 "/></g></g></g><g fill="#000000" fill-opacity="1"><g transform="translate(127.917767, 128.62862)"><g><path d="M 4.640625 0 L 1.09375 0 L 1.09375 -12.203125 L 4.640625 -12.203125 C 6.703125 -12.203125 8.28125 -11.671875 9.375 -10.609375 C 10.46875 -9.554688 11.015625 -8.050781 11.015625 -6.09375 C 11.015625 -4.144531 10.460938 -2.640625 9.359375 -1.578125 C 8.265625 -0.523438 6.691406 0 4.640625 0 Z M 3.390625 -10.140625 L 3.390625 -2.0625 L 4.609375 -2.0625 C 5.410156 -2.0625 6.117188 -2.1875 6.734375 -2.4375 C 7.359375 -2.6875 7.84375 -3.109375 8.1875 -3.703125 C 8.539062 -4.296875 8.71875 -5.09375 8.71875 -6.09375 C 8.71875 -7.039062 8.546875 -7.804688 8.203125 -8.390625 C 7.859375 -8.984375 7.378906 -9.421875 6.765625 -9.703125 C 6.148438 -9.992188 5.4375 -10.140625 4.625 -10.140625 Z M 3.390625 -10.140625 "/></g></g></g><g fill="#000000" fill-opacity="1"><g transform="translate(138.677658, 128.62862)"><g/></g></g><g fill="#000000" fill-opacity="1"><g transform="translate(142.082951, 128.62862)"><g><path d="M 8.546875 0 L 1.09375 0 L 1.09375 -12.203125 L 3.390625 -12.203125 L 3.390625 -2.0625 L 8.546875 -2.0625 Z M 8.546875 0 "/></g></g></g><g fill="#000000" fill-opacity="1"><g transform="translate(149.932982, 128.62862)"><g><path d="M 2.53125 0 L 0.109375 0 L 4.40625 -12.203125 L 6.9375 -12.203125 L 11.234375 0 L 8.828125 0 L 7.984375 -2.515625 L 3.34375 -2.515625 Z M 5.671875 -9.6875 L 4 -4.53125 L 7.359375 -4.53125 Z M 5.671875 -9.6875 "/></g></g></g><g fill="#000000" fill-opacity="1"><g transform="translate(160.021345, 128.62862)"><g><path d="M 6.5625 0.21875 C 5.539062 0.21875 4.65625 0.0507812 3.90625 -0.28125 C 3.164062 -0.625 2.550781 -1.09375 2.0625 -1.6875 C 1.570312 -2.289062 1.207031 -2.96875 0.96875 -3.71875 C 0.738281 -4.476562 0.625 -5.273438 0.625 -6.109375 C 0.625 -6.941406 0.738281 -7.734375 0.96875 -8.484375 C 1.207031 -9.242188 1.570312 -9.914062 2.0625 -10.5 C 2.550781 -11.09375 3.164062 -11.5625 3.90625 -11.90625 C 4.65625 -12.25 5.539062 -12.421875 6.5625 -12.421875 C 8.144531 -12.421875 9.398438 -12.046875 10.328125 -11.296875 C 11.265625 -10.554688 11.851562 -9.582031 12.09375 -8.375 L 9.578125 -8.375 C 9.367188 -9 9.015625 -9.484375 8.515625 -9.828125 C 8.015625 -10.179688 7.359375 -10.359375 6.546875 -10.359375 C 5.773438 -10.359375 5.125 -10.171875 4.59375 -9.796875 C 4.070312 -9.421875 3.675781 -8.914062 3.40625 -8.28125 C 3.144531 -7.644531 3.015625 -6.925781 3.015625 -6.125 C 3.015625 -5.300781 3.15625 -4.566406 3.4375 -3.921875 C 3.71875 -3.273438 4.132812 -2.765625 4.6875 -2.390625 C 5.238281 -2.023438 5.929688 -1.84375 6.765625 -1.84375 C 7.722656 -1.84375 8.484375 -2.082031 9.046875 -2.5625 C 9.609375 -3.050781 9.898438 -3.773438 9.921875 -4.734375 L 7.21875 -4.734375 L 7.21875 -6.640625 L 12.21875 -6.640625 L 12.21875 0 L 10.125 0 L 10.125 -1.375 C 9.695312 -0.769531 9.160156 -0.351562 8.515625 -0.125 C 7.867188 0.101562 7.21875 0.21875 6.5625 0.21875 Z M 6.5625 0.21875 "/></g></g></g><g fill="#000000" fill-opacity="1"><g transform="translate(172.236172, 128.62862)"><g><path d="M 9.21875 0 L 1.09375 0 L 1.09375 -12.203125 L 9.21875 -12.203125 L 9.21875 -10.140625 L 3.390625 -10.140625 L 3.390625 -7.125 L 8.609375 -7.125 L 8.609375 -5.078125 L 3.390625 -5.078125 L 3.390625 -2.0625 L 9.21875 -2.0625 Z M 9.21875 0 "/></g></g></g><g transform="matrix(1, 0, 0, 1, 72, 181)"><g clip-path="url(#4e5def22cc)"><g fill="#000000" fill-opacity="1"><g transform="translate(0.408739, 82.922355)"><g><path d="M 30.421875 1.140625 C 27.410156 1.140625 24.359375 0.769531 21.265625 0.03125 C 18.179688 -0.695312 15.328125 -1.878906 12.703125 -3.515625 C 10.078125 -5.160156 7.875 -7.363281 6.09375 -10.125 C 4.320312 -12.882812 3.25 -16.285156 2.875 -20.328125 L 15.078125 -20.328125 C 15.796875 -17.378906 16.945312 -15.070312 18.53125 -13.40625 C 20.113281 -11.738281 21.957031 -10.578125 24.0625 -9.921875 C 26.164062 -9.265625 28.3125 -8.9375 30.5 -8.9375 C 33.71875 -8.9375 36.421875 -9.617188 38.609375 -10.984375 C 40.796875 -12.347656 41.890625 -14.535156 41.890625 -17.546875 C 41.890625 -19.734375 41.175781 -21.425781 39.75 -22.625 C 38.332031 -23.832031 36.488281 -24.773438 34.21875 -25.453125 C 31.957031 -26.140625 29.488281 -26.753906 26.8125 -27.296875 C 24.238281 -27.898438 21.664062 -28.554688 19.09375 -29.265625 C 16.53125 -29.972656 14.164062 -30.957031 12 -32.21875 C 9.84375 -33.476562 8.125 -35.160156 6.84375 -37.265625 C 5.5625 -39.367188 4.921875 -42.0625 4.921875 -45.34375 C 4.921875 -49.382812 5.890625 -52.753906 7.828125 -55.453125 C 9.765625 -58.160156 12.398438 -60.210938 15.734375 -61.609375 C 19.066406 -63.003906 22.84375 -63.703125 27.0625 -63.703125 C 31.101562 -63.703125 34.898438 -62.988281 38.453125 -61.5625 C 42.003906 -60.144531 45.007812 -57.988281 47.46875 -55.09375 C 49.925781 -52.195312 51.484375 -48.476562 52.140625 -43.9375 L 40.09375 -43.9375 C 39.320312 -47.269531 37.71875 -49.71875 35.28125 -51.28125 C 32.851562 -52.84375 30.03125 -53.625 26.8125 -53.625 C 23.851562 -53.625 21.414062 -53.003906 19.5 -51.765625 C 17.59375 -50.535156 16.640625 -48.722656 16.640625 -46.328125 C 16.640625 -44.410156 17.304688 -42.90625 18.640625 -41.8125 C 19.984375 -40.71875 21.75 -39.851562 23.9375 -39.21875 C 26.125 -38.59375 28.472656 -37.984375 30.984375 -37.390625 C 33.609375 -36.835938 36.242188 -36.164062 38.890625 -35.375 C 41.546875 -34.582031 44.007812 -33.515625 46.28125 -32.171875 C 48.550781 -30.835938 50.367188 -29.050781 51.734375 -26.8125 C 53.097656 -24.570312 53.78125 -21.675781 53.78125 -18.125 C 53.78125 -12.21875 51.726562 -7.53125 47.625 -4.0625 C 43.53125 -0.59375 37.796875 1.140625 30.421875 1.140625 Z M 30.421875 1.140625 "/></g></g></g><g fill="#000000" fill-opacity="1"><g transform="translate(52.049722, 82.922355)"><g><path d="M 31.734375 0 L 19.921875 0 L 19.921875 -51.984375 L 0.8125 -51.984375 L 0.8125 -62.546875 L 50.75 -62.546875 L 50.75 -51.984375 L 31.734375 -51.984375 Z M 31.734375 0 "/></g></g></g><g fill="#000000" fill-opacity="1"><g transform="translate(99.18237, 82.922355)"><g><path d="M 47.3125 0 L 5.578125 0 L 5.578125 -62.546875 L 47.3125 -62.546875 L 47.3125 -51.984375 L 17.375 -51.984375 L 17.375 -36.5625 L 44.1875 -36.5625 L 44.1875 -26.078125 L 17.375 -26.078125 L 17.375 -10.578125 L 47.3125 -10.578125 Z M 47.3125 0 "/></g></g></g><g fill="#000000" fill-opacity="1"><g transform="translate(145.577282, 82.922355)"><g><path d="M 17.375 0 L 5.578125 0 L 5.578125 -62.546875 L 32.546875 -62.546875 C 36.484375 -62.546875 39.941406 -61.90625 42.921875 -60.625 C 45.898438 -59.34375 48.222656 -57.347656 49.890625 -54.640625 C 51.554688 -51.929688 52.390625 -48.421875 52.390625 -44.109375 C 52.390625 -40.117188 51.554688 -36.6875 49.890625 -33.8125 C 48.222656 -30.945312 45.898438 -28.757812 42.921875 -27.25 C 39.941406 -25.75 36.484375 -25 32.546875 -25 L 17.375 -25 Z M 17.375 -51.984375 L 17.375 -35.328125 L 30.90625 -35.328125 C 34.070312 -35.328125 36.488281 -36.035156 38.15625 -37.453125 C 39.832031 -38.878906 40.671875 -40.960938 40.671875 -43.703125 C 40.671875 -46.378906 39.820312 -48.425781 38.125 -49.84375 C 36.425781 -51.269531 34.019531 -51.984375 30.90625 -51.984375 Z M 17.375 -51.984375 "/></g></g></g><g fill="#000000" fill-opacity="1"><g transform="translate(195.660887, 82.922355)"><g/></g></g><g fill="#000000" fill-opacity="1"><g transform="translate(213.120057, 82.922355)"><g><path d="M 17.375 0 L 5.578125 0 L 5.578125 -62.546875 L 17.375 -62.546875 Z M 17.375 0 "/></g></g></g><g fill="#000000" fill-opacity="1"><g transform="translate(231.56284, 82.922355)"><g><path d="M 17.375 0 L 5.578125 0 L 5.578125 -62.546875 L 18.859375 -62.546875 L 44.515625 -17.796875 L 44.515625 -62.546875 L 56.328125 -62.546875 L 56.328125 0 L 42.953125 0 L 17.375 -44.84375 Z M 17.375 0 "/></g></g></g><g fill="#000000" fill-opacity="1"><g transform="translate(288.941866, 82.922355)"><g><path d="M 31.734375 0 L 19.921875 0 L 19.921875 -51.984375 L 0.8125 -51.984375 L 0.8125 -62.546875 L 50.75 -62.546875 L 50.75 -51.984375 L 31.734375 -51.984375 Z M 31.734375 0 "/></g></g></g><g fill="#000000" fill-opacity="1"><g transform="translate(334.025082, 82.922355)"><g><path d="M 33.53125 1.140625 C 28.394531 1.140625 23.910156 0.269531 20.078125 -1.46875 C 16.253906 -3.21875 13.097656 -5.597656 10.609375 -8.609375 C 8.128906 -11.617188 6.273438 -15.078125 5.046875 -18.984375 C 3.816406 -22.890625 3.203125 -27 3.203125 -31.3125 C 3.203125 -35.632812 3.816406 -39.75 5.046875 -43.65625 C 6.273438 -47.5625 8.128906 -51.015625 10.609375 -54.015625 C 13.097656 -57.023438 16.253906 -59.390625 20.078125 -61.109375 C 23.910156 -62.835938 28.394531 -63.703125 33.53125 -63.703125 C 38.71875 -63.703125 43.222656 -62.835938 47.046875 -61.109375 C 50.878906 -59.390625 54.039062 -57.023438 56.53125 -54.015625 C 59.019531 -51.015625 60.878906 -47.5625 62.109375 -43.65625 C 63.335938 -39.75 63.953125 -35.632812 63.953125 -31.3125 C 63.953125 -27 63.335938 -22.890625 62.109375 -18.984375 C 60.878906 -15.078125 59.019531 -11.617188 56.53125 -8.609375 C 54.039062 -5.597656 50.878906 -3.21875 47.046875 -1.46875 C 43.222656 0.269531 38.71875 1.140625 33.53125 1.140625 Z M 33.53125 -9.421875 C 37.414062 -9.421875 40.695312 -10.335938 43.375 -12.171875 C 46.050781 -14.003906 48.097656 -16.570312 49.515625 -19.875 C 50.941406 -23.1875 51.65625 -27 51.65625 -31.3125 C 51.65625 -35.632812 50.941406 -39.421875 49.515625 -42.671875 C 48.097656 -45.921875 46.050781 -48.460938 43.375 -50.296875 C 40.695312 -52.128906 37.414062 -53.046875 33.53125 -53.046875 C 29.757812 -53.046875 26.519531 -52.128906 23.8125 -50.296875 C 21.113281 -48.460938 19.050781 -45.921875 17.625 -42.671875 C 16.207031 -39.421875 15.5 -35.632812 15.5 -31.3125 C 15.5 -27 16.207031 -23.1875 17.625 -19.875 C 19.050781 -16.570312 21.113281 -14.003906 23.8125 -12.171875 C 26.519531 -10.335938 29.757812 -9.421875 33.53125 -9.421875 Z M 33.53125 -9.421875 "/></g></g></g><g fill="#000000" fill-opacity="1"><g transform="translate(396.732227, 82.922355)"><g/></g></g><g fill="#000000" fill-opacity="1"><g transform="translate(414.191375, 82.922355)"><g><path d="M 34.921875 0 L 22.546875 0 L 22.546875 -24.515625 L -0.25 -62.546875 L 13.53125 -62.546875 L 28.6875 -35.984375 L 43.9375 -62.546875 L 57.640625 -62.546875 L 34.921875 -24.515625 Z M 34.921875 0 "/></g></g></g><g fill="#000000" fill-opacity="1"><g transform="translate(463.291004, 82.922355)"><g><path d="M 33.53125 1.140625 C 28.394531 1.140625 23.910156 0.269531 20.078125 -1.46875 C 16.253906 -3.21875 13.097656 -5.597656 10.609375 -8.609375 C 8.128906 -11.617188 6.273438 -15.078125 5.046875 -18.984375 C 3.816406 -22.890625 3.203125 -27 3.203125 -31.3125 C 3.203125 -35.632812 3.816406 -39.75 5.046875 -43.65625 C 6.273438 -47.5625 8.128906 -51.015625 10.609375 -54.015625 C 13.097656 -57.023438 16.253906 -59.390625 20.078125 -61.109375 C 23.910156 -62.835938 28.394531 -63.703125 33.53125 -63.703125 C 38.71875 -63.703125 43.222656 -62.835938 47.046875 -61.109375 C 50.878906 -59.390625 54.039062 -57.023438 56.53125 -54.015625 C 59.019531 -51.015625 60.878906 -47.5625 62.109375 -43.65625 C 63.335938 -39.75 63.953125 -35.632812 63.953125 -31.3125 C 63.953125 -27 63.335938 -22.890625 62.109375 -18.984375 C 60.878906 -15.078125 59.019531 -11.617188 56.53125 -8.609375 C 54.039062 -5.597656 50.878906 -3.21875 47.046875 -1.46875 C 43.222656 0.269531 38.71875 1.140625 33.53125 1.140625 Z M 33.53125 -9.421875 C 37.414062 -9.421875 40.695312 -10.335938 43.375 -12.171875 C 46.050781 -14.003906 48.097656 -16.570312 49.515625 -19.875 C 50.941406 -23.1875 51.65625 -27 51.65625 -31.3125 C 51.65625 -35.632812 50.941406 -39.421875 49.515625 -42.671875 C 48.097656 -45.921875 46.050781 -48.460938 43.375 -50.296875 C 40.695312 -52.128906 37.414062 -53.046875 33.53125 -53.046875 C 29.757812 -53.046875 26.519531 -52.128906 23.8125 -50.296875 C 21.113281 -48.460938 19.050781 -45.921875 17.625 -42.671875 C 16.207031 -39.421875 15.5 -35.632812 15.5 -31.3125 C 15.5 -27 16.207031 -23.1875 17.625 -19.875 C 19.050781 -16.570312 21.113281 -14.003906 23.8125 -12.171875 C 26.519531 -10.335938 29.757812 -9.421875 33.53125 -9.421875 Z M 33.53125 -9.421875 "/></g></g></g><g fill="#000000" fill-opacity="1"><g transform="translate(525.998149, 82.922355)"><g><path d="M 30.171875 1.140625 C 24.210938 1.140625 19.375 0.144531 15.65625 -1.84375 C 11.9375 -3.84375 9.21875 -6.644531 7.5 -10.25 C 5.78125 -13.851562 4.921875 -18.003906 4.921875 -22.703125 L 4.921875 -62.546875 L 16.8125 -62.546875 L 16.8125 -22.703125 C 16.8125 -20.140625 17.21875 -17.847656 18.03125 -15.828125 C 18.851562 -13.804688 20.25 -12.234375 22.21875 -11.109375 C 24.1875 -9.984375 26.835938 -9.421875 30.171875 -9.421875 C 33.554688 -9.421875 36.21875 -9.984375 38.15625 -11.109375 C 40.101562 -12.234375 41.484375 -13.804688 42.296875 -15.828125 C 43.117188 -17.847656 43.53125 -20.140625 43.53125 -22.703125 L 43.53125 -62.546875 L 55.421875 -62.546875 L 55.421875 -22.703125 C 55.421875 -18.003906 54.554688 -13.851562 52.828125 -10.25 C 51.109375 -6.644531 48.390625 -3.84375 44.671875 -1.84375 C 40.960938 0.144531 36.128906 1.140625 30.171875 1.140625 Z M 30.171875 1.140625 "/></g></g></g><g fill="#000000" fill-opacity="1"><g transform="translate(581.901681, 82.922355)"><g><path d="M 42.546875 -27.140625 L 53.78125 0 L 41.234375 0 L 31.3125 -25 L 17.375 -25 L 17.375 0 L 5.578125 0 L 5.578125 -62.546875 L 32.546875 -62.546875 C 36.484375 -62.546875 39.941406 -61.90625 42.921875 -60.625 C 45.898438 -59.34375 48.222656 -57.347656 49.890625 -54.640625 C 51.554688 -51.929688 52.390625 -48.421875 52.390625 -44.109375 C 52.390625 -40.003906 51.515625 -36.503906 49.765625 -33.609375 C 48.015625 -30.710938 45.609375 -28.554688 42.546875 -27.140625 Z M 30.90625 -51.984375 L 17.375 -51.984375 L 17.375 -35.328125 L 30.90625 -35.328125 C 34.070312 -35.328125 36.488281 -36.035156 38.15625 -37.453125 C 39.832031 -38.878906 40.671875 -40.960938 40.671875 -43.703125 C 40.671875 -46.378906 39.820312 -48.425781 38.125 -49.84375 C 36.425781 -51.269531 34.019531 -51.984375 30.90625 -51.984375 Z M 30.90625 -51.984375 "/></g></g></g><g fill="#000000" fill-opacity="1"><g transform="translate(0.408739, 167.099633)"><g><path d="M 23.78125 0 L 5.578125 0 L 5.578125 -62.546875 L 23.78125 -62.546875 C 34.382812 -62.546875 42.484375 -59.84375 48.078125 -54.4375 C 53.679688 -49.03125 56.484375 -41.296875 56.484375 -31.234375 C 56.484375 -21.234375 53.664062 -13.523438 48.03125 -8.109375 C 42.40625 -2.703125 34.320312 0 23.78125 0 Z M 17.375 -51.984375 L 17.375 -10.578125 L 23.609375 -10.578125 C 27.765625 -10.578125 31.425781 -11.21875 34.59375 -12.5 C 37.769531 -13.78125 40.242188 -15.9375 42.015625 -18.96875 C 43.796875 -22.007812 44.6875 -26.097656 44.6875 -31.234375 C 44.6875 -36.097656 43.8125 -40.046875 42.0625 -43.078125 C 40.3125 -46.117188 37.863281 -48.363281 34.71875 -49.8125 C 31.570312 -51.257812 27.894531 -51.984375 23.6875 -51.984375 Z M 17.375 -51.984375 "/></g></g></g><g fill="#000000" fill-opacity="1"><g transform="translate(55.574545, 167.099633)"><g><path d="M 42.546875 -27.140625 L 53.78125 0 L 41.234375 0 L 31.3125 -25 L 17.375 -25 L 17.375 0 L 5.578125 0 L 5.578125 -62.546875 L 32.546875 -62.546875 C 36.484375 -62.546875 39.941406 -61.90625 42.921875 -60.625 C 45.898438 -59.34375 48.222656 -57.347656 49.890625 -54.640625 C 51.554688 -51.929688 52.390625 -48.421875 52.390625 -44.109375 C 52.390625 -40.003906 51.515625 -36.503906 49.765625 -33.609375 C 48.015625 -30.710938 45.609375 -28.554688 42.546875 -27.140625 Z M 30.90625 -51.984375 L 17.375 -51.984375 L 17.375 -35.328125 L 30.90625 -35.328125 C 34.070312 -35.328125 36.488281 -36.035156 38.15625 -37.453125 C 39.832031 -38.878906 40.671875 -40.960938 40.671875 -43.703125 C 40.671875 -46.378906 39.820312 -48.425781 38.125 -49.84375 C 36.425781 -51.269531 34.019531 -51.984375 30.90625 -51.984375 Z M 30.90625 -51.984375 "/></g></g></g><g fill="#000000" fill-opacity="1"><g transform="translate(107.543485, 167.099633)"><g><path d="M 47.3125 0 L 5.578125 0 L 5.578125 -62.546875 L 47.3125 -62.546875 L 47.3125 -51.984375 L 17.375 -51.984375 L 17.375 -36.5625 L 44.1875 -36.5625 L 44.1875 -26.078125 L 17.375 -26.078125 L 17.375 -10.578125 L 47.3125 -10.578125 Z M 47.3125 0 "/></g></g></g><g fill="#000000" fill-opacity="1"><g transform="translate(153.938397, 167.099633)"><g><path d="M 12.953125 0 L 0.578125 0 L 22.625 -62.546875 L 35.578125 -62.546875 L 57.640625 0 L 45.25 0 L 40.984375 -12.875 L 17.140625 -12.875 Z M 29.109375 -49.6875 L 20.5 -23.203125 L 37.71875 -23.203125 Z M 29.109375 -49.6875 "/></g></g></g><g fill="#000000" fill-opacity="1"><g transform="translate(207.628729, 167.099633)"><g><path d="M 17.375 0 L 5.578125 0 L 5.578125 -62.546875 L 25.09375 -62.546875 L 38.046875 -14.265625 L 50.90625 -62.546875 L 70.59375 -62.546875 L 70.59375 0 L 58.78125 0 L 58.78125 -53.703125 L 43.859375 0 L 32.296875 0 L 17.375 -53.375 Z M 17.375 0 "/></g></g></g><g fill="#000000" fill-opacity="1"><g transform="translate(279.270711, 167.099633)"><g/></g></g><g fill="#000000" fill-opacity="1"><g transform="translate(296.729859, 167.099633)"><g><path d="M 17.375 0 L 5.578125 0 L 5.578125 -62.546875 L 17.375 -62.546875 L 17.375 -36.640625 L 44.1875 -36.640625 L 44.1875 -62.546875 L 56 -62.546875 L 56 0 L 44.1875 0 L 44.1875 -26.078125 L 17.375 -26.078125 Z M 17.375 0 "/></g></g></g><g fill="#000000" fill-opacity="1"><g transform="translate(353.862976, 167.099633)"><g><path d="M 33.53125 1.140625 C 28.394531 1.140625 23.910156 0.269531 20.078125 -1.46875 C 16.253906 -3.21875 13.097656 -5.597656 10.609375 -8.609375 C 8.128906 -11.617188 6.273438 -15.078125 5.046875 -18.984375 C 3.816406 -22.890625 3.203125 -27 3.203125 -31.3125 C 3.203125 -35.632812 3.816406 -39.75 5.046875 -43.65625 C 6.273438 -47.5625 8.128906 -51.015625 10.609375 -54.015625 C 13.097656 -57.023438 16.253906 -59.390625 20.078125 -61.109375 C 23.910156 -62.835938 28.394531 -63.703125 33.53125 -63.703125 C 38.71875 -63.703125 43.222656 -62.835938 47.046875 -61.109375 C 50.878906 -59.390625 54.039062 -57.023438 56.53125 -54.015625 C 59.019531 -51.015625 60.878906 -47.5625 62.109375 -43.65625 C 63.335938 -39.75 63.953125 -35.632812 63.953125 -31.3125 C 63.953125 -27 63.335938 -22.890625 62.109375 -18.984375 C 60.878906 -15.078125 59.019531 -11.617188 56.53125 -8.609375 C 54.039062 -5.597656 50.878906 -3.21875 47.046875 -1.46875 C 43.222656 0.269531 38.71875 1.140625 33.53125 1.140625 Z M 33.53125 -9.421875 C 37.414062 -9.421875 40.695312 -10.335938 43.375 -12.171875 C 46.050781 -14.003906 48.097656 -16.570312 49.515625 -19.875 C 50.941406 -23.1875 51.65625 -27 51.65625 -31.3125 C 51.65625 -35.632812 50.941406 -39.421875 49.515625 -42.671875 C 48.097656 -45.921875 46.050781 -48.460938 43.375 -50.296875 C 40.695312 -52.128906 37.414062 -53.046875 33.53125 -53.046875 C 29.757812 -53.046875 26.519531 -52.128906 23.8125 -50.296875 C 21.113281 -48.460938 19.050781 -45.921875 17.625 -42.671875 C 16.207031 -39.421875 15.5 -35.632812 15.5 -31.3125 C 15.5 -27 16.207031 -23.1875 17.625 -19.875 C 19.050781 -16.570312 21.113281 -14.003906 23.8125 -12.171875 C 26.519531 -10.335938 29.757812 -9.421875 33.53125 -9.421875 Z M 33.53125 -9.421875 "/></g></g></g><g fill="#000000" fill-opacity="1"><g transform="translate(416.570121, 167.099633)"><g><path d="M 17.375 0 L 5.578125 0 L 5.578125 -62.546875 L 25.09375 -62.546875 L 38.046875 -14.265625 L 50.90625 -62.546875 L 70.59375 -62.546875 L 70.59375 0 L 58.78125 0 L 58.78125 -53.703125 L 43.859375 0 L 32.296875 0 L 17.375 -53.375 Z M 17.375 0 "/></g></g></g><g fill="#000000" fill-opacity="1"><g transform="translate(488.212062, 167.099633)"><g><path d="M 47.3125 0 L 5.578125 0 L 5.578125 -62.546875 L 47.3125 -62.546875 L 47.3125 -51.984375 L 17.375 -51.984375 L 17.375 -36.5625 L 44.1875 -36.5625 L 44.1875 -26.078125 L 17.375 -26.078125 L 17.375 -10.578125 L 47.3125 -10.578125 Z M 47.3125 0 "/></g></g></g></g></g><g fill="#000000" fill-opacity="1"><g transform="translate(605.925482, 110.788485)"><g><path d="M 2.734375 0 L 1.265625 0 L 1.265625 -12.203125 L 5.796875 -12.203125 C 6.972656 -12.203125 7.910156 -11.910156 8.609375 -11.328125 C 9.316406 -10.753906 9.671875 -9.882812 9.671875 -8.71875 C 9.671875 -7.59375 9.316406 -6.710938 8.609375 -6.078125 C 7.910156 -5.453125 6.972656 -5.140625 5.796875 -5.140625 L 2.734375 -5.140625 Z M 2.734375 -10.875 L 2.734375 -6.453125 L 5.609375 -6.453125 C 6.453125 -6.453125 7.097656 -6.640625 7.546875 -7.015625 C 7.992188 -7.398438 8.21875 -7.945312 8.21875 -8.65625 C 8.21875 -9.363281 7.988281 -9.910156 7.53125 -10.296875 C 7.070312 -10.679688 6.429688 -10.875 5.609375 -10.875 Z M 2.734375 -10.875 "/></g></g></g><g fill="#000000" fill-opacity="1"><g transform="translate(615.27841, 110.788485)"><g><path d="M 7.484375 -5.421875 L 9.828125 0 L 8.21875 0 L 6.0625 -5.140625 L 2.734375 -5.140625 L 2.734375 0 L 1.265625 0 L 1.265625 -12.203125 L 5.796875 -12.203125 C 6.972656 -12.203125 7.910156 -11.910156 8.609375 -11.328125 C 9.316406 -10.753906 9.671875 -9.882812 9.671875 -8.71875 C 9.671875 -7.894531 9.476562 -7.195312 9.09375 -6.625 C 8.707031 -6.0625 8.171875 -5.660156 7.484375 -5.421875 Z M 2.734375 -6.453125 L 5.609375 -6.453125 C 6.453125 -6.453125 7.097656 -6.640625 7.546875 -7.015625 C 7.992188 -7.398438 8.21875 -7.945312 8.21875 -8.65625 C 8.21875 -9.363281 7.988281 -9.910156 7.53125 -10.296875 C 7.070312 -10.679688 6.429688 -10.875 5.609375 -10.875 L 2.734375 -10.875 Z M 2.734375 -6.453125 "/></g></g></g><g fill="#000000" fill-opacity="1"><g transform="translate(624.9511, 110.788485)"><g><path d="M 6.453125 0.15625 C 5.492188 0.15625 4.660156 -0.0078125 3.953125 -0.34375 C 3.242188 -0.675781 2.65625 -1.132812 2.1875 -1.71875 C 1.71875 -2.3125 1.367188 -2.984375 1.140625 -3.734375 C 0.910156 -4.484375 0.796875 -5.273438 0.796875 -6.109375 C 0.796875 -6.941406 0.910156 -7.734375 1.140625 -8.484375 C 1.367188 -9.234375 1.71875 -9.894531 2.1875 -10.46875 C 2.65625 -11.050781 3.242188 -11.507812 3.953125 -11.84375 C 4.660156 -12.1875 5.492188 -12.359375 6.453125 -12.359375 C 7.421875 -12.359375 8.257812 -12.1875 8.96875 -11.84375 C 9.6875 -11.507812 10.28125 -11.050781 10.75 -10.46875 C 11.21875 -9.894531 11.566406 -9.234375 11.796875 -8.484375 C 12.023438 -7.734375 12.140625 -6.941406 12.140625 -6.109375 C 12.140625 -5.273438 12.023438 -4.484375 11.796875 -3.734375 C 11.566406 -2.984375 11.21875 -2.3125 10.75 -1.71875 C 10.28125 -1.132812 9.6875 -0.675781 8.96875 -0.34375 C 8.257812 -0.0078125 7.421875 0.15625 6.453125 0.15625 Z M 6.453125 -1.171875 C 7.367188 -1.171875 8.140625 -1.382812 8.765625 -1.8125 C 9.398438 -2.238281 9.875 -2.820312 10.1875 -3.5625 C 10.507812 -4.3125 10.671875 -5.160156 10.671875 -6.109375 C 10.671875 -7.054688 10.507812 -7.898438 10.1875 -8.640625 C 9.875 -9.378906 9.398438 -9.960938 8.765625 -10.390625 C 8.140625 -10.816406 7.367188 -11.03125 6.453125 -11.03125 C 5.554688 -11.03125 4.796875 -10.816406 4.171875 -10.390625 C 3.554688 -9.960938 3.082031 -9.378906 2.75 -8.640625 C 2.425781 -7.898438 2.265625 -7.054688 2.265625 -6.109375 C 2.265625 -5.160156 2.425781 -4.3125 2.75 -3.5625 C 3.082031 -2.820312 3.554688 -2.238281 4.171875 -1.8125 C 4.796875 -1.382812 5.554688 -1.171875 6.453125 -1.171875 Z M 6.453125 -1.171875 "/></g></g></g><g fill="#000000" fill-opacity="1"><g transform="translate(637.038022, 110.788485)"><g><path d="M 2.734375 0 L 1.265625 0 L 1.265625 -12.203125 L 5.796875 -12.203125 C 6.972656 -12.203125 7.910156 -11.910156 8.609375 -11.328125 C 9.316406 -10.753906 9.671875 -9.882812 9.671875 -8.71875 C 9.671875 -7.59375 9.316406 -6.710938 8.609375 -6.078125 C 7.910156 -5.453125 6.972656 -5.140625 5.796875 -5.140625 L 2.734375 -5.140625 Z M 2.734375 -10.875 L 2.734375 -6.453125 L 5.609375 -6.453125 C 6.453125 -6.453125 7.097656 -6.640625 7.546875 -7.015625 C 7.992188 -7.398438 8.21875 -7.945312 8.21875 -8.65625 C 8.21875 -9.363281 7.988281 -9.910156 7.53125 -10.296875 C 7.070312 -10.679688 6.429688 -10.875 5.609375 -10.875 Z M 2.734375 -10.875 "/></g></g></g><g fill="#000000" fill-opacity="1"><g transform="translate(646.390951, 110.788485)"><g><path d="M 9.140625 0 L 1.265625 0 L 1.265625 -12.203125 L 9.140625 -12.203125 L 9.140625 -10.875 L 2.734375 -10.875 L 2.734375 -6.78125 L 8.390625 -6.78125 L 8.390625 -5.46875 L 2.734375 -5.46875 L 2.734375 -1.328125 L 9.140625 -1.328125 Z M 9.140625 0 "/></g></g></g><g fill="#000000" fill-opacity="1"><g transform="translate(655.360165, 110.788485)"><g><path d="M 7.484375 -5.421875 L 9.828125 0 L 8.21875 0 L 6.0625 -5.140625 L 2.734375 -5.140625 L 2.734375 0 L 1.265625 0 L 1.265625 -12.203125 L 5.796875 -12.203125 C 6.972656 -12.203125 7.910156 -11.910156 8.609375 -11.328125 C 9.316406 -10.753906 9.671875 -9.882812 9.671875 -8.71875 C 9.671875 -7.894531 9.476562 -7.195312 9.09375 -6.625 C 8.707031 -6.0625 8.171875 -5.660156 7.484375 -5.421875 Z M 2.734375 -6.453125 L 5.609375 -6.453125 C 6.453125 -6.453125 7.097656 -6.640625 7.546875 -7.015625 C 7.992188 -7.398438 8.21875 -7.945312 8.21875 -8.65625 C 8.21875 -9.363281 7.988281 -9.910156 7.53125 -10.296875 C 7.070312 -10.679688 6.429688 -10.875 5.609375 -10.875 L 2.734375 -10.875 Z M 2.734375 -6.453125 "/></g></g></g><g fill="#000000" fill-opacity="1"><g transform="translate(664.936921, 110.788485)"><g><path d="M 5.8125 0 L 4.34375 0 L 4.34375 -10.875 L 0.21875 -10.875 L 0.21875 -12.203125 L 9.953125 -12.203125 L 9.953125 -10.875 L 5.8125 -10.875 Z M 5.8125 0 "/></g></g></g><g fill="#000000" fill-opacity="1"><g transform="translate(674.241888, 110.788485)"><g><path d="M 6.171875 0 L 4.640625 0 L 4.640625 -4.671875 L 0.0625 -12.203125 L 1.78125 -12.203125 L 5.375 -6.125 L 9.015625 -12.203125 L 10.6875 -12.203125 L 6.171875 -4.671875 Z M 6.171875 0 "/></g></g></g><g fill="#000000" fill-opacity="1"><g transform="translate(684.138417, 110.788485)"><g/></g></g><g fill="#000000" fill-opacity="1"><g transform="translate(687.735567, 110.788485)"><g><path d="M 8.203125 0 L 1.265625 0 L 1.265625 -12.203125 L 2.734375 -12.203125 L 2.734375 -1.328125 L 8.203125 -1.328125 Z M 8.203125 0 "/></g></g></g><g fill="#000000" fill-opacity="1"><g transform="translate(695.297807, 110.788485)"><g><path d="M 2.734375 0 L 1.265625 0 L 1.265625 -12.203125 L 2.734375 -12.203125 Z M 2.734375 0 "/></g></g></g><g fill="#000000" fill-opacity="1"><g transform="translate(698.431299, 110.788485)"><g><path d="M 5.671875 0.15625 C 4.867188 0.15625 4.109375 0.0234375 3.390625 -0.234375 C 2.679688 -0.492188 2.082031 -0.90625 1.59375 -1.46875 C 1.113281 -2.039062 0.804688 -2.78125 0.671875 -3.6875 L 2.15625 -3.6875 C 2.28125 -3.039062 2.53125 -2.53125 2.90625 -2.15625 C 3.28125 -1.789062 3.71875 -1.53125 4.21875 -1.375 C 4.726562 -1.226562 5.234375 -1.15625 5.734375 -1.15625 C 6.585938 -1.15625 7.253906 -1.332031 7.734375 -1.6875 C 8.222656 -2.039062 8.46875 -2.582031 8.46875 -3.3125 C 8.46875 -3.75 8.375 -4.101562 8.1875 -4.375 C 8 -4.65625 7.742188 -4.878906 7.421875 -5.046875 C 7.109375 -5.222656 6.75 -5.363281 6.34375 -5.46875 C 5.945312 -5.570312 5.53125 -5.671875 5.09375 -5.765625 C 4.613281 -5.867188 4.140625 -5.984375 3.671875 -6.109375 C 3.210938 -6.234375 2.796875 -6.40625 2.421875 -6.625 C 2.046875 -6.851562 1.742188 -7.15625 1.515625 -7.53125 C 1.285156 -7.914062 1.171875 -8.40625 1.171875 -9 C 1.171875 -9.6875 1.335938 -10.28125 1.671875 -10.78125 C 2.003906 -11.289062 2.46875 -11.679688 3.0625 -11.953125 C 3.664062 -12.222656 4.363281 -12.359375 5.15625 -12.359375 C 5.851562 -12.359375 6.515625 -12.238281 7.140625 -12 C 7.765625 -11.757812 8.296875 -11.382812 8.734375 -10.875 C 9.179688 -10.363281 9.46875 -9.6875 9.59375 -8.84375 L 8.171875 -8.84375 C 8.046875 -9.394531 7.828125 -9.828125 7.515625 -10.140625 C 7.210938 -10.460938 6.851562 -10.691406 6.4375 -10.828125 C 6.019531 -10.972656 5.585938 -11.046875 5.140625 -11.046875 C 4.328125 -11.046875 3.707031 -10.867188 3.28125 -10.515625 C 2.851562 -10.171875 2.640625 -9.707031 2.640625 -9.125 C 2.640625 -8.632812 2.785156 -8.253906 3.078125 -7.984375 C 3.367188 -7.710938 3.75 -7.503906 4.21875 -7.359375 C 4.695312 -7.210938 5.207031 -7.082031 5.75 -6.96875 C 6.25 -6.863281 6.742188 -6.738281 7.234375 -6.59375 C 7.734375 -6.457031 8.1875 -6.265625 8.59375 -6.015625 C 9 -5.773438 9.320312 -5.445312 9.5625 -5.03125 C 9.8125 -4.613281 9.9375 -4.070312 9.9375 -3.40625 C 9.9375 -2.332031 9.570312 -1.46875 8.84375 -0.8125 C 8.125 -0.164062 7.066406 0.15625 5.671875 0.15625 Z M 5.671875 0.15625 "/></g></g></g><g fill="#000000" fill-opacity="1"><g transform="translate(707.864125, 110.788485)"><g><path d="M 5.8125 0 L 4.34375 0 L 4.34375 -10.875 L 0.21875 -10.875 L 0.21875 -12.203125 L 9.953125 -12.203125 L 9.953125 -10.875 L 5.8125 -10.875 Z M 5.8125 0 "/></g></g></g><g fill="#000000" fill-opacity="1"><g transform="translate(717.169092, 110.788485)"><g><path d="M 2.734375 0 L 1.265625 0 L 1.265625 -12.203125 L 2.734375 -12.203125 Z M 2.734375 0 "/></g></g></g><g fill="#000000" fill-opacity="1"><g transform="translate(720.302585, 110.788485)"><g><path d="M 2.734375 0 L 1.265625 0 L 1.265625 -12.203125 L 3.40625 -12.203125 L 8.890625 -1.46875 L 8.890625 -12.203125 L 10.34375 -12.203125 L 10.34375 0 L 8.203125 0 L 2.734375 -10.6875 Z M 2.734375 0 "/></g></g></g><g fill="#000000" fill-opacity="1"><g transform="translate(731.046496, 110.788485)"><g><path d="M 6.546875 0.15625 C 5.546875 0.15625 4.679688 -0.015625 3.953125 -0.359375 C 3.234375 -0.703125 2.640625 -1.171875 2.171875 -1.765625 C 1.703125 -2.359375 1.351562 -3.023438 1.125 -3.765625 C 0.90625 -4.515625 0.796875 -5.289062 0.796875 -6.09375 C 0.796875 -6.882812 0.910156 -7.65625 1.140625 -8.40625 C 1.367188 -9.164062 1.710938 -9.835938 2.171875 -10.421875 C 2.640625 -11.015625 3.234375 -11.484375 3.953125 -11.828125 C 4.679688 -12.179688 5.539062 -12.359375 6.53125 -12.359375 C 7.894531 -12.359375 9.007812 -12.03125 9.875 -11.375 C 10.75 -10.726562 11.351562 -9.882812 11.6875 -8.84375 L 10.03125 -8.84375 C 9.769531 -9.5 9.335938 -10.03125 8.734375 -10.4375 C 8.128906 -10.84375 7.382812 -11.046875 6.5 -11.046875 C 5.757812 -11.046875 5.117188 -10.910156 4.578125 -10.640625 C 4.046875 -10.367188 3.609375 -10 3.265625 -9.53125 C 2.929688 -9.070312 2.679688 -8.546875 2.515625 -7.953125 C 2.347656 -7.367188 2.265625 -6.765625 2.265625 -6.140625 C 2.265625 -5.253906 2.421875 -4.429688 2.734375 -3.671875 C 3.054688 -2.910156 3.53125 -2.300781 4.15625 -1.84375 C 4.789062 -1.382812 5.582031 -1.15625 6.53125 -1.15625 C 7.332031 -1.15625 8.023438 -1.3125 8.609375 -1.625 C 9.203125 -1.9375 9.65625 -2.382812 9.96875 -2.96875 C 10.289062 -3.5625 10.453125 -4.257812 10.453125 -5.0625 L 7.53125 -5.0625 L 7.53125 -6.375 L 11.890625 -6.375 L 11.890625 0 L 10.546875 0 L 10.546875 -1.75 C 10.117188 -1.09375 9.535156 -0.609375 8.796875 -0.296875 C 8.066406 0.00390625 7.316406 0.15625 6.546875 0.15625 Z M 6.546875 0.15625 "/></g></g></g><g fill="#2a1e1e" fill-opacity="1"><g transform="translate(368.508767, 920.357709)"><g></g></g></g><g fill="#2a1e1e" fill-opacity="1"><g transform="translate(380.365708, 920.357709)"><g></g></g></g><g fill="#2a1e1e" fill-opacity="1"><g transform="translate(384.245078, 920.357709)"><g></g></g></g><g fill="#2a1e1e" fill-opacity="1"><g transform="translate(399.599002, 920.357709)"><g></g></g></g><g fill="#2a1e1e" fill-opacity="1"><g transform="translate(409.853131, 920.357709)"><g></g></g></g><g fill="#2a1e1e" fill-opacity="1"><g transform="translate(419.597277, 920.357709)"><g></g></g></g><g fill="#2a1e1e" fill-opacity="1"><g transform="translate(426.117624, 920.357709)"><g></g></g></g><g fill="#2a1e1e" fill-opacity="1"><g transform="translate(429.996995, 920.357709)"><g></g></g></g><g fill="#2a1e1e" fill-opacity="1"><g transform="translate(440.087199, 920.357709)"><g/></g></g><g fill="#2a1e1e" fill-opacity="1"><g transform="translate(442.72805, 920.357709)"><g></g></g></g><g fill="#2a1e1e" fill-opacity="1"><g transform="translate(454.402822, 920.357709)"><g></g></g></g><g fill="#2a1e1e" fill-opacity="1"><g transform="translate(464.146968, 920.357709)"><g></g></g></g><g fill="#2a1e1e" fill-opacity="1"><g transform="translate(472.871159, 920.357709)"><g></g></g></g><g fill="#2a1e1e" fill-opacity="1"><g transform="translate(476.75053, 920.357709)"><g></g></g></g><g fill="#2a1e1e" fill-opacity="1"><g transform="translate(487.004659, 920.357709)"><g></g></g></g><g fill="#2a1e1e" fill-opacity="1"><g transform="translate(496.748805, 920.357709)"><g></g></g></g><g fill="#2a1e1e" fill-opacity="1"><g transform="translate(506.675085, 920.357709)"><g></g></g></g><g fill="#2a1e1e" fill-opacity="1"><g transform="translate(516.054962, 920.357709)"><g></g></g></g><g fill="#2a1e1e" fill-opacity="1"><g transform="translate(525.802177, 920.357709)"><g/></g></g><g fill="#2a1e1e" fill-opacity="1"><g transform="translate(528.989442, 920.357709)"><g/></g></g><g fill="#2a1e1e" fill-opacity="1"><g transform="translate(532.18574, 920.357709)"><g></g></g></g><g fill="#2a1e1e" fill-opacity="1"><g transform="translate(535.482276, 920.357709)"><g/></g></g><g fill="#2a1e1e" fill-opacity="1"><g transform="translate(538.669541, 920.357709)"><g></g></g></g><g fill="#2a1e1e" fill-opacity="1"><g transform="translate(544.661694, 920.357709)"><g></g></g></g><g fill="#2a1e1e" fill-opacity="1"><g transform="translate(554.132633, 920.357709)"><g></g></g></g><g fill="#2a1e1e" fill-opacity="1"><g transform="translate(563.913211, 920.357709)"><g/></g></g><g fill="#2a1e1e" fill-opacity="1"><g transform="translate(567.100475, 920.357709)"><g></g></g></g><g fill="#2a1e1e" fill-opacity="1"><g transform="translate(578.502052, 920.357709)"><g></g></g></g><g fill="#2a1e1e" fill-opacity="1"><g transform="translate(587.444775, 920.357709)"><g></g></g></g><g fill="#2a1e1e" fill-opacity="1"><g transform="translate(596.096149, 920.357709)"><g></g></g></g><g fill="#2a1e1e" fill-opacity="1"><g transform="translate(609.100526, 920.357709)"><g></g></g></g><g fill="#2a1e1e" fill-opacity="1"><g transform="translate(618.243628, 920.357709)"><g></g></g></g><g fill="#2a1e1e" fill-opacity="1"><g transform="translate(627.441371, 920.357709)"><g></g></g></g><g fill="#2a1e1e" fill-opacity="1"><g transform="translate(632.796003, 920.357709)"><g></g></g></g><g fill="#2a1e1e" fill-opacity="1"><g transform="translate(641.993746, 920.357709)"><g/></g></g><g fill="#2a1e1e" fill-opacity="1"><g transform="translate(645.181011, 920.357709)"><g></g></g></g><g fill="#2a1e1e" fill-opacity="1"><g transform="translate(655.762965, 920.357709)"><g></g></g></g><g fill="#2a1e1e" fill-opacity="1"><g transform="translate(661.008372, 920.357709)"><g></g></g></g><g fill="#2a1e1e" fill-opacity="1"><g transform="translate(664.013491, 920.357709)"><g></g></g></g><g fill="#2a1e1e" fill-opacity="1"><g transform="translate(666.945759, 920.357709)"><g/></g></g><g fill="#2a1e1e" fill-opacity="1"><g transform="translate(670.133023, 920.357709)"><g></g></g></g><g fill="#2a1e1e" fill-opacity="1"><g transform="translate(681.5346, 920.357709)"><g></g></g></g><g fill="#2a1e1e" fill-opacity="1"><g transform="translate(690.477323, 920.357709)"><g></g></g></g><g fill="#2a1e1e" fill-opacity="1"><g transform="translate(698.855455, 920.357709)"><g/></g></g><g fill="#2a1e1e" fill-opacity="1"><g transform="translate(702.04272, 920.357709)"><g></g></g></g><g fill="#2a1e1e" fill-opacity="1"><g transform="translate(714.081772, 920.357709)"><g></g></g></g><g fill="#2a1e1e" fill-opacity="1"><g transform="translate(717.232606, 920.357709)"><g></g></g></g><g fill="#2a1e1e" fill-opacity="1"><g transform="translate(722.532654, 920.357709)"><g></g></g></g></svg>