<svg xmlns="http://www.w3.org/2000/svg" xmlns:xlink="http://www.w3.org/1999/xlink" width="1080" zoomAndPan="magnify" viewBox="0 0 810 1012.49997" height="1350" preserveAspectRatio="xMidYMid meet" version="1.0"><defs><g/><clipPath id="e01b96d4a3"><path d="M 0.199219 0 L 809.800781 0 L 809.800781 1012 L 0.199219 1012 Z M 0.199219 0 " clip-rule="nonzero"/></clipPath><clipPath id="0e9a42aa2f"><path d="M 0.199219 0 L 405 0 L 405 1012 L 0.199219 1012 Z M 0.199219 0 " clip-rule="nonzero"/></clipPath><clipPath id="b17b1ce517"><path d="M 0.199219 0 L 405 0 L 405 1012 L 0.199219 1012 Z M 0.199219 0 " clip-rule="nonzero"/></clipPath><clipPath id="da855a46a6"><rect x="0" width="405" y="0" height="1012"/></clipPath><clipPath id="fe35ef0c13"><path d="M 296.804688 150.550781 L 513.195312 150.550781 L 513.195312 444.910156 L 296.804688 444.910156 Z M 296.804688 150.550781 " clip-rule="nonzero"/></clipPath><clipPath id="519126598c"><path d="M 1 0.550781 L 217 0.550781 L 217 294.710938 L 1 294.710938 Z M 1 0.550781 " clip-rule="nonzero"/></clipPath><clipPath id="5726d26b3c"><rect x="0" width="218" y="0" height="295"/></clipPath><clipPath id="c7d8276e62"><path d="M 296.804688 150.550781 L 513.1875 150.550781 L 513.1875 444.898438 L 296.804688 444.898438 Z M 296.804688 150.550781 " clip-rule="nonzero"/></clipPath><clipPath id="c18220dfe0"><path d="M 534.070312 150.550781 L 750.460938 150.550781 L 750.460938 444.910156 L 534.070312 444.910156 Z M 534.070312 150.550781 " clip-rule="nonzero"/></clipPath><clipPath id="50a2a7cdf2"><path d="M 0.0703125 0.550781 L 216 0.550781 L 216 294.710938 L 0.0703125 294.710938 Z M 0.0703125 0.550781 " clip-rule="nonzero"/></clipPath><clipPath id="30ba77816f"><rect x="0" width="217" y="0" height="295"/></clipPath><clipPath id="a03320a19c"><path d="M 534.070312 150.550781 L 750.453125 150.550781 L 750.453125 444.898438 L 534.070312 444.898438 Z M 534.070312 150.550781 " clip-rule="nonzero"/></clipPath><clipPath id="63c143fcdd"><path d="M 59.421875 150.550781 L 275.8125 150.550781 L 275.8125 444.910156 L 59.421875 444.910156 Z M 59.421875 150.550781 " clip-rule="nonzero"/></clipPath><clipPath id="898f717541"><path d="M 0.421875 1 L 216.8125 1 L 216.8125 294.710938 L 0.421875 294.710938 Z M 0.421875 1 " clip-rule="nonzero"/></clipPath><clipPath id="12bb0b8e6b"><rect x="0" width="217" y="0" height="295"/></clipPath><clipPath id="8caae203f2"><path d="M 59.421875 150.550781 L 275.808594 150.550781 L 275.808594 444.898438 L 59.421875 444.898438 Z M 59.421875 150.550781 " clip-rule="nonzero"/></clipPath></defs><g clip-path="url(#e01b96d4a3)"><path fill="#ffffff" d="M 0.199219 0 L 809.800781 0 L 809.800781 1012 L 0.199219 1012 Z M 0.199219 0 " fill-opacity="1" fill-rule="nonzero"/><path fill="#f8f7f2" d="M 0.199219 0 L 809.800781 0 L 809.800781 1012 L 0.199219 1012 Z M 0.199219 0 " fill-opacity="1" fill-rule="nonzero"/></g><g clip-path="url(#0e9a42aa2f)"><g transform="matrix(1, 0, 0, 1, 0.000000000000000028, 0)"><g clip-path="url(#da855a46a6)"><g clip-path="url(#b17b1ce517)"><g transform="matrix(0.233228, 0, 0, 0.233019, -134.733443, 0)"><image x="0" y="0" width="2895" xlink:href="@@PHOTO0@@" height="4343" preserveAspectRatio="xMidYMid meet"/></g></g></g></g></g><g clip-path="url(#fe35ef0c13)"><g transform="matrix(1, 0, 0, 1, 296, 150)"><g clip-path="url(#5726d26b3c)"><g clip-path="url(#519126598c)"><g transform="matrix(0.12089, 0, 0, 0.120935, 0.803841, -14.563367)"><image x="0" y="0" width="1790" xlink:href="@@PHOTO1@@" height="2684" preserveAspectRatio="xMidYMid meet"/></g></g></g></g></g><g clip-path="url(#c7d8276e62)"><path stroke-linecap="butt" transform="matrix(0.74963, 0, 0, 0.74963, 296.80384, 150.552362)" fill="none" stroke-linejoin="miter" d="M 0.00113023 -0.0021082 L 288.65406 -0.0021082 L 288.65406 392.655296 L 0.00113023 392.655296 Z M 0.00113023 -0.0021082 " stroke="#000000" stroke-width="6" stroke-opacity="1" stroke-miterlimit="4"/></g><g clip-path="url(#c18220dfe0)"><g transform="matrix(1, 0, 0, 1, 534, 150)"><g clip-path="url(#30ba77816f)"><g clip-path="url(#50a2a7cdf2)"><g transform="matrix(0.130988, 0, 0, 0.131041, 0.0687167, -14.563336)"><image x="0" y="0" width="1652" xlink:href="@@PHOTO2@@" height="2477" preserveAspectRatio="xMidYMid meet"/></g></g></g></g></g><g clip-path="url(#a03320a19c)"><path stroke-linecap="butt" transform="matrix(0.74963, 0, 0, 0.74963, 534.068716, 150.552362)" fill="none" stroke-linejoin="miter" d="M 0.00212934 -0.0021082 L 288.655059 -0.0021082 L 288.655059 392.655296 L 0.00212934 392.655296 Z M 0.00212934 -0.0021082 " stroke="#000000" stroke-width="6" stroke-opacity="1" stroke-miterlimit="4"/></g><g clip-path="url(#63c143fcdd)"><g transform="matrix(1, 0, 0, 1, 59, 150)"><g clip-path="url(#12bb0b8e6b)"><g clip-path="url(#898f717541)"><g transform="matrix(0.13436, 0, 0, 0.13438, -1.765817, 0.552362)"><image x="0" y="0" width="1642" xlink:href="@@PHOTO3@@" height="2189" preserveAspectRatio="xMidYMid meet"/></g></g></g></g></g><g clip-path="url(#8caae203f2)"><path stroke-linecap="butt" transform="matrix(0.74963, 0, 0, 0.74963, 59.421912, 150.552362)" fill="none" stroke-linejoin="miter" d="M -0.0000488531 -0.0021082 L 288.658092 -0.0021082 L 288.658092 392.655296 L -0.0000488531 392.655296 Z M -0.0000488531 -0.0021082 " stroke="#000000" stroke-width="6" stroke-opacity="1" stroke-miterlimit="4"/></g><g fill="#000000" fill-opacity="1"><g transform="translate(509.957922, 89.205941)"><g><path d="M 15 -16.65625 C 16.914062 -16.65625 18.582031 -16.289062 20 -15.5625 C 21.425781 -14.832031 22.519531 -13.8125 23.28125 -12.5 C 24.039062 -11.195312 24.421875 -9.691406 24.421875 -7.984375 C 24.421875 -6.609375 24.195312 -5.289062 23.75 -4.03125 C 23.300781 -2.78125 22.644531 -1.765625 21.78125 -0.984375 C 20.925781 -0.203125 19.925781 0.1875 18.78125 0.1875 C 17.914062 0.1875 17.25 -0.03125 16.78125 -0.46875 C 16.3125 -0.90625 16.046875 -1.492188 15.984375 -2.234375 C 15.441406 -1.492188 14.757812 -0.90625 13.9375 -0.46875 C 13.113281 -0.03125 12.242188 0.1875 11.328125 0.1875 C 10.015625 0.1875 8.976562 -0.210938 8.21875 -1.015625 C 7.46875 -1.828125 7.09375 -2.914062 7.09375 -4.28125 C 7.09375 -5.582031 7.363281 -6.796875 7.90625 -7.921875 C 8.457031 -9.046875 9.21875 -9.953125 10.1875 -10.640625 C 11.15625 -11.328125 12.253906 -11.671875 13.484375 -11.671875 C 15.128906 -11.671875 16.238281 -11.046875 16.8125 -9.796875 L 17.09375 -11.40625 L 19.15625 -11.40625 L 17.84375 -3.890625 C 17.789062 -3.566406 17.765625 -3.265625 17.765625 -2.984375 C 17.765625 -1.941406 18.226562 -1.421875 19.15625 -1.421875 C 19.84375 -1.421875 20.441406 -1.75 20.953125 -2.40625 C 21.460938 -3.070312 21.847656 -3.898438 22.109375 -4.890625 C 22.367188 -5.890625 22.5 -6.875 22.5 -7.84375 C 22.5 -10.113281 21.816406 -11.875 20.453125 -13.125 C 19.097656 -14.375 17.179688 -15 14.703125 -15 C 12.640625 -15 10.78125 -14.5 9.125 -13.5 C 7.476562 -12.5 6.1875 -11.132812 5.25 -9.40625 C 4.3125 -7.675781 3.84375 -5.757812 3.84375 -3.65625 C 3.820312 -1.375 4.503906 0.382812 5.890625 1.625 C 7.285156 2.863281 9.210938 3.484375 11.671875 3.484375 C 13.296875 3.484375 14.734375 3.1875 15.984375 2.59375 L 16.296875 4.203125 C 14.753906 4.847656 13.054688 5.171875 11.203125 5.171875 C 9.347656 5.171875 7.710938 4.816406 6.296875 4.109375 C 4.890625 3.410156 3.800781 2.40625 3.03125 1.09375 C 2.257812 -0.207031 1.875 -1.722656 1.875 -3.453125 C 1.875 -5.898438 2.4375 -8.128906 3.5625 -10.140625 C 4.6875 -12.160156 6.25 -13.75 8.25 -14.90625 C 10.25 -16.070312 12.5 -16.65625 15 -16.65625 Z M 12.03125 -1.65625 C 12.8125 -1.65625 13.53125 -1.882812 14.1875 -2.34375 C 14.84375 -2.8125 15.359375 -3.4375 15.734375 -4.21875 C 16.117188 -5.007812 16.3125 -5.875 16.3125 -6.8125 C 16.3125 -7.707031 16.066406 -8.4375 15.578125 -9 C 15.085938 -9.5625 14.390625 -9.84375 13.484375 -9.84375 C 12.648438 -9.84375 11.914062 -9.59375 11.28125 -9.09375 C 10.65625 -8.601562 10.164062 -7.957031 9.8125 -7.15625 C 9.46875 -6.351562 9.296875 -5.519531 9.296875 -4.65625 C 9.296875 -3.738281 9.53125 -3.007812 10 -2.46875 C 10.46875 -1.925781 11.144531 -1.65625 12.03125 -1.65625 Z M 12.03125 -1.65625 "/></g></g></g><g fill="#000000" fill-opacity="1"><g transform="translate(536.275033, 89.205941)"><g><path d="M 11.53125 0 L 7.21875 -7.40625 L 4.359375 -7.40625 L 4.359375 0 L 2 0 L 2 -18.109375 L 7.84375 -18.109375 C 9.21875 -18.109375 10.375 -17.875 11.3125 -17.40625 C 12.257812 -16.9375 12.96875 -16.300781 13.4375 -15.5 C 13.90625 -14.707031 14.140625 -13.800781 14.140625 -12.78125 C 14.140625 -11.53125 13.78125 -10.429688 13.0625 -9.484375 C 12.34375 -8.535156 11.265625 -7.90625 9.828125 -7.59375 L 14.375 0 Z M 4.359375 -9.296875 L 7.84375 -9.296875 C 9.125 -9.296875 10.082031 -9.613281 10.71875 -10.25 C 11.363281 -10.882812 11.6875 -11.726562 11.6875 -12.78125 C 11.6875 -13.851562 11.367188 -14.679688 10.734375 -15.265625 C 10.109375 -15.859375 9.144531 -16.15625 7.84375 -16.15625 L 4.359375 -16.15625 Z M 4.359375 -9.296875 "/></g></g></g><g fill="#000000" fill-opacity="1"><g transform="translate(552.070504, 89.205941)"><g><path d="M 4.359375 -16.1875 L 4.359375 -10.140625 L 10.96875 -10.140625 L 10.96875 -8.1875 L 4.359375 -8.1875 L 4.359375 -1.953125 L 11.75 -1.953125 L 11.75 0 L 2 0 L 2 -18.140625 L 11.75 -18.140625 L 11.75 -16.1875 Z M 4.359375 -16.1875 "/></g></g></g><g fill="#000000" fill-opacity="1"><g transform="translate(565.397925, 89.205941)"><g><path d="M 12.703125 -4.03125 L 4.8125 -4.03125 L 3.359375 0 L 0.859375 0 L 7.40625 -18 L 10.140625 -18 L 16.65625 0 L 14.15625 0 Z M 12.03125 -5.953125 L 8.75 -15.09375 L 5.484375 -5.953125 Z M 12.03125 -5.953125 "/></g></g></g><g fill="#000000" fill-opacity="1"><g transform="translate(582.908029, 89.205941)"><g><path d="M 4.359375 -1.921875 L 10.703125 -1.921875 L 10.703125 0 L 2 0 L 2 -18.109375 L 4.359375 -18.109375 Z M 4.359375 -1.921875 "/></g></g></g><g fill="#000000" fill-opacity="1"><g transform="translate(594.13112, 89.205941)"><g><path d="M 4.359375 -1.921875 L 10.703125 -1.921875 L 10.703125 0 L 2 0 L 2 -18.109375 L 4.359375 -18.109375 Z M 4.359375 -1.921875 "/></g></g></g><g fill="#000000" fill-opacity="1"><g transform="translate(605.354211, 89.205941)"><g><path d="M 14.6875 -18.109375 L 8.78125 -6.828125 L 8.78125 0 L 6.421875 0 L 6.421875 -6.828125 L 0.5 -18.109375 L 3.125 -18.109375 L 7.59375 -8.9375 L 12.0625 -18.109375 Z M 14.6875 -18.109375 "/></g></g></g><g fill="#000000" fill-opacity="1"><g transform="translate(620.526172, 89.205941)"><g><path d="M 15.71875 -12.859375 C 15.21875 -13.921875 14.488281 -14.738281 13.53125 -15.3125 C 12.582031 -15.894531 11.476562 -16.1875 10.21875 -16.1875 C 8.945312 -16.1875 7.804688 -15.894531 6.796875 -15.3125 C 5.785156 -14.738281 4.988281 -13.910156 4.40625 -12.828125 C 3.820312 -11.742188 3.53125 -10.488281 3.53125 -9.0625 C 3.53125 -7.644531 3.820312 -6.398438 4.40625 -5.328125 C 4.988281 -4.253906 5.785156 -3.425781 6.796875 -2.84375 C 7.804688 -2.257812 8.945312 -1.96875 10.21875 -1.96875 C 11.976562 -1.96875 13.429688 -2.492188 14.578125 -3.546875 C 15.722656 -4.609375 16.390625 -6.039062 16.578125 -7.84375 L 9.359375 -7.84375 L 9.359375 -9.765625 L 19.09375 -9.765625 L 19.09375 -7.953125 C 18.957031 -6.460938 18.488281 -5.097656 17.6875 -3.859375 C 16.894531 -2.617188 15.847656 -1.640625 14.546875 -0.921875 C 13.253906 -0.203125 11.8125 0.15625 10.21875 0.15625 C 8.53125 0.15625 6.992188 -0.234375 5.609375 -1.015625 C 4.222656 -1.804688 3.128906 -2.90625 2.328125 -4.3125 C 1.523438 -5.71875 1.125 -7.300781 1.125 -9.0625 C 1.125 -10.832031 1.523438 -12.421875 2.328125 -13.828125 C 3.128906 -15.242188 4.222656 -16.34375 5.609375 -17.125 C 6.992188 -17.914062 8.53125 -18.3125 10.21875 -18.3125 C 12.132812 -18.3125 13.832031 -17.832031 15.3125 -16.875 C 16.800781 -15.925781 17.878906 -14.585938 18.546875 -12.859375 Z M 15.71875 -12.859375 "/></g></g></g><g fill="#000000" fill-opacity="1"><g transform="translate(640.738128, 89.205941)"><g><path d="M 11.53125 0 L 7.21875 -7.40625 L 4.359375 -7.40625 L 4.359375 0 L 2 0 L 2 -18.109375 L 7.84375 -18.109375 C 9.21875 -18.109375 10.375 -17.875 11.3125 -17.40625 C 12.257812 -16.9375 12.96875 -16.300781 13.4375 -15.5 C 13.90625 -14.707031 14.140625 -13.800781 14.140625 -12.78125 C 14.140625 -11.53125 13.78125 -10.429688 13.0625 -9.484375 C 12.34375 -8.535156 11.265625 -7.90625 9.828125 -7.59375 L 14.375 0 Z M 4.359375 -9.296875 L 7.84375 -9.296875 C 9.125 -9.296875 10.082031 -9.613281 10.71875 -10.25 C 11.363281 -10.882812 11.6875 -11.726562 11.6875 -12.78125 C 11.6875 -13.851562 11.367188 -14.679688 10.734375 -15.265625 C 10.109375 -15.859375 9.144531 -16.15625 7.84375 -16.15625 L 4.359375 -16.15625 Z M 4.359375 -9.296875 "/></g></g></g><g fill="#000000" fill-opacity="1"><g transform="translate(656.533599, 89.205941)"><g><path d="M 4.359375 -16.1875 L 4.359375 -10.140625 L 10.96875 -10.140625 L 10.96875 -8.1875 L 4.359375 -8.1875 L 4.359375 -1.953125 L 11.75 -1.953125 L 11.75 0 L 2 0 L 2 -18.140625 L 11.75 -18.140625 L 11.75 -16.1875 Z M 4.359375 -16.1875 "/></g></g></g><g fill="#000000" fill-opacity="1"><g transform="translate(669.86102, 89.205941)"><g><path d="M 12.703125 -4.03125 L 4.8125 -4.03125 L 3.359375 0 L 0.859375 0 L 7.40625 -18 L 10.140625 -18 L 16.65625 0 L 14.15625 0 Z M 12.03125 -5.953125 L 8.75 -15.09375 L 5.484375 -5.953125 Z M 12.03125 -5.953125 "/></g></g></g><g fill="#000000" fill-opacity="1"><g transform="translate(687.371125, 89.205941)"><g><path d="M 13.140625 -18.109375 L 13.140625 -16.1875 L 8.21875 -16.1875 L 8.21875 0 L 5.84375 0 L 5.84375 -16.1875 L 0.890625 -16.1875 L 0.890625 -18.109375 Z M 13.140625 -18.109375 "/></g></g></g><g fill="#000000" fill-opacity="1"><g transform="translate(701.425973, 89.205941)"><g><path d="M 7.75 0.1875 C 6.550781 0.1875 5.476562 -0.0234375 4.53125 -0.453125 C 3.59375 -0.878906 2.851562 -1.46875 2.3125 -2.21875 C 1.769531 -2.976562 1.492188 -3.847656 1.484375 -4.828125 L 4 -4.828125 C 4.082031 -3.984375 4.429688 -3.269531 5.046875 -2.6875 C 5.660156 -2.101562 6.5625 -1.8125 7.75 -1.8125 C 8.875 -1.8125 9.757812 -2.09375 10.40625 -2.65625 C 11.050781 -3.226562 11.375 -3.953125 11.375 -4.828125 C 11.375 -5.523438 11.179688 -6.085938 10.796875 -6.515625 C 10.421875 -6.953125 9.945312 -7.28125 9.375 -7.5 C 8.800781 -7.726562 8.03125 -7.972656 7.0625 -8.234375 C 5.875 -8.546875 4.921875 -8.859375 4.203125 -9.171875 C 3.484375 -9.484375 2.863281 -9.972656 2.34375 -10.640625 C 1.832031 -11.304688 1.578125 -12.203125 1.578125 -13.328125 C 1.578125 -14.316406 1.828125 -15.191406 2.328125 -15.953125 C 2.835938 -16.710938 3.546875 -17.300781 4.453125 -17.71875 C 5.367188 -18.132812 6.414062 -18.34375 7.59375 -18.34375 C 9.289062 -18.34375 10.675781 -17.914062 11.75 -17.0625 C 12.832031 -16.21875 13.445312 -15.09375 13.59375 -13.6875 L 10.984375 -13.6875 C 10.898438 -14.382812 10.535156 -14.992188 9.890625 -15.515625 C 9.253906 -16.046875 8.410156 -16.3125 7.359375 -16.3125 C 6.367188 -16.3125 5.5625 -16.054688 4.9375 -15.546875 C 4.3125 -15.035156 4 -14.320312 4 -13.40625 C 4 -12.75 4.1875 -12.210938 4.5625 -11.796875 C 4.9375 -11.378906 5.394531 -11.0625 5.9375 -10.84375 C 6.476562 -10.632812 7.242188 -10.390625 8.234375 -10.109375 C 9.429688 -9.773438 10.394531 -9.445312 11.125 -9.125 C 11.851562 -8.8125 12.472656 -8.320312 12.984375 -7.65625 C 13.503906 -6.988281 13.765625 -6.082031 13.765625 -4.9375 C 13.765625 -4.050781 13.53125 -3.21875 13.0625 -2.4375 C 12.601562 -1.65625 11.910156 -1.019531 10.984375 -0.53125 C 10.066406 -0.0507812 8.988281 0.1875 7.75 0.1875 Z M 7.75 0.1875 "/></g></g></g><g fill="#000000" fill-opacity="1"><g transform="translate(716.675876, 89.205941)"><g><path d="M 4.359375 -18.109375 L 4.359375 0 L 2 0 L 2 -18.109375 Z M 4.359375 -18.109375 "/></g></g></g><g fill="#000000" fill-opacity="1"><g transform="translate(723.066808, 89.205941)"><g><path d="M 13.140625 -18.109375 L 13.140625 -16.1875 L 8.21875 -16.1875 L 8.21875 0 L 5.84375 0 L 5.84375 -16.1875 L 0.890625 -16.1875 L 0.890625 -18.109375 Z M 13.140625 -18.109375 "/></g></g></g><g fill="#000000" fill-opacity="1"><g transform="translate(737.121657, 89.205941)"><g><path d="M 4.359375 -16.1875 L 4.359375 -10.140625 L 10.96875 -10.140625 L 10.96875 -8.1875 L 4.359375 -8.1875 L 4.359375 -1.953125 L 11.75 -1.953125 L 11.75 0 L 2 0 L 2 -18.140625 L 11.75 -18.140625 L 11.75 -16.1875 Z M 4.359375 -16.1875 "/></g></g></g><g fill="#000000" fill-opacity="1"><g transform="translate(441.226243, 814.617742)"><g><path d="M 49.4375 0.921875 C 41.15625 0.921875 34.195312 -0.835938 28.5625 -4.359375 C 22.9375 -7.890625 18.6875 -12.601562 15.8125 -18.5 C 12.9375 -24.40625 11.5 -30.882812 11.5 -37.9375 C 11.5 -43.6875 12.550781 -49.257812 14.65625 -54.65625 C 16.757812 -60.0625 19.632812 -65.082031 23.28125 -69.71875 C 26.925781 -74.363281 31.066406 -78.410156 35.703125 -81.859375 C 40.335938 -85.304688 45.222656 -88.003906 50.359375 -89.953125 C 55.492188 -91.910156 60.585938 -92.890625 65.640625 -92.890625 C 73.765625 -92.890625 80.53125 -91.144531 85.9375 -87.65625 C 91.34375 -84.175781 95.425781 -79.484375 98.1875 -73.578125 C 100.945312 -67.679688 102.285156 -61.164062 102.203125 -54.03125 C 102.128906 -48.4375 101.113281 -42.972656 99.15625 -37.640625 C 97.207031 -32.316406 94.503906 -27.316406 91.046875 -22.640625 C 87.597656 -17.972656 83.632812 -13.875 79.15625 -10.34375 C 74.675781 -6.820312 69.90625 -4.0625 64.84375 -2.0625 C 59.78125 -0.0703125 54.644531 0.921875 49.4375 0.921875 Z M 19.546875 -45.640625 C 19.546875 -37.515625 21.113281 -30.347656 24.25 -24.140625 C 27.394531 -17.929688 31.820312 -13.101562 37.53125 -9.65625 C 43.25 -6.207031 49.863281 -4.484375 57.375 -4.484375 C 62.96875 -4.484375 68.003906 -5.671875 72.484375 -8.046875 C 76.972656 -10.421875 80.828125 -13.640625 84.046875 -17.703125 C 87.265625 -21.765625 89.734375 -26.285156 91.453125 -31.265625 C 93.179688 -36.253906 94.046875 -41.351562 94.046875 -46.5625 C 94.117188 -55.070312 92.601562 -62.410156 89.5 -68.578125 C 86.394531 -74.742188 82.140625 -79.515625 76.734375 -82.890625 C 71.335938 -86.265625 65.191406 -87.953125 58.296875 -87.953125 C 53.078125 -87.953125 48.148438 -86.800781 43.515625 -84.5 C 38.878906 -82.195312 34.757812 -79.070312 31.15625 -75.125 C 27.550781 -71.1875 24.710938 -66.664062 22.640625 -61.5625 C 20.578125 -56.46875 19.546875 -51.160156 19.546875 -45.640625 Z M 19.546875 -45.640625 "/></g></g></g><g fill="#000000" fill-opacity="1"><g transform="translate(534.920297, 814.617742)"><g><path d="M -16.09375 31.046875 C -16.78125 31.046875 -17.257812 30.832031 -17.53125 30.40625 C -17.800781 29.988281 -17.78125 29.507812 -17.46875 28.96875 L 12.296875 -28.390625 C 15.441406 -34.523438 17.609375 -39.21875 18.796875 -42.46875 C 19.984375 -45.726562 20.578125 -48.085938 20.578125 -49.546875 C 20.578125 -50.390625 20.421875 -51.0625 20.109375 -51.5625 C 19.804688 -52.0625 19.195312 -52.3125 18.28125 -52.3125 C 17.207031 -52.3125 15.671875 -51.601562 13.671875 -50.1875 C 11.679688 -48.769531 9.382812 -46.796875 6.78125 -44.265625 L 5.859375 -45.40625 C 10.148438 -49.625 13.925781 -52.84375 17.1875 -55.0625 C 20.445312 -57.289062 23.035156 -58.40625 24.953125 -58.40625 C 26.710938 -58.40625 28.03125 -57.828125 28.90625 -56.671875 C 29.789062 -55.523438 30.234375 -54.1875 30.234375 -52.65625 C 30.234375 -50.738281 29.484375 -47.726562 27.984375 -43.625 C 26.492188 -39.53125 24.140625 -34.335938 20.921875 -28.046875 L 18.515625 -23.34375 C 22.265625 -27.9375 26.09375 -32.320312 30 -36.5 C 33.914062 -40.675781 37.691406 -44.410156 41.328125 -47.703125 C 44.972656 -51.003906 48.363281 -53.59375 51.5 -55.46875 C 54.644531 -57.351562 57.367188 -58.296875 59.671875 -58.296875 C 61.972656 -58.296875 63.695312 -57.351562 64.84375 -55.46875 C 65.988281 -53.59375 66.5625 -51.503906 66.5625 -49.203125 C 66.5625 -44.835938 65.660156 -40.335938 63.859375 -35.703125 C 62.054688 -31.066406 59.582031 -26.5625 56.4375 -22.1875 C 53.300781 -17.820312 49.757812 -13.910156 45.8125 -10.453125 C 41.863281 -7.003906 37.742188 -4.265625 33.453125 -2.234375 C 29.160156 -0.203125 24.945312 0.8125 20.8125 0.8125 C 18.050781 0.8125 15.75 0.121094 13.90625 -1.25 C 12.070312 -2.632812 10.65625 -4.171875 9.65625 -5.859375 L -8.5 29.78125 C -8.882812 30.625 -9.578125 31.046875 -10.578125 31.046875 Z M 14.375 -15.296875 C 15.59375 -11.691406 17.503906 -8.816406 20.109375 -6.671875 C 22.722656 -4.523438 25.332031 -3.453125 27.9375 -3.453125 C 31.382812 -3.453125 34.617188 -4.390625 37.640625 -6.265625 C 40.671875 -8.140625 43.375 -10.628906 45.75 -13.734375 C 48.132812 -16.835938 50.1875 -20.25 51.90625 -23.96875 C 53.632812 -27.6875 54.957031 -31.40625 55.875 -35.125 C 56.789062 -38.84375 57.25 -42.195312 57.25 -45.1875 C 57.25 -47.789062 56.90625 -49.628906 56.21875 -50.703125 C 55.53125 -51.773438 54.535156 -52.3125 53.234375 -52.3125 C 51.617188 -52.3125 49.429688 -51.332031 46.671875 -49.375 C 43.910156 -47.425781 40.769531 -44.765625 37.25 -41.390625 C 33.726562 -38.015625 30.03125 -34.140625 26.15625 -29.765625 C 22.28125 -25.398438 18.503906 -20.804688 14.828125 -15.984375 Z M 14.375 -15.296875 "/></g></g></g><g fill="#000000" fill-opacity="1"><g transform="translate(593.090862, 814.617742)"><g><path d="M 14.953125 0.8125 C 11.804688 0.8125 9.234375 0.160156 7.234375 -1.140625 C 5.242188 -2.453125 3.769531 -4.140625 2.8125 -6.203125 C 1.851562 -8.273438 1.375 -10.421875 1.375 -12.640625 C 1.375 -16.703125 2.3125 -20.878906 4.1875 -25.171875 C 6.070312 -29.460938 8.582031 -33.582031 11.71875 -37.53125 C 14.863281 -41.476562 18.367188 -45.023438 22.234375 -48.171875 C 26.109375 -51.316406 30.078125 -53.804688 34.140625 -55.640625 C 38.203125 -57.484375 42.035156 -58.40625 45.640625 -58.40625 C 48.628906 -58.40625 50.867188 -57.789062 52.359375 -56.5625 C 53.859375 -55.332031 54.609375 -53.722656 54.609375 -51.734375 C 54.609375 -49.898438 53.957031 -47.925781 52.65625 -45.8125 C 51.351562 -43.707031 49.109375 -41.273438 45.921875 -38.515625 C 42.742188 -35.753906 38.359375 -32.457031 32.765625 -28.625 C 27.171875 -24.789062 20.082031 -20.15625 11.5 -14.71875 C 11.882812 -12.03125 12.9375 -9.820312 14.65625 -8.09375 C 16.382812 -6.375 18.894531 -5.515625 22.1875 -5.515625 C 24.175781 -5.515625 26.628906 -6.03125 29.546875 -7.0625 C 32.460938 -8.101562 35.910156 -10.382812 39.890625 -13.90625 L 40.8125 -12.875 C 35.75 -8.195312 30.898438 -4.742188 26.265625 -2.515625 C 21.628906 -0.296875 17.859375 0.8125 14.953125 0.8125 Z M 11.375 -16.328125 C 19.5 -21.378906 25.992188 -25.765625 30.859375 -29.484375 C 35.734375 -33.203125 39.28125 -36.535156 41.5 -39.484375 C 43.726562 -42.441406 44.84375 -45.300781 44.84375 -48.0625 C 44.84375 -49.976562 44.207031 -51.453125 42.9375 -52.484375 C 41.675781 -53.515625 40.085938 -54.03125 38.171875 -54.03125 C 35.253906 -54.03125 32.4375 -53.222656 29.71875 -51.609375 C 27 -50.003906 24.507812 -47.859375 22.25 -45.171875 C 19.988281 -42.492188 18.03125 -39.503906 16.375 -36.203125 C 14.726562 -32.910156 13.460938 -29.5625 12.578125 -26.15625 C 11.703125 -22.75 11.300781 -19.507812 11.375 -16.4375 Z M 11.375 -16.328125 "/></g></g></g><g fill="#000000" fill-opacity="1"><g transform="translate(635.281591, 814.617742)"><g><path d="M -0.453125 0 C -1.066406 0 -1.46875 -0.207031 -1.65625 -0.625 C -1.851562 -1.050781 -1.800781 -1.570312 -1.5 -2.1875 C -0.0390625 -4.632812 1.660156 -7.617188 3.609375 -11.140625 C 5.566406 -14.671875 7.597656 -18.367188 9.703125 -22.234375 C 11.816406 -26.109375 13.753906 -29.863281 15.515625 -33.5 C 17.285156 -37.144531 18.722656 -40.363281 19.828125 -43.15625 C 20.941406 -45.957031 21.5 -47.972656 21.5 -49.203125 C 21.5 -51.203125 20.503906 -52.203125 18.515625 -52.203125 C 17.285156 -52.203125 15.75 -51.679688 13.90625 -50.640625 C 12.070312 -49.609375 9.851562 -47.90625 7.25 -45.53125 L 6.328125 -46.671875 C 10.535156 -50.503906 14.304688 -53.414062 17.640625 -55.40625 C 20.984375 -57.40625 23.609375 -58.40625 25.515625 -58.40625 C 27.742188 -58.40625 29.28125 -57.734375 30.125 -56.390625 C 30.96875 -55.046875 31.390625 -53.722656 31.390625 -52.421875 C 31.390625 -50.890625 30.796875 -48.550781 29.609375 -45.40625 C 28.421875 -42.269531 26.882812 -38.707031 25 -34.71875 C 23.125 -30.738281 21.148438 -26.753906 19.078125 -22.765625 C 21.921875 -26.367188 24.816406 -29.796875 27.765625 -33.046875 C 30.710938 -36.304688 33.644531 -39.351562 36.5625 -42.1875 C 41.613281 -47.175781 46.378906 -51.125 50.859375 -54.03125 C 55.347656 -56.945312 58.972656 -58.40625 61.734375 -58.40625 C 63.734375 -58.40625 65.210938 -57.734375 66.171875 -56.390625 C 67.128906 -55.046875 67.609375 -53.609375 67.609375 -52.078125 C 67.609375 -50.015625 66.9375 -47.445312 65.59375 -44.375 C 64.25 -41.3125 62.578125 -38.035156 60.578125 -34.546875 C 58.585938 -31.054688 56.578125 -27.625 54.546875 -24.25 C 52.515625 -20.882812 50.828125 -17.820312 49.484375 -15.0625 C 48.148438 -12.300781 47.484375 -10.113281 47.484375 -8.5 C 47.484375 -6.4375 48.554688 -5.40625 50.703125 -5.40625 C 53.078125 -5.40625 56.679688 -7.585938 61.515625 -11.953125 L 62.421875 -10.8125 C 58.210938 -6.976562 54.5 -4.0625 51.28125 -2.0625 C 48.0625 -0.0703125 45.566406 0.921875 43.796875 0.921875 C 41.347656 0.921875 39.679688 0.152344 38.796875 -1.375 C 37.921875 -2.90625 37.484375 -4.363281 37.484375 -5.75 C 37.484375 -8.125 38.171875 -10.878906 39.546875 -14.015625 C 40.929688 -17.160156 42.617188 -20.4375 44.609375 -23.84375 C 46.597656 -27.257812 48.585938 -30.613281 50.578125 -33.90625 C 52.578125 -37.207031 54.265625 -40.179688 55.640625 -42.828125 C 57.023438 -45.472656 57.71875 -47.597656 57.71875 -49.203125 C 57.71875 -50.128906 57.46875 -50.894531 56.96875 -51.5 C 56.46875 -52.113281 55.679688 -52.421875 54.609375 -52.421875 C 52.535156 -52.421875 50.0625 -51.382812 47.1875 -49.3125 C 44.320312 -47.25 41.085938 -44.492188 37.484375 -41.046875 C 33.566406 -37.367188 29.578125 -33.148438 25.515625 -28.390625 C 21.460938 -23.640625 17.75 -18.738281 14.375 -13.6875 C 11 -7.625 8.582031 -3.484375 7.125 -1.265625 C 6.59375 -0.421875 5.90625 0 5.0625 0 Z M -0.453125 0 "/></g></g></g><g fill="#000000" fill-opacity="1"><g transform="translate(441.226243, 920.315538)"><g><path d="M 5.859375 0 L 5.859375 -1.5 C 7.617188 -2.03125 8.828125 -3.175781 9.484375 -4.9375 C 10.140625 -6.707031 10.46875 -9.925781 10.46875 -14.59375 L 10.46875 -65.875 C 10.46875 -70.625 10.140625 -73.859375 9.484375 -75.578125 C 8.828125 -77.304688 7.617188 -78.441406 5.859375 -78.984375 L 5.859375 -80.484375 L 24.484375 -80.484375 L 24.484375 -78.984375 C 22.722656 -78.441406 21.515625 -77.304688 20.859375 -75.578125 C 20.210938 -73.859375 19.890625 -70.625 19.890625 -65.875 L 19.890625 -43.578125 L 63.6875 -43.578125 L 63.6875 -65.875 C 63.6875 -70.625 63.359375 -73.859375 62.703125 -75.578125 C 62.054688 -77.304688 60.851562 -78.441406 59.09375 -78.984375 L 59.09375 -80.484375 L 77.71875 -80.484375 L 77.71875 -78.984375 C 75.957031 -78.441406 74.75 -77.304688 74.09375 -75.578125 C 73.445312 -73.859375 73.125 -70.625 73.125 -65.875 L 73.125 -14.59375 C 73.125 -9.925781 73.445312 -6.707031 74.09375 -4.9375 C 74.75 -3.175781 75.957031 -2.03125 77.71875 -1.5 L 77.71875 0 L 59.09375 0 L 59.09375 -1.5 C 60.851562 -2.03125 62.054688 -3.175781 62.703125 -4.9375 C 63.359375 -6.707031 63.6875 -9.925781 63.6875 -14.59375 L 63.6875 -41.734375 L 19.890625 -41.734375 L 19.890625 -14.59375 C 19.890625 -9.925781 20.210938 -6.707031 20.859375 -4.9375 C 21.515625 -3.175781 22.722656 -2.03125 24.484375 -1.5 L 24.484375 0 Z M 5.859375 0 "/></g></g></g><g fill="#000000" fill-opacity="1"><g transform="translate(516.181338, 920.315538)"><g><path d="M 34.265625 1.15625 C 30.585938 1.15625 26.960938 0.582031 23.390625 -0.5625 C 19.828125 -1.71875 16.585938 -3.484375 13.671875 -5.859375 C 10.765625 -8.234375 8.445312 -11.257812 6.71875 -14.9375 C 5 -18.625 4.140625 -22.957031 4.140625 -27.9375 C 4.140625 -33.914062 5.554688 -39.1875 8.390625 -43.75 C 11.222656 -48.3125 14.9375 -51.875 19.53125 -54.4375 C 24.132812 -57.007812 29.046875 -58.296875 34.265625 -58.296875 C 37.867188 -58.296875 41.429688 -57.738281 44.953125 -56.625 C 48.472656 -55.507812 51.691406 -53.765625 54.609375 -51.390625 C 57.523438 -49.015625 59.863281 -45.988281 61.625 -42.3125 C 63.382812 -38.632812 64.265625 -34.226562 64.265625 -29.09375 C 64.265625 -24.1875 63.363281 -19.851562 61.5625 -16.09375 C 59.757812 -12.34375 57.363281 -9.179688 54.375 -6.609375 C 51.382812 -4.046875 48.125 -2.109375 44.59375 -0.796875 C 41.070312 0.503906 37.628906 1.15625 34.265625 1.15625 Z M 12.984375 -34.484375 C 12.984375 -30.804688 13.554688 -27.03125 14.703125 -23.15625 C 15.859375 -19.289062 17.507812 -15.707031 19.65625 -12.40625 C 21.800781 -9.113281 24.390625 -6.429688 27.421875 -4.359375 C 30.453125 -2.296875 33.878906 -1.265625 37.703125 -1.265625 C 41.847656 -1.265625 45.222656 -2.238281 47.828125 -4.1875 C 50.429688 -6.144531 52.363281 -8.734375 53.625 -11.953125 C 54.894531 -15.171875 55.53125 -18.617188 55.53125 -22.296875 C 55.53125 -25.984375 54.914062 -29.835938 53.6875 -33.859375 C 52.457031 -37.878906 50.710938 -41.613281 48.453125 -45.0625 C 46.191406 -48.507812 43.488281 -51.269531 40.34375 -53.34375 C 37.207031 -55.414062 33.757812 -56.335938 30 -56.109375 C 26.09375 -55.953125 22.875 -54.875 20.34375 -52.875 C 17.820312 -50.882812 15.960938 -48.28125 14.765625 -45.0625 C 13.578125 -41.84375 12.984375 -38.316406 12.984375 -34.484375 Z M 12.984375 -34.484375 "/></g></g></g><g fill="#000000" fill-opacity="1"><g transform="translate(577.225971, 920.315538)"><g><path d="M 25.0625 1.15625 C 19.007812 1.15625 14.5625 -0.679688 11.71875 -4.359375 C 8.882812 -8.046875 7.46875 -13.1875 7.46875 -19.78125 L 7.46875 -41.046875 C 7.46875 -43.722656 7.296875 -45.734375 6.953125 -47.078125 C 6.609375 -48.421875 6.109375 -49.398438 5.453125 -50.015625 C 4.804688 -50.628906 3.945312 -51.164062 2.875 -51.625 L 2.875 -52.890625 L 15.40625 -58.40625 L 16.4375 -57.59375 L 16.4375 -21.84375 C 16.4375 -15.332031 17.429688 -10.539062 19.421875 -7.46875 C 21.421875 -4.40625 24.71875 -2.875 29.3125 -2.875 C 32.6875 -2.875 35.90625 -3.8125 38.96875 -5.6875 C 42.039062 -7.5625 44.878906 -9.878906 47.484375 -12.640625 L 47.484375 -41.046875 C 47.484375 -43.722656 47.3125 -45.734375 46.96875 -47.078125 C 46.625 -48.421875 46.125 -49.398438 45.46875 -50.015625 C 44.820312 -50.628906 43.960938 -51.164062 42.890625 -51.625 L 42.890625 -52.890625 L 55.421875 -58.40625 L 56.453125 -57.59375 L 56.453125 -14.59375 C 56.453125 -9.925781 56.773438 -6.707031 57.421875 -4.9375 C 58.078125 -3.175781 59.285156 -2.03125 61.046875 -1.5 L 61.046875 0 L 51.28125 0 C 50.050781 0 49.109375 -0.34375 48.453125 -1.03125 C 47.804688 -1.71875 47.484375 -2.90625 47.484375 -4.59375 L 47.484375 -10.46875 C 44.566406 -7.394531 41.171875 -4.6875 37.296875 -2.34375 C 33.429688 -0.0078125 29.351562 1.15625 25.0625 1.15625 Z M 25.0625 1.15625 "/></g></g></g><g fill="#000000" fill-opacity="1"><g transform="translate(634.131936, 920.315538)"><g><path d="M 25.984375 1.03125 C 21.378906 1.03125 17.21875 0.457031 13.5 -0.6875 C 9.789062 -1.84375 6.976562 -3.03125 5.0625 -4.25 L 4.03125 -18.171875 L 5.0625 -18.390625 C 7.507812 -12.953125 10.722656 -8.679688 14.703125 -5.578125 C 18.691406 -2.472656 23.296875 -0.882812 28.515625 -0.8125 C 32.117188 -0.8125 35.085938 -1.785156 37.421875 -3.734375 C 39.753906 -5.691406 40.921875 -8.28125 40.921875 -11.5 C 40.921875 -14.257812 40.132812 -16.476562 38.5625 -18.15625 C 37 -19.84375 34.929688 -21.222656 32.359375 -22.296875 C 29.796875 -23.367188 27.019531 -24.367188 24.03125 -25.296875 C 20.425781 -26.441406 17.207031 -27.644531 14.375 -28.90625 C 11.539062 -30.175781 9.316406 -31.84375 7.703125 -33.90625 C 6.085938 -35.976562 5.28125 -38.738281 5.28125 -42.1875 C 5.28125 -46.71875 7.097656 -50.535156 10.734375 -53.640625 C 14.378906 -56.742188 19.539062 -58.296875 26.21875 -58.296875 C 29.96875 -58.296875 33.429688 -57.96875 36.609375 -57.3125 C 39.796875 -56.65625 42.269531 -55.945312 44.03125 -55.1875 L 44.5 -43.453125 L 43.34375 -43.234375 C 41.5 -47.367188 38.851562 -50.660156 35.40625 -53.109375 C 31.957031 -55.566406 28.203125 -56.796875 24.140625 -56.796875 C 20.234375 -56.796875 17.109375 -55.910156 14.765625 -54.140625 C 12.429688 -52.378906 11.265625 -50.046875 11.265625 -47.140625 C 11.265625 -44.765625 12.007812 -42.769531 13.5 -41.15625 C 15 -39.550781 16.992188 -38.191406 19.484375 -37.078125 C 21.972656 -35.960938 24.710938 -34.910156 27.703125 -33.921875 C 29.929688 -33.222656 32.175781 -32.472656 34.4375 -31.671875 C 36.695312 -30.867188 38.765625 -29.875 40.640625 -28.6875 C 42.515625 -27.5 44.046875 -25.960938 45.234375 -24.078125 C 46.421875 -22.203125 47.015625 -19.8125 47.015625 -16.90625 C 47.015625 -13.6875 46.226562 -10.710938 44.65625 -7.984375 C 43.09375 -5.265625 40.738281 -3.097656 37.59375 -1.484375 C 34.445312 0.117188 30.578125 0.957031 25.984375 1.03125 Z M 25.984375 1.03125 "/></g></g></g><g fill="#000000" fill-opacity="1"><g transform="translate(677.127416, 920.315538)"><g><path d="M 31.390625 1.15625 C 28.242188 1.15625 25.0625 0.582031 21.84375 -0.5625 C 18.625 -1.71875 15.671875 -3.460938 12.984375 -5.796875 C 10.304688 -8.140625 8.160156 -11.070312 6.546875 -14.59375 C 4.941406 -18.125 4.140625 -22.265625 4.140625 -27.015625 C 4.140625 -33.296875 5.535156 -38.773438 8.328125 -43.453125 C 11.128906 -48.128906 14.828125 -51.769531 19.421875 -54.375 C 24.023438 -56.988281 29.007812 -58.296875 34.375 -58.296875 C 39.207031 -58.296875 43.328125 -57.351562 46.734375 -55.46875 C 50.140625 -53.59375 52.78125 -51.117188 54.65625 -48.046875 C 56.539062 -44.984375 57.519531 -41.613281 57.59375 -37.9375 L 12.640625 -37.9375 C 12.410156 -36.25 12.296875 -34.488281 12.296875 -32.65625 C 12.296875 -27.4375 13.3125 -22.816406 15.34375 -18.796875 C 17.375 -14.773438 20.25 -11.648438 23.96875 -9.421875 C 27.6875 -7.203125 32.035156 -6.09375 37.015625 -6.09375 C 41.460938 -6.09375 45.332031 -7.007812 48.625 -8.84375 C 51.925781 -10.6875 54.878906 -13.101562 57.484375 -16.09375 L 58.515625 -15.0625 C 56.597656 -12.375 54.296875 -9.785156 51.609375 -7.296875 C 48.929688 -4.804688 45.925781 -2.773438 42.59375 -1.203125 C 39.257812 0.367188 35.523438 1.15625 31.390625 1.15625 Z M 12.984375 -39.4375 L 48.40625 -39.4375 C 48.019531 -42.039062 47.078125 -44.625 45.578125 -47.1875 C 44.085938 -49.757812 42.097656 -51.90625 39.609375 -53.625 C 37.117188 -55.351562 34.109375 -56.21875 30.578125 -56.21875 C 25.671875 -56.289062 21.742188 -54.71875 18.796875 -51.5 C 15.847656 -48.28125 13.910156 -44.257812 12.984375 -39.4375 Z M 12.984375 -39.4375 "/></g></g></g><g fill="#000000" fill-opacity="1"><g transform="translate(505.752967, 522.411126)"><g><path d="M 1.609375 -9.59375 C 1.609375 -12.570312 2.09375 -14.894531 3.0625 -16.5625 C 4.03125 -18.238281 5.726562 -19.078125 8.15625 -19.078125 C 10.5625 -19.078125 12.25 -18.238281 13.21875 -16.5625 C 14.195312 -14.894531 14.6875 -12.570312 14.6875 -9.59375 C 14.6875 -6.5625 14.195312 -4.203125 13.21875 -2.515625 C 12.25 -0.835938 10.5625 0 8.15625 0 C 5.726562 0 4.03125 -0.835938 3.0625 -2.515625 C 2.09375 -4.203125 1.609375 -6.5625 1.609375 -9.59375 Z M 12.34375 -9.59375 C 12.34375 -11.09375 12.242188 -12.367188 12.046875 -13.421875 C 11.847656 -14.472656 11.441406 -15.316406 10.828125 -15.953125 C 10.210938 -16.597656 9.320312 -16.921875 8.15625 -16.921875 C 6.976562 -16.921875 6.082031 -16.597656 5.46875 -15.953125 C 4.851562 -15.316406 4.445312 -14.472656 4.25 -13.421875 C 4.050781 -12.367188 3.953125 -11.09375 3.953125 -9.59375 C 3.953125 -8.03125 4.050781 -6.71875 4.25 -5.65625 C 4.445312 -4.601562 4.851562 -3.753906 5.46875 -3.109375 C 6.082031 -2.472656 6.976562 -2.15625 8.15625 -2.15625 C 9.320312 -2.15625 10.210938 -2.472656 10.828125 -3.109375 C 11.441406 -3.753906 11.847656 -4.601562 12.046875 -5.65625 C 12.242188 -6.71875 12.34375 -8.03125 12.34375 -9.59375 Z M 12.34375 -9.59375 "/></g></g></g><g fill="#000000" fill-opacity="1"><g transform="translate(522.068018, 522.411126)"><g><path d="M 13.171875 -16.9375 L 5.953125 0 L 3.5625 0 L 10.890625 -16.703125 L 0.859375 -16.703125 L 0.859375 -18.734375 L 13.171875 -18.734375 Z M 13.171875 -16.9375 "/></g></g></g><g fill="#000000" fill-opacity="1"><g transform="translate(536.252762, 522.411126)"><g/></g></g><g fill="#000000" fill-opacity="1"><g transform="translate(543.189262, 522.411126)"><g><path d="M 7.640625 -18.109375 C 9.617188 -18.109375 11.328125 -17.738281 12.765625 -17 C 14.210938 -16.269531 15.320312 -15.21875 16.09375 -13.84375 C 16.863281 -12.476562 17.25 -10.867188 17.25 -9.015625 C 17.25 -7.160156 16.863281 -5.550781 16.09375 -4.1875 C 15.320312 -2.832031 14.210938 -1.796875 12.765625 -1.078125 C 11.328125 -0.359375 9.617188 0 7.640625 0 L 2 0 L 2 -18.109375 Z M 7.640625 -1.953125 C 9.972656 -1.953125 11.753906 -2.570312 12.984375 -3.8125 C 14.222656 -5.050781 14.84375 -6.785156 14.84375 -9.015625 C 14.84375 -11.265625 14.222656 -13.019531 12.984375 -14.28125 C 11.742188 -15.550781 9.960938 -16.1875 7.640625 -16.1875 L 4.359375 -16.1875 L 4.359375 -1.953125 Z M 7.640625 -1.953125 "/></g></g></g><g fill="#000000" fill-opacity="1"><g transform="translate(561.55669, 522.411126)"><g><path d="M 4.359375 -16.1875 L 4.359375 -10.140625 L 10.96875 -10.140625 L 10.96875 -8.1875 L 4.359375 -8.1875 L 4.359375 -1.953125 L 11.75 -1.953125 L 11.75 0 L 2 0 L 2 -18.140625 L 11.75 -18.140625 L 11.75 -16.1875 Z M 4.359375 -16.1875 "/></g></g></g><g fill="#000000" fill-opacity="1"><g transform="translate(574.884111, 522.411126)"><g><path d="M 1.125 -9.0625 C 1.125 -10.832031 1.519531 -12.421875 2.3125 -13.828125 C 3.113281 -15.242188 4.203125 -16.347656 5.578125 -17.140625 C 6.953125 -17.941406 8.476562 -18.34375 10.15625 -18.34375 C 12.132812 -18.34375 13.859375 -17.863281 15.328125 -16.90625 C 16.804688 -15.957031 17.878906 -14.609375 18.546875 -12.859375 L 15.71875 -12.859375 C 15.21875 -13.953125 14.492188 -14.789062 13.546875 -15.375 C 12.609375 -15.96875 11.476562 -16.265625 10.15625 -16.265625 C 8.894531 -16.265625 7.757812 -15.96875 6.75 -15.375 C 5.75 -14.789062 4.960938 -13.957031 4.390625 -12.875 C 3.816406 -11.789062 3.53125 -10.519531 3.53125 -9.0625 C 3.53125 -7.625 3.816406 -6.363281 4.390625 -5.28125 C 4.960938 -4.195312 5.75 -3.359375 6.75 -2.765625 C 7.757812 -2.179688 8.894531 -1.890625 10.15625 -1.890625 C 11.476562 -1.890625 12.609375 -2.179688 13.546875 -2.765625 C 14.492188 -3.347656 15.21875 -4.1875 15.71875 -5.28125 L 18.546875 -5.28125 C 17.878906 -3.539062 16.804688 -2.195312 15.328125 -1.25 C 13.859375 -0.3125 12.132812 0.15625 10.15625 0.15625 C 8.476562 0.15625 6.953125 -0.234375 5.578125 -1.015625 C 4.203125 -1.804688 3.113281 -2.90625 2.3125 -4.3125 C 1.519531 -5.71875 1.125 -7.300781 1.125 -9.0625 Z M 1.125 -9.0625 "/></g></g></g><g fill="#000000" fill-opacity="1"><g transform="translate(594.940195, 522.411126)"><g><path d="M 4.359375 -16.1875 L 4.359375 -10.140625 L 10.96875 -10.140625 L 10.96875 -8.1875 L 4.359375 -8.1875 L 4.359375 -1.953125 L 11.75 -1.953125 L 11.75 0 L 2 0 L 2 -18.140625 L 11.75 -18.140625 L 11.75 -16.1875 Z M 4.359375 -16.1875 "/></g></g></g><g fill="#000000" fill-opacity="1"><g transform="translate(608.267616, 522.411126)"><g><path d="M 20.375 -17.984375 L 20.375 0 L 18 0 L 18 -13.40625 L 12.03125 0 L 10.375 0 L 4.359375 -13.4375 L 4.359375 0 L 2 0 L 2 -17.984375 L 4.546875 -17.984375 L 11.203125 -3.125 L 17.84375 -17.984375 Z M 20.375 -17.984375 "/></g></g></g><g fill="#000000" fill-opacity="1"><g transform="translate(630.635868, 522.411126)"><g><path d="M 11.0625 -9.328125 C 11.726562 -9.222656 12.332031 -8.953125 12.875 -8.515625 C 13.414062 -8.085938 13.847656 -7.550781 14.171875 -6.90625 C 14.492188 -6.269531 14.65625 -5.585938 14.65625 -4.859375 C 14.65625 -3.941406 14.421875 -3.113281 13.953125 -2.375 C 13.484375 -1.632812 12.800781 -1.050781 11.90625 -0.625 C 11.019531 -0.207031 9.96875 0 8.75 0 L 2 0 L 2 -18.109375 L 8.5 -18.109375 C 9.726562 -18.109375 10.773438 -17.90625 11.640625 -17.5 C 12.503906 -17.09375 13.148438 -16.539062 13.578125 -15.84375 C 14.015625 -15.15625 14.234375 -14.378906 14.234375 -13.515625 C 14.234375 -12.441406 13.941406 -11.550781 13.359375 -10.84375 C 12.785156 -10.144531 12.019531 -9.640625 11.0625 -9.328125 Z M 4.359375 -10.296875 L 8.34375 -10.296875 C 9.445312 -10.296875 10.300781 -10.550781 10.90625 -11.0625 C 11.519531 -11.582031 11.828125 -12.300781 11.828125 -13.21875 C 11.828125 -14.144531 11.519531 -14.863281 10.90625 -15.375 C 10.300781 -15.894531 9.425781 -16.15625 8.28125 -16.15625 L 4.359375 -16.15625 Z M 8.546875 -1.953125 C 9.722656 -1.953125 10.640625 -2.226562 11.296875 -2.78125 C 11.960938 -3.332031 12.296875 -4.101562 12.296875 -5.09375 C 12.296875 -6.09375 11.945312 -6.882812 11.25 -7.46875 C 10.5625 -8.050781 9.632812 -8.34375 8.46875 -8.34375 L 4.359375 -8.34375 L 4.359375 -1.953125 Z M 8.546875 -1.953125 "/></g></g></g><g fill="#000000" fill-opacity="1"><g transform="translate(646.561234, 522.411126)"><g><path d="M 4.359375 -16.1875 L 4.359375 -10.140625 L 10.96875 -10.140625 L 10.96875 -8.1875 L 4.359375 -8.1875 L 4.359375 -1.953125 L 11.75 -1.953125 L 11.75 0 L 2 0 L 2 -18.140625 L 11.75 -18.140625 L 11.75 -16.1875 Z M 4.359375 -16.1875 "/></g></g></g><g fill="#000000" fill-opacity="1"><g transform="translate(659.888654, 522.411126)"><g><path d="M 11.53125 0 L 7.21875 -7.40625 L 4.359375 -7.40625 L 4.359375 0 L 2 0 L 2 -18.109375 L 7.84375 -18.109375 C 9.21875 -18.109375 10.375 -17.875 11.3125 -17.40625 C 12.257812 -16.9375 12.96875 -16.300781 13.4375 -15.5 C 13.90625 -14.707031 14.140625 -13.800781 14.140625 -12.78125 C 14.140625 -11.53125 13.78125 -10.429688 13.0625 -9.484375 C 12.34375 -8.535156 11.265625 -7.90625 9.828125 -7.59375 L 14.375 0 Z M 4.359375 -9.296875 L 7.84375 -9.296875 C 9.125 -9.296875 10.082031 -9.613281 10.71875 -10.25 C 11.363281 -10.882812 11.6875 -11.726562 11.6875 -12.78125 C 11.6875 -13.851562 11.367188 -14.679688 10.734375 -15.265625 C 10.109375 -15.859375 9.144531 -16.15625 7.84375 -16.15625 L 4.359375 -16.15625 Z M 4.359375 -9.296875 "/></g></g></g><g fill="#000000" fill-opacity="1"><g transform="translate(675.684126, 522.411126)"><g><path d="M 4.4375 -3.28125 L 1.53125 3.71875 L -0.046875 3.71875 L 1.84375 -3.28125 Z M 4.4375 -3.28125 "/></g></g></g><g fill="#000000" fill-opacity="1"><g transform="translate(680.828039, 522.411126)"><g/></g></g><g fill="#000000" fill-opacity="1"><g transform="translate(687.764539, 522.411126)"><g><path d="M 1.328125 -1.890625 C 3.523438 -3.660156 5.242188 -5.113281 6.484375 -6.25 C 7.734375 -7.382812 8.785156 -8.570312 9.640625 -9.8125 C 10.503906 -11.050781 10.9375 -12.265625 10.9375 -13.453125 C 10.9375 -14.585938 10.660156 -15.476562 10.109375 -16.125 C 9.566406 -16.769531 8.691406 -17.09375 7.484375 -17.09375 C 6.304688 -17.09375 5.390625 -16.722656 4.734375 -15.984375 C 4.085938 -15.253906 3.738281 -14.273438 3.6875 -13.046875 L 1.40625 -13.046875 C 1.46875 -14.984375 2.050781 -16.476562 3.15625 -17.53125 C 4.269531 -18.59375 5.703125 -19.125 7.453125 -19.125 C 9.242188 -19.125 10.660156 -18.628906 11.703125 -17.640625 C 12.753906 -16.648438 13.28125 -15.289062 13.28125 -13.5625 C 13.28125 -12.125 12.847656 -10.722656 11.984375 -9.359375 C 11.128906 -8.003906 10.15625 -6.8125 9.0625 -5.78125 C 7.976562 -4.75 6.585938 -3.550781 4.890625 -2.1875 L 13.828125 -2.1875 L 13.828125 -0.203125 L 1.328125 -0.203125 Z M 1.328125 -1.890625 "/></g></g></g><g fill="#000000" fill-opacity="1"><g transform="translate(702.702676, 522.411126)"><g><path d="M 1.609375 -9.59375 C 1.609375 -12.570312 2.09375 -14.894531 3.0625 -16.5625 C 4.03125 -18.238281 5.726562 -19.078125 8.15625 -19.078125 C 10.5625 -19.078125 12.25 -18.238281 13.21875 -16.5625 C 14.195312 -14.894531 14.6875 -12.570312 14.6875 -9.59375 C 14.6875 -6.5625 14.195312 -4.203125 13.21875 -2.515625 C 12.25 -0.835938 10.5625 0 8.15625 0 C 5.726562 0 4.03125 -0.835938 3.0625 -2.515625 C 2.09375 -4.203125 1.609375 -6.5625 1.609375 -9.59375 Z M 12.34375 -9.59375 C 12.34375 -11.09375 12.242188 -12.367188 12.046875 -13.421875 C 11.847656 -14.472656 11.441406 -15.316406 10.828125 -15.953125 C 10.210938 -16.597656 9.320312 -16.921875 8.15625 -16.921875 C 6.976562 -16.921875 6.082031 -16.597656 5.46875 -15.953125 C 4.851562 -15.316406 4.445312 -14.472656 4.25 -13.421875 C 4.050781 -12.367188 3.953125 -11.09375 3.953125 -9.59375 C 3.953125 -8.03125 4.050781 -6.71875 4.25 -5.65625 C 4.445312 -4.601562 4.851562 -3.753906 5.46875 -3.109375 C 6.082031 -2.472656 6.976562 -2.15625 8.15625 -2.15625 C 9.320312 -2.15625 10.210938 -2.472656 10.828125 -3.109375 C 11.441406 -3.753906 11.847656 -4.601562 12.046875 -5.65625 C 12.242188 -6.71875 12.34375 -8.03125 12.34375 -9.59375 Z M 12.34375 -9.59375 "/></g></g></g><g fill="#000000" fill-opacity="1"><g transform="translate(719.017738, 522.411126)"><g><path d="M 1.328125 -1.890625 C 3.523438 -3.660156 5.242188 -5.113281 6.484375 -6.25 C 7.734375 -7.382812 8.785156 -8.570312 9.640625 -9.8125 C 10.503906 -11.050781 10.9375 -12.265625 10.9375 -13.453125 C 10.9375 -14.585938 10.660156 -15.476562 10.109375 -16.125 C 9.566406 -16.769531 8.691406 -17.09375 7.484375 -17.09375 C 6.304688 -17.09375 5.390625 -16.722656 4.734375 -15.984375 C 4.085938 -15.253906 3.738281 -14.273438 3.6875 -13.046875 L 1.40625 -13.046875 C 1.46875 -14.984375 2.050781 -16.476562 3.15625 -17.53125 C 4.269531 -18.59375 5.703125 -19.125 7.453125 -19.125 C 9.242188 -19.125 10.660156 -18.628906 11.703125 -17.640625 C 12.753906 -16.648438 13.28125 -15.289062 13.28125 -13.5625 C 13.28125 -12.125 12.847656 -10.722656 11.984375 -9.359375 C 11.128906 -8.003906 10.15625 -6.8125 9.0625 -5.78125 C 7.976562 -4.75 6.585938 -3.550781 4.890625 -2.1875 L 13.828125 -2.1875 L 13.828125 -0.203125 L 1.328125 -0.203125 Z M 1.328125 -1.890625 "/></g></g></g><g fill="#000000" fill-opacity="1"><g transform="translate(733.955886, 522.411126)"><g><path d="M 12.078125 -14.3125 C 11.703125 -16.238281 10.515625 -17.203125 8.515625 -17.203125 C 6.972656 -17.203125 5.820312 -16.609375 5.0625 -15.421875 C 4.300781 -14.234375 3.929688 -12.28125 3.953125 -9.5625 C 4.347656 -10.457031 5.007812 -11.160156 5.9375 -11.671875 C 6.863281 -12.191406 7.898438 -12.453125 9.046875 -12.453125 C 10.828125 -12.453125 12.25 -11.894531 13.3125 -10.78125 C 14.382812 -9.675781 14.921875 -8.144531 14.921875 -6.1875 C 14.921875 -5.007812 14.6875 -3.953125 14.21875 -3.015625 C 13.757812 -2.078125 13.066406 -1.332031 12.140625 -0.78125 C 11.210938 -0.226562 10.09375 0.046875 8.78125 0.046875 C 7 0.046875 5.601562 -0.347656 4.59375 -1.140625 C 3.59375 -1.941406 2.890625 -3.039062 2.484375 -4.4375 C 2.085938 -5.84375 1.890625 -7.578125 1.890625 -9.640625 C 1.890625 -15.992188 4.109375 -19.171875 8.546875 -19.171875 C 10.242188 -19.171875 11.578125 -18.710938 12.546875 -17.796875 C 13.515625 -16.878906 14.085938 -15.71875 14.265625 -14.3125 Z M 8.546875 -10.453125 C 7.804688 -10.453125 7.101562 -10.296875 6.4375 -9.984375 C 5.78125 -9.679688 5.25 -9.222656 4.84375 -8.609375 C 4.4375 -7.992188 4.234375 -7.242188 4.234375 -6.359375 C 4.234375 -5.046875 4.613281 -3.976562 5.375 -3.15625 C 6.132812 -2.332031 7.226562 -1.921875 8.65625 -1.921875 C 9.863281 -1.921875 10.828125 -2.296875 11.546875 -3.046875 C 12.265625 -3.804688 12.625 -4.828125 12.625 -6.109375 C 12.625 -7.460938 12.273438 -8.523438 11.578125 -9.296875 C 10.890625 -10.066406 9.878906 -10.453125 8.546875 -10.453125 Z M 8.546875 -10.453125 "/></g></g></g><g fill="#000000" fill-opacity="1"><g transform="translate(540.435056, 550.897057)"><g><path d="M 4.65625 -5.046875 C 4.820312 -4.054688 5.222656 -3.289062 5.859375 -2.75 C 6.492188 -2.21875 7.347656 -1.953125 8.421875 -1.953125 C 9.859375 -1.953125 10.914062 -2.515625 11.59375 -3.640625 C 12.28125 -4.765625 12.609375 -6.660156 12.578125 -9.328125 C 12.210938 -8.546875 11.601562 -7.929688 10.75 -7.484375 C 9.90625 -7.046875 8.960938 -6.828125 7.921875 -6.828125 C 6.765625 -6.828125 5.726562 -7.066406 4.8125 -7.546875 C 3.90625 -8.023438 3.191406 -8.722656 2.671875 -9.640625 C 2.148438 -10.554688 1.890625 -11.664062 1.890625 -12.96875 C 1.890625 -14.820312 2.425781 -16.316406 3.5 -17.453125 C 4.582031 -18.585938 6.109375 -19.15625 8.078125 -19.15625 C 10.503906 -19.15625 12.207031 -18.363281 13.1875 -16.78125 C 14.164062 -15.207031 14.65625 -12.863281 14.65625 -9.75 C 14.65625 -7.5625 14.457031 -5.753906 14.0625 -4.328125 C 13.675781 -2.910156 13.019531 -1.828125 12.09375 -1.078125 C 11.164062 -0.335938 9.894531 0.03125 8.28125 0.03125 C 6.519531 0.03125 5.144531 -0.441406 4.15625 -1.390625 C 3.164062 -2.347656 2.601562 -3.566406 2.46875 -5.046875 Z M 8.3125 -8.828125 C 9.476562 -8.828125 10.429688 -9.1875 11.171875 -9.90625 C 11.921875 -10.625 12.296875 -11.601562 12.296875 -12.84375 C 12.296875 -14.132812 11.929688 -15.175781 11.203125 -15.96875 C 10.472656 -16.769531 9.453125 -17.171875 8.140625 -17.171875 C 6.921875 -17.171875 5.953125 -16.789062 5.234375 -16.03125 C 4.515625 -15.269531 4.15625 -14.265625 4.15625 -13.015625 C 4.15625 -11.753906 4.507812 -10.738281 5.21875 -9.96875 C 5.925781 -9.207031 6.957031 -8.828125 8.3125 -8.828125 Z M 8.3125 -8.828125 "/></g></g></g><g fill="#000000" fill-opacity="1"><g transform="translate(556.802072, 550.897057)"><g><path d="M 2.75 0.15625 C 2.300781 0.15625 1.921875 0 1.609375 -0.3125 C 1.296875 -0.625 1.140625 -1.003906 1.140625 -1.453125 C 1.140625 -1.898438 1.296875 -2.28125 1.609375 -2.59375 C 1.921875 -2.90625 2.300781 -3.0625 2.75 -3.0625 C 3.1875 -3.0625 3.554688 -2.90625 3.859375 -2.59375 C 4.160156 -2.28125 4.3125 -1.898438 4.3125 -1.453125 C 4.3125 -1.003906 4.160156 -0.625 3.859375 -0.3125 C 3.554688 0 3.1875 0.15625 2.75 0.15625 Z M 2.75 -10.96875 C 2.300781 -10.96875 1.921875 -11.125 1.609375 -11.4375 C 1.296875 -11.75 1.140625 -12.128906 1.140625 -12.578125 C 1.140625 -13.023438 1.296875 -13.40625 1.609375 -13.71875 C 1.921875 -14.03125 2.300781 -14.1875 2.75 -14.1875 C 3.1875 -14.1875 3.554688 -14.03125 3.859375 -13.71875 C 4.160156 -13.40625 4.3125 -13.023438 4.3125 -12.578125 C 4.3125 -12.128906 4.160156 -11.75 3.859375 -11.4375 C 3.554688 -11.125 3.1875 -10.96875 2.75 -10.96875 Z M 2.75 -10.96875 "/></g></g></g><g fill="#000000" fill-opacity="1"><g transform="translate(562.335682, 550.897057)"><g><path d="M 1.609375 -9.59375 C 1.609375 -12.570312 2.09375 -14.894531 3.0625 -16.5625 C 4.03125 -18.238281 5.726562 -19.078125 8.15625 -19.078125 C 10.5625 -19.078125 12.25 -18.238281 13.21875 -16.5625 C 14.195312 -14.894531 14.6875 -12.570312 14.6875 -9.59375 C 14.6875 -6.5625 14.195312 -4.203125 13.21875 -2.515625 C 12.25 -0.835938 10.5625 0 8.15625 0 C 5.726562 0 4.03125 -0.835938 3.0625 -2.515625 C 2.09375 -4.203125 1.609375 -6.5625 1.609375 -9.59375 Z M 12.34375 -9.59375 C 12.34375 -11.09375 12.242188 -12.367188 12.046875 -13.421875 C 11.847656 -14.472656 11.441406 -15.316406 10.828125 -15.953125 C 10.210938 -16.597656 9.320312 -16.921875 8.15625 -16.921875 C 6.976562 -16.921875 6.082031 -16.597656 5.46875 -15.953125 C 4.851562 -15.316406 4.445312 -14.472656 4.25 -13.421875 C 4.050781 -12.367188 3.953125 -11.09375 3.953125 -9.59375 C 3.953125 -8.03125 4.050781 -6.71875 4.25 -5.65625 C 4.445312 -4.601562 4.851562 -3.753906 5.46875 -3.109375 C 6.082031 -2.472656 6.976562 -2.15625 8.15625 -2.15625 C 9.320312 -2.15625 10.210938 -2.472656 10.828125 -3.109375 C 11.441406 -3.753906 11.847656 -4.601562 12.046875 -5.65625 C 12.242188 -6.71875 12.34375 -8.03125 12.34375 -9.59375 Z M 12.34375 -9.59375 "/></g></g></g><g fill="#000000" fill-opacity="1"><g transform="translate(578.650733, 550.897057)"><g><path d="M 1.609375 -9.59375 C 1.609375 -12.570312 2.09375 -14.894531 3.0625 -16.5625 C 4.03125 -18.238281 5.726562 -19.078125 8.15625 -19.078125 C 10.5625 -19.078125 12.25 -18.238281 13.21875 -16.5625 C 14.195312 -14.894531 14.6875 -12.570312 14.6875 -9.59375 C 14.6875 -6.5625 14.195312 -4.203125 13.21875 -2.515625 C 12.25 -0.835938 10.5625 0 8.15625 0 C 5.726562 0 4.03125 -0.835938 3.0625 -2.515625 C 2.09375 -4.203125 1.609375 -6.5625 1.609375 -9.59375 Z M 12.34375 -9.59375 C 12.34375 -11.09375 12.242188 -12.367188 12.046875 -13.421875 C 11.847656 -14.472656 11.441406 -15.316406 10.828125 -15.953125 C 10.210938 -16.597656 9.320312 -16.921875 8.15625 -16.921875 C 6.976562 -16.921875 6.082031 -16.597656 5.46875 -15.953125 C 4.851562 -15.316406 4.445312 -14.472656 4.25 -13.421875 C 4.050781 -12.367188 3.953125 -11.09375 3.953125 -9.59375 C 3.953125 -8.03125 4.050781 -6.71875 4.25 -5.65625 C 4.445312 -4.601562 4.851562 -3.753906 5.46875 -3.109375 C 6.082031 -2.472656 6.976562 -2.15625 8.15625 -2.15625 C 9.320312 -2.15625 10.210938 -2.472656 10.828125 -3.109375 C 11.441406 -3.753906 11.847656 -4.601562 12.046875 -5.65625 C 12.242188 -6.71875 12.34375 -8.03125 12.34375 -9.59375 Z M 12.34375 -9.59375 "/></g></g></g><g fill="#000000" fill-opacity="1"><g transform="translate(594.965783, 550.897057)"><g><path d="M 12.703125 -4.03125 L 4.8125 -4.03125 L 3.359375 0 L 0.859375 0 L 7.40625 -18 L 10.140625 -18 L 16.65625 0 L 14.15625 0 Z M 12.03125 -5.953125 L 8.75 -15.09375 L 5.484375 -5.953125 Z M 12.03125 -5.953125 "/></g></g></g><g fill="#000000" fill-opacity="1"><g transform="translate(612.475888, 550.897057)"><g><path d="M 20.375 -17.984375 L 20.375 0 L 18 0 L 18 -13.40625 L 12.03125 0 L 10.375 0 L 4.359375 -13.4375 L 4.359375 0 L 2 0 L 2 -17.984375 L 4.546875 -17.984375 L 11.203125 -3.125 L 17.84375 -17.984375 Z M 20.375 -17.984375 "/></g></g></g><g fill="#000000" fill-opacity="1"><g transform="translate(634.84414, 550.897057)"><g><path d="M 11.875 -10.53125 L 11.875 -8.515625 L 1.5 -8.515625 L 1.5 -10.53125 Z M 11.875 -10.53125 "/></g></g></g><g fill="#000000" fill-opacity="1"><g transform="translate(649.158779, 550.897057)"><g><path d="M 0.984375 -16.625 L 0.984375 -18.78125 L 5.875 -18.78125 L 5.875 0 L 3.484375 0 L 3.484375 -16.625 Z M 0.984375 -16.625 "/></g></g></g><g fill="#000000" fill-opacity="1"><g transform="translate(657.472182, 550.897057)"><g><path d="M 1.328125 -1.890625 C 3.523438 -3.660156 5.242188 -5.113281 6.484375 -6.25 C 7.734375 -7.382812 8.785156 -8.570312 9.640625 -9.8125 C 10.503906 -11.050781 10.9375 -12.265625 10.9375 -13.453125 C 10.9375 -14.585938 10.660156 -15.476562 10.109375 -16.125 C 9.566406 -16.769531 8.691406 -17.09375 7.484375 -17.09375 C 6.304688 -17.09375 5.390625 -16.722656 4.734375 -15.984375 C 4.085938 -15.253906 3.738281 -14.273438 3.6875 -13.046875 L 1.40625 -13.046875 C 1.46875 -14.984375 2.050781 -16.476562 3.15625 -17.53125 C 4.269531 -18.59375 5.703125 -19.125 7.453125 -19.125 C 9.242188 -19.125 10.660156 -18.628906 11.703125 -17.640625 C 12.753906 -16.648438 13.28125 -15.289062 13.28125 -13.5625 C 13.28125 -12.125 12.847656 -10.722656 11.984375 -9.359375 C 11.128906 -8.003906 10.15625 -6.8125 9.0625 -5.78125 C 7.976562 -4.75 6.585938 -3.550781 4.890625 -2.1875 L 13.828125 -2.1875 L 13.828125 -0.203125 L 1.328125 -0.203125 Z M 1.328125 -1.890625 "/></g></g></g><g fill="#000000" fill-opacity="1"><g transform="translate(672.41033, 550.897057)"><g><path d="M 2.75 0.15625 C 2.300781 0.15625 1.921875 0 1.609375 -0.3125 C 1.296875 -0.625 1.140625 -1.003906 1.140625 -1.453125 C 1.140625 -1.898438 1.296875 -2.28125 1.609375 -2.59375 C 1.921875 -2.90625 2.300781 -3.0625 2.75 -3.0625 C 3.1875 -3.0625 3.554688 -2.90625 3.859375 -2.59375 C 4.160156 -2.28125 4.3125 -1.898438 4.3125 -1.453125 C 4.3125 -1.003906 4.160156 -0.625 3.859375 -0.3125 C 3.554688 0 3.1875 0.15625 2.75 0.15625 Z M 2.75 -10.96875 C 2.300781 -10.96875 1.921875 -11.125 1.609375 -11.4375 C 1.296875 -11.75 1.140625 -12.128906 1.140625 -12.578125 C 1.140625 -13.023438 1.296875 -13.40625 1.609375 -13.71875 C 1.921875 -14.03125 2.300781 -14.1875 2.75 -14.1875 C 3.1875 -14.1875 3.554688 -14.03125 3.859375 -13.71875 C 4.160156 -13.40625 4.3125 -13.023438 4.3125 -12.578125 C 4.3125 -12.128906 4.160156 -11.75 3.859375 -11.4375 C 3.554688 -11.125 3.1875 -10.96875 2.75 -10.96875 Z M 2.75 -10.96875 "/></g></g></g><g fill="#000000" fill-opacity="1"><g transform="translate(677.943939, 550.897057)"><g><path d="M 1.609375 -9.59375 C 1.609375 -12.570312 2.09375 -14.894531 3.0625 -16.5625 C 4.03125 -18.238281 5.726562 -19.078125 8.15625 -19.078125 C 10.5625 -19.078125 12.25 -18.238281 13.21875 -16.5625 C 14.195312 -14.894531 14.6875 -12.570312 14.6875 -9.59375 C 14.6875 -6.5625 14.195312 -4.203125 13.21875 -2.515625 C 12.25 -0.835938 10.5625 0 8.15625 0 C 5.726562 0 4.03125 -0.835938 3.0625 -2.515625 C 2.09375 -4.203125 1.609375 -6.5625 1.609375 -9.59375 Z M 12.34375 -9.59375 C 12.34375 -11.09375 12.242188 -12.367188 12.046875 -13.421875 C 11.847656 -14.472656 11.441406 -15.316406 10.828125 -15.953125 C 10.210938 -16.597656 9.320312 -16.921875 8.15625 -16.921875 C 6.976562 -16.921875 6.082031 -16.597656 5.46875 -15.953125 C 4.851562 -15.316406 4.445312 -14.472656 4.25 -13.421875 C 4.050781 -12.367188 3.953125 -11.09375 3.953125 -9.59375 C 3.953125 -8.03125 4.050781 -6.71875 4.25 -5.65625 C 4.445312 -4.601562 4.851562 -3.753906 5.46875 -3.109375 C 6.082031 -2.472656 6.976562 -2.15625 8.15625 -2.15625 C 9.320312 -2.15625 10.210938 -2.472656 10.828125 -3.109375 C 11.441406 -3.753906 11.847656 -4.601562 12.046875 -5.65625 C 12.242188 -6.71875 12.34375 -8.03125 12.34375 -9.59375 Z M 12.34375 -9.59375 "/></g></g></g><g fill="#000000" fill-opacity="1"><g transform="translate(694.25899, 550.897057)"><g><path d="M 1.609375 -9.59375 C 1.609375 -12.570312 2.09375 -14.894531 3.0625 -16.5625 C 4.03125 -18.238281 5.726562 -19.078125 8.15625 -19.078125 C 10.5625 -19.078125 12.25 -18.238281 13.21875 -16.5625 C 14.195312 -14.894531 14.6875 -12.570312 14.6875 -9.59375 C 14.6875 -6.5625 14.195312 -4.203125 13.21875 -2.515625 C 12.25 -0.835938 10.5625 0 8.15625 0 C 5.726562 0 4.03125 -0.835938 3.0625 -2.515625 C 2.09375 -4.203125 1.609375 -6.5625 1.609375 -9.59375 Z M 12.34375 -9.59375 C 12.34375 -11.09375 12.242188 -12.367188 12.046875 -13.421875 C 11.847656 -14.472656 11.441406 -15.316406 10.828125 -15.953125 C 10.210938 -16.597656 9.320312 -16.921875 8.15625 -16.921875 C 6.976562 -16.921875 6.082031 -16.597656 5.46875 -15.953125 C 4.851562 -15.316406 4.445312 -14.472656 4.25 -13.421875 C 4.050781 -12.367188 3.953125 -11.09375 3.953125 -9.59375 C 3.953125 -8.03125 4.050781 -6.71875 4.25 -5.65625 C 4.445312 -4.601562 4.851562 -3.753906 5.46875 -3.109375 C 6.082031 -2.472656 6.976562 -2.15625 8.15625 -2.15625 C 9.320312 -2.15625 10.210938 -2.472656 10.828125 -3.109375 C 11.441406 -3.753906 11.847656 -4.601562 12.046875 -5.65625 C 12.242188 -6.71875 12.34375 -8.03125 12.34375 -9.59375 Z M 12.34375 -9.59375 "/></g></g></g><g fill="#000000" fill-opacity="1"><g transform="translate(710.574041, 550.897057)"><g><path d="M 12.703125 -4.03125 L 4.8125 -4.03125 L 3.359375 0 L 0.859375 0 L 7.40625 -18 L 10.140625 -18 L 16.65625 0 L 14.15625 0 Z M 12.03125 -5.953125 L 8.75 -15.09375 L 5.484375 -5.953125 Z M 12.03125 -5.953125 "/></g></g></g><g fill="#000000" fill-opacity="1"><g transform="translate(728.084145, 550.897057)"><g><path d="M 20.375 -17.984375 L 20.375 0 L 18 0 L 18 -13.40625 L 12.03125 0 L 10.375 0 L 4.359375 -13.4375 L 4.359375 0 L 2 0 L 2 -17.984375 L 4.546875 -17.984375 L 11.203125 -3.125 L 17.84375 -17.984375 Z M 20.375 -17.984375 "/></g></g></g></svg>