<svg xmlns="http://www.w3.org/2000/svg" xmlns:xlink="http://www.w3.org/1999/xlink" width="1080" height="1350" viewBox="0 0 1080 1350">
  <!-- Template 46 "Marina" - CC-authored 2-photo (2026-07-15). The crisp coastal professional: a flush
       DIPTYCH (two equal portrait photos), then an editorial facts band with asymmetric rows. Zero dead
       zones. All art colours are live @@COLOUR@@ tokens. -->

  <!-- the diptych -->
  <image x="0" y="64" width="536" height="836" xlink:href="@@PHOTO0@@" preserveAspectRatio="xMidYMid slice"/>
  <image x="544" y="64" width="536" height="836" xlink:href="@@PHOTO1@@" preserveAspectRatio="xMidYMid slice"/>
  <rect x="16" y="80" width="504" height="804" fill="none" stroke="@@COLOUR:accent@@" stroke-width="1.5"/>
  <rect x="560" y="80" width="504" height="804" fill="none" stroke="@@COLOUR:accent@@" stroke-width="1.5"/>

  <!-- masthead rule -->
  <rect x="0" y="62" width="1080" height="2" fill="@@COLOUR:accent@@"/>

  <!-- facts band rules -->
  <rect x="64" y="1102" width="952" height="2" fill="@@COLOUR:accent@@"/>
  <rect x="64" y="1298" width="952" height="1" fill="@@COLOUR:accent@@" fill-opacity="0.5"/>
  <path d="M 540 1322 l 7 7 l -7 7 l -7 -7 Z" fill="@@COLOUR:accent@@"/>

  <!-- per-fact line icons, row on the band's lower left -->
  <g stroke="@@COLOUR:icon@@" stroke-width="2.5" fill="none">
    <path d="M70 1180 L70 1156 L114 1156"/>
    <path d="M64 1184 L120 1184 L120 1172 A8 8 0 0 0 112 1164 L82 1164"/>
    <path d="M66 1184 L66 1192 M118 1184 L118 1192"/>
    <circle cx="75" cy="1161" r="4"/>
  </g>
  <g stroke="@@COLOUR:icon@@" stroke-width="2.5" fill="none">
    <path d="M240 1170 L284 1170 A4 4 0 0 1 288 1174 A16 16 0 0 1 272 1188 L252 1188 A16 16 0 0 1 236 1174 A4 4 0 0 1 240 1170 Z"/>
    <path d="M244 1170 L244 1156 A7 7 0 0 1 258 1156"/>
    <path d="M248 1188 L246 1194 M276 1188 L278 1194"/>
  </g>
  <g stroke="@@COLOUR:icon@@" stroke-width="2.5" fill="none">
    <rect x="404" y="1156" width="40" height="36" stroke-dasharray="6 4"/>
    <path d="M412 1184 L436 1164 M412 1172 L412 1184 L424 1184 M436 1176 L436 1164 L424 1164"/>
  </g>
</svg>